<?xml version="1.0" encoding="utf-8" standalone="no"?>
<!DOCTYPE svg PUBLIC "-//W3C//DTD SVG 1.1//EN"
  "http://www.w3.org/Graphics/SVG/1.1/DTD/svg11.dtd">
<svg xmlns:xlink="http://www.w3.org/1999/xlink" width="1255.323569pt" height="693.8345pt" viewBox="0 0 1255.323569 693.8345" xmlns="http://www.w3.org/2000/svg" version="1.1">
 <metadata>
  <rdf:RDF xmlns:dc="http://purl.org/dc/elements/1.1/" xmlns:cc="http://creativecommons.org/ns#" xmlns:rdf="http://www.w3.org/1999/02/22-rdf-syntax-ns#">
   <cc:Work>
    <dc:type rdf:resource="http://purl.org/dc/dcmitype/StillImage"/>
    <dc:date>2023-12-15T09:12:30.820588</dc:date>
    <dc:format>image/svg+xml</dc:format>
    <dc:creator>
     <cc:Agent>
      <dc:title>Matplotlib v3.8.1, https://matplotlib.org/</dc:title>
     </cc:Agent>
    </dc:creator>
   </cc:Work>
  </rdf:RDF>
 </metadata>
 <defs>
  <style type="text/css">*{stroke-linejoin: round; stroke-linecap: butt}</style>
 </defs>
 <g id="figure_1">
  <g id="patch_1">
   <path d="M 0 693.8345 
L 1255.323569 693.8345 
L 1255.323569 0 
L 0 0 
z
" style="fill: #ffffff"/>
  </g>
  <g id="axes_1">
   <g id="patch_2">
    <path d="M 156.1025 605.952 
L 1238.6225 605.952 
L 1238.6225 7.2 
L 156.1025 7.2 
z
" style="fill: #ffffff"/>
   </g>
   <g id="PolyCollection_1">
    <path d="M 455.219868 605.952 
L 455.219868 519.461976 
L 469.463553 509.530335 
L 483.707237 498.848973 
L 497.950921 487.397803 
L 512.194605 475.192446 
L 526.438289 462.295727 
L 540.681974 448.825271 
L 554.925658 434.955359 
L 569.169342 420.911911 
L 583.413026 406.960383 
L 597.656711 393.387438 
L 611.900395 380.478223 
L 626.144079 368.491887 
L 640.387763 357.638299 
L 654.631447 348.058857 
L 668.875132 339.813684 
L 683.118816 332.876566 
L 697.3625 327.137775 
L 711.606184 322.41377 
L 725.849868 318.461756 
L 740.093553 314.996538 
L 754.337237 311.707019 
L 768.580921 308.270195 
L 782.824605 304.361407 
L 797.068289 299.660819 
L 811.311974 293.857269 
L 825.555658 286.651635 
L 839.799342 277.762311 
L 854.043026 266.935252 
L 868.286711 253.960264 
L 882.530395 238.693861 
L 896.774079 221.08737 
L 911.017763 201.217286 
L 925.261447 179.313591 
L 939.505132 155.780987 
L 953.748816 131.20818 
L 967.9925 106.361275 
L 982.236184 82.159151 
L 996.479868 59.630886 
L 1010.723553 39.85778 
L 1024.967237 23.904673 
L 1039.210921 12.746895 
L 1053.454605 7.2 
L 1067.698289 7.859275 
L 1081.941974 15.054985 
L 1096.185658 28.827558 
L 1110.429342 48.924713 
L 1124.673026 74.820166 
L 1138.916711 105.75142 
L 1153.160395 140.772415 
L 1167.404079 178.815699 
L 1181.647763 218.758365 
L 1195.891447 259.486174 
L 1195.891447 605.952 
L 1195.891447 605.952 
L 1181.647763 605.952 
L 1167.404079 605.952 
L 1153.160395 605.952 
L 1138.916711 605.952 
L 1124.673026 605.952 
L 1110.429342 605.952 
L 1096.185658 605.952 
L 1081.941974 605.952 
L 1067.698289 605.952 
L 1053.454605 605.952 
L 1039.210921 605.952 
L 1024.967237 605.952 
L 1010.723553 605.952 
L 996.479868 605.952 
L 982.236184 605.952 
L 967.9925 605.952 
L 953.748816 605.952 
L 939.505132 605.952 
L 925.261447 605.952 
L 911.017763 605.952 
L 896.774079 605.952 
L 882.530395 605.952 
L 868.286711 605.952 
L 854.043026 605.952 
L 839.799342 605.952 
L 825.555658 605.952 
L 811.311974 605.952 
L 797.068289 605.952 
L 782.824605 605.952 
L 768.580921 605.952 
L 754.337237 605.952 
L 740.093553 605.952 
L 725.849868 605.952 
L 711.606184 605.952 
L 697.3625 605.952 
L 683.118816 605.952 
L 668.875132 605.952 
L 654.631447 605.952 
L 640.387763 605.952 
L 626.144079 605.952 
L 611.900395 605.952 
L 597.656711 605.952 
L 583.413026 605.952 
L 569.169342 605.952 
L 554.925658 605.952 
L 540.681974 605.952 
L 526.438289 605.952 
L 512.194605 605.952 
L 497.950921 605.952 
L 483.707237 605.952 
L 469.463553 605.952 
L 455.219868 605.952 
z
" clip-path="url(#p39c5bdda73)" style="fill: #1f77b4; fill-opacity: 0.4"/>
   </g>
   <g id="PolyCollection_2">
    <path d="M 156.1025 605.952 
L 156.1025 568.866155 
L 170.346184 568.624338 
L 184.589868 568.65739 
L 198.833553 568.919961 
L 213.077237 569.350052 
L 227.320921 569.870385 
L 241.564605 570.390518 
L 255.808289 570.80962 
L 270.051974 571.019812 
L 284.295658 570.909939 
L 298.539342 570.369658 
L 312.783026 569.293675 
L 327.026711 567.586014 
L 341.270395 565.164148 
L 355.514079 561.962845 
L 369.757763 557.937571 
L 384.001447 553.067293 
L 398.245132 547.356503 
L 412.488816 540.836318 
L 426.7325 533.564519 
L 440.976184 525.624397 
L 455.219868 517.12236 
L 469.463553 508.184294 
L 483.707237 498.950725 
L 497.950921 489.570962 
L 512.194605 480.196433 
L 526.438289 470.973539 
L 540.681974 462.0364 
L 554.925658 453.499899 
L 569.169342 445.453457 
L 583.413026 437.955935 
L 597.656711 431.031999 
L 611.900395 424.670196 
L 626.144079 418.82288 
L 640.387763 413.407993 
L 654.631447 408.31259 
L 668.875132 403.397857 
L 683.118816 398.505317 
L 697.3625 393.463822 
L 711.606184 388.096932 
L 725.849868 382.230286 
L 740.093553 375.698636 
L 754.337237 368.352275 
L 768.580921 360.062701 
L 782.824605 350.727436 
L 797.068289 340.274026 
L 811.311974 328.66327 
L 825.555658 315.891805 
L 839.799342 301.994118 
L 854.043026 287.044053 
L 868.286711 271.155816 
L 882.530395 254.484394 
L 896.774079 237.225241 
L 911.017763 219.613027 
L 925.261447 201.919219 
L 939.505132 184.448246 
L 953.748816 167.532083 
L 967.9925 151.52315 
L 982.236184 136.785549 
L 996.479868 123.684795 
L 1010.723553 112.576376 
L 1024.967237 103.793569 
L 1039.210921 97.635083 
L 1053.454605 94.353176 
L 1067.698289 94.14289 
L 1081.941974 97.133065 
L 1096.185658 103.379677 
L 1110.429342 112.861947 
L 1124.673026 125.481502 
L 1138.916711 141.064696 
L 1153.160395 159.367998 
L 1167.404079 180.086198 
L 1181.647763 202.862993 
L 1195.891447 227.303413 
L 1210.135132 252.987441 
L 1224.378816 279.48414 
L 1238.6225 306.365601 
L 1238.6225 605.952 
L 1238.6225 605.952 
L 1224.378816 605.952 
L 1210.135132 605.952 
L 1195.891447 605.952 
L 1181.647763 605.952 
L 1167.404079 605.952 
L 1153.160395 605.952 
L 1138.916711 605.952 
L 1124.673026 605.952 
L 1110.429342 605.952 
L 1096.185658 605.952 
L 1081.941974 605.952 
L 1067.698289 605.952 
L 1053.454605 605.952 
L 1039.210921 605.952 
L 1024.967237 605.952 
L 1010.723553 605.952 
L 996.479868 605.952 
L 982.236184 605.952 
L 967.9925 605.952 
L 953.748816 605.952 
L 939.505132 605.952 
L 925.261447 605.952 
L 911.017763 605.952 
L 896.774079 605.952 
L 882.530395 605.952 
L 868.286711 605.952 
L 854.043026 605.952 
L 839.799342 605.952 
L 825.555658 605.952 
L 811.311974 605.952 
L 797.068289 605.952 
L 782.824605 605.952 
L 768.580921 605.952 
L 754.337237 605.952 
L 740.093553 605.952 
L 725.849868 605.952 
L 711.606184 605.952 
L 697.3625 605.952 
L 683.118816 605.952 
L 668.875132 605.952 
L 654.631447 605.952 
L 640.387763 605.952 
L 626.144079 605.952 
L 611.900395 605.952 
L 597.656711 605.952 
L 583.413026 605.952 
L 569.169342 605.952 
L 554.925658 605.952 
L 540.681974 605.952 
L 526.438289 605.952 
L 512.194605 605.952 
L 497.950921 605.952 
L 483.707237 605.952 
L 469.463553 605.952 
L 455.219868 605.952 
L 440.976184 605.952 
L 426.7325 605.952 
L 412.488816 605.952 
L 398.245132 605.952 
L 384.001447 605.952 
L 369.757763 605.952 
L 355.514079 605.952 
L 341.270395 605.952 
L 327.026711 605.952 
L 312.783026 605.952 
L 298.539342 605.952 
L 284.295658 605.952 
L 270.051974 605.952 
L 255.808289 605.952 
L 241.564605 605.952 
L 227.320921 605.952 
L 213.077237 605.952 
L 198.833553 605.952 
L 184.589868 605.952 
L 170.346184 605.952 
L 156.1025 605.952 
z
" clip-path="url(#p39c5bdda73)" style="fill: #ff7f0e; fill-opacity: 0.4"/>
   </g>
   <g id="PolyCollection_3">
    <path d="M 156.1025 605.952 
L 156.1025 556.47982 
L 170.346184 553.889539 
L 184.589868 551.336763 
L 198.833553 548.804698 
L 213.077237 546.270242 
L 227.320921 543.704701 
L 241.564605 541.074758 
L 255.808289 538.343655 
L 270.051974 535.472545 
L 284.295658 532.421957 
L 298.539342 529.153336 
L 312.783026 525.630603 
L 327.026711 521.821694 
L 341.270395 517.700037 
L 355.514079 513.245915 
L 369.757763 508.447677 
L 384.001447 503.302738 
L 398.245132 497.818313 
L 412.488816 492.011828 
L 426.7325 485.910952 
L 440.976184 479.553202 
L 455.219868 472.98508 
L 469.463553 466.26072 
L 483.707237 459.440063 
L 497.950921 452.586593 
L 512.194605 445.764687 
L 526.438289 439.036703 
L 540.681974 432.459905 
L 554.925658 426.0834 
L 569.169342 419.945211 
L 583.413026 414.069676 
L 597.656711 408.465304 
L 611.900395 403.123218 
L 626.144079 398.016302 
L 640.387763 393.0991 
L 654.631447 388.30852 
L 668.875132 383.565324 
L 683.118816 378.776384 
L 697.3625 373.837634 
L 711.606184 368.637636 
L 725.849868 363.061675 
L 740.093553 356.996262 
L 754.337237 350.33394 
L 768.580921 342.978275 
L 782.824605 334.848907 
L 797.068289 325.88652 
L 811.311974 316.057585 
L 825.555658 305.35871 
L 839.799342 293.820413 
L 854.043026 281.510116 
L 868.286711 268.534151 
L 882.530395 255.038571 
L 896.774079 241.20857 
L 911.017763 227.266355 
L 925.261447 213.467359 
L 939.505132 200.094773 
L 953.748816 187.452432 
L 967.9925 175.856224 
L 982.236184 165.624283 
L 996.479868 157.066303 
L 1010.723553 150.472447 
L 1024.967237 146.102327 
L 1039.210921 144.174623 
L 1053.454605 144.857868 
L 1067.698289 148.262908 
L 1081.941974 154.437468 
L 1096.185658 163.363152 
L 1110.429342 174.955065 
L 1124.673026 189.064115 
L 1138.916711 205.481885 
L 1153.160395 223.947838 
L 1167.404079 244.158469 
L 1181.647763 265.77794 
L 1195.891447 288.449641 
L 1195.891447 605.952 
L 1195.891447 605.952 
L 1181.647763 605.952 
L 1167.404079 605.952 
L 1153.160395 605.952 
L 1138.916711 605.952 
L 1124.673026 605.952 
L 1110.429342 605.952 
L 1096.185658 605.952 
L 1081.941974 605.952 
L 1067.698289 605.952 
L 1053.454605 605.952 
L 1039.210921 605.952 
L 1024.967237 605.952 
L 1010.723553 605.952 
L 996.479868 605.952 
L 982.236184 605.952 
L 967.9925 605.952 
L 953.748816 605.952 
L 939.505132 605.952 
L 925.261447 605.952 
L 911.017763 605.952 
L 896.774079 605.952 
L 882.530395 605.952 
L 868.286711 605.952 
L 854.043026 605.952 
L 839.799342 605.952 
L 825.555658 605.952 
L 811.311974 605.952 
L 797.068289 605.952 
L 782.824605 605.952 
L 768.580921 605.952 
L 754.337237 605.952 
L 740.093553 605.952 
L 725.849868 605.952 
L 711.606184 605.952 
L 697.3625 605.952 
L 683.118816 605.952 
L 668.875132 605.952 
L 654.631447 605.952 
L 640.387763 605.952 
L 626.144079 605.952 
L 611.900395 605.952 
L 597.656711 605.952 
L 583.413026 605.952 
L 569.169342 605.952 
L 554.925658 605.952 
L 540.681974 605.952 
L 526.438289 605.952 
L 512.194605 605.952 
L 497.950921 605.952 
L 483.707237 605.952 
L 469.463553 605.952 
L 455.219868 605.952 
L 440.976184 605.952 
L 426.7325 605.952 
L 412.488816 605.952 
L 398.245132 605.952 
L 384.001447 605.952 
L 369.757763 605.952 
L 355.514079 605.952 
L 341.270395 605.952 
L 327.026711 605.952 
L 312.783026 605.952 
L 298.539342 605.952 
L 284.295658 605.952 
L 270.051974 605.952 
L 255.808289 605.952 
L 241.564605 605.952 
L 227.320921 605.952 
L 213.077237 605.952 
L 198.833553 605.952 
L 184.589868 605.952 
L 170.346184 605.952 
L 156.1025 605.952 
z
" clip-path="url(#p39c5bdda73)" style="fill: #2ca02c; fill-opacity: 0.4"/>
   </g>
   <g id="matplotlib.axis_1">
    <g id="xtick_1">
     <g id="line2d_1">
      <defs>
       <path id="m03aa5ac77b" d="M 0 0 
L 0 3.5 
" style="stroke: #000000; stroke-width: 0.8"/>
      </defs>
      <g>
       <use xlink:href="#m03aa5ac77b" x="213.077237" y="605.952" style="stroke: #000000; stroke-width: 0.8"/>
      </g>
     </g>
     <g id="text_1">
      <!-- −90 -->
      <g transform="translate(175.088799 640.306375) scale(0.36 -0.36)">
       <defs>
        <path id="DejaVuSans-2212" d="M 678 2272 
L 4684 2272 
L 4684 1741 
L 678 1741 
L 678 2272 
z
" transform="scale(0.015625)"/>
        <path id="DejaVuSans-39" d="M 703 97 
L 703 672 
Q 941 559 1184 500 
Q 1428 441 1663 441 
Q 2288 441 2617 861 
Q 2947 1281 2994 2138 
Q 2813 1869 2534 1725 
Q 2256 1581 1919 1581 
Q 1219 1581 811 2004 
Q 403 2428 403 3163 
Q 403 3881 828 4315 
Q 1253 4750 1959 4750 
Q 2769 4750 3195 4129 
Q 3622 3509 3622 2328 
Q 3622 1225 3098 567 
Q 2575 -91 1691 -91 
Q 1453 -91 1209 -44 
Q 966 3 703 97 
z
M 1959 2075 
Q 2384 2075 2632 2365 
Q 2881 2656 2881 3163 
Q 2881 3666 2632 3958 
Q 2384 4250 1959 4250 
Q 1534 4250 1286 3958 
Q 1038 3666 1038 3163 
Q 1038 2656 1286 2365 
Q 1534 2075 1959 2075 
z
" transform="scale(0.015625)"/>
        <path id="DejaVuSans-30" d="M 2034 4250 
Q 1547 4250 1301 3770 
Q 1056 3291 1056 2328 
Q 1056 1369 1301 889 
Q 1547 409 2034 409 
Q 2525 409 2770 889 
Q 3016 1369 3016 2328 
Q 3016 3291 2770 3770 
Q 2525 4250 2034 4250 
z
M 2034 4750 
Q 2819 4750 3233 4129 
Q 3647 3509 3647 2328 
Q 3647 1150 3233 529 
Q 2819 -91 2034 -91 
Q 1250 -91 836 529 
Q 422 1150 422 2328 
Q 422 3509 836 4129 
Q 1250 4750 2034 4750 
z
" transform="scale(0.015625)"/>
       </defs>
       <use xlink:href="#DejaVuSans-2212"/>
       <use xlink:href="#DejaVuSans-39" x="83.789062"/>
       <use xlink:href="#DejaVuSans-30" x="147.412109"/>
      </g>
     </g>
    </g>
    <g id="xtick_2">
     <g id="line2d_2">
      <g>
       <use xlink:href="#m03aa5ac77b" x="355.514079" y="605.952" style="stroke: #000000; stroke-width: 0.8"/>
      </g>
     </g>
     <g id="text_2">
      <!-- −80 -->
      <g transform="translate(317.525641 640.306375) scale(0.36 -0.36)">
       <defs>
        <path id="DejaVuSans-38" d="M 2034 2216 
Q 1584 2216 1326 1975 
Q 1069 1734 1069 1313 
Q 1069 891 1326 650 
Q 1584 409 2034 409 
Q 2484 409 2743 651 
Q 3003 894 3003 1313 
Q 3003 1734 2745 1975 
Q 2488 2216 2034 2216 
z
M 1403 2484 
Q 997 2584 770 2862 
Q 544 3141 544 3541 
Q 544 4100 942 4425 
Q 1341 4750 2034 4750 
Q 2731 4750 3128 4425 
Q 3525 4100 3525 3541 
Q 3525 3141 3298 2862 
Q 3072 2584 2669 2484 
Q 3125 2378 3379 2068 
Q 3634 1759 3634 1313 
Q 3634 634 3220 271 
Q 2806 -91 2034 -91 
Q 1263 -91 848 271 
Q 434 634 434 1313 
Q 434 1759 690 2068 
Q 947 2378 1403 2484 
z
M 1172 3481 
Q 1172 3119 1398 2916 
Q 1625 2713 2034 2713 
Q 2441 2713 2670 2916 
Q 2900 3119 2900 3481 
Q 2900 3844 2670 4047 
Q 2441 4250 2034 4250 
Q 1625 4250 1398 4047 
Q 1172 3844 1172 3481 
z
" transform="scale(0.015625)"/>
       </defs>
       <use xlink:href="#DejaVuSans-2212"/>
       <use xlink:href="#DejaVuSans-38" x="83.789062"/>
       <use xlink:href="#DejaVuSans-30" x="147.412109"/>
      </g>
     </g>
    </g>
    <g id="xtick_3">
     <g id="line2d_3">
      <g>
       <use xlink:href="#m03aa5ac77b" x="497.950921" y="605.952" style="stroke: #000000; stroke-width: 0.8"/>
      </g>
     </g>
     <g id="text_3">
      <!-- −70 -->
      <g transform="translate(459.962484 640.306375) scale(0.36 -0.36)">
       <defs>
        <path id="DejaVuSans-37" d="M 525 4666 
L 3525 4666 
L 3525 4397 
L 1831 0 
L 1172 0 
L 2766 4134 
L 525 4134 
L 525 4666 
z
" transform="scale(0.015625)"/>
       </defs>
       <use xlink:href="#DejaVuSans-2212"/>
       <use xlink:href="#DejaVuSans-37" x="83.789062"/>
       <use xlink:href="#DejaVuSans-30" x="147.412109"/>
      </g>
     </g>
    </g>
    <g id="xtick_4">
     <g id="line2d_4">
      <g>
       <use xlink:href="#m03aa5ac77b" x="640.387763" y="605.952" style="stroke: #000000; stroke-width: 0.8"/>
      </g>
     </g>
     <g id="text_4">
      <!-- −60 -->
      <g transform="translate(602.399326 640.306375) scale(0.36 -0.36)">
       <defs>
        <path id="DejaVuSans-36" d="M 2113 2584 
Q 1688 2584 1439 2293 
Q 1191 2003 1191 1497 
Q 1191 994 1439 701 
Q 1688 409 2113 409 
Q 2538 409 2786 701 
Q 3034 994 3034 1497 
Q 3034 2003 2786 2293 
Q 2538 2584 2113 2584 
z
M 3366 4563 
L 3366 3988 
Q 3128 4100 2886 4159 
Q 2644 4219 2406 4219 
Q 1781 4219 1451 3797 
Q 1122 3375 1075 2522 
Q 1259 2794 1537 2939 
Q 1816 3084 2150 3084 
Q 2853 3084 3261 2657 
Q 3669 2231 3669 1497 
Q 3669 778 3244 343 
Q 2819 -91 2113 -91 
Q 1303 -91 875 529 
Q 447 1150 447 2328 
Q 447 3434 972 4092 
Q 1497 4750 2381 4750 
Q 2619 4750 2861 4703 
Q 3103 4656 3366 4563 
z
" transform="scale(0.015625)"/>
       </defs>
       <use xlink:href="#DejaVuSans-2212"/>
       <use xlink:href="#DejaVuSans-36" x="83.789062"/>
       <use xlink:href="#DejaVuSans-30" x="147.412109"/>
      </g>
     </g>
    </g>
    <g id="xtick_5">
     <g id="line2d_5">
      <g>
       <use xlink:href="#m03aa5ac77b" x="782.824605" y="605.952" style="stroke: #000000; stroke-width: 0.8"/>
      </g>
     </g>
     <g id="text_5">
      <!-- −50 -->
      <g transform="translate(744.836168 640.306375) scale(0.36 -0.36)">
       <defs>
        <path id="DejaVuSans-35" d="M 691 4666 
L 3169 4666 
L 3169 4134 
L 1269 4134 
L 1269 2991 
Q 1406 3038 1543 3061 
Q 1681 3084 1819 3084 
Q 2600 3084 3056 2656 
Q 3513 2228 3513 1497 
Q 3513 744 3044 326 
Q 2575 -91 1722 -91 
Q 1428 -91 1123 -41 
Q 819 9 494 109 
L 494 744 
Q 775 591 1075 516 
Q 1375 441 1709 441 
Q 2250 441 2565 725 
Q 2881 1009 2881 1497 
Q 2881 1984 2565 2268 
Q 2250 2553 1709 2553 
Q 1456 2553 1204 2497 
Q 953 2441 691 2322 
L 691 4666 
z
" transform="scale(0.015625)"/>
       </defs>
       <use xlink:href="#DejaVuSans-2212"/>
       <use xlink:href="#DejaVuSans-35" x="83.789062"/>
       <use xlink:href="#DejaVuSans-30" x="147.412109"/>
      </g>
     </g>
    </g>
    <g id="xtick_6">
     <g id="line2d_6">
      <g>
       <use xlink:href="#m03aa5ac77b" x="925.261447" y="605.952" style="stroke: #000000; stroke-width: 0.8"/>
      </g>
     </g>
     <g id="text_6">
      <!-- −40 -->
      <g transform="translate(887.27301 640.306375) scale(0.36 -0.36)">
       <defs>
        <path id="DejaVuSans-34" d="M 2419 4116 
L 825 1625 
L 2419 1625 
L 2419 4116 
z
M 2253 4666 
L 3047 4666 
L 3047 1625 
L 3713 1625 
L 3713 1100 
L 3047 1100 
L 3047 0 
L 2419 0 
L 2419 1100 
L 313 1100 
L 313 1709 
L 2253 4666 
z
" transform="scale(0.015625)"/>
       </defs>
       <use xlink:href="#DejaVuSans-2212"/>
       <use xlink:href="#DejaVuSans-34" x="83.789062"/>
       <use xlink:href="#DejaVuSans-30" x="147.412109"/>
      </g>
     </g>
    </g>
    <g id="xtick_7">
     <g id="line2d_7">
      <g>
       <use xlink:href="#m03aa5ac77b" x="1067.698289" y="605.952" style="stroke: #000000; stroke-width: 0.8"/>
      </g>
     </g>
     <g id="text_7">
      <!-- −30 -->
      <g transform="translate(1029.709852 640.306375) scale(0.36 -0.36)">
       <defs>
        <path id="DejaVuSans-33" d="M 2597 2516 
Q 3050 2419 3304 2112 
Q 3559 1806 3559 1356 
Q 3559 666 3084 287 
Q 2609 -91 1734 -91 
Q 1441 -91 1130 -33 
Q 819 25 488 141 
L 488 750 
Q 750 597 1062 519 
Q 1375 441 1716 441 
Q 2309 441 2620 675 
Q 2931 909 2931 1356 
Q 2931 1769 2642 2001 
Q 2353 2234 1838 2234 
L 1294 2234 
L 1294 2753 
L 1863 2753 
Q 2328 2753 2575 2939 
Q 2822 3125 2822 3475 
Q 2822 3834 2567 4026 
Q 2313 4219 1838 4219 
Q 1578 4219 1281 4162 
Q 984 4106 628 3988 
L 628 4550 
Q 988 4650 1302 4700 
Q 1616 4750 1894 4750 
Q 2613 4750 3031 4423 
Q 3450 4097 3450 3541 
Q 3450 3153 3228 2886 
Q 3006 2619 2597 2516 
z
" transform="scale(0.015625)"/>
       </defs>
       <use xlink:href="#DejaVuSans-2212"/>
       <use xlink:href="#DejaVuSans-33" x="83.789062"/>
       <use xlink:href="#DejaVuSans-30" x="147.412109"/>
      </g>
     </g>
    </g>
    <g id="xtick_8">
     <g id="line2d_8">
      <g>
       <use xlink:href="#m03aa5ac77b" x="1210.135132" y="605.952" style="stroke: #000000; stroke-width: 0.8"/>
      </g>
     </g>
     <g id="text_8">
      <!-- −20 -->
      <g transform="translate(1172.146694 640.306375) scale(0.36 -0.36)">
       <defs>
        <path id="DejaVuSans-32" d="M 1228 531 
L 3431 531 
L 3431 0 
L 469 0 
L 469 531 
Q 828 903 1448 1529 
Q 2069 2156 2228 2338 
Q 2531 2678 2651 2914 
Q 2772 3150 2772 3378 
Q 2772 3750 2511 3984 
Q 2250 4219 1831 4219 
Q 1534 4219 1204 4116 
Q 875 4013 500 3803 
L 500 4441 
Q 881 4594 1212 4672 
Q 1544 4750 1819 4750 
Q 2544 4750 2975 4387 
Q 3406 4025 3406 3419 
Q 3406 3131 3298 2873 
Q 3191 2616 2906 2266 
Q 2828 2175 2409 1742 
Q 1991 1309 1228 531 
z
" transform="scale(0.015625)"/>
       </defs>
       <use xlink:href="#DejaVuSans-2212"/>
       <use xlink:href="#DejaVuSans-32" x="83.789062"/>
       <use xlink:href="#DejaVuSans-30" x="147.412109"/>
      </g>
     </g>
    </g>
    <g id="text_9">
     <!-- $UID_{wordwise}$ -->
     <g transform="translate(605.2025 679.147625) scale(0.36 -0.36)">
      <defs>
       <path id="DejaVuSans-Oblique-55" d="M 991 4666 
L 1625 4666 
L 1075 1831 
Q 1041 1641 1027 1517 
Q 1013 1394 1013 1300 
Q 1013 869 1253 645 
Q 1494 422 1959 422 
Q 2563 422 2898 753 
Q 3234 1084 3378 1831 
L 3928 4666 
L 4563 4666 
L 4000 1753 
Q 3816 809 3300 359 
Q 2784 -91 1888 -91 
Q 1188 -91 780 261 
Q 372 613 372 1216 
Q 372 1325 387 1461 
Q 403 1597 434 1753 
L 991 4666 
z
" transform="scale(0.015625)"/>
       <path id="DejaVuSans-Oblique-49" d="M 1081 4666 
L 1716 4666 
L 806 0 
L 172 0 
L 1081 4666 
z
" transform="scale(0.015625)"/>
       <path id="DejaVuSans-Oblique-44" d="M 1081 4666 
L 2438 4666 
Q 3519 4666 4070 4208 
Q 4622 3750 4622 2847 
Q 4622 2250 4412 1698 
Q 4203 1147 3834 769 
Q 3463 381 2891 190 
Q 2319 0 1538 0 
L 172 0 
L 1081 4666 
z
M 1613 4147 
L 909 519 
L 1734 519 
Q 2794 519 3375 1128 
Q 3956 1738 3956 2847 
Q 3956 3519 3581 3833 
Q 3206 4147 2406 4147 
L 1613 4147 
z
" transform="scale(0.015625)"/>
       <path id="DejaVuSans-Oblique-77" d="M 544 3500 
L 1113 3500 
L 1259 684 
L 2566 3500 
L 3231 3500 
L 3425 684 
L 4666 3500 
L 5241 3500 
L 3641 0 
L 2969 0 
L 2797 2900 
L 1459 0 
L 781 0 
L 544 3500 
z
" transform="scale(0.015625)"/>
       <path id="DejaVuSans-Oblique-6f" d="M 1625 -91 
Q 1009 -91 651 289 
Q 294 669 294 1325 
Q 294 1706 417 2101 
Q 541 2497 738 2766 
Q 1047 3184 1428 3384 
Q 1809 3584 2291 3584 
Q 2888 3584 3255 3212 
Q 3622 2841 3622 2241 
Q 3622 1825 3500 1412 
Q 3378 1000 3181 728 
Q 2875 309 2494 109 
Q 2113 -91 1625 -91 
z
M 891 1344 
Q 891 869 1089 633 
Q 1288 397 1691 397 
Q 2269 397 2648 901 
Q 3028 1406 3028 2181 
Q 3028 2634 2825 2865 
Q 2622 3097 2228 3097 
Q 1903 3097 1650 2945 
Q 1397 2794 1197 2484 
Q 1050 2253 970 1956 
Q 891 1659 891 1344 
z
" transform="scale(0.015625)"/>
       <path id="DejaVuSans-Oblique-72" d="M 2853 2969 
Q 2766 3016 2653 3041 
Q 2541 3066 2413 3066 
Q 1953 3066 1609 2717 
Q 1266 2369 1153 1784 
L 800 0 
L 225 0 
L 909 3500 
L 1484 3500 
L 1375 2956 
Q 1603 3259 1920 3421 
Q 2238 3584 2597 3584 
Q 2691 3584 2781 3573 
Q 2872 3563 2963 3538 
L 2853 2969 
z
" transform="scale(0.015625)"/>
       <path id="DejaVuSans-Oblique-64" d="M 2675 525 
Q 2444 222 2128 65 
Q 1813 -91 1428 -91 
Q 903 -91 598 267 
Q 294 625 294 1247 
Q 294 1766 478 2236 
Q 663 2706 1013 3078 
Q 1244 3325 1534 3454 
Q 1825 3584 2144 3584 
Q 2481 3584 2739 3421 
Q 2997 3259 3138 2956 
L 3513 4863 
L 4091 4863 
L 3144 0 
L 2566 0 
L 2675 525 
z
M 891 1350 
Q 891 897 1095 644 
Q 1300 391 1663 391 
Q 1931 391 2161 520 
Q 2391 650 2566 903 
Q 2750 1166 2856 1509 
Q 2963 1853 2963 2188 
Q 2963 2622 2758 2865 
Q 2553 3109 2194 3109 
Q 1922 3109 1687 2981 
Q 1453 2853 1288 2613 
Q 1106 2353 998 2009 
Q 891 1666 891 1350 
z
" transform="scale(0.015625)"/>
       <path id="DejaVuSans-Oblique-69" d="M 1172 4863 
L 1747 4863 
L 1606 4134 
L 1031 4134 
L 1172 4863 
z
M 909 3500 
L 1484 3500 
L 800 0 
L 225 0 
L 909 3500 
z
" transform="scale(0.015625)"/>
       <path id="DejaVuSans-Oblique-73" d="M 3200 3397 
L 3091 2853 
Q 2863 2978 2609 3040 
Q 2356 3103 2088 3103 
Q 1634 3103 1373 2948 
Q 1113 2794 1113 2528 
Q 1113 2219 1719 2053 
Q 1766 2041 1788 2034 
L 1972 1978 
Q 2547 1819 2739 1644 
Q 2931 1469 2931 1166 
Q 2931 609 2489 259 
Q 2047 -91 1331 -91 
Q 1053 -91 747 -37 
Q 441 16 72 128 
L 184 722 
Q 500 559 806 475 
Q 1113 391 1394 391 
Q 1816 391 2080 572 
Q 2344 753 2344 1031 
Q 2344 1331 1650 1516 
L 1591 1531 
L 1394 1581 
Q 956 1697 753 1886 
Q 550 2075 550 2369 
Q 550 2928 970 3256 
Q 1391 3584 2113 3584 
Q 2397 3584 2667 3537 
Q 2938 3491 3200 3397 
z
" transform="scale(0.015625)"/>
       <path id="DejaVuSans-Oblique-65" d="M 3078 2063 
Q 3088 2113 3092 2166 
Q 3097 2219 3097 2272 
Q 3097 2653 2873 2875 
Q 2650 3097 2266 3097 
Q 1838 3097 1509 2826 
Q 1181 2556 1013 2059 
L 3078 2063 
z
M 3578 1613 
L 903 1613 
Q 884 1494 878 1425 
Q 872 1356 872 1306 
Q 872 872 1139 634 
Q 1406 397 1894 397 
Q 2269 397 2603 481 
Q 2938 566 3225 728 
L 3116 159 
Q 2806 34 2476 -28 
Q 2147 -91 1806 -91 
Q 1078 -91 686 257 
Q 294 606 294 1247 
Q 294 1794 489 2264 
Q 684 2734 1063 3103 
Q 1306 3334 1642 3459 
Q 1978 3584 2356 3584 
Q 2950 3584 3301 3228 
Q 3653 2872 3653 2272 
Q 3653 2128 3634 1964 
Q 3616 1800 3578 1613 
z
" transform="scale(0.015625)"/>
      </defs>
      <use xlink:href="#DejaVuSans-Oblique-55" transform="translate(0 0.09375)"/>
      <use xlink:href="#DejaVuSans-Oblique-49" transform="translate(73.193359 0.09375)"/>
      <use xlink:href="#DejaVuSans-Oblique-44" transform="translate(102.685547 0.09375)"/>
      <use xlink:href="#DejaVuSans-Oblique-77" transform="translate(179.6875 -16.3125) scale(0.7)"/>
      <use xlink:href="#DejaVuSans-Oblique-6f" transform="translate(236.938477 -16.3125) scale(0.7)"/>
      <use xlink:href="#DejaVuSans-Oblique-72" transform="translate(279.765625 -16.3125) scale(0.7)"/>
      <use xlink:href="#DejaVuSans-Oblique-64" transform="translate(308.544922 -16.3125) scale(0.7)"/>
      <use xlink:href="#DejaVuSans-Oblique-77" transform="translate(352.978516 -16.3125) scale(0.7)"/>
      <use xlink:href="#DejaVuSans-Oblique-69" transform="translate(410.229492 -16.3125) scale(0.7)"/>
      <use xlink:href="#DejaVuSans-Oblique-73" transform="translate(429.677734 -16.3125) scale(0.7)"/>
      <use xlink:href="#DejaVuSans-Oblique-65" transform="translate(466.147461 -16.3125) scale(0.7)"/>
     </g>
    </g>
   </g>
   <g id="matplotlib.axis_2">
    <g id="ytick_1">
     <g id="line2d_9">
      <defs>
       <path id="mcf5040b401" d="M 0 0 
L -3.5 0 
" style="stroke: #000000; stroke-width: 0.8"/>
      </defs>
      <g>
       <use xlink:href="#mcf5040b401" x="156.1025" y="605.952" style="stroke: #000000; stroke-width: 0.8"/>
      </g>
     </g>
     <g id="text_10">
      <!-- 0.000 -->
      <g transform="translate(46.04125 619.629187) scale(0.36 -0.36)">
       <defs>
        <path id="DejaVuSans-2e" d="M 684 794 
L 1344 794 
L 1344 0 
L 684 0 
L 684 794 
z
" transform="scale(0.015625)"/>
       </defs>
       <use xlink:href="#DejaVuSans-30"/>
       <use xlink:href="#DejaVuSans-2e" x="63.623047"/>
       <use xlink:href="#DejaVuSans-30" x="95.410156"/>
       <use xlink:href="#DejaVuSans-30" x="159.033203"/>
       <use xlink:href="#DejaVuSans-30" x="222.65625"/>
      </g>
     </g>
    </g>
    <g id="ytick_2">
     <g id="line2d_10">
      <g>
       <use xlink:href="#mcf5040b401" x="156.1025" y="501.920689" style="stroke: #000000; stroke-width: 0.8"/>
      </g>
     </g>
     <g id="text_11">
      <!-- 0.005 -->
      <g transform="translate(46.04125 515.597877) scale(0.36 -0.36)">
       <use xlink:href="#DejaVuSans-30"/>
       <use xlink:href="#DejaVuSans-2e" x="63.623047"/>
       <use xlink:href="#DejaVuSans-30" x="95.410156"/>
       <use xlink:href="#DejaVuSans-30" x="159.033203"/>
       <use xlink:href="#DejaVuSans-35" x="222.65625"/>
      </g>
     </g>
    </g>
    <g id="ytick_3">
     <g id="line2d_11">
      <g>
       <use xlink:href="#mcf5040b401" x="156.1025" y="397.889379" style="stroke: #000000; stroke-width: 0.8"/>
      </g>
     </g>
     <g id="text_12">
      <!-- 0.010 -->
      <g transform="translate(46.04125 411.566566) scale(0.36 -0.36)">
       <defs>
        <path id="DejaVuSans-31" d="M 794 531 
L 1825 531 
L 1825 4091 
L 703 3866 
L 703 4441 
L 1819 4666 
L 2450 4666 
L 2450 531 
L 3481 531 
L 3481 0 
L 794 0 
L 794 531 
z
" transform="scale(0.015625)"/>
       </defs>
       <use xlink:href="#DejaVuSans-30"/>
       <use xlink:href="#DejaVuSans-2e" x="63.623047"/>
       <use xlink:href="#DejaVuSans-30" x="95.410156"/>
       <use xlink:href="#DejaVuSans-31" x="159.033203"/>
       <use xlink:href="#DejaVuSans-30" x="222.65625"/>
      </g>
     </g>
    </g>
    <g id="ytick_4">
     <g id="line2d_12">
      <g>
       <use xlink:href="#mcf5040b401" x="156.1025" y="293.858068" style="stroke: #000000; stroke-width: 0.8"/>
      </g>
     </g>
     <g id="text_13">
      <!-- 0.015 -->
      <g transform="translate(46.04125 307.535255) scale(0.36 -0.36)">
       <use xlink:href="#DejaVuSans-30"/>
       <use xlink:href="#DejaVuSans-2e" x="63.623047"/>
       <use xlink:href="#DejaVuSans-30" x="95.410156"/>
       <use xlink:href="#DejaVuSans-31" x="159.033203"/>
       <use xlink:href="#DejaVuSans-35" x="222.65625"/>
      </g>
     </g>
    </g>
    <g id="ytick_5">
     <g id="line2d_13">
      <g>
       <use xlink:href="#mcf5040b401" x="156.1025" y="189.826757" style="stroke: #000000; stroke-width: 0.8"/>
      </g>
     </g>
     <g id="text_14">
      <!-- 0.020 -->
      <g transform="translate(46.04125 203.503945) scale(0.36 -0.36)">
       <use xlink:href="#DejaVuSans-30"/>
       <use xlink:href="#DejaVuSans-2e" x="63.623047"/>
       <use xlink:href="#DejaVuSans-30" x="95.410156"/>
       <use xlink:href="#DejaVuSans-32" x="159.033203"/>
       <use xlink:href="#DejaVuSans-30" x="222.65625"/>
      </g>
     </g>
    </g>
    <g id="ytick_6">
     <g id="line2d_14">
      <g>
       <use xlink:href="#mcf5040b401" x="156.1025" y="85.795446" style="stroke: #000000; stroke-width: 0.8"/>
      </g>
     </g>
     <g id="text_15">
      <!-- 0.025 -->
      <g transform="translate(46.04125 99.472634) scale(0.36 -0.36)">
       <use xlink:href="#DejaVuSans-30"/>
       <use xlink:href="#DejaVuSans-2e" x="63.623047"/>
       <use xlink:href="#DejaVuSans-30" x="95.410156"/>
       <use xlink:href="#DejaVuSans-32" x="159.033203"/>
       <use xlink:href="#DejaVuSans-35" x="222.65625"/>
      </g>
     </g>
    </g>
    <g id="text_16">
     <!-- density -->
     <g transform="translate(34.554375 372.574125) rotate(-90) scale(0.36 -0.36)">
      <defs>
       <path id="DejaVuSans-64" d="M 2906 2969 
L 2906 4863 
L 3481 4863 
L 3481 0 
L 2906 0 
L 2906 525 
Q 2725 213 2448 61 
Q 2172 -91 1784 -91 
Q 1150 -91 751 415 
Q 353 922 353 1747 
Q 353 2572 751 3078 
Q 1150 3584 1784 3584 
Q 2172 3584 2448 3432 
Q 2725 3281 2906 2969 
z
M 947 1747 
Q 947 1113 1208 752 
Q 1469 391 1925 391 
Q 2381 391 2643 752 
Q 2906 1113 2906 1747 
Q 2906 2381 2643 2742 
Q 2381 3103 1925 3103 
Q 1469 3103 1208 2742 
Q 947 2381 947 1747 
z
" transform="scale(0.015625)"/>
       <path id="DejaVuSans-65" d="M 3597 1894 
L 3597 1613 
L 953 1613 
Q 991 1019 1311 708 
Q 1631 397 2203 397 
Q 2534 397 2845 478 
Q 3156 559 3463 722 
L 3463 178 
Q 3153 47 2828 -22 
Q 2503 -91 2169 -91 
Q 1331 -91 842 396 
Q 353 884 353 1716 
Q 353 2575 817 3079 
Q 1281 3584 2069 3584 
Q 2775 3584 3186 3129 
Q 3597 2675 3597 1894 
z
M 3022 2063 
Q 3016 2534 2758 2815 
Q 2500 3097 2075 3097 
Q 1594 3097 1305 2825 
Q 1016 2553 972 2059 
L 3022 2063 
z
" transform="scale(0.015625)"/>
       <path id="DejaVuSans-6e" d="M 3513 2113 
L 3513 0 
L 2938 0 
L 2938 2094 
Q 2938 2591 2744 2837 
Q 2550 3084 2163 3084 
Q 1697 3084 1428 2787 
Q 1159 2491 1159 1978 
L 1159 0 
L 581 0 
L 581 3500 
L 1159 3500 
L 1159 2956 
Q 1366 3272 1645 3428 
Q 1925 3584 2291 3584 
Q 2894 3584 3203 3211 
Q 3513 2838 3513 2113 
z
" transform="scale(0.015625)"/>
       <path id="DejaVuSans-73" d="M 2834 3397 
L 2834 2853 
Q 2591 2978 2328 3040 
Q 2066 3103 1784 3103 
Q 1356 3103 1142 2972 
Q 928 2841 928 2578 
Q 928 2378 1081 2264 
Q 1234 2150 1697 2047 
L 1894 2003 
Q 2506 1872 2764 1633 
Q 3022 1394 3022 966 
Q 3022 478 2636 193 
Q 2250 -91 1575 -91 
Q 1294 -91 989 -36 
Q 684 19 347 128 
L 347 722 
Q 666 556 975 473 
Q 1284 391 1588 391 
Q 1994 391 2212 530 
Q 2431 669 2431 922 
Q 2431 1156 2273 1281 
Q 2116 1406 1581 1522 
L 1381 1569 
Q 847 1681 609 1914 
Q 372 2147 372 2553 
Q 372 3047 722 3315 
Q 1072 3584 1716 3584 
Q 2034 3584 2315 3537 
Q 2597 3491 2834 3397 
z
" transform="scale(0.015625)"/>
       <path id="DejaVuSans-69" d="M 603 3500 
L 1178 3500 
L 1178 0 
L 603 0 
L 603 3500 
z
M 603 4863 
L 1178 4863 
L 1178 4134 
L 603 4134 
L 603 4863 
z
" transform="scale(0.015625)"/>
       <path id="DejaVuSans-74" d="M 1172 4494 
L 1172 3500 
L 2356 3500 
L 2356 3053 
L 1172 3053 
L 1172 1153 
Q 1172 725 1289 603 
Q 1406 481 1766 481 
L 2356 481 
L 2356 0 
L 1766 0 
Q 1100 0 847 248 
Q 594 497 594 1153 
L 594 3053 
L 172 3053 
L 172 3500 
L 594 3500 
L 594 4494 
L 1172 4494 
z
" transform="scale(0.015625)"/>
       <path id="DejaVuSans-79" d="M 2059 -325 
Q 1816 -950 1584 -1140 
Q 1353 -1331 966 -1331 
L 506 -1331 
L 506 -850 
L 844 -850 
Q 1081 -850 1212 -737 
Q 1344 -625 1503 -206 
L 1606 56 
L 191 3500 
L 800 3500 
L 1894 763 
L 2988 3500 
L 3597 3500 
L 2059 -325 
z
" transform="scale(0.015625)"/>
      </defs>
      <use xlink:href="#DejaVuSans-64"/>
      <use xlink:href="#DejaVuSans-65" x="63.476562"/>
      <use xlink:href="#DejaVuSans-6e" x="125"/>
      <use xlink:href="#DejaVuSans-73" x="188.378906"/>
      <use xlink:href="#DejaVuSans-69" x="240.478516"/>
      <use xlink:href="#DejaVuSans-74" x="268.261719"/>
      <use xlink:href="#DejaVuSans-79" x="307.470703"/>
     </g>
    </g>
   </g>
   <g id="line2d_15">
    <path d="M 455.219868 519.461976 
L 469.463553 509.530335 
L 483.707237 498.848973 
L 497.950921 487.397803 
L 512.194605 475.192446 
L 526.438289 462.295727 
L 540.681974 448.825271 
L 554.925658 434.955359 
L 569.169342 420.911911 
L 583.413026 406.960383 
L 597.656711 393.387438 
L 611.900395 380.478223 
L 626.144079 368.491887 
L 640.387763 357.638299 
L 654.631447 348.058857 
L 668.875132 339.813684 
L 683.118816 332.876566 
L 697.3625 327.137775 
L 711.606184 322.41377 
L 725.849868 318.461756 
L 740.093553 314.996538 
L 754.337237 311.707019 
L 768.580921 308.270195 
L 782.824605 304.361407 
L 797.068289 299.660819 
L 811.311974 293.857269 
L 825.555658 286.651635 
L 839.799342 277.762311 
L 854.043026 266.935252 
L 868.286711 253.960264 
L 882.530395 238.693861 
L 896.774079 221.08737 
L 911.017763 201.217286 
L 925.261447 179.313591 
L 939.505132 155.780987 
L 953.748816 131.20818 
L 967.9925 106.361275 
L 982.236184 82.159151 
L 996.479868 59.630886 
L 1010.723553 39.85778 
L 1024.967237 23.904673 
L 1039.210921 12.746895 
L 1053.454605 7.2 
L 1067.698289 7.859275 
L 1081.941974 15.054985 
L 1096.185658 28.827558 
L 1110.429342 48.924713 
L 1124.673026 74.820166 
L 1138.916711 105.75142 
L 1153.160395 140.772415 
L 1167.404079 178.815699 
L 1181.647763 218.758365 
L 1195.891447 259.486174 
" clip-path="url(#p39c5bdda73)" style="fill: none; stroke: #1f77b4; stroke-width: 1.5; stroke-linecap: square"/>
   </g>
   <g id="line2d_16">
    <path d="M 156.1025 568.866155 
L 170.346184 568.624338 
L 184.589868 568.65739 
L 198.833553 568.919961 
L 213.077237 569.350052 
L 227.320921 569.870385 
L 241.564605 570.390518 
L 255.808289 570.80962 
L 270.051974 571.019812 
L 284.295658 570.909939 
L 298.539342 570.369658 
L 312.783026 569.293675 
L 327.026711 567.586014 
L 341.270395 565.164148 
L 355.514079 561.962845 
L 369.757763 557.937571 
L 384.001447 553.067293 
L 398.245132 547.356503 
L 412.488816 540.836318 
L 426.7325 533.564519 
L 440.976184 525.624397 
L 455.219868 517.12236 
L 469.463553 508.184294 
L 483.707237 498.950725 
L 497.950921 489.570962 
L 512.194605 480.196433 
L 526.438289 470.973539 
L 540.681974 462.0364 
L 554.925658 453.499899 
L 569.169342 445.453457 
L 583.413026 437.955935 
L 597.656711 431.031999 
L 611.900395 424.670196 
L 626.144079 418.82288 
L 640.387763 413.407993 
L 654.631447 408.31259 
L 668.875132 403.397857 
L 683.118816 398.505317 
L 697.3625 393.463822 
L 711.606184 388.096932 
L 725.849868 382.230286 
L 740.093553 375.698636 
L 754.337237 368.352275 
L 768.580921 360.062701 
L 782.824605 350.727436 
L 797.068289 340.274026 
L 811.311974 328.66327 
L 825.555658 315.891805 
L 839.799342 301.994118 
L 854.043026 287.044053 
L 868.286711 271.155816 
L 882.530395 254.484394 
L 896.774079 237.225241 
L 911.017763 219.613027 
L 925.261447 201.919219 
L 939.505132 184.448246 
L 953.748816 167.532083 
L 967.9925 151.52315 
L 982.236184 136.785549 
L 996.479868 123.684795 
L 1010.723553 112.576376 
L 1024.967237 103.793569 
L 1039.210921 97.635083 
L 1053.454605 94.353176 
L 1067.698289 94.14289 
L 1081.941974 97.133065 
L 1096.185658 103.379677 
L 1110.429342 112.861947 
L 1124.673026 125.481502 
L 1138.916711 141.064696 
L 1153.160395 159.367998 
L 1167.404079 180.086198 
L 1181.647763 202.862993 
L 1195.891447 227.303413 
L 1210.135132 252.987441 
L 1224.378816 279.48414 
L 1238.6225 306.365601 
" clip-path="url(#p39c5bdda73)" style="fill: none; stroke: #ff7f0e; stroke-width: 1.5; stroke-linecap: square"/>
   </g>
   <g id="line2d_17">
    <path d="M 156.1025 556.47982 
L 170.346184 553.889539 
L 184.589868 551.336763 
L 198.833553 548.804698 
L 213.077237 546.270242 
L 227.320921 543.704701 
L 241.564605 541.074758 
L 255.808289 538.343655 
L 270.051974 535.472545 
L 284.295658 532.421957 
L 298.539342 529.153336 
L 312.783026 525.630603 
L 327.026711 521.821694 
L 341.270395 517.700037 
L 355.514079 513.245915 
L 369.757763 508.447677 
L 384.001447 503.302738 
L 398.245132 497.818313 
L 412.488816 492.011828 
L 426.7325 485.910952 
L 440.976184 479.553202 
L 455.219868 472.98508 
L 469.463553 466.26072 
L 483.707237 459.440063 
L 497.950921 452.586593 
L 512.194605 445.764687 
L 526.438289 439.036703 
L 540.681974 432.459905 
L 554.925658 426.0834 
L 569.169342 419.945211 
L 583.413026 414.069676 
L 597.656711 408.465304 
L 611.900395 403.123218 
L 626.144079 398.016302 
L 640.387763 393.0991 
L 654.631447 388.30852 
L 668.875132 383.565324 
L 683.118816 378.776384 
L 697.3625 373.837634 
L 711.606184 368.637636 
L 725.849868 363.061675 
L 740.093553 356.996262 
L 754.337237 350.33394 
L 768.580921 342.978275 
L 782.824605 334.848907 
L 797.068289 325.88652 
L 811.311974 316.057585 
L 825.555658 305.35871 
L 839.799342 293.820413 
L 854.043026 281.510116 
L 868.286711 268.534151 
L 882.530395 255.038571 
L 896.774079 241.20857 
L 911.017763 227.266355 
L 925.261447 213.467359 
L 939.505132 200.094773 
L 953.748816 187.452432 
L 967.9925 175.856224 
L 982.236184 165.624283 
L 996.479868 157.066303 
L 1010.723553 150.472447 
L 1024.967237 146.102327 
L 1039.210921 144.174623 
L 1053.454605 144.857868 
L 1067.698289 148.262908 
L 1081.941974 154.437468 
L 1096.185658 163.363152 
L 1110.429342 174.955065 
L 1124.673026 189.064115 
L 1138.916711 205.481885 
L 1153.160395 223.947838 
L 1167.404079 244.158469 
L 1181.647763 265.77794 
L 1195.891447 288.449641 
" clip-path="url(#p39c5bdda73)" style="fill: none; stroke: #2ca02c; stroke-width: 1.5; stroke-linecap: square"/>
   </g>
   <g id="patch_3">
    <path d="M 156.1025 605.952 
L 156.1025 7.2 
" style="fill: none; stroke: #000000; stroke-width: 0.8; stroke-linejoin: miter; stroke-linecap: square"/>
   </g>
   <g id="patch_4">
    <path d="M 1238.6225 605.952 
L 1238.6225 7.2 
" style="fill: none; stroke: #000000; stroke-width: 0.8; stroke-linejoin: miter; stroke-linecap: square"/>
   </g>
   <g id="patch_5">
    <path d="M 156.1025 605.952 
L 1238.6225 605.952 
" style="fill: none; stroke: #000000; stroke-width: 0.8; stroke-linejoin: miter; stroke-linecap: square"/>
   </g>
   <g id="patch_6">
    <path d="M 156.1025 7.2 
L 1238.6225 7.2 
" style="fill: none; stroke: #000000; stroke-width: 0.8; stroke-linejoin: miter; stroke-linecap: square"/>
   </g>
   <g id="legend_1">
    <g id="patch_7">
     <path d="M 181.3025 194.52375 
L 478.983125 194.52375 
Q 486.183125 194.52375 486.183125 187.32375 
L 486.183125 32.4 
Q 486.183125 25.2 478.983125 25.2 
L 181.3025 25.2 
Q 174.1025 25.2 174.1025 32.4 
L 174.1025 187.32375 
Q 174.1025 194.52375 181.3025 194.52375 
z
" style="fill: #ffffff; opacity: 0.8; stroke: #cccccc; stroke-linejoin: miter"/>
    </g>
    <g id="line2d_18">
     <path d="M 188.5025 54.354375 
L 224.5025 54.354375 
L 260.5025 54.354375 
" style="fill: none; stroke: #1f77b4; stroke-width: 8; stroke-linecap: square"/>
    </g>
    <g id="text_17">
     <!-- regular -->
     <g transform="translate(289.3025 66.954375) scale(0.36 -0.36)">
      <defs>
       <path id="DejaVuSans-72" d="M 2631 2963 
Q 2534 3019 2420 3045 
Q 2306 3072 2169 3072 
Q 1681 3072 1420 2755 
Q 1159 2438 1159 1844 
L 1159 0 
L 581 0 
L 581 3500 
L 1159 3500 
L 1159 2956 
Q 1341 3275 1631 3429 
Q 1922 3584 2338 3584 
Q 2397 3584 2469 3576 
Q 2541 3569 2628 3553 
L 2631 2963 
z
" transform="scale(0.015625)"/>
       <path id="DejaVuSans-67" d="M 2906 1791 
Q 2906 2416 2648 2759 
Q 2391 3103 1925 3103 
Q 1463 3103 1205 2759 
Q 947 2416 947 1791 
Q 947 1169 1205 825 
Q 1463 481 1925 481 
Q 2391 481 2648 825 
Q 2906 1169 2906 1791 
z
M 3481 434 
Q 3481 -459 3084 -895 
Q 2688 -1331 1869 -1331 
Q 1566 -1331 1297 -1286 
Q 1028 -1241 775 -1147 
L 775 -588 
Q 1028 -725 1275 -790 
Q 1522 -856 1778 -856 
Q 2344 -856 2625 -561 
Q 2906 -266 2906 331 
L 2906 616 
Q 2728 306 2450 153 
Q 2172 0 1784 0 
Q 1141 0 747 490 
Q 353 981 353 1791 
Q 353 2603 747 3093 
Q 1141 3584 1784 3584 
Q 2172 3584 2450 3431 
Q 2728 3278 2906 2969 
L 2906 3500 
L 3481 3500 
L 3481 434 
z
" transform="scale(0.015625)"/>
       <path id="DejaVuSans-75" d="M 544 1381 
L 544 3500 
L 1119 3500 
L 1119 1403 
Q 1119 906 1312 657 
Q 1506 409 1894 409 
Q 2359 409 2629 706 
Q 2900 1003 2900 1516 
L 2900 3500 
L 3475 3500 
L 3475 0 
L 2900 0 
L 2900 538 
Q 2691 219 2414 64 
Q 2138 -91 1772 -91 
Q 1169 -91 856 284 
Q 544 659 544 1381 
z
M 1991 3584 
L 1991 3584 
z
" transform="scale(0.015625)"/>
       <path id="DejaVuSans-6c" d="M 603 4863 
L 1178 4863 
L 1178 0 
L 603 0 
L 603 4863 
z
" transform="scale(0.015625)"/>
       <path id="DejaVuSans-61" d="M 2194 1759 
Q 1497 1759 1228 1600 
Q 959 1441 959 1056 
Q 959 750 1161 570 
Q 1363 391 1709 391 
Q 2188 391 2477 730 
Q 2766 1069 2766 1631 
L 2766 1759 
L 2194 1759 
z
M 3341 1997 
L 3341 0 
L 2766 0 
L 2766 531 
Q 2569 213 2275 61 
Q 1981 -91 1556 -91 
Q 1019 -91 701 211 
Q 384 513 384 1019 
Q 384 1609 779 1909 
Q 1175 2209 1959 2209 
L 2766 2209 
L 2766 2266 
Q 2766 2663 2505 2880 
Q 2244 3097 1772 3097 
Q 1472 3097 1187 3025 
Q 903 2953 641 2809 
L 641 3341 
Q 956 3463 1253 3523 
Q 1550 3584 1831 3584 
Q 2591 3584 2966 3190 
Q 3341 2797 3341 1997 
z
" transform="scale(0.015625)"/>
      </defs>
      <use xlink:href="#DejaVuSans-72"/>
      <use xlink:href="#DejaVuSans-65" x="38.863281"/>
      <use xlink:href="#DejaVuSans-67" x="100.386719"/>
      <use xlink:href="#DejaVuSans-75" x="163.863281"/>
      <use xlink:href="#DejaVuSans-6c" x="227.242188"/>
      <use xlink:href="#DejaVuSans-61" x="255.025391"/>
      <use xlink:href="#DejaVuSans-72" x="316.304688"/>
     </g>
    </g>
    <g id="line2d_19">
     <path d="M 188.5025 107.195625 
L 224.5025 107.195625 
L 260.5025 107.195625 
" style="fill: none; stroke: #ff7f0e; stroke-width: 8; stroke-linecap: square"/>
    </g>
    <g id="text_18">
     <!-- reversed -->
     <g transform="translate(289.3025 119.795625) scale(0.36 -0.36)">
      <defs>
       <path id="DejaVuSans-76" d="M 191 3500 
L 800 3500 
L 1894 563 
L 2988 3500 
L 3597 3500 
L 2284 0 
L 1503 0 
L 191 3500 
z
" transform="scale(0.015625)"/>
      </defs>
      <use xlink:href="#DejaVuSans-72"/>
      <use xlink:href="#DejaVuSans-65" x="38.863281"/>
      <use xlink:href="#DejaVuSans-76" x="100.386719"/>
      <use xlink:href="#DejaVuSans-65" x="159.566406"/>
      <use xlink:href="#DejaVuSans-72" x="221.089844"/>
      <use xlink:href="#DejaVuSans-73" x="262.203125"/>
      <use xlink:href="#DejaVuSans-65" x="314.302734"/>
      <use xlink:href="#DejaVuSans-64" x="375.826172"/>
     </g>
    </g>
    <g id="line2d_20">
     <path d="M 188.5025 160.036875 
L 224.5025 160.036875 
L 260.5025 160.036875 
" style="fill: none; stroke: #2ca02c; stroke-width: 8; stroke-linecap: square"/>
    </g>
    <g id="text_19">
     <!-- shortened -->
     <g transform="translate(289.3025 172.636875) scale(0.36 -0.36)">
      <defs>
       <path id="DejaVuSans-68" d="M 3513 2113 
L 3513 0 
L 2938 0 
L 2938 2094 
Q 2938 2591 2744 2837 
Q 2550 3084 2163 3084 
Q 1697 3084 1428 2787 
Q 1159 2491 1159 1978 
L 1159 0 
L 581 0 
L 581 4863 
L 1159 4863 
L 1159 2956 
Q 1366 3272 1645 3428 
Q 1925 3584 2291 3584 
Q 2894 3584 3203 3211 
Q 3513 2838 3513 2113 
z
" transform="scale(0.015625)"/>
       <path id="DejaVuSans-6f" d="M 1959 3097 
Q 1497 3097 1228 2736 
Q 959 2375 959 1747 
Q 959 1119 1226 758 
Q 1494 397 1959 397 
Q 2419 397 2687 759 
Q 2956 1122 2956 1747 
Q 2956 2369 2687 2733 
Q 2419 3097 1959 3097 
z
M 1959 3584 
Q 2709 3584 3137 3096 
Q 3566 2609 3566 1747 
Q 3566 888 3137 398 
Q 2709 -91 1959 -91 
Q 1206 -91 779 398 
Q 353 888 353 1747 
Q 353 2609 779 3096 
Q 1206 3584 1959 3584 
z
" transform="scale(0.015625)"/>
      </defs>
      <use xlink:href="#DejaVuSans-73"/>
      <use xlink:href="#DejaVuSans-68" x="52.099609"/>
      <use xlink:href="#DejaVuSans-6f" x="115.478516"/>
      <use xlink:href="#DejaVuSans-72" x="176.660156"/>
      <use xlink:href="#DejaVuSans-74" x="217.773438"/>
      <use xlink:href="#DejaVuSans-65" x="256.982422"/>
      <use xlink:href="#DejaVuSans-6e" x="318.505859"/>
      <use xlink:href="#DejaVuSans-65" x="381.884766"/>
      <use xlink:href="#DejaVuSans-64" x="443.408203"/>
     </g>
    </g>
   </g>
  </g>
 </g>
 <defs>
  <clipPath id="p39c5bdda73">
   <rect x="156.1025" y="7.2" width="1082.52" height="598.752"/>
  </clipPath>
 </defs>
</svg>
