<?xml version="1.0" encoding="utf-8" standalone="no"?>
<!DOCTYPE svg PUBLIC "-//W3C//DTD SVG 1.1//EN"
  "http://www.w3.org/Graphics/SVG/1.1/DTD/svg11.dtd">
<svg xmlns:xlink="http://www.w3.org/1999/xlink" width="1245.8225pt" height="693.8345pt" viewBox="0 0 1245.8225 693.8345" xmlns="http://www.w3.org/2000/svg" version="1.1">
 <metadata>
  <rdf:RDF xmlns:dc="http://purl.org/dc/elements/1.1/" xmlns:cc="http://creativecommons.org/ns#" xmlns:rdf="http://www.w3.org/1999/02/22-rdf-syntax-ns#">
   <cc:Work>
    <dc:type rdf:resource="http://purl.org/dc/dcmitype/StillImage"/>
    <dc:date>2023-12-15T09:13:23.366077</dc:date>
    <dc:format>image/svg+xml</dc:format>
    <dc:creator>
     <cc:Agent>
      <dc:title>Matplotlib v3.8.1, https://matplotlib.org/</dc:title>
     </cc:Agent>
    </dc:creator>
   </cc:Work>
  </rdf:RDF>
 </metadata>
 <defs>
  <style type="text/css">*{stroke-linejoin: round; stroke-linecap: butt}</style>
 </defs>
 <g id="figure_1">
  <g id="patch_1">
   <path d="M 0 693.8345 
L 1245.8225 693.8345 
L 1245.8225 0 
L 0 0 
z
" style="fill: #ffffff"/>
  </g>
  <g id="axes_1">
   <g id="patch_2">
    <path d="M 156.1025 605.952 
L 1238.6225 605.952 
L 1238.6225 7.2 
L 156.1025 7.2 
z
" style="fill: #ffffff"/>
   </g>
   <g id="PolyCollection_1">
    <path d="M 342.3425 605.952 
L 342.3425 562.876865 
L 353.9825 557.650285 
L 365.6225 552.482083 
L 377.2625 547.460586 
L 388.9025 542.659308 
L 400.5425 538.130372 
L 412.1825 533.898009 
L 423.8225 529.952527 
L 435.4625 526.245537 
L 447.1025 522.687501 
L 458.7425 519.148759 
L 470.3825 515.464928 
L 482.0225 511.446986 
L 493.6625 506.895481 
L 505.3025 501.617402 
L 516.9425 495.443552 
L 528.5825 488.243916 
L 540.2225 479.93878 
L 551.8625 470.504033 
L 563.5025 459.970188 
L 575.1425 448.41577 
L 586.7825 435.956676 
L 598.4225 422.73367 
L 610.0625 408.900174 
L 621.7025 394.612101 
L 633.3425 380.020688 
L 644.9825 365.268436 
L 656.6225 350.487512 
L 668.2625 335.799471 
L 679.9025 321.315107 
L 691.5425 307.133455 
L 703.1825 293.339524 
L 714.8225 280.00098 
L 726.4625 267.16454 
L 738.1025 254.853158 
L 749.7425 243.064984 
L 761.3825 231.77461 
L 773.0225 220.936331 
L 784.6625 210.488354 
L 796.3025 200.356345 
L 807.9425 190.454738 
L 819.5825 180.684969 
L 831.2225 170.931131 
L 842.8625 161.055213 
L 854.5025 150.895398 
L 866.1425 140.271519 
L 877.7825 129.001092 
L 889.4225 116.927514 
L 901.0625 103.959125 
L 912.7025 90.114695 
L 924.3425 75.568145 
L 935.9825 60.683729 
L 947.6225 46.03296 
L 959.2625 32.386408 
L 970.9025 20.676825 
L 982.5425 11.934456 
L 994.1825 7.2 
L 1005.8225 7.42479 
L 1017.4625 13.370608 
L 1029.1025 25.522514 
L 1040.7425 44.026917 
L 1052.3825 68.663909 
L 1064.0225 98.857996 
L 1075.6625 133.725756 
L 1087.3025 172.153491 
L 1098.9425 212.893795 
L 1110.5825 254.667793 
L 1122.2225 296.260051 
L 1133.8625 336.595635 
L 1145.5025 374.792716 
L 1157.1425 410.188767 
L 1168.7825 442.342506 
L 1168.7825 605.952 
L 1168.7825 605.952 
L 1157.1425 605.952 
L 1145.5025 605.952 
L 1133.8625 605.952 
L 1122.2225 605.952 
L 1110.5825 605.952 
L 1098.9425 605.952 
L 1087.3025 605.952 
L 1075.6625 605.952 
L 1064.0225 605.952 
L 1052.3825 605.952 
L 1040.7425 605.952 
L 1029.1025 605.952 
L 1017.4625 605.952 
L 1005.8225 605.952 
L 994.1825 605.952 
L 982.5425 605.952 
L 970.9025 605.952 
L 959.2625 605.952 
L 947.6225 605.952 
L 935.9825 605.952 
L 924.3425 605.952 
L 912.7025 605.952 
L 901.0625 605.952 
L 889.4225 605.952 
L 877.7825 605.952 
L 866.1425 605.952 
L 854.5025 605.952 
L 842.8625 605.952 
L 831.2225 605.952 
L 819.5825 605.952 
L 807.9425 605.952 
L 796.3025 605.952 
L 784.6625 605.952 
L 773.0225 605.952 
L 761.3825 605.952 
L 749.7425 605.952 
L 738.1025 605.952 
L 726.4625 605.952 
L 714.8225 605.952 
L 703.1825 605.952 
L 691.5425 605.952 
L 679.9025 605.952 
L 668.2625 605.952 
L 656.6225 605.952 
L 644.9825 605.952 
L 633.3425 605.952 
L 621.7025 605.952 
L 610.0625 605.952 
L 598.4225 605.952 
L 586.7825 605.952 
L 575.1425 605.952 
L 563.5025 605.952 
L 551.8625 605.952 
L 540.2225 605.952 
L 528.5825 605.952 
L 516.9425 605.952 
L 505.3025 605.952 
L 493.6625 605.952 
L 482.0225 605.952 
L 470.3825 605.952 
L 458.7425 605.952 
L 447.1025 605.952 
L 435.4625 605.952 
L 423.8225 605.952 
L 412.1825 605.952 
L 400.5425 605.952 
L 388.9025 605.952 
L 377.2625 605.952 
L 365.6225 605.952 
L 353.9825 605.952 
L 342.3425 605.952 
z
" clip-path="url(#pbbc368e64f)" style="fill: #1f77b4; fill-opacity: 0.4"/>
   </g>
   <g id="PolyCollection_2">
    <path d="M 353.9825 605.952 
L 353.9825 545.226587 
L 365.6225 539.787185 
L 377.2625 534.772439 
L 388.9025 530.228676 
L 400.5425 526.146825 
L 412.1825 522.460843 
L 423.8225 519.052741 
L 435.4625 515.764198 
L 447.1025 512.413832 
L 458.7425 508.818398 
L 470.3825 504.815422 
L 482.0225 500.284352 
L 493.6625 495.163194 
L 505.3025 489.457952 
L 516.9425 483.243026 
L 528.5825 476.651908 
L 540.2225 469.858982 
L 551.8625 463.054673 
L 563.5025 456.417397 
L 575.1425 450.086417 
L 586.7825 444.139736 
L 598.4225 438.580362 
L 610.0625 433.332962 
L 621.7025 428.251109 
L 633.3425 423.133546 
L 644.9825 417.746354 
L 656.6225 411.847096 
L 668.2625 405.206904 
L 679.9025 397.627296 
L 691.5425 388.949904 
L 703.1825 379.059039 
L 714.8225 367.878683 
L 726.4625 355.366638 
L 738.1025 341.508957 
L 749.7425 326.317321 
L 761.3825 309.830773 
L 773.0225 292.1216 
L 784.6625 273.303505 
L 796.3025 253.539084 
L 807.9425 233.04331 
L 819.5825 212.080398 
L 831.2225 190.952975 
L 842.8625 169.984486 
L 854.5025 149.497774 
L 866.1425 129.794114 
L 877.7825 111.137368 
L 889.4225 93.74701 
L 901.0625 77.80187 
L 912.7025 63.453855 
L 924.3425 50.848378 
L 935.9825 40.146322 
L 947.6225 31.541651 
L 959.2625 25.269495 
L 970.9025 21.60145 
L 982.5425 20.827618 
L 994.1825 23.227853 
L 1005.8225 29.037057 
L 1017.4625 38.410717 
L 1029.1025 51.396857 
L 1040.7425 67.919231 
L 1052.3825 87.774328 
L 1064.0225 110.642122 
L 1075.6625 136.108022 
L 1087.3025 163.691825 
L 1098.9425 192.878794 
L 1110.5825 223.14839 
L 1122.2225 253.997429 
L 1133.8625 284.956128 
L 1145.5025 315.597183 
L 1157.1425 345.539338 
L 1168.7825 374.447562 
L 1180.4225 402.031983 
L 1192.0625 428.047208 
L 1203.7025 452.29282 
L 1215.3425 474.615026 
L 1226.9825 494.908747 
L 1238.6225 513.119151 
L 1238.6225 605.952 
L 1238.6225 605.952 
L 1226.9825 605.952 
L 1215.3425 605.952 
L 1203.7025 605.952 
L 1192.0625 605.952 
L 1180.4225 605.952 
L 1168.7825 605.952 
L 1157.1425 605.952 
L 1145.5025 605.952 
L 1133.8625 605.952 
L 1122.2225 605.952 
L 1110.5825 605.952 
L 1098.9425 605.952 
L 1087.3025 605.952 
L 1075.6625 605.952 
L 1064.0225 605.952 
L 1052.3825 605.952 
L 1040.7425 605.952 
L 1029.1025 605.952 
L 1017.4625 605.952 
L 1005.8225 605.952 
L 994.1825 605.952 
L 982.5425 605.952 
L 970.9025 605.952 
L 959.2625 605.952 
L 947.6225 605.952 
L 935.9825 605.952 
L 924.3425 605.952 
L 912.7025 605.952 
L 901.0625 605.952 
L 889.4225 605.952 
L 877.7825 605.952 
L 866.1425 605.952 
L 854.5025 605.952 
L 842.8625 605.952 
L 831.2225 605.952 
L 819.5825 605.952 
L 807.9425 605.952 
L 796.3025 605.952 
L 784.6625 605.952 
L 773.0225 605.952 
L 761.3825 605.952 
L 749.7425 605.952 
L 738.1025 605.952 
L 726.4625 605.952 
L 714.8225 605.952 
L 703.1825 605.952 
L 691.5425 605.952 
L 679.9025 605.952 
L 668.2625 605.952 
L 656.6225 605.952 
L 644.9825 605.952 
L 633.3425 605.952 
L 621.7025 605.952 
L 610.0625 605.952 
L 598.4225 605.952 
L 586.7825 605.952 
L 575.1425 605.952 
L 563.5025 605.952 
L 551.8625 605.952 
L 540.2225 605.952 
L 528.5825 605.952 
L 516.9425 605.952 
L 505.3025 605.952 
L 493.6625 605.952 
L 482.0225 605.952 
L 470.3825 605.952 
L 458.7425 605.952 
L 447.1025 605.952 
L 435.4625 605.952 
L 423.8225 605.952 
L 412.1825 605.952 
L 400.5425 605.952 
L 388.9025 605.952 
L 377.2625 605.952 
L 365.6225 605.952 
L 353.9825 605.952 
z
" clip-path="url(#pbbc368e64f)" style="fill: #ff7f0e; fill-opacity: 0.4"/>
   </g>
   <g id="PolyCollection_3">
    <path d="M 156.1025 605.952 
L 156.1025 592.0388 
L 167.7425 591.264909 
L 179.3825 590.492701 
L 191.0225 589.652326 
L 202.6625 588.654442 
L 214.3025 587.394933 
L 225.9425 585.761733 
L 237.5825 583.643286 
L 249.2225 580.937946 
L 260.8625 577.563525 
L 272.5025 573.466068 
L 284.1425 568.626992 
L 295.7825 563.067794 
L 307.4225 556.851716 
L 319.0625 550.081989 
L 330.7025 542.896536 
L 342.3425 535.459341 
L 353.9825 527.948988 
L 365.6225 520.54513 
L 377.2625 513.413931 
L 388.9025 506.69363 
L 400.5425 500.481517 
L 412.1825 494.823536 
L 423.8225 489.707625 
L 435.4625 485.06167 
L 447.1025 480.756561 
L 458.7425 476.614481 
L 470.3825 472.422034 
L 482.0225 467.947348 
L 493.6625 462.959862 
L 505.3025 457.251128 
L 516.9425 450.654736 
L 528.5825 443.063424 
L 540.2225 434.441574 
L 551.8625 424.831625 
L 563.5025 414.353469 
L 575.1425 403.196538 
L 586.7825 391.605058 
L 598.4225 379.857659 
L 610.0625 368.243228 
L 621.7025 357.035345 
L 633.3425 346.467915 
L 644.9825 336.714528 
L 656.6225 327.873721 
L 668.2625 319.961664 
L 679.9025 312.912913 
L 691.5425 306.588935 
L 703.1825 300.793133 
L 714.8225 295.290377 
L 726.4625 289.8285 
L 738.1025 284.159124 
L 749.7425 278.055385 
L 761.3825 271.324751 
L 773.0225 263.815965 
L 784.6625 255.420191 
L 796.3025 246.06743 
L 807.9425 235.720124 
L 819.5825 224.366388 
L 831.2225 212.01544 
L 842.8625 198.697395 
L 854.5025 184.468773 
L 866.1425 169.423908 
L 877.7825 153.71103 
L 889.4225 137.550516 
L 901.0625 121.251747 
L 912.7025 105.224512 
L 924.3425 89.98105 
L 935.9825 76.125746 
L 947.6225 64.331026 
L 959.2625 55.300011 
L 970.9025 49.718656 
L 982.5425 48.201997 
L 994.1825 51.240525 
L 1005.8225 59.153151 
L 1017.4625 72.052782 
L 1029.1025 89.829046 
L 1040.7425 112.150515 
L 1052.3825 138.486246 
L 1064.0225 168.143895 
L 1075.6625 200.319646 
L 1087.3025 234.153962 
L 1098.9425 268.786871 
L 1110.5825 303.407183 
L 1122.2225 337.291474 
L 1133.8625 369.830498 
L 1145.5025 400.542665 
L 1145.5025 605.952 
L 1145.5025 605.952 
L 1133.8625 605.952 
L 1122.2225 605.952 
L 1110.5825 605.952 
L 1098.9425 605.952 
L 1087.3025 605.952 
L 1075.6625 605.952 
L 1064.0225 605.952 
L 1052.3825 605.952 
L 1040.7425 605.952 
L 1029.1025 605.952 
L 1017.4625 605.952 
L 1005.8225 605.952 
L 994.1825 605.952 
L 982.5425 605.952 
L 970.9025 605.952 
L 959.2625 605.952 
L 947.6225 605.952 
L 935.9825 605.952 
L 924.3425 605.952 
L 912.7025 605.952 
L 901.0625 605.952 
L 889.4225 605.952 
L 877.7825 605.952 
L 866.1425 605.952 
L 854.5025 605.952 
L 842.8625 605.952 
L 831.2225 605.952 
L 819.5825 605.952 
L 807.9425 605.952 
L 796.3025 605.952 
L 784.6625 605.952 
L 773.0225 605.952 
L 761.3825 605.952 
L 749.7425 605.952 
L 738.1025 605.952 
L 726.4625 605.952 
L 714.8225 605.952 
L 703.1825 605.952 
L 691.5425 605.952 
L 679.9025 605.952 
L 668.2625 605.952 
L 656.6225 605.952 
L 644.9825 605.952 
L 633.3425 605.952 
L 621.7025 605.952 
L 610.0625 605.952 
L 598.4225 605.952 
L 586.7825 605.952 
L 575.1425 605.952 
L 563.5025 605.952 
L 551.8625 605.952 
L 540.2225 605.952 
L 528.5825 605.952 
L 516.9425 605.952 
L 505.3025 605.952 
L 493.6625 605.952 
L 482.0225 605.952 
L 470.3825 605.952 
L 458.7425 605.952 
L 447.1025 605.952 
L 435.4625 605.952 
L 423.8225 605.952 
L 412.1825 605.952 
L 400.5425 605.952 
L 388.9025 605.952 
L 377.2625 605.952 
L 365.6225 605.952 
L 353.9825 605.952 
L 342.3425 605.952 
L 330.7025 605.952 
L 319.0625 605.952 
L 307.4225 605.952 
L 295.7825 605.952 
L 284.1425 605.952 
L 272.5025 605.952 
L 260.8625 605.952 
L 249.2225 605.952 
L 237.5825 605.952 
L 225.9425 605.952 
L 214.3025 605.952 
L 202.6625 605.952 
L 191.0225 605.952 
L 179.3825 605.952 
L 167.7425 605.952 
L 156.1025 605.952 
z
" clip-path="url(#pbbc368e64f)" style="fill: #2ca02c; fill-opacity: 0.4"/>
   </g>
   <g id="matplotlib.axis_1">
    <g id="xtick_1">
     <g id="line2d_1">
      <defs>
       <path id="m9f374304c0" d="M 0 0 
L 0 3.5 
" style="stroke: #000000; stroke-width: 0.8"/>
      </defs>
      <g>
       <use xlink:href="#m9f374304c0" x="225.9425" y="605.952" style="stroke: #000000; stroke-width: 0.8"/>
      </g>
     </g>
     <g id="text_1">
      <!-- −100 -->
      <g transform="translate(176.501563 640.306375) scale(0.36 -0.36)">
       <defs>
        <path id="DejaVuSans-2212" d="M 678 2272 
L 4684 2272 
L 4684 1741 
L 678 1741 
L 678 2272 
z
" transform="scale(0.015625)"/>
        <path id="DejaVuSans-31" d="M 794 531 
L 1825 531 
L 1825 4091 
L 703 3866 
L 703 4441 
L 1819 4666 
L 2450 4666 
L 2450 531 
L 3481 531 
L 3481 0 
L 794 0 
L 794 531 
z
" transform="scale(0.015625)"/>
        <path id="DejaVuSans-30" d="M 2034 4250 
Q 1547 4250 1301 3770 
Q 1056 3291 1056 2328 
Q 1056 1369 1301 889 
Q 1547 409 2034 409 
Q 2525 409 2770 889 
Q 3016 1369 3016 2328 
Q 3016 3291 2770 3770 
Q 2525 4250 2034 4250 
z
M 2034 4750 
Q 2819 4750 3233 4129 
Q 3647 3509 3647 2328 
Q 3647 1150 3233 529 
Q 2819 -91 2034 -91 
Q 1250 -91 836 529 
Q 422 1150 422 2328 
Q 422 3509 836 4129 
Q 1250 4750 2034 4750 
z
" transform="scale(0.015625)"/>
       </defs>
       <use xlink:href="#DejaVuSans-2212"/>
       <use xlink:href="#DejaVuSans-31" x="83.789062"/>
       <use xlink:href="#DejaVuSans-30" x="147.412109"/>
       <use xlink:href="#DejaVuSans-30" x="211.035156"/>
      </g>
     </g>
    </g>
    <g id="xtick_2">
     <g id="line2d_2">
      <g>
       <use xlink:href="#m9f374304c0" x="458.7425" y="605.952" style="stroke: #000000; stroke-width: 0.8"/>
      </g>
     </g>
     <g id="text_2">
      <!-- −80 -->
      <g transform="translate(420.754063 640.306375) scale(0.36 -0.36)">
       <defs>
        <path id="DejaVuSans-38" d="M 2034 2216 
Q 1584 2216 1326 1975 
Q 1069 1734 1069 1313 
Q 1069 891 1326 650 
Q 1584 409 2034 409 
Q 2484 409 2743 651 
Q 3003 894 3003 1313 
Q 3003 1734 2745 1975 
Q 2488 2216 2034 2216 
z
M 1403 2484 
Q 997 2584 770 2862 
Q 544 3141 544 3541 
Q 544 4100 942 4425 
Q 1341 4750 2034 4750 
Q 2731 4750 3128 4425 
Q 3525 4100 3525 3541 
Q 3525 3141 3298 2862 
Q 3072 2584 2669 2484 
Q 3125 2378 3379 2068 
Q 3634 1759 3634 1313 
Q 3634 634 3220 271 
Q 2806 -91 2034 -91 
Q 1263 -91 848 271 
Q 434 634 434 1313 
Q 434 1759 690 2068 
Q 947 2378 1403 2484 
z
M 1172 3481 
Q 1172 3119 1398 2916 
Q 1625 2713 2034 2713 
Q 2441 2713 2670 2916 
Q 2900 3119 2900 3481 
Q 2900 3844 2670 4047 
Q 2441 4250 2034 4250 
Q 1625 4250 1398 4047 
Q 1172 3844 1172 3481 
z
" transform="scale(0.015625)"/>
       </defs>
       <use xlink:href="#DejaVuSans-2212"/>
       <use xlink:href="#DejaVuSans-38" x="83.789062"/>
       <use xlink:href="#DejaVuSans-30" x="147.412109"/>
      </g>
     </g>
    </g>
    <g id="xtick_3">
     <g id="line2d_3">
      <g>
       <use xlink:href="#m9f374304c0" x="691.5425" y="605.952" style="stroke: #000000; stroke-width: 0.8"/>
      </g>
     </g>
     <g id="text_3">
      <!-- −60 -->
      <g transform="translate(653.554062 640.306375) scale(0.36 -0.36)">
       <defs>
        <path id="DejaVuSans-36" d="M 2113 2584 
Q 1688 2584 1439 2293 
Q 1191 2003 1191 1497 
Q 1191 994 1439 701 
Q 1688 409 2113 409 
Q 2538 409 2786 701 
Q 3034 994 3034 1497 
Q 3034 2003 2786 2293 
Q 2538 2584 2113 2584 
z
M 3366 4563 
L 3366 3988 
Q 3128 4100 2886 4159 
Q 2644 4219 2406 4219 
Q 1781 4219 1451 3797 
Q 1122 3375 1075 2522 
Q 1259 2794 1537 2939 
Q 1816 3084 2150 3084 
Q 2853 3084 3261 2657 
Q 3669 2231 3669 1497 
Q 3669 778 3244 343 
Q 2819 -91 2113 -91 
Q 1303 -91 875 529 
Q 447 1150 447 2328 
Q 447 3434 972 4092 
Q 1497 4750 2381 4750 
Q 2619 4750 2861 4703 
Q 3103 4656 3366 4563 
z
" transform="scale(0.015625)"/>
       </defs>
       <use xlink:href="#DejaVuSans-2212"/>
       <use xlink:href="#DejaVuSans-36" x="83.789062"/>
       <use xlink:href="#DejaVuSans-30" x="147.412109"/>
      </g>
     </g>
    </g>
    <g id="xtick_4">
     <g id="line2d_4">
      <g>
       <use xlink:href="#m9f374304c0" x="924.3425" y="605.952" style="stroke: #000000; stroke-width: 0.8"/>
      </g>
     </g>
     <g id="text_4">
      <!-- −40 -->
      <g transform="translate(886.354063 640.306375) scale(0.36 -0.36)">
       <defs>
        <path id="DejaVuSans-34" d="M 2419 4116 
L 825 1625 
L 2419 1625 
L 2419 4116 
z
M 2253 4666 
L 3047 4666 
L 3047 1625 
L 3713 1625 
L 3713 1100 
L 3047 1100 
L 3047 0 
L 2419 0 
L 2419 1100 
L 313 1100 
L 313 1709 
L 2253 4666 
z
" transform="scale(0.015625)"/>
       </defs>
       <use xlink:href="#DejaVuSans-2212"/>
       <use xlink:href="#DejaVuSans-34" x="83.789062"/>
       <use xlink:href="#DejaVuSans-30" x="147.412109"/>
      </g>
     </g>
    </g>
    <g id="xtick_5">
     <g id="line2d_5">
      <g>
       <use xlink:href="#m9f374304c0" x="1157.1425" y="605.952" style="stroke: #000000; stroke-width: 0.8"/>
      </g>
     </g>
     <g id="text_5">
      <!-- −20 -->
      <g transform="translate(1119.154063 640.306375) scale(0.36 -0.36)">
       <defs>
        <path id="DejaVuSans-32" d="M 1228 531 
L 3431 531 
L 3431 0 
L 469 0 
L 469 531 
Q 828 903 1448 1529 
Q 2069 2156 2228 2338 
Q 2531 2678 2651 2914 
Q 2772 3150 2772 3378 
Q 2772 3750 2511 3984 
Q 2250 4219 1831 4219 
Q 1534 4219 1204 4116 
Q 875 4013 500 3803 
L 500 4441 
Q 881 4594 1212 4672 
Q 1544 4750 1819 4750 
Q 2544 4750 2975 4387 
Q 3406 4025 3406 3419 
Q 3406 3131 3298 2873 
Q 3191 2616 2906 2266 
Q 2828 2175 2409 1742 
Q 1991 1309 1228 531 
z
" transform="scale(0.015625)"/>
       </defs>
       <use xlink:href="#DejaVuSans-2212"/>
       <use xlink:href="#DejaVuSans-32" x="83.789062"/>
       <use xlink:href="#DejaVuSans-30" x="147.412109"/>
      </g>
     </g>
    </g>
    <g id="text_6">
     <!-- $UID_{wordwise}$ -->
     <g transform="translate(605.2025 679.147625) scale(0.36 -0.36)">
      <defs>
       <path id="DejaVuSans-Oblique-55" d="M 991 4666 
L 1625 4666 
L 1075 1831 
Q 1041 1641 1027 1517 
Q 1013 1394 1013 1300 
Q 1013 869 1253 645 
Q 1494 422 1959 422 
Q 2563 422 2898 753 
Q 3234 1084 3378 1831 
L 3928 4666 
L 4563 4666 
L 4000 1753 
Q 3816 809 3300 359 
Q 2784 -91 1888 -91 
Q 1188 -91 780 261 
Q 372 613 372 1216 
Q 372 1325 387 1461 
Q 403 1597 434 1753 
L 991 4666 
z
" transform="scale(0.015625)"/>
       <path id="DejaVuSans-Oblique-49" d="M 1081 4666 
L 1716 4666 
L 806 0 
L 172 0 
L 1081 4666 
z
" transform="scale(0.015625)"/>
       <path id="DejaVuSans-Oblique-44" d="M 1081 4666 
L 2438 4666 
Q 3519 4666 4070 4208 
Q 4622 3750 4622 2847 
Q 4622 2250 4412 1698 
Q 4203 1147 3834 769 
Q 3463 381 2891 190 
Q 2319 0 1538 0 
L 172 0 
L 1081 4666 
z
M 1613 4147 
L 909 519 
L 1734 519 
Q 2794 519 3375 1128 
Q 3956 1738 3956 2847 
Q 3956 3519 3581 3833 
Q 3206 4147 2406 4147 
L 1613 4147 
z
" transform="scale(0.015625)"/>
       <path id="DejaVuSans-Oblique-77" d="M 544 3500 
L 1113 3500 
L 1259 684 
L 2566 3500 
L 3231 3500 
L 3425 684 
L 4666 3500 
L 5241 3500 
L 3641 0 
L 2969 0 
L 2797 2900 
L 1459 0 
L 781 0 
L 544 3500 
z
" transform="scale(0.015625)"/>
       <path id="DejaVuSans-Oblique-6f" d="M 1625 -91 
Q 1009 -91 651 289 
Q 294 669 294 1325 
Q 294 1706 417 2101 
Q 541 2497 738 2766 
Q 1047 3184 1428 3384 
Q 1809 3584 2291 3584 
Q 2888 3584 3255 3212 
Q 3622 2841 3622 2241 
Q 3622 1825 3500 1412 
Q 3378 1000 3181 728 
Q 2875 309 2494 109 
Q 2113 -91 1625 -91 
z
M 891 1344 
Q 891 869 1089 633 
Q 1288 397 1691 397 
Q 2269 397 2648 901 
Q 3028 1406 3028 2181 
Q 3028 2634 2825 2865 
Q 2622 3097 2228 3097 
Q 1903 3097 1650 2945 
Q 1397 2794 1197 2484 
Q 1050 2253 970 1956 
Q 891 1659 891 1344 
z
" transform="scale(0.015625)"/>
       <path id="DejaVuSans-Oblique-72" d="M 2853 2969 
Q 2766 3016 2653 3041 
Q 2541 3066 2413 3066 
Q 1953 3066 1609 2717 
Q 1266 2369 1153 1784 
L 800 0 
L 225 0 
L 909 3500 
L 1484 3500 
L 1375 2956 
Q 1603 3259 1920 3421 
Q 2238 3584 2597 3584 
Q 2691 3584 2781 3573 
Q 2872 3563 2963 3538 
L 2853 2969 
z
" transform="scale(0.015625)"/>
       <path id="DejaVuSans-Oblique-64" d="M 2675 525 
Q 2444 222 2128 65 
Q 1813 -91 1428 -91 
Q 903 -91 598 267 
Q 294 625 294 1247 
Q 294 1766 478 2236 
Q 663 2706 1013 3078 
Q 1244 3325 1534 3454 
Q 1825 3584 2144 3584 
Q 2481 3584 2739 3421 
Q 2997 3259 3138 2956 
L 3513 4863 
L 4091 4863 
L 3144 0 
L 2566 0 
L 2675 525 
z
M 891 1350 
Q 891 897 1095 644 
Q 1300 391 1663 391 
Q 1931 391 2161 520 
Q 2391 650 2566 903 
Q 2750 1166 2856 1509 
Q 2963 1853 2963 2188 
Q 2963 2622 2758 2865 
Q 2553 3109 2194 3109 
Q 1922 3109 1687 2981 
Q 1453 2853 1288 2613 
Q 1106 2353 998 2009 
Q 891 1666 891 1350 
z
" transform="scale(0.015625)"/>
       <path id="DejaVuSans-Oblique-69" d="M 1172 4863 
L 1747 4863 
L 1606 4134 
L 1031 4134 
L 1172 4863 
z
M 909 3500 
L 1484 3500 
L 800 0 
L 225 0 
L 909 3500 
z
" transform="scale(0.015625)"/>
       <path id="DejaVuSans-Oblique-73" d="M 3200 3397 
L 3091 2853 
Q 2863 2978 2609 3040 
Q 2356 3103 2088 3103 
Q 1634 3103 1373 2948 
Q 1113 2794 1113 2528 
Q 1113 2219 1719 2053 
Q 1766 2041 1788 2034 
L 1972 1978 
Q 2547 1819 2739 1644 
Q 2931 1469 2931 1166 
Q 2931 609 2489 259 
Q 2047 -91 1331 -91 
Q 1053 -91 747 -37 
Q 441 16 72 128 
L 184 722 
Q 500 559 806 475 
Q 1113 391 1394 391 
Q 1816 391 2080 572 
Q 2344 753 2344 1031 
Q 2344 1331 1650 1516 
L 1591 1531 
L 1394 1581 
Q 956 1697 753 1886 
Q 550 2075 550 2369 
Q 550 2928 970 3256 
Q 1391 3584 2113 3584 
Q 2397 3584 2667 3537 
Q 2938 3491 3200 3397 
z
" transform="scale(0.015625)"/>
       <path id="DejaVuSans-Oblique-65" d="M 3078 2063 
Q 3088 2113 3092 2166 
Q 3097 2219 3097 2272 
Q 3097 2653 2873 2875 
Q 2650 3097 2266 3097 
Q 1838 3097 1509 2826 
Q 1181 2556 1013 2059 
L 3078 2063 
z
M 3578 1613 
L 903 1613 
Q 884 1494 878 1425 
Q 872 1356 872 1306 
Q 872 872 1139 634 
Q 1406 397 1894 397 
Q 2269 397 2603 481 
Q 2938 566 3225 728 
L 3116 159 
Q 2806 34 2476 -28 
Q 2147 -91 1806 -91 
Q 1078 -91 686 257 
Q 294 606 294 1247 
Q 294 1794 489 2264 
Q 684 2734 1063 3103 
Q 1306 3334 1642 3459 
Q 1978 3584 2356 3584 
Q 2950 3584 3301 3228 
Q 3653 2872 3653 2272 
Q 3653 2128 3634 1964 
Q 3616 1800 3578 1613 
z
" transform="scale(0.015625)"/>
      </defs>
      <use xlink:href="#DejaVuSans-Oblique-55" transform="translate(0 0.09375)"/>
      <use xlink:href="#DejaVuSans-Oblique-49" transform="translate(73.193359 0.09375)"/>
      <use xlink:href="#DejaVuSans-Oblique-44" transform="translate(102.685547 0.09375)"/>
      <use xlink:href="#DejaVuSans-Oblique-77" transform="translate(179.6875 -16.3125) scale(0.7)"/>
      <use xlink:href="#DejaVuSans-Oblique-6f" transform="translate(236.938477 -16.3125) scale(0.7)"/>
      <use xlink:href="#DejaVuSans-Oblique-72" transform="translate(279.765625 -16.3125) scale(0.7)"/>
      <use xlink:href="#DejaVuSans-Oblique-64" transform="translate(308.544922 -16.3125) scale(0.7)"/>
      <use xlink:href="#DejaVuSans-Oblique-77" transform="translate(352.978516 -16.3125) scale(0.7)"/>
      <use xlink:href="#DejaVuSans-Oblique-69" transform="translate(410.229492 -16.3125) scale(0.7)"/>
      <use xlink:href="#DejaVuSans-Oblique-73" transform="translate(429.677734 -16.3125) scale(0.7)"/>
      <use xlink:href="#DejaVuSans-Oblique-65" transform="translate(466.147461 -16.3125) scale(0.7)"/>
     </g>
    </g>
   </g>
   <g id="matplotlib.axis_2">
    <g id="ytick_1">
     <g id="line2d_6">
      <defs>
       <path id="m1a435b9a0c" d="M 0 0 
L -3.5 0 
" style="stroke: #000000; stroke-width: 0.8"/>
      </defs>
      <g>
       <use xlink:href="#m1a435b9a0c" x="156.1025" y="605.952" style="stroke: #000000; stroke-width: 0.8"/>
      </g>
     </g>
     <g id="text_7">
      <!-- 0.000 -->
      <g transform="translate(46.04125 619.629187) scale(0.36 -0.36)">
       <defs>
        <path id="DejaVuSans-2e" d="M 684 794 
L 1344 794 
L 1344 0 
L 684 0 
L 684 794 
z
" transform="scale(0.015625)"/>
       </defs>
       <use xlink:href="#DejaVuSans-30"/>
       <use xlink:href="#DejaVuSans-2e" x="63.623047"/>
       <use xlink:href="#DejaVuSans-30" x="95.410156"/>
       <use xlink:href="#DejaVuSans-30" x="159.033203"/>
       <use xlink:href="#DejaVuSans-30" x="222.65625"/>
      </g>
     </g>
    </g>
    <g id="ytick_2">
     <g id="line2d_7">
      <g>
       <use xlink:href="#m1a435b9a0c" x="156.1025" y="490.314214" style="stroke: #000000; stroke-width: 0.8"/>
      </g>
     </g>
     <g id="text_8">
      <!-- 0.005 -->
      <g transform="translate(46.04125 503.991401) scale(0.36 -0.36)">
       <defs>
        <path id="DejaVuSans-35" d="M 691 4666 
L 3169 4666 
L 3169 4134 
L 1269 4134 
L 1269 2991 
Q 1406 3038 1543 3061 
Q 1681 3084 1819 3084 
Q 2600 3084 3056 2656 
Q 3513 2228 3513 1497 
Q 3513 744 3044 326 
Q 2575 -91 1722 -91 
Q 1428 -91 1123 -41 
Q 819 9 494 109 
L 494 744 
Q 775 591 1075 516 
Q 1375 441 1709 441 
Q 2250 441 2565 725 
Q 2881 1009 2881 1497 
Q 2881 1984 2565 2268 
Q 2250 2553 1709 2553 
Q 1456 2553 1204 2497 
Q 953 2441 691 2322 
L 691 4666 
z
" transform="scale(0.015625)"/>
       </defs>
       <use xlink:href="#DejaVuSans-30"/>
       <use xlink:href="#DejaVuSans-2e" x="63.623047"/>
       <use xlink:href="#DejaVuSans-30" x="95.410156"/>
       <use xlink:href="#DejaVuSans-30" x="159.033203"/>
       <use xlink:href="#DejaVuSans-35" x="222.65625"/>
      </g>
     </g>
    </g>
    <g id="ytick_3">
     <g id="line2d_8">
      <g>
       <use xlink:href="#m1a435b9a0c" x="156.1025" y="374.676428" style="stroke: #000000; stroke-width: 0.8"/>
      </g>
     </g>
     <g id="text_9">
      <!-- 0.010 -->
      <g transform="translate(46.04125 388.353615) scale(0.36 -0.36)">
       <use xlink:href="#DejaVuSans-30"/>
       <use xlink:href="#DejaVuSans-2e" x="63.623047"/>
       <use xlink:href="#DejaVuSans-30" x="95.410156"/>
       <use xlink:href="#DejaVuSans-31" x="159.033203"/>
       <use xlink:href="#DejaVuSans-30" x="222.65625"/>
      </g>
     </g>
    </g>
    <g id="ytick_4">
     <g id="line2d_9">
      <g>
       <use xlink:href="#m1a435b9a0c" x="156.1025" y="259.038641" style="stroke: #000000; stroke-width: 0.8"/>
      </g>
     </g>
     <g id="text_10">
      <!-- 0.015 -->
      <g transform="translate(46.04125 272.715829) scale(0.36 -0.36)">
       <use xlink:href="#DejaVuSans-30"/>
       <use xlink:href="#DejaVuSans-2e" x="63.623047"/>
       <use xlink:href="#DejaVuSans-30" x="95.410156"/>
       <use xlink:href="#DejaVuSans-31" x="159.033203"/>
       <use xlink:href="#DejaVuSans-35" x="222.65625"/>
      </g>
     </g>
    </g>
    <g id="ytick_5">
     <g id="line2d_10">
      <g>
       <use xlink:href="#m1a435b9a0c" x="156.1025" y="143.400855" style="stroke: #000000; stroke-width: 0.8"/>
      </g>
     </g>
     <g id="text_11">
      <!-- 0.020 -->
      <g transform="translate(46.04125 157.078043) scale(0.36 -0.36)">
       <use xlink:href="#DejaVuSans-30"/>
       <use xlink:href="#DejaVuSans-2e" x="63.623047"/>
       <use xlink:href="#DejaVuSans-30" x="95.410156"/>
       <use xlink:href="#DejaVuSans-32" x="159.033203"/>
       <use xlink:href="#DejaVuSans-30" x="222.65625"/>
      </g>
     </g>
    </g>
    <g id="ytick_6">
     <g id="line2d_11">
      <g>
       <use xlink:href="#m1a435b9a0c" x="156.1025" y="27.763069" style="stroke: #000000; stroke-width: 0.8"/>
      </g>
     </g>
     <g id="text_12">
      <!-- 0.025 -->
      <g transform="translate(46.04125 41.440256) scale(0.36 -0.36)">
       <use xlink:href="#DejaVuSans-30"/>
       <use xlink:href="#DejaVuSans-2e" x="63.623047"/>
       <use xlink:href="#DejaVuSans-30" x="95.410156"/>
       <use xlink:href="#DejaVuSans-32" x="159.033203"/>
       <use xlink:href="#DejaVuSans-35" x="222.65625"/>
      </g>
     </g>
    </g>
    <g id="text_13">
     <!-- density -->
     <g transform="translate(34.554375 372.574125) rotate(-90) scale(0.36 -0.36)">
      <defs>
       <path id="DejaVuSans-64" d="M 2906 2969 
L 2906 4863 
L 3481 4863 
L 3481 0 
L 2906 0 
L 2906 525 
Q 2725 213 2448 61 
Q 2172 -91 1784 -91 
Q 1150 -91 751 415 
Q 353 922 353 1747 
Q 353 2572 751 3078 
Q 1150 3584 1784 3584 
Q 2172 3584 2448 3432 
Q 2725 3281 2906 2969 
z
M 947 1747 
Q 947 1113 1208 752 
Q 1469 391 1925 391 
Q 2381 391 2643 752 
Q 2906 1113 2906 1747 
Q 2906 2381 2643 2742 
Q 2381 3103 1925 3103 
Q 1469 3103 1208 2742 
Q 947 2381 947 1747 
z
" transform="scale(0.015625)"/>
       <path id="DejaVuSans-65" d="M 3597 1894 
L 3597 1613 
L 953 1613 
Q 991 1019 1311 708 
Q 1631 397 2203 397 
Q 2534 397 2845 478 
Q 3156 559 3463 722 
L 3463 178 
Q 3153 47 2828 -22 
Q 2503 -91 2169 -91 
Q 1331 -91 842 396 
Q 353 884 353 1716 
Q 353 2575 817 3079 
Q 1281 3584 2069 3584 
Q 2775 3584 3186 3129 
Q 3597 2675 3597 1894 
z
M 3022 2063 
Q 3016 2534 2758 2815 
Q 2500 3097 2075 3097 
Q 1594 3097 1305 2825 
Q 1016 2553 972 2059 
L 3022 2063 
z
" transform="scale(0.015625)"/>
       <path id="DejaVuSans-6e" d="M 3513 2113 
L 3513 0 
L 2938 0 
L 2938 2094 
Q 2938 2591 2744 2837 
Q 2550 3084 2163 3084 
Q 1697 3084 1428 2787 
Q 1159 2491 1159 1978 
L 1159 0 
L 581 0 
L 581 3500 
L 1159 3500 
L 1159 2956 
Q 1366 3272 1645 3428 
Q 1925 3584 2291 3584 
Q 2894 3584 3203 3211 
Q 3513 2838 3513 2113 
z
" transform="scale(0.015625)"/>
       <path id="DejaVuSans-73" d="M 2834 3397 
L 2834 2853 
Q 2591 2978 2328 3040 
Q 2066 3103 1784 3103 
Q 1356 3103 1142 2972 
Q 928 2841 928 2578 
Q 928 2378 1081 2264 
Q 1234 2150 1697 2047 
L 1894 2003 
Q 2506 1872 2764 1633 
Q 3022 1394 3022 966 
Q 3022 478 2636 193 
Q 2250 -91 1575 -91 
Q 1294 -91 989 -36 
Q 684 19 347 128 
L 347 722 
Q 666 556 975 473 
Q 1284 391 1588 391 
Q 1994 391 2212 530 
Q 2431 669 2431 922 
Q 2431 1156 2273 1281 
Q 2116 1406 1581 1522 
L 1381 1569 
Q 847 1681 609 1914 
Q 372 2147 372 2553 
Q 372 3047 722 3315 
Q 1072 3584 1716 3584 
Q 2034 3584 2315 3537 
Q 2597 3491 2834 3397 
z
" transform="scale(0.015625)"/>
       <path id="DejaVuSans-69" d="M 603 3500 
L 1178 3500 
L 1178 0 
L 603 0 
L 603 3500 
z
M 603 4863 
L 1178 4863 
L 1178 4134 
L 603 4134 
L 603 4863 
z
" transform="scale(0.015625)"/>
       <path id="DejaVuSans-74" d="M 1172 4494 
L 1172 3500 
L 2356 3500 
L 2356 3053 
L 1172 3053 
L 1172 1153 
Q 1172 725 1289 603 
Q 1406 481 1766 481 
L 2356 481 
L 2356 0 
L 1766 0 
Q 1100 0 847 248 
Q 594 497 594 1153 
L 594 3053 
L 172 3053 
L 172 3500 
L 594 3500 
L 594 4494 
L 1172 4494 
z
" transform="scale(0.015625)"/>
       <path id="DejaVuSans-79" d="M 2059 -325 
Q 1816 -950 1584 -1140 
Q 1353 -1331 966 -1331 
L 506 -1331 
L 506 -850 
L 844 -850 
Q 1081 -850 1212 -737 
Q 1344 -625 1503 -206 
L 1606 56 
L 191 3500 
L 800 3500 
L 1894 763 
L 2988 3500 
L 3597 3500 
L 2059 -325 
z
" transform="scale(0.015625)"/>
      </defs>
      <use xlink:href="#DejaVuSans-64"/>
      <use xlink:href="#DejaVuSans-65" x="63.476562"/>
      <use xlink:href="#DejaVuSans-6e" x="125"/>
      <use xlink:href="#DejaVuSans-73" x="188.378906"/>
      <use xlink:href="#DejaVuSans-69" x="240.478516"/>
      <use xlink:href="#DejaVuSans-74" x="268.261719"/>
      <use xlink:href="#DejaVuSans-79" x="307.470703"/>
     </g>
    </g>
   </g>
   <g id="line2d_12">
    <path d="M 342.3425 562.876865 
L 353.9825 557.650285 
L 365.6225 552.482083 
L 377.2625 547.460586 
L 388.9025 542.659308 
L 400.5425 538.130372 
L 412.1825 533.898009 
L 423.8225 529.952527 
L 435.4625 526.245537 
L 447.1025 522.687501 
L 458.7425 519.148759 
L 470.3825 515.464928 
L 482.0225 511.446986 
L 493.6625 506.895481 
L 505.3025 501.617402 
L 516.9425 495.443552 
L 528.5825 488.243916 
L 540.2225 479.93878 
L 551.8625 470.504033 
L 563.5025 459.970188 
L 575.1425 448.41577 
L 586.7825 435.956676 
L 598.4225 422.73367 
L 610.0625 408.900174 
L 621.7025 394.612101 
L 633.3425 380.020688 
L 644.9825 365.268436 
L 656.6225 350.487512 
L 668.2625 335.799471 
L 679.9025 321.315107 
L 691.5425 307.133455 
L 703.1825 293.339524 
L 714.8225 280.00098 
L 726.4625 267.16454 
L 738.1025 254.853158 
L 749.7425 243.064984 
L 761.3825 231.77461 
L 773.0225 220.936331 
L 784.6625 210.488354 
L 796.3025 200.356345 
L 807.9425 190.454738 
L 819.5825 180.684969 
L 831.2225 170.931131 
L 842.8625 161.055213 
L 854.5025 150.895398 
L 866.1425 140.271519 
L 877.7825 129.001092 
L 889.4225 116.927514 
L 901.0625 103.959125 
L 912.7025 90.114695 
L 924.3425 75.568145 
L 935.9825 60.683729 
L 947.6225 46.03296 
L 959.2625 32.386408 
L 970.9025 20.676825 
L 982.5425 11.934456 
L 994.1825 7.2 
L 1005.8225 7.42479 
L 1017.4625 13.370608 
L 1029.1025 25.522514 
L 1040.7425 44.026917 
L 1052.3825 68.663909 
L 1064.0225 98.857996 
L 1075.6625 133.725756 
L 1087.3025 172.153491 
L 1098.9425 212.893795 
L 1110.5825 254.667793 
L 1122.2225 296.260051 
L 1133.8625 336.595635 
L 1145.5025 374.792716 
L 1157.1425 410.188767 
L 1168.7825 442.342506 
" clip-path="url(#pbbc368e64f)" style="fill: none; stroke: #1f77b4; stroke-width: 1.5; stroke-linecap: square"/>
   </g>
   <g id="line2d_13">
    <path d="M 353.9825 545.226587 
L 365.6225 539.787185 
L 377.2625 534.772439 
L 388.9025 530.228676 
L 400.5425 526.146825 
L 412.1825 522.460843 
L 423.8225 519.052741 
L 435.4625 515.764198 
L 447.1025 512.413832 
L 458.7425 508.818398 
L 470.3825 504.815422 
L 482.0225 500.284352 
L 493.6625 495.163194 
L 505.3025 489.457952 
L 516.9425 483.243026 
L 528.5825 476.651908 
L 540.2225 469.858982 
L 551.8625 463.054673 
L 563.5025 456.417397 
L 575.1425 450.086417 
L 586.7825 444.139736 
L 598.4225 438.580362 
L 610.0625 433.332962 
L 621.7025 428.251109 
L 633.3425 423.133546 
L 644.9825 417.746354 
L 656.6225 411.847096 
L 668.2625 405.206904 
L 679.9025 397.627296 
L 691.5425 388.949904 
L 703.1825 379.059039 
L 714.8225 367.878683 
L 726.4625 355.366638 
L 738.1025 341.508957 
L 749.7425 326.317321 
L 761.3825 309.830773 
L 773.0225 292.1216 
L 784.6625 273.303505 
L 796.3025 253.539084 
L 807.9425 233.04331 
L 819.5825 212.080398 
L 831.2225 190.952975 
L 842.8625 169.984486 
L 854.5025 149.497774 
L 866.1425 129.794114 
L 877.7825 111.137368 
L 889.4225 93.74701 
L 901.0625 77.80187 
L 912.7025 63.453855 
L 924.3425 50.848378 
L 935.9825 40.146322 
L 947.6225 31.541651 
L 959.2625 25.269495 
L 970.9025 21.60145 
L 982.5425 20.827618 
L 994.1825 23.227853 
L 1005.8225 29.037057 
L 1017.4625 38.410717 
L 1029.1025 51.396857 
L 1040.7425 67.919231 
L 1052.3825 87.774328 
L 1064.0225 110.642122 
L 1075.6625 136.108022 
L 1087.3025 163.691825 
L 1098.9425 192.878794 
L 1110.5825 223.14839 
L 1122.2225 253.997429 
L 1133.8625 284.956128 
L 1145.5025 315.597183 
L 1157.1425 345.539338 
L 1168.7825 374.447562 
L 1180.4225 402.031983 
L 1192.0625 428.047208 
L 1203.7025 452.29282 
L 1215.3425 474.615026 
L 1226.9825 494.908747 
L 1238.6225 513.119151 
" clip-path="url(#pbbc368e64f)" style="fill: none; stroke: #ff7f0e; stroke-width: 1.5; stroke-linecap: square"/>
   </g>
   <g id="line2d_14">
    <path d="M 156.1025 592.0388 
L 167.7425 591.264909 
L 179.3825 590.492701 
L 191.0225 589.652326 
L 202.6625 588.654442 
L 214.3025 587.394933 
L 225.9425 585.761733 
L 237.5825 583.643286 
L 249.2225 580.937946 
L 260.8625 577.563525 
L 272.5025 573.466068 
L 284.1425 568.626992 
L 295.7825 563.067794 
L 307.4225 556.851716 
L 319.0625 550.081989 
L 330.7025 542.896536 
L 342.3425 535.459341 
L 353.9825 527.948988 
L 365.6225 520.54513 
L 377.2625 513.413931 
L 388.9025 506.69363 
L 400.5425 500.481517 
L 412.1825 494.823536 
L 423.8225 489.707625 
L 435.4625 485.06167 
L 447.1025 480.756561 
L 458.7425 476.614481 
L 470.3825 472.422034 
L 482.0225 467.947348 
L 493.6625 462.959862 
L 505.3025 457.251128 
L 516.9425 450.654736 
L 528.5825 443.063424 
L 540.2225 434.441574 
L 551.8625 424.831625 
L 563.5025 414.353469 
L 575.1425 403.196538 
L 586.7825 391.605058 
L 598.4225 379.857659 
L 610.0625 368.243228 
L 621.7025 357.035345 
L 633.3425 346.467915 
L 644.9825 336.714528 
L 656.6225 327.873721 
L 668.2625 319.961664 
L 679.9025 312.912913 
L 691.5425 306.588935 
L 703.1825 300.793133 
L 714.8225 295.290377 
L 726.4625 289.8285 
L 738.1025 284.159124 
L 749.7425 278.055385 
L 761.3825 271.324751 
L 773.0225 263.815965 
L 784.6625 255.420191 
L 796.3025 246.06743 
L 807.9425 235.720124 
L 819.5825 224.366388 
L 831.2225 212.01544 
L 842.8625 198.697395 
L 854.5025 184.468773 
L 866.1425 169.423908 
L 877.7825 153.71103 
L 889.4225 137.550516 
L 901.0625 121.251747 
L 912.7025 105.224512 
L 924.3425 89.98105 
L 935.9825 76.125746 
L 947.6225 64.331026 
L 959.2625 55.300011 
L 970.9025 49.718656 
L 982.5425 48.201997 
L 994.1825 51.240525 
L 1005.8225 59.153151 
L 1017.4625 72.052782 
L 1029.1025 89.829046 
L 1040.7425 112.150515 
L 1052.3825 138.486246 
L 1064.0225 168.143895 
L 1075.6625 200.319646 
L 1087.3025 234.153962 
L 1098.9425 268.786871 
L 1110.5825 303.407183 
L 1122.2225 337.291474 
L 1133.8625 369.830498 
L 1145.5025 400.542665 
" clip-path="url(#pbbc368e64f)" style="fill: none; stroke: #2ca02c; stroke-width: 1.5; stroke-linecap: square"/>
   </g>
   <g id="patch_3">
    <path d="M 156.1025 605.952 
L 156.1025 7.2 
" style="fill: none; stroke: #000000; stroke-width: 0.8; stroke-linejoin: miter; stroke-linecap: square"/>
   </g>
   <g id="patch_4">
    <path d="M 1238.6225 605.952 
L 1238.6225 7.2 
" style="fill: none; stroke: #000000; stroke-width: 0.8; stroke-linejoin: miter; stroke-linecap: square"/>
   </g>
   <g id="patch_5">
    <path d="M 156.1025 605.952 
L 1238.6225 605.952 
" style="fill: none; stroke: #000000; stroke-width: 0.8; stroke-linejoin: miter; stroke-linecap: square"/>
   </g>
   <g id="patch_6">
    <path d="M 156.1025 7.2 
L 1238.6225 7.2 
" style="fill: none; stroke: #000000; stroke-width: 0.8; stroke-linejoin: miter; stroke-linecap: square"/>
   </g>
   <g id="legend_1">
    <g id="patch_7">
     <path d="M 181.3025 194.52375 
L 478.983125 194.52375 
Q 486.183125 194.52375 486.183125 187.32375 
L 486.183125 32.4 
Q 486.183125 25.2 478.983125 25.2 
L 181.3025 25.2 
Q 174.1025 25.2 174.1025 32.4 
L 174.1025 187.32375 
Q 174.1025 194.52375 181.3025 194.52375 
z
" style="fill: #ffffff; opacity: 0.8; stroke: #cccccc; stroke-linejoin: miter"/>
    </g>
    <g id="line2d_15">
     <path d="M 188.5025 54.354375 
L 224.5025 54.354375 
L 260.5025 54.354375 
" style="fill: none; stroke: #1f77b4; stroke-width: 8; stroke-linecap: square"/>
    </g>
    <g id="text_14">
     <!-- regular -->
     <g transform="translate(289.3025 66.954375) scale(0.36 -0.36)">
      <defs>
       <path id="DejaVuSans-72" d="M 2631 2963 
Q 2534 3019 2420 3045 
Q 2306 3072 2169 3072 
Q 1681 3072 1420 2755 
Q 1159 2438 1159 1844 
L 1159 0 
L 581 0 
L 581 3500 
L 1159 3500 
L 1159 2956 
Q 1341 3275 1631 3429 
Q 1922 3584 2338 3584 
Q 2397 3584 2469 3576 
Q 2541 3569 2628 3553 
L 2631 2963 
z
" transform="scale(0.015625)"/>
       <path id="DejaVuSans-67" d="M 2906 1791 
Q 2906 2416 2648 2759 
Q 2391 3103 1925 3103 
Q 1463 3103 1205 2759 
Q 947 2416 947 1791 
Q 947 1169 1205 825 
Q 1463 481 1925 481 
Q 2391 481 2648 825 
Q 2906 1169 2906 1791 
z
M 3481 434 
Q 3481 -459 3084 -895 
Q 2688 -1331 1869 -1331 
Q 1566 -1331 1297 -1286 
Q 1028 -1241 775 -1147 
L 775 -588 
Q 1028 -725 1275 -790 
Q 1522 -856 1778 -856 
Q 2344 -856 2625 -561 
Q 2906 -266 2906 331 
L 2906 616 
Q 2728 306 2450 153 
Q 2172 0 1784 0 
Q 1141 0 747 490 
Q 353 981 353 1791 
Q 353 2603 747 3093 
Q 1141 3584 1784 3584 
Q 2172 3584 2450 3431 
Q 2728 3278 2906 2969 
L 2906 3500 
L 3481 3500 
L 3481 434 
z
" transform="scale(0.015625)"/>
       <path id="DejaVuSans-75" d="M 544 1381 
L 544 3500 
L 1119 3500 
L 1119 1403 
Q 1119 906 1312 657 
Q 1506 409 1894 409 
Q 2359 409 2629 706 
Q 2900 1003 2900 1516 
L 2900 3500 
L 3475 3500 
L 3475 0 
L 2900 0 
L 2900 538 
Q 2691 219 2414 64 
Q 2138 -91 1772 -91 
Q 1169 -91 856 284 
Q 544 659 544 1381 
z
M 1991 3584 
L 1991 3584 
z
" transform="scale(0.015625)"/>
       <path id="DejaVuSans-6c" d="M 603 4863 
L 1178 4863 
L 1178 0 
L 603 0 
L 603 4863 
z
" transform="scale(0.015625)"/>
       <path id="DejaVuSans-61" d="M 2194 1759 
Q 1497 1759 1228 1600 
Q 959 1441 959 1056 
Q 959 750 1161 570 
Q 1363 391 1709 391 
Q 2188 391 2477 730 
Q 2766 1069 2766 1631 
L 2766 1759 
L 2194 1759 
z
M 3341 1997 
L 3341 0 
L 2766 0 
L 2766 531 
Q 2569 213 2275 61 
Q 1981 -91 1556 -91 
Q 1019 -91 701 211 
Q 384 513 384 1019 
Q 384 1609 779 1909 
Q 1175 2209 1959 2209 
L 2766 2209 
L 2766 2266 
Q 2766 2663 2505 2880 
Q 2244 3097 1772 3097 
Q 1472 3097 1187 3025 
Q 903 2953 641 2809 
L 641 3341 
Q 956 3463 1253 3523 
Q 1550 3584 1831 3584 
Q 2591 3584 2966 3190 
Q 3341 2797 3341 1997 
z
" transform="scale(0.015625)"/>
      </defs>
      <use xlink:href="#DejaVuSans-72"/>
      <use xlink:href="#DejaVuSans-65" x="38.863281"/>
      <use xlink:href="#DejaVuSans-67" x="100.386719"/>
      <use xlink:href="#DejaVuSans-75" x="163.863281"/>
      <use xlink:href="#DejaVuSans-6c" x="227.242188"/>
      <use xlink:href="#DejaVuSans-61" x="255.025391"/>
      <use xlink:href="#DejaVuSans-72" x="316.304688"/>
     </g>
    </g>
    <g id="line2d_16">
     <path d="M 188.5025 107.195625 
L 224.5025 107.195625 
L 260.5025 107.195625 
" style="fill: none; stroke: #ff7f0e; stroke-width: 8; stroke-linecap: square"/>
    </g>
    <g id="text_15">
     <!-- reversed -->
     <g transform="translate(289.3025 119.795625) scale(0.36 -0.36)">
      <defs>
       <path id="DejaVuSans-76" d="M 191 3500 
L 800 3500 
L 1894 563 
L 2988 3500 
L 3597 3500 
L 2284 0 
L 1503 0 
L 191 3500 
z
" transform="scale(0.015625)"/>
      </defs>
      <use xlink:href="#DejaVuSans-72"/>
      <use xlink:href="#DejaVuSans-65" x="38.863281"/>
      <use xlink:href="#DejaVuSans-76" x="100.386719"/>
      <use xlink:href="#DejaVuSans-65" x="159.566406"/>
      <use xlink:href="#DejaVuSans-72" x="221.089844"/>
      <use xlink:href="#DejaVuSans-73" x="262.203125"/>
      <use xlink:href="#DejaVuSans-65" x="314.302734"/>
      <use xlink:href="#DejaVuSans-64" x="375.826172"/>
     </g>
    </g>
    <g id="line2d_17">
     <path d="M 188.5025 160.036875 
L 224.5025 160.036875 
L 260.5025 160.036875 
" style="fill: none; stroke: #2ca02c; stroke-width: 8; stroke-linecap: square"/>
    </g>
    <g id="text_16">
     <!-- shortened -->
     <g transform="translate(289.3025 172.636875) scale(0.36 -0.36)">
      <defs>
       <path id="DejaVuSans-68" d="M 3513 2113 
L 3513 0 
L 2938 0 
L 2938 2094 
Q 2938 2591 2744 2837 
Q 2550 3084 2163 3084 
Q 1697 3084 1428 2787 
Q 1159 2491 1159 1978 
L 1159 0 
L 581 0 
L 581 4863 
L 1159 4863 
L 1159 2956 
Q 1366 3272 1645 3428 
Q 1925 3584 2291 3584 
Q 2894 3584 3203 3211 
Q 3513 2838 3513 2113 
z
" transform="scale(0.015625)"/>
       <path id="DejaVuSans-6f" d="M 1959 3097 
Q 1497 3097 1228 2736 
Q 959 2375 959 1747 
Q 959 1119 1226 758 
Q 1494 397 1959 397 
Q 2419 397 2687 759 
Q 2956 1122 2956 1747 
Q 2956 2369 2687 2733 
Q 2419 3097 1959 3097 
z
M 1959 3584 
Q 2709 3584 3137 3096 
Q 3566 2609 3566 1747 
Q 3566 888 3137 398 
Q 2709 -91 1959 -91 
Q 1206 -91 779 398 
Q 353 888 353 1747 
Q 353 2609 779 3096 
Q 1206 3584 1959 3584 
z
" transform="scale(0.015625)"/>
      </defs>
      <use xlink:href="#DejaVuSans-73"/>
      <use xlink:href="#DejaVuSans-68" x="52.099609"/>
      <use xlink:href="#DejaVuSans-6f" x="115.478516"/>
      <use xlink:href="#DejaVuSans-72" x="176.660156"/>
      <use xlink:href="#DejaVuSans-74" x="217.773438"/>
      <use xlink:href="#DejaVuSans-65" x="256.982422"/>
      <use xlink:href="#DejaVuSans-6e" x="318.505859"/>
      <use xlink:href="#DejaVuSans-65" x="381.884766"/>
      <use xlink:href="#DejaVuSans-64" x="443.408203"/>
     </g>
    </g>
   </g>
  </g>
 </g>
 <defs>
  <clipPath id="pbbc368e64f">
   <rect x="156.1025" y="7.2" width="1082.52" height="598.752"/>
  </clipPath>
 </defs>
</svg>
