<?xml version="1.0" encoding="utf-8" standalone="no"?>
<!DOCTYPE svg PUBLIC "-//W3C//DTD SVG 1.1//EN"
  "http://www.w3.org/Graphics/SVG/1.1/DTD/svg11.dtd">
<svg xmlns:xlink="http://www.w3.org/1999/xlink" width="1245.8225pt" height="693.8345pt" viewBox="0 0 1245.8225 693.8345" xmlns="http://www.w3.org/2000/svg" version="1.1">
 <metadata>
  <rdf:RDF xmlns:dc="http://purl.org/dc/elements/1.1/" xmlns:cc="http://creativecommons.org/ns#" xmlns:rdf="http://www.w3.org/1999/02/22-rdf-syntax-ns#">
   <cc:Work>
    <dc:type rdf:resource="http://purl.org/dc/dcmitype/StillImage"/>
    <dc:date>2023-12-15T09:13:07.462823</dc:date>
    <dc:format>image/svg+xml</dc:format>
    <dc:creator>
     <cc:Agent>
      <dc:title>Matplotlib v3.8.1, https://matplotlib.org/</dc:title>
     </cc:Agent>
    </dc:creator>
   </cc:Work>
  </rdf:RDF>
 </metadata>
 <defs>
  <style type="text/css">*{stroke-linejoin: round; stroke-linecap: butt}</style>
 </defs>
 <g id="figure_1">
  <g id="patch_1">
   <path d="M 0 693.8345 
L 1245.8225 693.8345 
L 1245.8225 0 
L 0 0 
z
" style="fill: #ffffff"/>
  </g>
  <g id="axes_1">
   <g id="patch_2">
    <path d="M 156.1025 605.952 
L 1238.6225 605.952 
L 1238.6225 7.2 
L 156.1025 7.2 
z
" style="fill: #ffffff"/>
   </g>
   <g id="PolyCollection_1">
    <path d="M 282.16812 605.952 
L 282.16812 514.377108 
L 284.908677 512.707722 
L 287.649234 511.029948 
L 290.389791 509.34411 
L 293.130348 507.650531 
L 295.870905 505.949537 
L 298.611462 504.241457 
L 301.352019 502.526618 
L 304.092576 500.805349 
L 306.833133 499.077978 
L 309.57369 497.344832 
L 312.314247 495.606238 
L 315.054804 493.862521 
L 317.795361 492.114 
L 320.535918 490.360994 
L 323.276475 488.603814 
L 326.017032 486.842765 
L 328.757589 485.078147 
L 331.498146 483.310247 
L 334.238703 481.539344 
L 336.979259 479.765705 
L 339.719816 477.989581 
L 342.460373 476.211209 
L 345.20093 474.430807 
L 347.941487 472.648575 
L 350.682044 470.864689 
L 353.422601 469.079301 
L 356.163158 467.292538 
L 358.903715 465.504495 
L 361.644272 463.71524 
L 364.384829 461.924803 
L 367.125386 460.13318 
L 369.865943 458.340328 
L 372.6065 456.546161 
L 375.347057 454.750551 
L 378.087614 452.953321 
L 380.828171 451.154247 
L 383.568728 449.353053 
L 386.309285 447.54941 
L 389.049842 445.74293 
L 391.790399 443.933169 
L 394.530956 442.119623 
L 397.271513 440.301725 
L 400.01207 438.478844 
L 402.752627 436.650282 
L 405.493184 434.815276 
L 408.233741 432.972995 
L 410.974297 431.122537 
L 413.714854 429.262931 
L 416.455411 427.393137 
L 419.195968 425.512044 
L 421.936525 423.618468 
L 424.677082 421.71116 
L 427.417639 419.788799 
L 430.158196 417.849995 
L 432.898753 415.893295 
L 435.63931 413.917178 
L 438.379867 411.920061 
L 441.120424 409.900304 
L 443.860981 407.856204 
L 446.601538 405.786009 
L 449.342095 403.687915 
L 452.082652 401.560069 
L 454.823209 399.40058 
L 457.563766 397.207517 
L 460.304323 394.978915 
L 463.04488 392.712786 
L 465.785437 390.407116 
L 468.525994 388.05988 
L 471.266551 385.669039 
L 474.007108 383.232556 
L 476.747665 380.748396 
L 479.488222 378.214534 
L 482.228778 375.628968 
L 484.969335 372.989717 
L 487.709892 370.294838 
L 490.450449 367.542429 
L 493.191006 364.730636 
L 495.931563 361.857665 
L 498.67212 358.921787 
L 501.412677 355.921347 
L 504.153234 352.854773 
L 506.893791 349.720582 
L 509.634348 346.517392 
L 512.374905 343.243926 
L 515.115462 339.89902 
L 517.856019 336.481634 
L 520.596576 332.990857 
L 523.337133 329.425913 
L 526.07769 325.786171 
L 528.818247 322.07115 
L 531.558804 318.280525 
L 534.299361 314.414133 
L 537.039918 310.471979 
L 539.780475 306.45424 
L 542.521032 302.361273 
L 545.261589 298.193613 
L 548.002146 293.951984 
L 550.742703 289.637295 
L 553.483259 285.250648 
L 556.223816 280.793337 
L 558.964373 276.266851 
L 561.70493 271.672872 
L 564.445487 267.01328 
L 567.186044 262.290149 
L 569.926601 257.505744 
L 572.667158 252.662527 
L 575.407715 247.763145 
L 578.148272 242.810434 
L 580.888829 237.807413 
L 583.629386 232.757281 
L 586.369943 227.66341 
L 589.1105 222.529339 
L 591.851057 217.358774 
L 594.591614 212.155574 
L 597.332171 206.923748 
L 600.072728 201.667448 
L 602.813285 196.390958 
L 605.553842 191.098687 
L 608.294399 185.79516 
L 611.034956 180.485009 
L 613.775513 175.172964 
L 616.51607 169.863838 
L 619.256627 164.562525 
L 621.997184 159.27398 
L 624.737741 154.003215 
L 627.478297 148.755286 
L 630.218854 143.535281 
L 632.959411 138.348308 
L 635.699968 133.199485 
L 638.440525 128.093929 
L 641.181082 123.036744 
L 643.921639 118.033007 
L 646.662196 113.087764 
L 649.402753 108.206009 
L 652.14331 103.392684 
L 654.883867 98.652658 
L 657.624424 93.990724 
L 660.364981 89.411587 
L 663.105538 84.919853 
L 665.846095 80.520019 
L 668.586652 76.21647 
L 671.327209 72.013461 
L 674.067766 67.915118 
L 676.808323 63.925425 
L 679.54888 60.048219 
L 682.289437 56.287184 
L 685.029994 52.645844 
L 687.770551 49.127557 
L 690.511108 45.735514 
L 693.251665 42.47273 
L 695.992222 39.342042 
L 698.732778 36.34611 
L 701.473335 33.487409 
L 704.213892 30.76823 
L 706.954449 28.190678 
L 709.695006 25.756672 
L 712.435563 23.467946 
L 715.17612 21.326049 
L 717.916677 19.332342 
L 720.657234 17.488006 
L 723.397791 15.794042 
L 726.138348 14.25127 
L 728.878905 12.860339 
L 731.619462 11.621722 
L 734.360019 10.535728 
L 737.100576 9.602501 
L 739.841133 8.822027 
L 742.58169 8.194139 
L 745.322247 7.718519 
L 748.062804 7.394709 
L 750.803361 7.222112 
L 753.543918 7.2 
L 756.284475 7.32752 
L 759.025032 7.603698 
L 761.765589 8.027448 
L 764.506146 8.597578 
L 767.246703 9.312793 
L 769.987259 10.171703 
L 772.727816 11.172833 
L 775.468373 12.314622 
L 778.20893 13.595432 
L 780.949487 15.013556 
L 783.690044 16.567222 
L 786.430601 18.254595 
L 789.171158 20.073788 
L 791.911715 22.022861 
L 794.652272 24.099831 
L 797.392829 26.302673 
L 800.133386 28.629325 
L 802.873943 31.077691 
L 805.6145 33.645646 
L 808.355057 36.331037 
L 811.095614 39.13169 
L 813.836171 42.045406 
L 816.576728 45.069968 
L 819.317285 48.203144 
L 822.057842 51.442681 
L 824.798399 54.786317 
L 827.538956 58.231773 
L 830.279513 61.776757 
L 833.02007 65.418966 
L 835.760627 69.156083 
L 838.501184 72.98578 
L 841.241741 76.905715 
L 843.982297 80.913532 
L 846.722854 85.006864 
L 849.463411 89.183325 
L 852.203968 93.440516 
L 854.944525 97.776021 
L 857.685082 102.187404 
L 860.425639 106.672213 
L 863.166196 111.227971 
L 865.906753 115.852183 
L 868.64731 120.54233 
L 871.387867 125.295867 
L 874.128424 130.110226 
L 876.868981 134.982811 
L 879.609538 139.910999 
L 882.350095 144.892138 
L 885.090652 149.923548 
L 887.831209 155.002519 
L 890.571766 160.12631 
L 893.312323 165.292152 
L 896.05288 170.497245 
L 898.793437 175.738758 
L 901.533994 181.013833 
L 904.274551 186.319582 
L 907.015108 191.653089 
L 909.755665 197.011413 
L 912.496222 202.391588 
L 915.236778 207.790625 
L 917.977335 213.205512 
L 920.717892 218.633223 
L 923.458449 224.07071 
L 926.199006 229.514916 
L 928.939563 234.962772 
L 931.68012 240.411201 
L 934.420677 245.857125 
L 937.161234 251.297464 
L 939.901791 256.729141 
L 942.642348 262.14909 
L 945.382905 267.554254 
L 948.123462 272.941595 
L 950.864019 278.308094 
L 953.604576 283.650759 
L 956.345133 288.966628 
L 959.08569 294.252774 
L 961.826247 299.506309 
L 964.566804 304.72439 
L 967.307361 309.904224 
L 970.047918 315.043071 
L 972.788475 320.138252 
L 975.529032 325.18715 
L 978.269589 330.187217 
L 981.010146 335.135977 
L 983.750703 340.031031 
L 986.491259 344.870063 
L 989.231816 349.650841 
L 991.972373 354.371224 
L 994.71293 359.029163 
L 997.453487 363.622704 
L 1000.194044 368.149997 
L 1002.934601 372.609291 
L 1005.675158 376.998943 
L 1008.415715 381.317418 
L 1011.156272 385.56329 
L 1013.896829 389.735247 
L 1016.637386 393.832091 
L 1019.377943 397.852739 
L 1022.1185 401.796225 
L 1024.859057 405.661701 
L 1027.599614 409.448437 
L 1030.340171 413.155819 
L 1033.080728 416.783354 
L 1035.821285 420.330665 
L 1038.561842 423.797493 
L 1041.302399 427.183695 
L 1044.042956 430.489241 
L 1046.783513 433.714218 
L 1049.52407 436.858821 
L 1052.264627 439.923357 
L 1055.005184 442.908238 
L 1057.745741 445.813983 
L 1060.486297 448.641212 
L 1063.226854 451.390644 
L 1065.967411 454.063093 
L 1068.707968 456.659468 
L 1071.448525 459.180766 
L 1074.189082 461.628068 
L 1076.929639 464.002539 
L 1079.670196 466.305421 
L 1082.410753 468.538029 
L 1085.15131 470.701749 
L 1087.891867 472.798031 
L 1090.632424 474.828387 
L 1093.372981 476.794387 
L 1096.113538 478.697651 
L 1098.854095 480.53985 
L 1101.594652 482.322696 
L 1104.335209 484.047942 
L 1107.075766 485.717375 
L 1109.816323 487.332813 
L 1112.55688 488.896101 
L 1115.297437 490.409105 
L 1118.037994 491.873708 
L 1120.778551 493.291808 
L 1123.519108 494.665311 
L 1126.259665 495.99613 
L 1129.000222 497.286177 
L 1131.740778 498.537366 
L 1134.481335 499.751599 
L 1137.221892 500.930774 
L 1139.962449 502.076772 
L 1142.703006 503.191459 
L 1145.443563 504.276681 
L 1148.18412 505.334261 
L 1150.924677 506.365996 
L 1153.665234 507.373654 
L 1156.405791 508.358972 
L 1159.146348 509.323652 
L 1161.886905 510.269361 
L 1164.627462 511.197725 
L 1167.368019 512.11033 
L 1170.108576 513.00872 
L 1172.849133 513.894393 
L 1175.58969 514.7688 
L 1178.330247 515.633343 
L 1181.070804 516.489376 
L 1183.811361 517.3382 
L 1186.551918 518.181066 
L 1189.292475 519.019169 
L 1192.033032 519.853651 
L 1194.773589 520.685599 
L 1197.514146 521.516043 
L 1200.254703 522.345957 
L 1202.995259 523.17626 
L 1205.735816 524.007811 
L 1208.476373 524.841414 
L 1211.21693 525.677813 
L 1213.957487 526.517698 
L 1216.698044 527.361698 
L 1219.438601 528.210389 
L 1222.179158 529.064288 
L 1224.919715 529.923856 
L 1227.660272 530.789499 
L 1230.400829 531.661568 
L 1233.141386 532.540362 
L 1235.881943 533.426123 
L 1238.6225 534.319044 
L 1238.6225 605.952 
L 1238.6225 605.952 
L 1235.881943 605.952 
L 1233.141386 605.952 
L 1230.400829 605.952 
L 1227.660272 605.952 
L 1224.919715 605.952 
L 1222.179158 605.952 
L 1219.438601 605.952 
L 1216.698044 605.952 
L 1213.957487 605.952 
L 1211.21693 605.952 
L 1208.476373 605.952 
L 1205.735816 605.952 
L 1202.995259 605.952 
L 1200.254703 605.952 
L 1197.514146 605.952 
L 1194.773589 605.952 
L 1192.033032 605.952 
L 1189.292475 605.952 
L 1186.551918 605.952 
L 1183.811361 605.952 
L 1181.070804 605.952 
L 1178.330247 605.952 
L 1175.58969 605.952 
L 1172.849133 605.952 
L 1170.108576 605.952 
L 1167.368019 605.952 
L 1164.627462 605.952 
L 1161.886905 605.952 
L 1159.146348 605.952 
L 1156.405791 605.952 
L 1153.665234 605.952 
L 1150.924677 605.952 
L 1148.18412 605.952 
L 1145.443563 605.952 
L 1142.703006 605.952 
L 1139.962449 605.952 
L 1137.221892 605.952 
L 1134.481335 605.952 
L 1131.740778 605.952 
L 1129.000222 605.952 
L 1126.259665 605.952 
L 1123.519108 605.952 
L 1120.778551 605.952 
L 1118.037994 605.952 
L 1115.297437 605.952 
L 1112.55688 605.952 
L 1109.816323 605.952 
L 1107.075766 605.952 
L 1104.335209 605.952 
L 1101.594652 605.952 
L 1098.854095 605.952 
L 1096.113538 605.952 
L 1093.372981 605.952 
L 1090.632424 605.952 
L 1087.891867 605.952 
L 1085.15131 605.952 
L 1082.410753 605.952 
L 1079.670196 605.952 
L 1076.929639 605.952 
L 1074.189082 605.952 
L 1071.448525 605.952 
L 1068.707968 605.952 
L 1065.967411 605.952 
L 1063.226854 605.952 
L 1060.486297 605.952 
L 1057.745741 605.952 
L 1055.005184 605.952 
L 1052.264627 605.952 
L 1049.52407 605.952 
L 1046.783513 605.952 
L 1044.042956 605.952 
L 1041.302399 605.952 
L 1038.561842 605.952 
L 1035.821285 605.952 
L 1033.080728 605.952 
L 1030.340171 605.952 
L 1027.599614 605.952 
L 1024.859057 605.952 
L 1022.1185 605.952 
L 1019.377943 605.952 
L 1016.637386 605.952 
L 1013.896829 605.952 
L 1011.156272 605.952 
L 1008.415715 605.952 
L 1005.675158 605.952 
L 1002.934601 605.952 
L 1000.194044 605.952 
L 997.453487 605.952 
L 994.71293 605.952 
L 991.972373 605.952 
L 989.231816 605.952 
L 986.491259 605.952 
L 983.750703 605.952 
L 981.010146 605.952 
L 978.269589 605.952 
L 975.529032 605.952 
L 972.788475 605.952 
L 970.047918 605.952 
L 967.307361 605.952 
L 964.566804 605.952 
L 961.826247 605.952 
L 959.08569 605.952 
L 956.345133 605.952 
L 953.604576 605.952 
L 950.864019 605.952 
L 948.123462 605.952 
L 945.382905 605.952 
L 942.642348 605.952 
L 939.901791 605.952 
L 937.161234 605.952 
L 934.420677 605.952 
L 931.68012 605.952 
L 928.939563 605.952 
L 926.199006 605.952 
L 923.458449 605.952 
L 920.717892 605.952 
L 917.977335 605.952 
L 915.236778 605.952 
L 912.496222 605.952 
L 909.755665 605.952 
L 907.015108 605.952 
L 904.274551 605.952 
L 901.533994 605.952 
L 898.793437 605.952 
L 896.05288 605.952 
L 893.312323 605.952 
L 890.571766 605.952 
L 887.831209 605.952 
L 885.090652 605.952 
L 882.350095 605.952 
L 879.609538 605.952 
L 876.868981 605.952 
L 874.128424 605.952 
L 871.387867 605.952 
L 868.64731 605.952 
L 865.906753 605.952 
L 863.166196 605.952 
L 860.425639 605.952 
L 857.685082 605.952 
L 854.944525 605.952 
L 852.203968 605.952 
L 849.463411 605.952 
L 846.722854 605.952 
L 843.982297 605.952 
L 841.241741 605.952 
L 838.501184 605.952 
L 835.760627 605.952 
L 833.02007 605.952 
L 830.279513 605.952 
L 827.538956 605.952 
L 824.798399 605.952 
L 822.057842 605.952 
L 819.317285 605.952 
L 816.576728 605.952 
L 813.836171 605.952 
L 811.095614 605.952 
L 808.355057 605.952 
L 805.6145 605.952 
L 802.873943 605.952 
L 800.133386 605.952 
L 797.392829 605.952 
L 794.652272 605.952 
L 791.911715 605.952 
L 789.171158 605.952 
L 786.430601 605.952 
L 783.690044 605.952 
L 780.949487 605.952 
L 778.20893 605.952 
L 775.468373 605.952 
L 772.727816 605.952 
L 769.987259 605.952 
L 767.246703 605.952 
L 764.506146 605.952 
L 761.765589 605.952 
L 759.025032 605.952 
L 756.284475 605.952 
L 753.543918 605.952 
L 750.803361 605.952 
L 748.062804 605.952 
L 745.322247 605.952 
L 742.58169 605.952 
L 739.841133 605.952 
L 737.100576 605.952 
L 734.360019 605.952 
L 731.619462 605.952 
L 728.878905 605.952 
L 726.138348 605.952 
L 723.397791 605.952 
L 720.657234 605.952 
L 717.916677 605.952 
L 715.17612 605.952 
L 712.435563 605.952 
L 709.695006 605.952 
L 706.954449 605.952 
L 704.213892 605.952 
L 701.473335 605.952 
L 698.732778 605.952 
L 695.992222 605.952 
L 693.251665 605.952 
L 690.511108 605.952 
L 687.770551 605.952 
L 685.029994 605.952 
L 682.289437 605.952 
L 679.54888 605.952 
L 676.808323 605.952 
L 674.067766 605.952 
L 671.327209 605.952 
L 668.586652 605.952 
L 665.846095 605.952 
L 663.105538 605.952 
L 660.364981 605.952 
L 657.624424 605.952 
L 654.883867 605.952 
L 652.14331 605.952 
L 649.402753 605.952 
L 646.662196 605.952 
L 643.921639 605.952 
L 641.181082 605.952 
L 638.440525 605.952 
L 635.699968 605.952 
L 632.959411 605.952 
L 630.218854 605.952 
L 627.478297 605.952 
L 624.737741 605.952 
L 621.997184 605.952 
L 619.256627 605.952 
L 616.51607 605.952 
L 613.775513 605.952 
L 611.034956 605.952 
L 608.294399 605.952 
L 605.553842 605.952 
L 602.813285 605.952 
L 600.072728 605.952 
L 597.332171 605.952 
L 594.591614 605.952 
L 591.851057 605.952 
L 589.1105 605.952 
L 586.369943 605.952 
L 583.629386 605.952 
L 580.888829 605.952 
L 578.148272 605.952 
L 575.407715 605.952 
L 572.667158 605.952 
L 569.926601 605.952 
L 567.186044 605.952 
L 564.445487 605.952 
L 561.70493 605.952 
L 558.964373 605.952 
L 556.223816 605.952 
L 553.483259 605.952 
L 550.742703 605.952 
L 548.002146 605.952 
L 545.261589 605.952 
L 542.521032 605.952 
L 539.780475 605.952 
L 537.039918 605.952 
L 534.299361 605.952 
L 531.558804 605.952 
L 528.818247 605.952 
L 526.07769 605.952 
L 523.337133 605.952 
L 520.596576 605.952 
L 517.856019 605.952 
L 515.115462 605.952 
L 512.374905 605.952 
L 509.634348 605.952 
L 506.893791 605.952 
L 504.153234 605.952 
L 501.412677 605.952 
L 498.67212 605.952 
L 495.931563 605.952 
L 493.191006 605.952 
L 490.450449 605.952 
L 487.709892 605.952 
L 484.969335 605.952 
L 482.228778 605.952 
L 479.488222 605.952 
L 476.747665 605.952 
L 474.007108 605.952 
L 471.266551 605.952 
L 468.525994 605.952 
L 465.785437 605.952 
L 463.04488 605.952 
L 460.304323 605.952 
L 457.563766 605.952 
L 454.823209 605.952 
L 452.082652 605.952 
L 449.342095 605.952 
L 446.601538 605.952 
L 443.860981 605.952 
L 441.120424 605.952 
L 438.379867 605.952 
L 435.63931 605.952 
L 432.898753 605.952 
L 430.158196 605.952 
L 427.417639 605.952 
L 424.677082 605.952 
L 421.936525 605.952 
L 419.195968 605.952 
L 416.455411 605.952 
L 413.714854 605.952 
L 410.974297 605.952 
L 408.233741 605.952 
L 405.493184 605.952 
L 402.752627 605.952 
L 400.01207 605.952 
L 397.271513 605.952 
L 394.530956 605.952 
L 391.790399 605.952 
L 389.049842 605.952 
L 386.309285 605.952 
L 383.568728 605.952 
L 380.828171 605.952 
L 378.087614 605.952 
L 375.347057 605.952 
L 372.6065 605.952 
L 369.865943 605.952 
L 367.125386 605.952 
L 364.384829 605.952 
L 361.644272 605.952 
L 358.903715 605.952 
L 356.163158 605.952 
L 353.422601 605.952 
L 350.682044 605.952 
L 347.941487 605.952 
L 345.20093 605.952 
L 342.460373 605.952 
L 339.719816 605.952 
L 336.979259 605.952 
L 334.238703 605.952 
L 331.498146 605.952 
L 328.757589 605.952 
L 326.017032 605.952 
L 323.276475 605.952 
L 320.535918 605.952 
L 317.795361 605.952 
L 315.054804 605.952 
L 312.314247 605.952 
L 309.57369 605.952 
L 306.833133 605.952 
L 304.092576 605.952 
L 301.352019 605.952 
L 298.611462 605.952 
L 295.870905 605.952 
L 293.130348 605.952 
L 290.389791 605.952 
L 287.649234 605.952 
L 284.908677 605.952 
L 282.16812 605.952 
z
" clip-path="url(#pb7631aa20c)" style="fill: #1f77b4; fill-opacity: 0.4"/>
   </g>
   <g id="PolyCollection_2">
    <path d="M 262.984222 605.952 
L 262.984222 506.442735 
L 265.724778 505.564048 
L 268.465335 504.699071 
L 271.205892 503.847279 
L 273.946449 503.008087 
L 276.687006 502.180852 
L 279.427563 501.364872 
L 282.16812 500.559389 
L 284.908677 499.763589 
L 287.649234 498.976603 
L 290.389791 498.197512 
L 293.130348 497.425343 
L 295.870905 496.659077 
L 298.611462 495.897646 
L 301.352019 495.139939 
L 304.092576 494.384799 
L 306.833133 493.631032 
L 309.57369 492.877405 
L 312.314247 492.12265 
L 315.054804 491.365468 
L 317.795361 490.604526 
L 320.535918 489.838469 
L 323.276475 489.065916 
L 326.017032 488.285463 
L 328.757589 487.495693 
L 331.498146 486.695168 
L 334.238703 485.882444 
L 336.979259 485.056063 
L 339.719816 484.214565 
L 342.460373 483.356486 
L 345.20093 482.480363 
L 347.941487 481.584735 
L 350.682044 480.668151 
L 353.422601 479.729165 
L 356.163158 478.766347 
L 358.903715 477.778281 
L 361.644272 476.76357 
L 364.384829 475.720836 
L 367.125386 474.648729 
L 369.865943 473.545919 
L 372.6065 472.41111 
L 375.347057 471.243034 
L 378.087614 470.040458 
L 380.828171 468.802182 
L 383.568728 467.527048 
L 386.309285 466.213932 
L 389.049842 464.861756 
L 391.790399 463.469482 
L 394.530956 462.036118 
L 397.271513 460.560717 
L 400.01207 459.042381 
L 402.752627 457.480258 
L 405.493184 455.873548 
L 408.233741 454.221501 
L 410.974297 452.523417 
L 413.714854 450.77865 
L 416.455411 448.986605 
L 419.195968 447.146743 
L 421.936525 445.258575 
L 424.677082 443.321667 
L 427.417639 441.335642 
L 430.158196 439.300174 
L 432.898753 437.214991 
L 435.63931 435.079877 
L 438.379867 432.89467 
L 441.120424 430.659259 
L 443.860981 428.373589 
L 446.601538 426.037658 
L 449.342095 423.651514 
L 452.082652 421.21526 
L 454.823209 418.72905 
L 457.563766 416.193088 
L 460.304323 413.607629 
L 463.04488 410.972979 
L 465.785437 408.289492 
L 468.525994 405.557572 
L 471.266551 402.777668 
L 474.007108 399.95028 
L 476.747665 397.075954 
L 479.488222 394.155279 
L 482.228778 391.188893 
L 484.969335 388.177476 
L 487.709892 385.121755 
L 490.450449 382.022497 
L 493.191006 378.880515 
L 495.931563 375.696661 
L 498.67212 372.471832 
L 501.412677 369.206963 
L 504.153234 365.903031 
L 506.893791 362.561053 
L 509.634348 359.182085 
L 512.374905 355.767221 
L 515.115462 352.317594 
L 517.856019 348.834374 
L 520.596576 345.318769 
L 523.337133 341.772024 
L 526.07769 338.195418 
L 528.818247 334.590268 
L 531.558804 330.957924 
L 534.299361 327.29977 
L 537.039918 323.617226 
L 539.780475 319.911744 
L 542.521032 316.184806 
L 545.261589 312.437929 
L 548.002146 308.67266 
L 550.742703 304.890574 
L 553.483259 301.093278 
L 556.223816 297.282405 
L 558.964373 293.459617 
L 561.70493 289.626601 
L 564.445487 285.78507 
L 567.186044 281.93676 
L 569.926601 278.08343 
L 572.667158 274.226861 
L 575.407715 270.368853 
L 578.148272 266.511224 
L 580.888829 262.65581 
L 583.629386 258.804463 
L 586.369943 254.959045 
L 589.1105 251.121433 
L 591.851057 247.293512 
L 594.591614 243.477175 
L 597.332171 239.674321 
L 600.072728 235.886852 
L 602.813285 232.116672 
L 605.553842 228.365683 
L 608.294399 224.635784 
L 611.034956 220.92887 
L 613.775513 217.246827 
L 616.51607 213.59153 
L 619.256627 209.96484 
L 621.997184 206.368606 
L 624.737741 202.804656 
L 627.478297 199.274799 
L 630.218854 195.78082 
L 632.959411 192.324479 
L 635.699968 188.907508 
L 638.440525 185.531609 
L 641.181082 182.198451 
L 643.921639 178.909666 
L 646.662196 175.666851 
L 649.402753 172.471562 
L 652.14331 169.325313 
L 654.883867 166.229575 
L 657.624424 163.185772 
L 660.364981 160.195281 
L 663.105538 157.259429 
L 665.846095 154.379494 
L 668.586652 151.556698 
L 671.327209 148.792213 
L 674.067766 146.087155 
L 676.808323 143.442584 
L 679.54888 140.859503 
L 682.289437 138.338859 
L 685.029994 135.881541 
L 687.770551 133.488379 
L 690.511108 131.160149 
L 693.251665 128.897565 
L 695.992222 126.701286 
L 698.732778 124.571912 
L 701.473335 122.509991 
L 704.213892 120.516011 
L 706.954449 118.590408 
L 709.695006 116.733566 
L 712.435563 114.945815 
L 715.17612 113.227437 
L 717.916677 111.578666 
L 720.657234 109.999688 
L 723.397791 108.490645 
L 726.138348 107.05164 
L 728.878905 105.682731 
L 731.619462 104.383944 
L 734.360019 103.155267 
L 737.100576 101.996657 
L 739.841133 100.908041 
L 742.58169 99.889321 
L 745.322247 98.940373 
L 748.062804 98.061054 
L 750.803361 97.2512 
L 753.543918 96.510636 
L 756.284475 95.839172 
L 759.025032 95.236608 
L 761.765589 94.702739 
L 764.506146 94.237355 
L 767.246703 93.840245 
L 769.987259 93.511199 
L 772.727816 93.250011 
L 775.468373 93.056482 
L 778.20893 92.930419 
L 780.949487 92.871642 
L 783.690044 92.87998 
L 786.430601 92.955281 
L 789.171158 93.097403 
L 791.911715 93.306225 
L 794.652272 93.581642 
L 797.392829 93.92357 
L 800.133386 94.331943 
L 802.873943 94.806716 
L 805.6145 95.347865 
L 808.355057 95.955387 
L 811.095614 96.629299 
L 813.836171 97.369637 
L 816.576728 98.176458 
L 819.317285 99.049838 
L 822.057842 99.98987 
L 824.798399 100.996663 
L 827.538956 102.07034 
L 830.279513 103.211037 
L 833.02007 104.418903 
L 835.760627 105.694092 
L 838.501184 107.036768 
L 841.241741 108.447096 
L 843.982297 109.925243 
L 846.722854 111.471373 
L 849.463411 113.085648 
L 852.203968 114.768219 
L 854.944525 116.519226 
L 857.685082 118.338795 
L 860.425639 120.227035 
L 863.166196 122.18403 
L 865.906753 124.209842 
L 868.64731 126.304503 
L 871.387867 128.468012 
L 874.128424 130.700332 
L 876.868981 133.001389 
L 879.609538 135.371062 
L 882.350095 137.809187 
L 885.090652 140.315547 
L 887.831209 142.889876 
L 890.571766 145.531849 
L 893.312323 148.241082 
L 896.05288 151.017129 
L 898.793437 153.859482 
L 901.533994 156.767563 
L 904.274551 159.740726 
L 907.015108 162.778252 
L 909.755665 165.879352 
L 912.496222 169.043159 
L 915.236778 172.268731 
L 917.977335 175.555049 
L 920.717892 178.901017 
L 923.458449 182.305458 
L 926.199006 185.767117 
L 928.939563 189.284662 
L 931.68012 192.856679 
L 934.420677 196.481679 
L 937.161234 200.158095 
L 939.901791 203.884283 
L 942.642348 207.658526 
L 945.382905 211.479033 
L 948.123462 215.343942 
L 950.864019 219.251325 
L 953.604576 223.199185 
L 956.345133 227.185463 
L 959.08569 231.20804 
L 961.826247 235.264739 
L 964.566804 239.353333 
L 967.307361 243.47154 
L 970.047918 247.617036 
L 972.788475 251.787455 
L 975.529032 255.980393 
L 978.269589 260.193412 
L 981.010146 264.424047 
L 983.750703 268.669809 
L 986.491259 272.928189 
L 989.231816 277.196664 
L 991.972373 281.472704 
L 994.71293 285.753772 
L 997.453487 290.037333 
L 1000.194044 294.320857 
L 1002.934601 298.601827 
L 1005.675158 302.87774 
L 1008.415715 307.146114 
L 1011.156272 311.404493 
L 1013.896829 315.650452 
L 1016.637386 319.881601 
L 1019.377943 324.095589 
L 1022.1185 328.290112 
L 1024.859057 332.462912 
L 1027.599614 336.611787 
L 1030.340171 340.73459 
L 1033.080728 344.829236 
L 1035.821285 348.893704 
L 1038.561842 352.926043 
L 1041.302399 356.924373 
L 1044.042956 360.886889 
L 1046.783513 364.811861 
L 1049.52407 368.697643 
L 1052.264627 372.542669 
L 1055.005184 376.345459 
L 1057.745741 380.10462 
L 1060.486297 383.818845 
L 1063.226854 387.486919 
L 1065.967411 391.107716 
L 1068.707968 394.680204 
L 1071.448525 398.20344 
L 1074.189082 401.676577 
L 1076.929639 405.098857 
L 1079.670196 408.469617 
L 1082.410753 411.788286 
L 1085.15131 415.054383 
L 1087.891867 418.26752 
L 1090.632424 421.427396 
L 1093.372981 424.533799 
L 1096.113538 427.586604 
L 1098.854095 430.585771 
L 1101.594652 433.531344 
L 1104.335209 436.423444 
L 1107.075766 439.262275 
L 1109.816323 442.048116 
L 1112.55688 444.781317 
L 1115.297437 447.462301 
L 1118.037994 450.091559 
L 1120.778551 452.669647 
L 1123.519108 455.19718 
L 1126.259665 457.674836 
L 1129.000222 460.103344 
L 1131.740778 462.483489 
L 1134.481335 464.8161 
L 1137.221892 467.102054 
L 1139.962449 469.342269 
L 1142.703006 471.537701 
L 1145.443563 473.68934 
L 1148.18412 475.798206 
L 1150.924677 477.865349 
L 1153.665234 479.891839 
L 1156.405791 481.878771 
L 1159.146348 483.827252 
L 1161.886905 485.738406 
L 1164.627462 487.613365 
L 1167.368019 489.45327 
L 1170.108576 491.259263 
L 1172.849133 493.032488 
L 1175.58969 494.774087 
L 1178.330247 496.485196 
L 1181.070804 498.166941 
L 1183.811361 499.820439 
L 1186.551918 501.446795 
L 1189.292475 503.047093 
L 1192.033032 504.622403 
L 1194.773589 506.173773 
L 1197.514146 507.702226 
L 1200.254703 509.208765 
L 1202.995259 510.694361 
L 1205.735816 512.15996 
L 1208.476373 513.606478 
L 1211.21693 515.034799 
L 1213.957487 516.445773 
L 1216.698044 517.84022 
L 1219.438601 519.218922 
L 1222.179158 520.582627 
L 1224.919715 521.932045 
L 1227.660272 523.267852 
L 1230.400829 524.590683 
L 1230.400829 605.952 
L 1230.400829 605.952 
L 1227.660272 605.952 
L 1224.919715 605.952 
L 1222.179158 605.952 
L 1219.438601 605.952 
L 1216.698044 605.952 
L 1213.957487 605.952 
L 1211.21693 605.952 
L 1208.476373 605.952 
L 1205.735816 605.952 
L 1202.995259 605.952 
L 1200.254703 605.952 
L 1197.514146 605.952 
L 1194.773589 605.952 
L 1192.033032 605.952 
L 1189.292475 605.952 
L 1186.551918 605.952 
L 1183.811361 605.952 
L 1181.070804 605.952 
L 1178.330247 605.952 
L 1175.58969 605.952 
L 1172.849133 605.952 
L 1170.108576 605.952 
L 1167.368019 605.952 
L 1164.627462 605.952 
L 1161.886905 605.952 
L 1159.146348 605.952 
L 1156.405791 605.952 
L 1153.665234 605.952 
L 1150.924677 605.952 
L 1148.18412 605.952 
L 1145.443563 605.952 
L 1142.703006 605.952 
L 1139.962449 605.952 
L 1137.221892 605.952 
L 1134.481335 605.952 
L 1131.740778 605.952 
L 1129.000222 605.952 
L 1126.259665 605.952 
L 1123.519108 605.952 
L 1120.778551 605.952 
L 1118.037994 605.952 
L 1115.297437 605.952 
L 1112.55688 605.952 
L 1109.816323 605.952 
L 1107.075766 605.952 
L 1104.335209 605.952 
L 1101.594652 605.952 
L 1098.854095 605.952 
L 1096.113538 605.952 
L 1093.372981 605.952 
L 1090.632424 605.952 
L 1087.891867 605.952 
L 1085.15131 605.952 
L 1082.410753 605.952 
L 1079.670196 605.952 
L 1076.929639 605.952 
L 1074.189082 605.952 
L 1071.448525 605.952 
L 1068.707968 605.952 
L 1065.967411 605.952 
L 1063.226854 605.952 
L 1060.486297 605.952 
L 1057.745741 605.952 
L 1055.005184 605.952 
L 1052.264627 605.952 
L 1049.52407 605.952 
L 1046.783513 605.952 
L 1044.042956 605.952 
L 1041.302399 605.952 
L 1038.561842 605.952 
L 1035.821285 605.952 
L 1033.080728 605.952 
L 1030.340171 605.952 
L 1027.599614 605.952 
L 1024.859057 605.952 
L 1022.1185 605.952 
L 1019.377943 605.952 
L 1016.637386 605.952 
L 1013.896829 605.952 
L 1011.156272 605.952 
L 1008.415715 605.952 
L 1005.675158 605.952 
L 1002.934601 605.952 
L 1000.194044 605.952 
L 997.453487 605.952 
L 994.71293 605.952 
L 991.972373 605.952 
L 989.231816 605.952 
L 986.491259 605.952 
L 983.750703 605.952 
L 981.010146 605.952 
L 978.269589 605.952 
L 975.529032 605.952 
L 972.788475 605.952 
L 970.047918 605.952 
L 967.307361 605.952 
L 964.566804 605.952 
L 961.826247 605.952 
L 959.08569 605.952 
L 956.345133 605.952 
L 953.604576 605.952 
L 950.864019 605.952 
L 948.123462 605.952 
L 945.382905 605.952 
L 942.642348 605.952 
L 939.901791 605.952 
L 937.161234 605.952 
L 934.420677 605.952 
L 931.68012 605.952 
L 928.939563 605.952 
L 926.199006 605.952 
L 923.458449 605.952 
L 920.717892 605.952 
L 917.977335 605.952 
L 915.236778 605.952 
L 912.496222 605.952 
L 909.755665 605.952 
L 907.015108 605.952 
L 904.274551 605.952 
L 901.533994 605.952 
L 898.793437 605.952 
L 896.05288 605.952 
L 893.312323 605.952 
L 890.571766 605.952 
L 887.831209 605.952 
L 885.090652 605.952 
L 882.350095 605.952 
L 879.609538 605.952 
L 876.868981 605.952 
L 874.128424 605.952 
L 871.387867 605.952 
L 868.64731 605.952 
L 865.906753 605.952 
L 863.166196 605.952 
L 860.425639 605.952 
L 857.685082 605.952 
L 854.944525 605.952 
L 852.203968 605.952 
L 849.463411 605.952 
L 846.722854 605.952 
L 843.982297 605.952 
L 841.241741 605.952 
L 838.501184 605.952 
L 835.760627 605.952 
L 833.02007 605.952 
L 830.279513 605.952 
L 827.538956 605.952 
L 824.798399 605.952 
L 822.057842 605.952 
L 819.317285 605.952 
L 816.576728 605.952 
L 813.836171 605.952 
L 811.095614 605.952 
L 808.355057 605.952 
L 805.6145 605.952 
L 802.873943 605.952 
L 800.133386 605.952 
L 797.392829 605.952 
L 794.652272 605.952 
L 791.911715 605.952 
L 789.171158 605.952 
L 786.430601 605.952 
L 783.690044 605.952 
L 780.949487 605.952 
L 778.20893 605.952 
L 775.468373 605.952 
L 772.727816 605.952 
L 769.987259 605.952 
L 767.246703 605.952 
L 764.506146 605.952 
L 761.765589 605.952 
L 759.025032 605.952 
L 756.284475 605.952 
L 753.543918 605.952 
L 750.803361 605.952 
L 748.062804 605.952 
L 745.322247 605.952 
L 742.58169 605.952 
L 739.841133 605.952 
L 737.100576 605.952 
L 734.360019 605.952 
L 731.619462 605.952 
L 728.878905 605.952 
L 726.138348 605.952 
L 723.397791 605.952 
L 720.657234 605.952 
L 717.916677 605.952 
L 715.17612 605.952 
L 712.435563 605.952 
L 709.695006 605.952 
L 706.954449 605.952 
L 704.213892 605.952 
L 701.473335 605.952 
L 698.732778 605.952 
L 695.992222 605.952 
L 693.251665 605.952 
L 690.511108 605.952 
L 687.770551 605.952 
L 685.029994 605.952 
L 682.289437 605.952 
L 679.54888 605.952 
L 676.808323 605.952 
L 674.067766 605.952 
L 671.327209 605.952 
L 668.586652 605.952 
L 665.846095 605.952 
L 663.105538 605.952 
L 660.364981 605.952 
L 657.624424 605.952 
L 654.883867 605.952 
L 652.14331 605.952 
L 649.402753 605.952 
L 646.662196 605.952 
L 643.921639 605.952 
L 641.181082 605.952 
L 638.440525 605.952 
L 635.699968 605.952 
L 632.959411 605.952 
L 630.218854 605.952 
L 627.478297 605.952 
L 624.737741 605.952 
L 621.997184 605.952 
L 619.256627 605.952 
L 616.51607 605.952 
L 613.775513 605.952 
L 611.034956 605.952 
L 608.294399 605.952 
L 605.553842 605.952 
L 602.813285 605.952 
L 600.072728 605.952 
L 597.332171 605.952 
L 594.591614 605.952 
L 591.851057 605.952 
L 589.1105 605.952 
L 586.369943 605.952 
L 583.629386 605.952 
L 580.888829 605.952 
L 578.148272 605.952 
L 575.407715 605.952 
L 572.667158 605.952 
L 569.926601 605.952 
L 567.186044 605.952 
L 564.445487 605.952 
L 561.70493 605.952 
L 558.964373 605.952 
L 556.223816 605.952 
L 553.483259 605.952 
L 550.742703 605.952 
L 548.002146 605.952 
L 545.261589 605.952 
L 542.521032 605.952 
L 539.780475 605.952 
L 537.039918 605.952 
L 534.299361 605.952 
L 531.558804 605.952 
L 528.818247 605.952 
L 526.07769 605.952 
L 523.337133 605.952 
L 520.596576 605.952 
L 517.856019 605.952 
L 515.115462 605.952 
L 512.374905 605.952 
L 509.634348 605.952 
L 506.893791 605.952 
L 504.153234 605.952 
L 501.412677 605.952 
L 498.67212 605.952 
L 495.931563 605.952 
L 493.191006 605.952 
L 490.450449 605.952 
L 487.709892 605.952 
L 484.969335 605.952 
L 482.228778 605.952 
L 479.488222 605.952 
L 476.747665 605.952 
L 474.007108 605.952 
L 471.266551 605.952 
L 468.525994 605.952 
L 465.785437 605.952 
L 463.04488 605.952 
L 460.304323 605.952 
L 457.563766 605.952 
L 454.823209 605.952 
L 452.082652 605.952 
L 449.342095 605.952 
L 446.601538 605.952 
L 443.860981 605.952 
L 441.120424 605.952 
L 438.379867 605.952 
L 435.63931 605.952 
L 432.898753 605.952 
L 430.158196 605.952 
L 427.417639 605.952 
L 424.677082 605.952 
L 421.936525 605.952 
L 419.195968 605.952 
L 416.455411 605.952 
L 413.714854 605.952 
L 410.974297 605.952 
L 408.233741 605.952 
L 405.493184 605.952 
L 402.752627 605.952 
L 400.01207 605.952 
L 397.271513 605.952 
L 394.530956 605.952 
L 391.790399 605.952 
L 389.049842 605.952 
L 386.309285 605.952 
L 383.568728 605.952 
L 380.828171 605.952 
L 378.087614 605.952 
L 375.347057 605.952 
L 372.6065 605.952 
L 369.865943 605.952 
L 367.125386 605.952 
L 364.384829 605.952 
L 361.644272 605.952 
L 358.903715 605.952 
L 356.163158 605.952 
L 353.422601 605.952 
L 350.682044 605.952 
L 347.941487 605.952 
L 345.20093 605.952 
L 342.460373 605.952 
L 339.719816 605.952 
L 336.979259 605.952 
L 334.238703 605.952 
L 331.498146 605.952 
L 328.757589 605.952 
L 326.017032 605.952 
L 323.276475 605.952 
L 320.535918 605.952 
L 317.795361 605.952 
L 315.054804 605.952 
L 312.314247 605.952 
L 309.57369 605.952 
L 306.833133 605.952 
L 304.092576 605.952 
L 301.352019 605.952 
L 298.611462 605.952 
L 295.870905 605.952 
L 293.130348 605.952 
L 290.389791 605.952 
L 287.649234 605.952 
L 284.908677 605.952 
L 282.16812 605.952 
L 279.427563 605.952 
L 276.687006 605.952 
L 273.946449 605.952 
L 271.205892 605.952 
L 268.465335 605.952 
L 265.724778 605.952 
L 262.984222 605.952 
z
" clip-path="url(#pb7631aa20c)" style="fill: #ff7f0e; fill-opacity: 0.4"/>
   </g>
   <g id="PolyCollection_3">
    <path d="M 156.1025 605.952 
L 156.1025 520.629048 
L 158.843057 519.645848 
L 161.583614 518.670307 
L 164.324171 517.702484 
L 167.064728 516.74241 
L 169.805285 515.790088 
L 172.545842 514.845498 
L 175.286399 513.908591 
L 178.026956 512.979295 
L 180.767513 512.057508 
L 183.50807 511.143105 
L 186.248627 510.235936 
L 188.989184 509.335825 
L 191.729741 508.442569 
L 194.470297 507.555946 
L 197.210854 506.675705 
L 199.951411 505.801576 
L 202.691968 504.933265 
L 205.432525 504.070456 
L 208.173082 503.212812 
L 210.913639 502.359978 
L 213.654196 501.511579 
L 216.394753 500.667219 
L 219.13531 499.826489 
L 221.875867 498.988961 
L 224.616424 498.154192 
L 227.356981 497.321727 
L 230.097538 496.491093 
L 232.838095 495.66181 
L 235.578652 494.833384 
L 238.319209 494.005312 
L 241.059766 493.177082 
L 243.800323 492.348174 
L 246.54088 491.518062 
L 249.281437 490.686213 
L 252.021994 489.852092 
L 254.762551 489.015158 
L 257.503108 488.174869 
L 260.243665 487.330681 
L 262.984222 486.48205 
L 265.724778 485.628431 
L 268.465335 484.769282 
L 271.205892 483.904063 
L 273.946449 483.032235 
L 276.687006 482.153266 
L 279.427563 481.266625 
L 282.16812 480.371788 
L 284.908677 479.468236 
L 287.649234 478.555455 
L 290.389791 477.63294 
L 293.130348 476.70019 
L 295.870905 475.756712 
L 298.611462 474.802023 
L 301.352019 473.835643 
L 304.092576 472.857103 
L 306.833133 471.86594 
L 309.57369 470.861699 
L 312.314247 469.843933 
L 315.054804 468.812203 
L 317.795361 467.766075 
L 320.535918 466.705123 
L 323.276475 465.628927 
L 326.017032 464.537074 
L 328.757589 463.429155 
L 331.498146 462.304768 
L 334.238703 461.163513 
L 336.979259 460.004997 
L 339.719816 458.828826 
L 342.460373 457.634612 
L 345.20093 456.421967 
L 347.941487 455.190505 
L 350.682044 453.93984 
L 353.422601 452.669584 
L 356.163158 451.37935 
L 358.903715 450.068747 
L 361.644272 448.737383 
L 364.384829 447.384861 
L 367.125386 446.010779 
L 369.865943 444.614732 
L 372.6065 443.196308 
L 375.347057 441.755088 
L 378.087614 440.290647 
L 380.828171 438.80255 
L 383.568728 437.290358 
L 386.309285 435.75362 
L 389.049842 434.191876 
L 391.790399 432.604659 
L 394.530956 430.991489 
L 397.271513 429.351879 
L 400.01207 427.685332 
L 402.752627 425.991338 
L 405.493184 424.269381 
L 408.233741 422.518933 
L 410.974297 420.739459 
L 413.714854 418.930412 
L 416.455411 417.091238 
L 419.195968 415.221377 
L 421.936525 413.32026 
L 424.677082 411.387311 
L 427.417639 409.421952 
L 430.158196 407.423596 
L 432.898753 405.391658 
L 435.63931 403.325548 
L 438.379867 401.224677 
L 441.120424 399.088456 
L 443.860981 396.9163 
L 446.601538 394.707627 
L 449.342095 392.461864 
L 452.082652 390.178444 
L 454.823209 387.856809 
L 457.563766 385.496416 
L 460.304323 383.096735 
L 463.04488 380.657252 
L 465.785437 378.177474 
L 468.525994 375.656927 
L 471.266551 373.095163 
L 474.007108 370.491758 
L 476.747665 367.846317 
L 479.488222 365.158477 
L 482.228778 362.42791 
L 484.969335 359.654322 
L 487.709892 356.837458 
L 490.450449 353.977107 
L 493.191006 351.0731 
L 495.931563 348.125315 
L 498.67212 345.13368 
L 501.412677 342.098172 
L 504.153234 339.018827 
L 506.893791 335.895732 
L 509.634348 332.729036 
L 512.374905 329.518949 
L 515.115462 326.265743 
L 517.856019 322.969756 
L 520.596576 319.631392 
L 523.337133 316.251125 
L 526.07769 312.829499 
L 528.818247 309.367131 
L 531.558804 305.864712 
L 534.299361 302.323008 
L 537.039918 298.742859 
L 539.780475 295.125185 
L 542.521032 291.470984 
L 545.261589 287.781331 
L 548.002146 284.057382 
L 550.742703 280.300373 
L 553.483259 276.511617 
L 556.223816 272.69251 
L 558.964373 268.844528 
L 561.70493 264.969223 
L 564.445487 261.068229 
L 567.186044 257.143257 
L 569.926601 253.196095 
L 572.667158 249.228607 
L 575.407715 245.242732 
L 578.148272 241.240482 
L 580.888829 237.223941 
L 583.629386 233.195263 
L 586.369943 229.156668 
L 589.1105 225.110444 
L 591.851057 221.058941 
L 594.591614 217.004569 
L 597.332171 212.949798 
L 600.072728 208.897152 
L 602.813285 204.849208 
L 605.553842 200.80859 
L 608.294399 196.777971 
L 611.034956 192.760065 
L 613.775513 188.757625 
L 616.51607 184.773441 
L 619.256627 180.810333 
L 621.997184 176.871151 
L 624.737741 172.958769 
L 627.478297 169.076079 
L 630.218854 165.225994 
L 632.959411 161.411436 
L 635.699968 157.635337 
L 638.440525 153.900632 
L 641.181082 150.210258 
L 643.921639 146.567148 
L 646.662196 142.974225 
L 649.402753 139.434402 
L 652.14331 135.950576 
L 654.883867 132.525622 
L 657.624424 129.162393 
L 660.364981 125.863711 
L 663.105538 122.632368 
L 665.846095 119.471119 
L 668.586652 116.38268 
L 671.327209 113.369722 
L 674.067766 110.43487 
L 676.808323 107.580696 
L 679.54888 104.809721 
L 682.289437 102.124405 
L 685.029994 99.527149 
L 687.770551 97.02029 
L 690.511108 94.606097 
L 693.251665 92.286768 
L 695.992222 90.064429 
L 698.732778 87.941133 
L 701.473335 85.918851 
L 704.213892 83.999475 
L 706.954449 82.184815 
L 709.695006 80.476596 
L 712.435563 78.876455 
L 715.17612 77.385943 
L 717.916677 76.006518 
L 720.657234 74.739548 
L 723.397791 73.586307 
L 726.138348 72.547975 
L 728.878905 71.625636 
L 731.619462 70.820277 
L 734.360019 70.132789 
L 737.100576 69.563965 
L 739.841133 69.114497 
L 742.58169 68.784981 
L 745.322247 68.575912 
L 748.062804 68.487685 
L 750.803361 68.520598 
L 753.543918 68.674847 
L 756.284475 68.950529 
L 759.025032 69.347644 
L 761.765589 69.866092 
L 764.506146 70.505675 
L 767.246703 71.266098 
L 769.987259 72.14697 
L 772.727816 73.147804 
L 775.468373 74.268017 
L 778.20893 75.506933 
L 780.949487 76.863785 
L 783.690044 78.337712 
L 786.430601 79.927765 
L 789.171158 81.632905 
L 791.911715 83.452006 
L 794.652272 85.383856 
L 797.392829 87.427158 
L 800.133386 89.580535 
L 802.873943 91.842525 
L 805.6145 94.211591 
L 808.355057 96.686116 
L 811.095614 99.264408 
L 813.836171 101.944702 
L 816.576728 104.725161 
L 819.317285 107.603879 
L 822.057842 110.578882 
L 824.798399 113.64813 
L 827.538956 116.809522 
L 830.279513 120.060893 
L 833.02007 123.400022 
L 835.760627 126.82463 
L 838.501184 130.332383 
L 841.241741 133.920899 
L 843.982297 137.587742 
L 846.722854 141.330431 
L 849.463411 145.146442 
L 852.203968 149.033207 
L 854.944525 152.988118 
L 857.685082 157.008532 
L 860.425639 161.091772 
L 863.166196 165.235125 
L 865.906753 169.435855 
L 868.64731 173.691195 
L 871.387867 177.998356 
L 874.128424 182.354528 
L 876.868981 186.756883 
L 879.609538 191.202575 
L 882.350095 195.688748 
L 885.090652 200.212536 
L 887.831209 204.771064 
L 890.571766 209.361454 
L 893.312323 213.980825 
L 896.05288 218.626299 
L 898.793437 223.295002 
L 901.533994 227.984064 
L 904.274551 232.690628 
L 907.015108 237.411849 
L 909.755665 242.144896 
L 912.496222 246.886957 
L 915.236778 251.635241 
L 917.977335 256.386982 
L 920.717892 261.139438 
L 923.458449 265.889898 
L 926.199006 270.635683 
L 928.939563 275.374147 
L 931.68012 280.102683 
L 934.420677 284.818723 
L 937.161234 289.519741 
L 939.901791 294.203257 
L 942.642348 298.866838 
L 945.382905 303.5081 
L 948.123462 308.124711 
L 950.864019 312.714394 
L 953.604576 317.274928 
L 956.345133 321.80415 
L 959.08569 326.299959 
L 961.826247 330.760316 
L 964.566804 335.183244 
L 967.307361 339.566836 
L 970.047918 343.909249 
L 972.788475 348.208713 
L 975.529032 352.463526 
L 978.269589 356.672059 
L 981.010146 360.832757 
L 983.750703 364.944138 
L 986.491259 369.004798 
L 989.231816 373.013407 
L 991.972373 376.968714 
L 994.71293 380.869545 
L 997.453487 384.714806 
L 1000.194044 388.503479 
L 1002.934601 392.234629 
L 1005.675158 395.907397 
L 1008.415715 399.521007 
L 1011.156272 403.074758 
L 1013.896829 406.568033 
L 1016.637386 410.00029 
L 1019.377943 413.371069 
L 1022.1185 416.679985 
L 1024.859057 419.926732 
L 1027.599614 423.111081 
L 1030.340171 426.232877 
L 1033.080728 429.29204 
L 1035.821285 432.288565 
L 1038.561842 435.222517 
L 1041.302399 438.094034 
L 1044.042956 440.903323 
L 1046.783513 443.650656 
L 1049.52407 446.336377 
L 1052.264627 448.960889 
L 1055.005184 451.524661 
L 1057.745741 454.028222 
L 1060.486297 456.47216 
L 1063.226854 458.857119 
L 1065.967411 461.1838 
L 1068.707968 463.452955 
L 1071.448525 465.665385 
L 1074.189082 467.821943 
L 1076.929639 469.923524 
L 1079.670196 471.971068 
L 1082.410753 473.965556 
L 1085.15131 475.908007 
L 1087.891867 477.799477 
L 1090.632424 479.641056 
L 1093.372981 481.433863 
L 1096.113538 483.179048 
L 1098.854095 484.877785 
L 1101.594652 486.531273 
L 1104.335209 488.140732 
L 1107.075766 489.707401 
L 1109.816323 491.232533 
L 1112.55688 492.717397 
L 1115.297437 494.163272 
L 1118.037994 495.571446 
L 1120.778551 496.943215 
L 1123.519108 498.279877 
L 1126.259665 499.582731 
L 1129.000222 500.85308 
L 1131.740778 502.092219 
L 1134.481335 503.301443 
L 1137.221892 504.482036 
L 1139.962449 505.635275 
L 1142.703006 506.762428 
L 1145.443563 507.864746 
L 1148.18412 508.943469 
L 1150.924677 509.999819 
L 1153.665234 511.035 
L 1156.405791 512.050196 
L 1159.146348 513.046572 
L 1161.886905 514.025266 
L 1164.627462 514.987396 
L 1167.368019 515.934052 
L 1170.108576 516.866299 
L 1172.849133 517.785172 
L 1175.58969 518.691679 
L 1178.330247 519.586796 
L 1181.070804 520.471472 
L 1183.811361 521.346619 
L 1186.551918 522.21312 
L 1189.292475 523.071825 
L 1192.033032 523.923549 
L 1194.773589 524.769072 
L 1197.514146 525.609142 
L 1200.254703 526.444468 
L 1202.995259 527.275729 
L 1205.735816 528.103562 
L 1208.476373 528.928575 
L 1211.21693 529.751334 
L 1213.957487 530.572375 
L 1216.698044 531.392193 
L 1219.438601 532.211252 
L 1222.179158 533.029978 
L 1224.919715 533.848762 
L 1227.660272 534.667962 
L 1230.400829 535.4879 
L 1233.141386 536.308866 
L 1235.881943 537.131114 
L 1238.6225 537.954868 
L 1238.6225 605.952 
L 1238.6225 605.952 
L 1235.881943 605.952 
L 1233.141386 605.952 
L 1230.400829 605.952 
L 1227.660272 605.952 
L 1224.919715 605.952 
L 1222.179158 605.952 
L 1219.438601 605.952 
L 1216.698044 605.952 
L 1213.957487 605.952 
L 1211.21693 605.952 
L 1208.476373 605.952 
L 1205.735816 605.952 
L 1202.995259 605.952 
L 1200.254703 605.952 
L 1197.514146 605.952 
L 1194.773589 605.952 
L 1192.033032 605.952 
L 1189.292475 605.952 
L 1186.551918 605.952 
L 1183.811361 605.952 
L 1181.070804 605.952 
L 1178.330247 605.952 
L 1175.58969 605.952 
L 1172.849133 605.952 
L 1170.108576 605.952 
L 1167.368019 605.952 
L 1164.627462 605.952 
L 1161.886905 605.952 
L 1159.146348 605.952 
L 1156.405791 605.952 
L 1153.665234 605.952 
L 1150.924677 605.952 
L 1148.18412 605.952 
L 1145.443563 605.952 
L 1142.703006 605.952 
L 1139.962449 605.952 
L 1137.221892 605.952 
L 1134.481335 605.952 
L 1131.740778 605.952 
L 1129.000222 605.952 
L 1126.259665 605.952 
L 1123.519108 605.952 
L 1120.778551 605.952 
L 1118.037994 605.952 
L 1115.297437 605.952 
L 1112.55688 605.952 
L 1109.816323 605.952 
L 1107.075766 605.952 
L 1104.335209 605.952 
L 1101.594652 605.952 
L 1098.854095 605.952 
L 1096.113538 605.952 
L 1093.372981 605.952 
L 1090.632424 605.952 
L 1087.891867 605.952 
L 1085.15131 605.952 
L 1082.410753 605.952 
L 1079.670196 605.952 
L 1076.929639 605.952 
L 1074.189082 605.952 
L 1071.448525 605.952 
L 1068.707968 605.952 
L 1065.967411 605.952 
L 1063.226854 605.952 
L 1060.486297 605.952 
L 1057.745741 605.952 
L 1055.005184 605.952 
L 1052.264627 605.952 
L 1049.52407 605.952 
L 1046.783513 605.952 
L 1044.042956 605.952 
L 1041.302399 605.952 
L 1038.561842 605.952 
L 1035.821285 605.952 
L 1033.080728 605.952 
L 1030.340171 605.952 
L 1027.599614 605.952 
L 1024.859057 605.952 
L 1022.1185 605.952 
L 1019.377943 605.952 
L 1016.637386 605.952 
L 1013.896829 605.952 
L 1011.156272 605.952 
L 1008.415715 605.952 
L 1005.675158 605.952 
L 1002.934601 605.952 
L 1000.194044 605.952 
L 997.453487 605.952 
L 994.71293 605.952 
L 991.972373 605.952 
L 989.231816 605.952 
L 986.491259 605.952 
L 983.750703 605.952 
L 981.010146 605.952 
L 978.269589 605.952 
L 975.529032 605.952 
L 972.788475 605.952 
L 970.047918 605.952 
L 967.307361 605.952 
L 964.566804 605.952 
L 961.826247 605.952 
L 959.08569 605.952 
L 956.345133 605.952 
L 953.604576 605.952 
L 950.864019 605.952 
L 948.123462 605.952 
L 945.382905 605.952 
L 942.642348 605.952 
L 939.901791 605.952 
L 937.161234 605.952 
L 934.420677 605.952 
L 931.68012 605.952 
L 928.939563 605.952 
L 926.199006 605.952 
L 923.458449 605.952 
L 920.717892 605.952 
L 917.977335 605.952 
L 915.236778 605.952 
L 912.496222 605.952 
L 909.755665 605.952 
L 907.015108 605.952 
L 904.274551 605.952 
L 901.533994 605.952 
L 898.793437 605.952 
L 896.05288 605.952 
L 893.312323 605.952 
L 890.571766 605.952 
L 887.831209 605.952 
L 885.090652 605.952 
L 882.350095 605.952 
L 879.609538 605.952 
L 876.868981 605.952 
L 874.128424 605.952 
L 871.387867 605.952 
L 868.64731 605.952 
L 865.906753 605.952 
L 863.166196 605.952 
L 860.425639 605.952 
L 857.685082 605.952 
L 854.944525 605.952 
L 852.203968 605.952 
L 849.463411 605.952 
L 846.722854 605.952 
L 843.982297 605.952 
L 841.241741 605.952 
L 838.501184 605.952 
L 835.760627 605.952 
L 833.02007 605.952 
L 830.279513 605.952 
L 827.538956 605.952 
L 824.798399 605.952 
L 822.057842 605.952 
L 819.317285 605.952 
L 816.576728 605.952 
L 813.836171 605.952 
L 811.095614 605.952 
L 808.355057 605.952 
L 805.6145 605.952 
L 802.873943 605.952 
L 800.133386 605.952 
L 797.392829 605.952 
L 794.652272 605.952 
L 791.911715 605.952 
L 789.171158 605.952 
L 786.430601 605.952 
L 783.690044 605.952 
L 780.949487 605.952 
L 778.20893 605.952 
L 775.468373 605.952 
L 772.727816 605.952 
L 769.987259 605.952 
L 767.246703 605.952 
L 764.506146 605.952 
L 761.765589 605.952 
L 759.025032 605.952 
L 756.284475 605.952 
L 753.543918 605.952 
L 750.803361 605.952 
L 748.062804 605.952 
L 745.322247 605.952 
L 742.58169 605.952 
L 739.841133 605.952 
L 737.100576 605.952 
L 734.360019 605.952 
L 731.619462 605.952 
L 728.878905 605.952 
L 726.138348 605.952 
L 723.397791 605.952 
L 720.657234 605.952 
L 717.916677 605.952 
L 715.17612 605.952 
L 712.435563 605.952 
L 709.695006 605.952 
L 706.954449 605.952 
L 704.213892 605.952 
L 701.473335 605.952 
L 698.732778 605.952 
L 695.992222 605.952 
L 693.251665 605.952 
L 690.511108 605.952 
L 687.770551 605.952 
L 685.029994 605.952 
L 682.289437 605.952 
L 679.54888 605.952 
L 676.808323 605.952 
L 674.067766 605.952 
L 671.327209 605.952 
L 668.586652 605.952 
L 665.846095 605.952 
L 663.105538 605.952 
L 660.364981 605.952 
L 657.624424 605.952 
L 654.883867 605.952 
L 652.14331 605.952 
L 649.402753 605.952 
L 646.662196 605.952 
L 643.921639 605.952 
L 641.181082 605.952 
L 638.440525 605.952 
L 635.699968 605.952 
L 632.959411 605.952 
L 630.218854 605.952 
L 627.478297 605.952 
L 624.737741 605.952 
L 621.997184 605.952 
L 619.256627 605.952 
L 616.51607 605.952 
L 613.775513 605.952 
L 611.034956 605.952 
L 608.294399 605.952 
L 605.553842 605.952 
L 602.813285 605.952 
L 600.072728 605.952 
L 597.332171 605.952 
L 594.591614 605.952 
L 591.851057 605.952 
L 589.1105 605.952 
L 586.369943 605.952 
L 583.629386 605.952 
L 580.888829 605.952 
L 578.148272 605.952 
L 575.407715 605.952 
L 572.667158 605.952 
L 569.926601 605.952 
L 567.186044 605.952 
L 564.445487 605.952 
L 561.70493 605.952 
L 558.964373 605.952 
L 556.223816 605.952 
L 553.483259 605.952 
L 550.742703 605.952 
L 548.002146 605.952 
L 545.261589 605.952 
L 542.521032 605.952 
L 539.780475 605.952 
L 537.039918 605.952 
L 534.299361 605.952 
L 531.558804 605.952 
L 528.818247 605.952 
L 526.07769 605.952 
L 523.337133 605.952 
L 520.596576 605.952 
L 517.856019 605.952 
L 515.115462 605.952 
L 512.374905 605.952 
L 509.634348 605.952 
L 506.893791 605.952 
L 504.153234 605.952 
L 501.412677 605.952 
L 498.67212 605.952 
L 495.931563 605.952 
L 493.191006 605.952 
L 490.450449 605.952 
L 487.709892 605.952 
L 484.969335 605.952 
L 482.228778 605.952 
L 479.488222 605.952 
L 476.747665 605.952 
L 474.007108 605.952 
L 471.266551 605.952 
L 468.525994 605.952 
L 465.785437 605.952 
L 463.04488 605.952 
L 460.304323 605.952 
L 457.563766 605.952 
L 454.823209 605.952 
L 452.082652 605.952 
L 449.342095 605.952 
L 446.601538 605.952 
L 443.860981 605.952 
L 441.120424 605.952 
L 438.379867 605.952 
L 435.63931 605.952 
L 432.898753 605.952 
L 430.158196 605.952 
L 427.417639 605.952 
L 424.677082 605.952 
L 421.936525 605.952 
L 419.195968 605.952 
L 416.455411 605.952 
L 413.714854 605.952 
L 410.974297 605.952 
L 408.233741 605.952 
L 405.493184 605.952 
L 402.752627 605.952 
L 400.01207 605.952 
L 397.271513 605.952 
L 394.530956 605.952 
L 391.790399 605.952 
L 389.049842 605.952 
L 386.309285 605.952 
L 383.568728 605.952 
L 380.828171 605.952 
L 378.087614 605.952 
L 375.347057 605.952 
L 372.6065 605.952 
L 369.865943 605.952 
L 367.125386 605.952 
L 364.384829 605.952 
L 361.644272 605.952 
L 358.903715 605.952 
L 356.163158 605.952 
L 353.422601 605.952 
L 350.682044 605.952 
L 347.941487 605.952 
L 345.20093 605.952 
L 342.460373 605.952 
L 339.719816 605.952 
L 336.979259 605.952 
L 334.238703 605.952 
L 331.498146 605.952 
L 328.757589 605.952 
L 326.017032 605.952 
L 323.276475 605.952 
L 320.535918 605.952 
L 317.795361 605.952 
L 315.054804 605.952 
L 312.314247 605.952 
L 309.57369 605.952 
L 306.833133 605.952 
L 304.092576 605.952 
L 301.352019 605.952 
L 298.611462 605.952 
L 295.870905 605.952 
L 293.130348 605.952 
L 290.389791 605.952 
L 287.649234 605.952 
L 284.908677 605.952 
L 282.16812 605.952 
L 279.427563 605.952 
L 276.687006 605.952 
L 273.946449 605.952 
L 271.205892 605.952 
L 268.465335 605.952 
L 265.724778 605.952 
L 262.984222 605.952 
L 260.243665 605.952 
L 257.503108 605.952 
L 254.762551 605.952 
L 252.021994 605.952 
L 249.281437 605.952 
L 246.54088 605.952 
L 243.800323 605.952 
L 241.059766 605.952 
L 238.319209 605.952 
L 235.578652 605.952 
L 232.838095 605.952 
L 230.097538 605.952 
L 227.356981 605.952 
L 224.616424 605.952 
L 221.875867 605.952 
L 219.13531 605.952 
L 216.394753 605.952 
L 213.654196 605.952 
L 210.913639 605.952 
L 208.173082 605.952 
L 205.432525 605.952 
L 202.691968 605.952 
L 199.951411 605.952 
L 197.210854 605.952 
L 194.470297 605.952 
L 191.729741 605.952 
L 188.989184 605.952 
L 186.248627 605.952 
L 183.50807 605.952 
L 180.767513 605.952 
L 178.026956 605.952 
L 175.286399 605.952 
L 172.545842 605.952 
L 169.805285 605.952 
L 167.064728 605.952 
L 164.324171 605.952 
L 161.583614 605.952 
L 158.843057 605.952 
L 156.1025 605.952 
z
" clip-path="url(#pb7631aa20c)" style="fill: #2ca02c; fill-opacity: 0.4"/>
   </g>
   <g id="matplotlib.axis_1">
    <g id="xtick_1">
     <g id="line2d_1">
      <defs>
       <path id="mb77e824a59" d="M 0 0 
L 0 3.5 
" style="stroke: #000000; stroke-width: 0.8"/>
      </defs>
      <g>
       <use xlink:href="#mb77e824a59" x="188.989184" y="605.952" style="stroke: #000000; stroke-width: 0.8"/>
      </g>
     </g>
     <g id="text_1">
      <!-- 400 -->
      <g transform="translate(139.548246 640.306375) scale(0.36 -0.36)">
       <defs>
        <path id="DejaVuSans-2212" d="M 678 2272 
L 4684 2272 
L 4684 1741 
L 678 1741 
L 678 2272 
z
" transform="scale(0.015625)"/>
        <path id="DejaVuSans-34" d="M 2419 4116 
L 825 1625 
L 2419 1625 
L 2419 4116 
z
M 2253 4666 
L 3047 4666 
L 3047 1625 
L 3713 1625 
L 3713 1100 
L 3047 1100 
L 3047 0 
L 2419 0 
L 2419 1100 
L 313 1100 
L 313 1709 
L 2253 4666 
z
" transform="scale(0.015625)"/>
        <path id="DejaVuSans-30" d="M 2034 4250 
Q 1547 4250 1301 3770 
Q 1056 3291 1056 2328 
Q 1056 1369 1301 889 
Q 1547 409 2034 409 
Q 2525 409 2770 889 
Q 3016 1369 3016 2328 
Q 3016 3291 2770 3770 
Q 2525 4250 2034 4250 
z
M 2034 4750 
Q 2819 4750 3233 4129 
Q 3647 3509 3647 2328 
Q 3647 1150 3233 529 
Q 2819 -91 2034 -91 
Q 1250 -91 836 529 
Q 422 1150 422 2328 
Q 422 3509 836 4129 
Q 1250 4750 2034 4750 
z
" transform="scale(0.015625)"/>
       </defs>
       <use xlink:href="#DejaVuSans-2212"/>
       <use xlink:href="#DejaVuSans-34" x="83.789062"/>
       <use xlink:href="#DejaVuSans-30" x="147.412109"/>
       <use xlink:href="#DejaVuSans-30" x="211.035156"/>
      </g>
     </g>
    </g>
    <g id="xtick_2">
     <g id="line2d_2">
      <g>
       <use xlink:href="#mb77e824a59" x="326.017032" y="605.952" style="stroke: #000000; stroke-width: 0.8"/>
      </g>
     </g>
     <g id="text_2">
      <!-- 350 -->
      <g transform="translate(276.576094 640.306375) scale(0.36 -0.36)">
       <defs>
        <path id="DejaVuSans-33" d="M 2597 2516 
Q 3050 2419 3304 2112 
Q 3559 1806 3559 1356 
Q 3559 666 3084 287 
Q 2609 -91 1734 -91 
Q 1441 -91 1130 -33 
Q 819 25 488 141 
L 488 750 
Q 750 597 1062 519 
Q 1375 441 1716 441 
Q 2309 441 2620 675 
Q 2931 909 2931 1356 
Q 2931 1769 2642 2001 
Q 2353 2234 1838 2234 
L 1294 2234 
L 1294 2753 
L 1863 2753 
Q 2328 2753 2575 2939 
Q 2822 3125 2822 3475 
Q 2822 3834 2567 4026 
Q 2313 4219 1838 4219 
Q 1578 4219 1281 4162 
Q 984 4106 628 3988 
L 628 4550 
Q 988 4650 1302 4700 
Q 1616 4750 1894 4750 
Q 2613 4750 3031 4423 
Q 3450 4097 3450 3541 
Q 3450 3153 3228 2886 
Q 3006 2619 2597 2516 
z
" transform="scale(0.015625)"/>
        <path id="DejaVuSans-35" d="M 691 4666 
L 3169 4666 
L 3169 4134 
L 1269 4134 
L 1269 2991 
Q 1406 3038 1543 3061 
Q 1681 3084 1819 3084 
Q 2600 3084 3056 2656 
Q 3513 2228 3513 1497 
Q 3513 744 3044 326 
Q 2575 -91 1722 -91 
Q 1428 -91 1123 -41 
Q 819 9 494 109 
L 494 744 
Q 775 591 1075 516 
Q 1375 441 1709 441 
Q 2250 441 2565 725 
Q 2881 1009 2881 1497 
Q 2881 1984 2565 2268 
Q 2250 2553 1709 2553 
Q 1456 2553 1204 2497 
Q 953 2441 691 2322 
L 691 4666 
z
" transform="scale(0.015625)"/>
       </defs>
       <use xlink:href="#DejaVuSans-2212"/>
       <use xlink:href="#DejaVuSans-33" x="83.789062"/>
       <use xlink:href="#DejaVuSans-35" x="147.412109"/>
       <use xlink:href="#DejaVuSans-30" x="211.035156"/>
      </g>
     </g>
    </g>
    <g id="xtick_3">
     <g id="line2d_3">
      <g>
       <use xlink:href="#mb77e824a59" x="463.04488" y="605.952" style="stroke: #000000; stroke-width: 0.8"/>
      </g>
     </g>
     <g id="text_3">
      <!-- 300 -->
      <g transform="translate(413.603942 640.306375) scale(0.36 -0.36)">
       <use xlink:href="#DejaVuSans-2212"/>
       <use xlink:href="#DejaVuSans-33" x="83.789062"/>
       <use xlink:href="#DejaVuSans-30" x="147.412109"/>
       <use xlink:href="#DejaVuSans-30" x="211.035156"/>
      </g>
     </g>
    </g>
    <g id="xtick_4">
     <g id="line2d_4">
      <g>
       <use xlink:href="#mb77e824a59" x="600.072728" y="605.952" style="stroke: #000000; stroke-width: 0.8"/>
      </g>
     </g>
     <g id="text_4">
      <!-- 250 -->
      <g transform="translate(550.63179 640.306375) scale(0.36 -0.36)">
       <defs>
        <path id="DejaVuSans-32" d="M 1228 531 
L 3431 531 
L 3431 0 
L 469 0 
L 469 531 
Q 828 903 1448 1529 
Q 2069 2156 2228 2338 
Q 2531 2678 2651 2914 
Q 2772 3150 2772 3378 
Q 2772 3750 2511 3984 
Q 2250 4219 1831 4219 
Q 1534 4219 1204 4116 
Q 875 4013 500 3803 
L 500 4441 
Q 881 4594 1212 4672 
Q 1544 4750 1819 4750 
Q 2544 4750 2975 4387 
Q 3406 4025 3406 3419 
Q 3406 3131 3298 2873 
Q 3191 2616 2906 2266 
Q 2828 2175 2409 1742 
Q 1991 1309 1228 531 
z
" transform="scale(0.015625)"/>
       </defs>
       <use xlink:href="#DejaVuSans-2212"/>
       <use xlink:href="#DejaVuSans-32" x="83.789062"/>
       <use xlink:href="#DejaVuSans-35" x="147.412109"/>
       <use xlink:href="#DejaVuSans-30" x="211.035156"/>
      </g>
     </g>
    </g>
    <g id="xtick_5">
     <g id="line2d_5">
      <g>
       <use xlink:href="#mb77e824a59" x="737.100576" y="605.952" style="stroke: #000000; stroke-width: 0.8"/>
      </g>
     </g>
     <g id="text_5">
      <!-- 200 -->
      <g transform="translate(687.659638 640.306375) scale(0.36 -0.36)">
       <use xlink:href="#DejaVuSans-2212"/>
       <use xlink:href="#DejaVuSans-32" x="83.789062"/>
       <use xlink:href="#DejaVuSans-30" x="147.412109"/>
       <use xlink:href="#DejaVuSans-30" x="211.035156"/>
      </g>
     </g>
    </g>
    <g id="xtick_6">
     <g id="line2d_6">
      <g>
       <use xlink:href="#mb77e824a59" x="874.128424" y="605.952" style="stroke: #000000; stroke-width: 0.8"/>
      </g>
     </g>
     <g id="text_6">
      <!-- 150 -->
      <g transform="translate(824.687487 640.306375) scale(0.36 -0.36)">
       <defs>
        <path id="DejaVuSans-31" d="M 794 531 
L 1825 531 
L 1825 4091 
L 703 3866 
L 703 4441 
L 1819 4666 
L 2450 4666 
L 2450 531 
L 3481 531 
L 3481 0 
L 794 0 
L 794 531 
z
" transform="scale(0.015625)"/>
       </defs>
       <use xlink:href="#DejaVuSans-2212"/>
       <use xlink:href="#DejaVuSans-31" x="83.789062"/>
       <use xlink:href="#DejaVuSans-35" x="147.412109"/>
       <use xlink:href="#DejaVuSans-30" x="211.035156"/>
      </g>
     </g>
    </g>
    <g id="xtick_7">
     <g id="line2d_7">
      <g>
       <use xlink:href="#mb77e824a59" x="1011.156272" y="605.952" style="stroke: #000000; stroke-width: 0.8"/>
      </g>
     </g>
     <g id="text_7">
      <!-- 100 -->
      <g transform="translate(961.715335 640.306375) scale(0.36 -0.36)">
       <use xlink:href="#DejaVuSans-2212"/>
       <use xlink:href="#DejaVuSans-31" x="83.789062"/>
       <use xlink:href="#DejaVuSans-30" x="147.412109"/>
       <use xlink:href="#DejaVuSans-30" x="211.035156"/>
      </g>
     </g>
    </g>
    <g id="xtick_8">
     <g id="line2d_8">
      <g>
       <use xlink:href="#mb77e824a59" x="1148.18412" y="605.952" style="stroke: #000000; stroke-width: 0.8"/>
      </g>
     </g>
     <g id="text_8">
      <!-- 50 -->
      <g transform="translate(1110.195683 640.306375) scale(0.36 -0.36)">
       <use xlink:href="#DejaVuSans-2212"/>
       <use xlink:href="#DejaVuSans-35" x="83.789062"/>
       <use xlink:href="#DejaVuSans-30" x="147.412109"/>
      </g>
     </g>
    </g>
    <g id="text_9">
     <!-- $UID_{wordwise}$ -->
     <g transform="translate(605.2025 679.147625) scale(0.36 -0.36)">
      <defs>
       <path id="DejaVuSans-Oblique-55" d="M 991 4666 
L 1625 4666 
L 1075 1831 
Q 1041 1641 1027 1517 
Q 1013 1394 1013 1300 
Q 1013 869 1253 645 
Q 1494 422 1959 422 
Q 2563 422 2898 753 
Q 3234 1084 3378 1831 
L 3928 4666 
L 4563 4666 
L 4000 1753 
Q 3816 809 3300 359 
Q 2784 -91 1888 -91 
Q 1188 -91 780 261 
Q 372 613 372 1216 
Q 372 1325 387 1461 
Q 403 1597 434 1753 
L 991 4666 
z
" transform="scale(0.015625)"/>
       <path id="DejaVuSans-Oblique-49" d="M 1081 4666 
L 1716 4666 
L 806 0 
L 172 0 
L 1081 4666 
z
" transform="scale(0.015625)"/>
       <path id="DejaVuSans-Oblique-44" d="M 1081 4666 
L 2438 4666 
Q 3519 4666 4070 4208 
Q 4622 3750 4622 2847 
Q 4622 2250 4412 1698 
Q 4203 1147 3834 769 
Q 3463 381 2891 190 
Q 2319 0 1538 0 
L 172 0 
L 1081 4666 
z
M 1613 4147 
L 909 519 
L 1734 519 
Q 2794 519 3375 1128 
Q 3956 1738 3956 2847 
Q 3956 3519 3581 3833 
Q 3206 4147 2406 4147 
L 1613 4147 
z
" transform="scale(0.015625)"/>
       <path id="DejaVuSans-Oblique-77" d="M 544 3500 
L 1113 3500 
L 1259 684 
L 2566 3500 
L 3231 3500 
L 3425 684 
L 4666 3500 
L 5241 3500 
L 3641 0 
L 2969 0 
L 2797 2900 
L 1459 0 
L 781 0 
L 544 3500 
z
" transform="scale(0.015625)"/>
       <path id="DejaVuSans-Oblique-6f" d="M 1625 -91 
Q 1009 -91 651 289 
Q 294 669 294 1325 
Q 294 1706 417 2101 
Q 541 2497 738 2766 
Q 1047 3184 1428 3384 
Q 1809 3584 2291 3584 
Q 2888 3584 3255 3212 
Q 3622 2841 3622 2241 
Q 3622 1825 3500 1412 
Q 3378 1000 3181 728 
Q 2875 309 2494 109 
Q 2113 -91 1625 -91 
z
M 891 1344 
Q 891 869 1089 633 
Q 1288 397 1691 397 
Q 2269 397 2648 901 
Q 3028 1406 3028 2181 
Q 3028 2634 2825 2865 
Q 2622 3097 2228 3097 
Q 1903 3097 1650 2945 
Q 1397 2794 1197 2484 
Q 1050 2253 970 1956 
Q 891 1659 891 1344 
z
" transform="scale(0.015625)"/>
       <path id="DejaVuSans-Oblique-72" d="M 2853 2969 
Q 2766 3016 2653 3041 
Q 2541 3066 2413 3066 
Q 1953 3066 1609 2717 
Q 1266 2369 1153 1784 
L 800 0 
L 225 0 
L 909 3500 
L 1484 3500 
L 1375 2956 
Q 1603 3259 1920 3421 
Q 2238 3584 2597 3584 
Q 2691 3584 2781 3573 
Q 2872 3563 2963 3538 
L 2853 2969 
z
" transform="scale(0.015625)"/>
       <path id="DejaVuSans-Oblique-64" d="M 2675 525 
Q 2444 222 2128 65 
Q 1813 -91 1428 -91 
Q 903 -91 598 267 
Q 294 625 294 1247 
Q 294 1766 478 2236 
Q 663 2706 1013 3078 
Q 1244 3325 1534 3454 
Q 1825 3584 2144 3584 
Q 2481 3584 2739 3421 
Q 2997 3259 3138 2956 
L 3513 4863 
L 4091 4863 
L 3144 0 
L 2566 0 
L 2675 525 
z
M 891 1350 
Q 891 897 1095 644 
Q 1300 391 1663 391 
Q 1931 391 2161 520 
Q 2391 650 2566 903 
Q 2750 1166 2856 1509 
Q 2963 1853 2963 2188 
Q 2963 2622 2758 2865 
Q 2553 3109 2194 3109 
Q 1922 3109 1687 2981 
Q 1453 2853 1288 2613 
Q 1106 2353 998 2009 
Q 891 1666 891 1350 
z
" transform="scale(0.015625)"/>
       <path id="DejaVuSans-Oblique-69" d="M 1172 4863 
L 1747 4863 
L 1606 4134 
L 1031 4134 
L 1172 4863 
z
M 909 3500 
L 1484 3500 
L 800 0 
L 225 0 
L 909 3500 
z
" transform="scale(0.015625)"/>
       <path id="DejaVuSans-Oblique-73" d="M 3200 3397 
L 3091 2853 
Q 2863 2978 2609 3040 
Q 2356 3103 2088 3103 
Q 1634 3103 1373 2948 
Q 1113 2794 1113 2528 
Q 1113 2219 1719 2053 
Q 1766 2041 1788 2034 
L 1972 1978 
Q 2547 1819 2739 1644 
Q 2931 1469 2931 1166 
Q 2931 609 2489 259 
Q 2047 -91 1331 -91 
Q 1053 -91 747 -37 
Q 441 16 72 128 
L 184 722 
Q 500 559 806 475 
Q 1113 391 1394 391 
Q 1816 391 2080 572 
Q 2344 753 2344 1031 
Q 2344 1331 1650 1516 
L 1591 1531 
L 1394 1581 
Q 956 1697 753 1886 
Q 550 2075 550 2369 
Q 550 2928 970 3256 
Q 1391 3584 2113 3584 
Q 2397 3584 2667 3537 
Q 2938 3491 3200 3397 
z
" transform="scale(0.015625)"/>
       <path id="DejaVuSans-Oblique-65" d="M 3078 2063 
Q 3088 2113 3092 2166 
Q 3097 2219 3097 2272 
Q 3097 2653 2873 2875 
Q 2650 3097 2266 3097 
Q 1838 3097 1509 2826 
Q 1181 2556 1013 2059 
L 3078 2063 
z
M 3578 1613 
L 903 1613 
Q 884 1494 878 1425 
Q 872 1356 872 1306 
Q 872 872 1139 634 
Q 1406 397 1894 397 
Q 2269 397 2603 481 
Q 2938 566 3225 728 
L 3116 159 
Q 2806 34 2476 -28 
Q 2147 -91 1806 -91 
Q 1078 -91 686 257 
Q 294 606 294 1247 
Q 294 1794 489 2264 
Q 684 2734 1063 3103 
Q 1306 3334 1642 3459 
Q 1978 3584 2356 3584 
Q 2950 3584 3301 3228 
Q 3653 2872 3653 2272 
Q 3653 2128 3634 1964 
Q 3616 1800 3578 1613 
z
" transform="scale(0.015625)"/>
      </defs>
      <use xlink:href="#DejaVuSans-Oblique-55" transform="translate(0 0.09375)"/>
      <use xlink:href="#DejaVuSans-Oblique-49" transform="translate(73.193359 0.09375)"/>
      <use xlink:href="#DejaVuSans-Oblique-44" transform="translate(102.685547 0.09375)"/>
      <use xlink:href="#DejaVuSans-Oblique-77" transform="translate(179.6875 -16.3125) scale(0.7)"/>
      <use xlink:href="#DejaVuSans-Oblique-6f" transform="translate(236.938477 -16.3125) scale(0.7)"/>
      <use xlink:href="#DejaVuSans-Oblique-72" transform="translate(279.765625 -16.3125) scale(0.7)"/>
      <use xlink:href="#DejaVuSans-Oblique-64" transform="translate(308.544922 -16.3125) scale(0.7)"/>
      <use xlink:href="#DejaVuSans-Oblique-77" transform="translate(352.978516 -16.3125) scale(0.7)"/>
      <use xlink:href="#DejaVuSans-Oblique-69" transform="translate(410.229492 -16.3125) scale(0.7)"/>
      <use xlink:href="#DejaVuSans-Oblique-73" transform="translate(429.677734 -16.3125) scale(0.7)"/>
      <use xlink:href="#DejaVuSans-Oblique-65" transform="translate(466.147461 -16.3125) scale(0.7)"/>
     </g>
    </g>
   </g>
   <g id="matplotlib.axis_2">
    <g id="ytick_1">
     <g id="line2d_9">
      <defs>
       <path id="mfbe79e48f1" d="M 0 0 
L -3.5 0 
" style="stroke: #000000; stroke-width: 0.8"/>
      </defs>
      <g>
       <use xlink:href="#mfbe79e48f1" x="156.1025" y="605.952" style="stroke: #000000; stroke-width: 0.8"/>
      </g>
     </g>
     <g id="text_10">
      <!-- 0.000 -->
      <g transform="translate(46.04125 619.629187) scale(0.36 -0.36)">
       <defs>
        <path id="DejaVuSans-2e" d="M 684 794 
L 1344 794 
L 1344 0 
L 684 0 
L 684 794 
z
" transform="scale(0.015625)"/>
       </defs>
       <use xlink:href="#DejaVuSans-30"/>
       <use xlink:href="#DejaVuSans-2e" x="63.623047"/>
       <use xlink:href="#DejaVuSans-30" x="95.410156"/>
       <use xlink:href="#DejaVuSans-30" x="159.033203"/>
       <use xlink:href="#DejaVuSans-30" x="222.65625"/>
      </g>
     </g>
    </g>
    <g id="ytick_2">
     <g id="line2d_10">
      <g>
       <use xlink:href="#mfbe79e48f1" x="156.1025" y="493.61924" style="stroke: #000000; stroke-width: 0.8"/>
      </g>
     </g>
     <g id="text_11">
      <!-- 0.001 -->
      <g transform="translate(46.04125 507.296428) scale(0.36 -0.36)">
       <use xlink:href="#DejaVuSans-30"/>
       <use xlink:href="#DejaVuSans-2e" x="63.623047"/>
       <use xlink:href="#DejaVuSans-30" x="95.410156"/>
       <use xlink:href="#DejaVuSans-30" x="159.033203"/>
       <use xlink:href="#DejaVuSans-31" x="222.65625"/>
      </g>
     </g>
    </g>
    <g id="ytick_3">
     <g id="line2d_11">
      <g>
       <use xlink:href="#mfbe79e48f1" x="156.1025" y="381.286481" style="stroke: #000000; stroke-width: 0.8"/>
      </g>
     </g>
     <g id="text_12">
      <!-- 0.002 -->
      <g transform="translate(46.04125 394.963668) scale(0.36 -0.36)">
       <use xlink:href="#DejaVuSans-30"/>
       <use xlink:href="#DejaVuSans-2e" x="63.623047"/>
       <use xlink:href="#DejaVuSans-30" x="95.410156"/>
       <use xlink:href="#DejaVuSans-30" x="159.033203"/>
       <use xlink:href="#DejaVuSans-32" x="222.65625"/>
      </g>
     </g>
    </g>
    <g id="ytick_4">
     <g id="line2d_12">
      <g>
       <use xlink:href="#mfbe79e48f1" x="156.1025" y="268.953721" style="stroke: #000000; stroke-width: 0.8"/>
      </g>
     </g>
     <g id="text_13">
      <!-- 0.003 -->
      <g transform="translate(46.04125 282.630908) scale(0.36 -0.36)">
       <use xlink:href="#DejaVuSans-30"/>
       <use xlink:href="#DejaVuSans-2e" x="63.623047"/>
       <use xlink:href="#DejaVuSans-30" x="95.410156"/>
       <use xlink:href="#DejaVuSans-30" x="159.033203"/>
       <use xlink:href="#DejaVuSans-33" x="222.65625"/>
      </g>
     </g>
    </g>
    <g id="ytick_5">
     <g id="line2d_13">
      <g>
       <use xlink:href="#mfbe79e48f1" x="156.1025" y="156.620961" style="stroke: #000000; stroke-width: 0.8"/>
      </g>
     </g>
     <g id="text_14">
      <!-- 0.004 -->
      <g transform="translate(46.04125 170.298149) scale(0.36 -0.36)">
       <use xlink:href="#DejaVuSans-30"/>
       <use xlink:href="#DejaVuSans-2e" x="63.623047"/>
       <use xlink:href="#DejaVuSans-30" x="95.410156"/>
       <use xlink:href="#DejaVuSans-30" x="159.033203"/>
       <use xlink:href="#DejaVuSans-34" x="222.65625"/>
      </g>
     </g>
    </g>
    <g id="ytick_6">
     <g id="line2d_14">
      <g>
       <use xlink:href="#mfbe79e48f1" x="156.1025" y="44.288201" style="stroke: #000000; stroke-width: 0.8"/>
      </g>
     </g>
     <g id="text_15">
      <!-- 0.005 -->
      <g transform="translate(46.04125 57.965389) scale(0.36 -0.36)">
       <use xlink:href="#DejaVuSans-30"/>
       <use xlink:href="#DejaVuSans-2e" x="63.623047"/>
       <use xlink:href="#DejaVuSans-30" x="95.410156"/>
       <use xlink:href="#DejaVuSans-30" x="159.033203"/>
       <use xlink:href="#DejaVuSans-35" x="222.65625"/>
      </g>
     </g>
    </g>
    <g id="text_16">
     <!-- density -->
     <g transform="translate(34.554375 372.574125) rotate(-90) scale(0.36 -0.36)">
      <defs>
       <path id="DejaVuSans-64" d="M 2906 2969 
L 2906 4863 
L 3481 4863 
L 3481 0 
L 2906 0 
L 2906 525 
Q 2725 213 2448 61 
Q 2172 -91 1784 -91 
Q 1150 -91 751 415 
Q 353 922 353 1747 
Q 353 2572 751 3078 
Q 1150 3584 1784 3584 
Q 2172 3584 2448 3432 
Q 2725 3281 2906 2969 
z
M 947 1747 
Q 947 1113 1208 752 
Q 1469 391 1925 391 
Q 2381 391 2643 752 
Q 2906 1113 2906 1747 
Q 2906 2381 2643 2742 
Q 2381 3103 1925 3103 
Q 1469 3103 1208 2742 
Q 947 2381 947 1747 
z
" transform="scale(0.015625)"/>
       <path id="DejaVuSans-65" d="M 3597 1894 
L 3597 1613 
L 953 1613 
Q 991 1019 1311 708 
Q 1631 397 2203 397 
Q 2534 397 2845 478 
Q 3156 559 3463 722 
L 3463 178 
Q 3153 47 2828 -22 
Q 2503 -91 2169 -91 
Q 1331 -91 842 396 
Q 353 884 353 1716 
Q 353 2575 817 3079 
Q 1281 3584 2069 3584 
Q 2775 3584 3186 3129 
Q 3597 2675 3597 1894 
z
M 3022 2063 
Q 3016 2534 2758 2815 
Q 2500 3097 2075 3097 
Q 1594 3097 1305 2825 
Q 1016 2553 972 2059 
L 3022 2063 
z
" transform="scale(0.015625)"/>
       <path id="DejaVuSans-6e" d="M 3513 2113 
L 3513 0 
L 2938 0 
L 2938 2094 
Q 2938 2591 2744 2837 
Q 2550 3084 2163 3084 
Q 1697 3084 1428 2787 
Q 1159 2491 1159 1978 
L 1159 0 
L 581 0 
L 581 3500 
L 1159 3500 
L 1159 2956 
Q 1366 3272 1645 3428 
Q 1925 3584 2291 3584 
Q 2894 3584 3203 3211 
Q 3513 2838 3513 2113 
z
" transform="scale(0.015625)"/>
       <path id="DejaVuSans-73" d="M 2834 3397 
L 2834 2853 
Q 2591 2978 2328 3040 
Q 2066 3103 1784 3103 
Q 1356 3103 1142 2972 
Q 928 2841 928 2578 
Q 928 2378 1081 2264 
Q 1234 2150 1697 2047 
L 1894 2003 
Q 2506 1872 2764 1633 
Q 3022 1394 3022 966 
Q 3022 478 2636 193 
Q 2250 -91 1575 -91 
Q 1294 -91 989 -36 
Q 684 19 347 128 
L 347 722 
Q 666 556 975 473 
Q 1284 391 1588 391 
Q 1994 391 2212 530 
Q 2431 669 2431 922 
Q 2431 1156 2273 1281 
Q 2116 1406 1581 1522 
L 1381 1569 
Q 847 1681 609 1914 
Q 372 2147 372 2553 
Q 372 3047 722 3315 
Q 1072 3584 1716 3584 
Q 2034 3584 2315 3537 
Q 2597 3491 2834 3397 
z
" transform="scale(0.015625)"/>
       <path id="DejaVuSans-69" d="M 603 3500 
L 1178 3500 
L 1178 0 
L 603 0 
L 603 3500 
z
M 603 4863 
L 1178 4863 
L 1178 4134 
L 603 4134 
L 603 4863 
z
" transform="scale(0.015625)"/>
       <path id="DejaVuSans-74" d="M 1172 4494 
L 1172 3500 
L 2356 3500 
L 2356 3053 
L 1172 3053 
L 1172 1153 
Q 1172 725 1289 603 
Q 1406 481 1766 481 
L 2356 481 
L 2356 0 
L 1766 0 
Q 1100 0 847 248 
Q 594 497 594 1153 
L 594 3053 
L 172 3053 
L 172 3500 
L 594 3500 
L 594 4494 
L 1172 4494 
z
" transform="scale(0.015625)"/>
       <path id="DejaVuSans-79" d="M 2059 -325 
Q 1816 -950 1584 -1140 
Q 1353 -1331 966 -1331 
L 506 -1331 
L 506 -850 
L 844 -850 
Q 1081 -850 1212 -737 
Q 1344 -625 1503 -206 
L 1606 56 
L 191 3500 
L 800 3500 
L 1894 763 
L 2988 3500 
L 3597 3500 
L 2059 -325 
z
" transform="scale(0.015625)"/>
      </defs>
      <use xlink:href="#DejaVuSans-64"/>
      <use xlink:href="#DejaVuSans-65" x="63.476562"/>
      <use xlink:href="#DejaVuSans-6e" x="125"/>
      <use xlink:href="#DejaVuSans-73" x="188.378906"/>
      <use xlink:href="#DejaVuSans-69" x="240.478516"/>
      <use xlink:href="#DejaVuSans-74" x="268.261719"/>
      <use xlink:href="#DejaVuSans-79" x="307.470703"/>
     </g>
    </g>
   </g>
   <g id="line2d_15">
    <path d="M 282.16812 514.377108 
L 298.611462 504.241457 
L 317.795361 492.114 
L 342.460373 476.211209 
L 380.828171 451.154247 
L 405.493184 434.815276 
L 419.195968 425.512044 
L 430.158196 417.849995 
L 441.120424 409.900304 
L 449.342095 403.687915 
L 457.563766 397.207517 
L 465.785437 390.407116 
L 474.007108 383.232556 
L 479.488222 378.214534 
L 484.969335 372.989717 
L 490.450449 367.542429 
L 495.931563 361.857665 
L 501.412677 355.921347 
L 506.893791 349.720582 
L 512.374905 343.243926 
L 517.856019 336.481634 
L 523.337133 329.425913 
L 528.818247 322.07115 
L 534.299361 314.414133 
L 539.780475 306.45424 
L 545.261589 298.193613 
L 550.742703 289.637295 
L 556.223816 280.793337 
L 564.445487 267.01328 
L 572.667158 252.662527 
L 580.888829 237.807413 
L 589.1105 222.529339 
L 600.072728 201.667448 
L 635.699968 133.199485 
L 643.921639 118.033007 
L 652.14331 103.392684 
L 657.624424 93.990724 
L 663.105538 84.919853 
L 668.586652 76.21647 
L 674.067766 67.915118 
L 679.54888 60.048219 
L 685.029994 52.645844 
L 690.511108 45.735514 
L 695.992222 39.342042 
L 701.473335 33.487409 
L 706.954449 28.190678 
L 712.435563 23.467946 
L 715.17612 21.326049 
L 717.916677 19.332342 
L 720.657234 17.488006 
L 723.397791 15.794042 
L 726.138348 14.25127 
L 728.878905 12.860339 
L 731.619462 11.621722 
L 734.360019 10.535728 
L 737.100576 9.602501 
L 739.841133 8.822027 
L 742.58169 8.194139 
L 745.322247 7.718519 
L 748.062804 7.394709 
L 750.803361 7.222112 
L 753.543918 7.2 
L 756.284475 7.32752 
L 759.025032 7.603698 
L 761.765589 8.027448 
L 764.506146 8.597578 
L 767.246703 9.312793 
L 769.987259 10.171703 
L 772.727816 11.172833 
L 775.468373 12.314622 
L 778.20893 13.595432 
L 780.949487 15.013556 
L 783.690044 16.567222 
L 786.430601 18.254595 
L 791.911715 22.022861 
L 797.392829 26.302673 
L 802.873943 31.077691 
L 808.355057 36.331037 
L 813.836171 42.045406 
L 819.317285 48.203144 
L 824.798399 54.786317 
L 830.279513 61.776757 
L 835.760627 69.156083 
L 841.241741 76.905715 
L 846.722854 85.006864 
L 852.203968 93.440516 
L 857.685082 102.187404 
L 865.906753 115.852183 
L 874.128424 130.110226 
L 882.350095 144.892138 
L 890.571766 160.12631 
L 901.533994 181.013833 
L 912.496222 202.391588 
L 931.68012 240.411201 
L 950.864019 278.308094 
L 961.826247 299.506309 
L 970.047918 315.043071 
L 978.269589 330.187217 
L 986.491259 344.870063 
L 994.71293 359.029163 
L 1002.934601 372.609291 
L 1008.415715 381.317418 
L 1013.896829 389.735247 
L 1019.377943 397.852739 
L 1024.859057 405.661701 
L 1030.340171 413.155819 
L 1035.821285 420.330665 
L 1041.302399 427.183695 
L 1046.783513 433.714218 
L 1052.264627 439.923357 
L 1057.745741 445.813983 
L 1063.226854 451.390644 
L 1068.707968 456.659468 
L 1074.189082 461.628068 
L 1079.670196 466.305421 
L 1085.15131 470.701749 
L 1090.632424 474.828387 
L 1096.113538 478.697651 
L 1101.594652 482.322696 
L 1107.075766 485.717375 
L 1112.55688 488.896101 
L 1118.037994 491.873708 
L 1123.519108 494.665311 
L 1131.740778 498.537366 
L 1139.962449 502.076772 
L 1148.18412 505.334261 
L 1156.405791 508.358972 
L 1167.368019 512.11033 
L 1181.070804 516.489376 
L 1202.995259 523.17626 
L 1224.919715 529.923856 
L 1238.6225 534.319044 
L 1238.6225 534.319044 
" clip-path="url(#pb7631aa20c)" style="fill: none; stroke: #1f77b4; stroke-width: 1.5; stroke-linecap: square"/>
   </g>
   <g id="line2d_16">
    <path d="M 262.984222 506.442735 
L 273.946449 503.008087 
L 287.649234 498.976603 
L 306.833133 493.631032 
L 328.757589 487.495693 
L 339.719816 484.214565 
L 350.682044 480.668151 
L 358.903715 477.778281 
L 367.125386 474.648729 
L 375.347057 471.243034 
L 383.568728 467.527048 
L 391.790399 463.469482 
L 397.271513 460.560717 
L 402.752627 457.480258 
L 408.233741 454.221501 
L 413.714854 450.77865 
L 419.195968 447.146743 
L 424.677082 443.321667 
L 430.158196 439.300174 
L 435.63931 435.079877 
L 441.120424 430.659259 
L 446.601538 426.037658 
L 452.082652 421.21526 
L 460.304323 413.607629 
L 468.525994 405.557572 
L 476.747665 397.075954 
L 484.969335 388.177476 
L 493.191006 378.880515 
L 501.412677 369.206963 
L 509.634348 359.182085 
L 517.856019 348.834374 
L 526.07769 338.195418 
L 537.039918 323.617226 
L 548.002146 308.67266 
L 561.70493 289.626601 
L 602.813285 232.116672 
L 613.775513 217.246827 
L 624.737741 202.804656 
L 632.959411 192.324479 
L 641.181082 182.198451 
L 649.402753 172.471562 
L 657.624424 163.185772 
L 663.105538 157.259429 
L 668.586652 151.556698 
L 674.067766 146.087155 
L 679.54888 140.859503 
L 685.029994 135.881541 
L 690.511108 131.160149 
L 695.992222 126.701286 
L 701.473335 122.509991 
L 706.954449 118.590408 
L 712.435563 114.945815 
L 717.916677 111.578666 
L 723.397791 108.490645 
L 728.878905 105.682731 
L 734.360019 103.155267 
L 739.841133 100.908041 
L 745.322247 98.940373 
L 750.803361 97.2512 
L 756.284475 95.839172 
L 761.765589 94.702739 
L 767.246703 93.840245 
L 772.727816 93.250011 
L 778.20893 92.930419 
L 783.690044 92.87998 
L 789.171158 93.097403 
L 794.652272 93.581642 
L 800.133386 94.331943 
L 805.6145 95.347865 
L 811.095614 96.629299 
L 816.576728 98.176458 
L 822.057842 99.98987 
L 827.538956 102.07034 
L 833.02007 104.418903 
L 838.501184 107.036768 
L 843.982297 109.925243 
L 849.463411 113.085648 
L 854.944525 116.519226 
L 860.425639 120.227035 
L 865.906753 124.209842 
L 871.387867 128.468012 
L 876.868981 133.001389 
L 882.350095 137.809187 
L 887.831209 142.889876 
L 893.312323 148.241082 
L 898.793437 153.859482 
L 904.274551 159.740726 
L 909.755665 165.879352 
L 915.236778 172.268731 
L 920.717892 178.901017 
L 928.939563 189.284662 
L 937.161234 200.158095 
L 945.382905 211.479033 
L 953.604576 223.199185 
L 961.826247 235.264739 
L 972.788475 251.787455 
L 986.491259 272.928189 
L 1022.1185 328.290112 
L 1033.080728 344.829236 
L 1041.302399 356.924373 
L 1049.52407 368.697643 
L 1057.745741 380.10462 
L 1065.967411 391.107716 
L 1074.189082 401.676577 
L 1082.410753 411.788286 
L 1090.632424 421.427396 
L 1098.854095 430.585771 
L 1107.075766 439.262275 
L 1115.297437 447.462301 
L 1123.519108 455.19718 
L 1131.740778 462.483489 
L 1139.962449 469.342269 
L 1148.18412 475.798206 
L 1156.405791 481.878771 
L 1164.627462 487.613365 
L 1172.849133 493.032488 
L 1181.070804 498.166941 
L 1189.292475 503.047093 
L 1197.514146 507.702226 
L 1208.476373 513.606478 
L 1219.438601 519.218922 
L 1230.400829 524.590683 
L 1230.400829 524.590683 
" clip-path="url(#pb7631aa20c)" style="fill: none; stroke: #ff7f0e; stroke-width: 1.5; stroke-linecap: square"/>
   </g>
   <g id="line2d_17">
    <path d="M 156.1025 520.629048 
L 172.545842 514.845498 
L 188.989184 509.335825 
L 205.432525 504.070456 
L 227.356981 497.321727 
L 268.465335 484.769282 
L 284.908677 479.468236 
L 298.611462 474.802023 
L 309.57369 470.861699 
L 320.535918 466.705123 
L 331.498146 462.304768 
L 342.460373 457.634612 
L 353.422601 452.669584 
L 361.644272 448.737383 
L 369.865943 444.614732 
L 378.087614 440.290647 
L 386.309285 435.75362 
L 394.530956 430.991489 
L 402.752627 425.991338 
L 410.974297 420.739459 
L 419.195968 415.221377 
L 427.417639 409.421952 
L 435.63931 403.325548 
L 443.860981 396.9163 
L 452.082652 390.178444 
L 460.304323 383.096735 
L 468.525994 375.656927 
L 476.747665 367.846317 
L 484.969335 359.654322 
L 493.191006 351.0731 
L 501.412677 342.098172 
L 509.634348 332.729036 
L 517.856019 322.969756 
L 526.07769 312.829499 
L 534.299361 302.323008 
L 542.521032 291.470984 
L 550.742703 280.300373 
L 561.70493 264.969223 
L 572.667158 249.228607 
L 586.369943 229.156668 
L 616.51607 184.773441 
L 627.478297 169.076079 
L 635.699968 157.635337 
L 643.921639 146.567148 
L 652.14331 135.950576 
L 657.624424 129.162393 
L 663.105538 122.632368 
L 668.586652 116.38268 
L 674.067766 110.43487 
L 679.54888 104.809721 
L 685.029994 99.527149 
L 690.511108 94.606097 
L 695.992222 90.064429 
L 701.473335 85.918851 
L 706.954449 82.184815 
L 712.435563 78.876455 
L 717.916677 76.006518 
L 723.397791 73.586307 
L 728.878905 71.625636 
L 731.619462 70.820277 
L 734.360019 70.132789 
L 737.100576 69.563965 
L 739.841133 69.114497 
L 742.58169 68.784981 
L 745.322247 68.575912 
L 748.062804 68.487685 
L 750.803361 68.520598 
L 753.543918 68.674847 
L 756.284475 68.950529 
L 759.025032 69.347644 
L 761.765589 69.866092 
L 764.506146 70.505675 
L 767.246703 71.266098 
L 769.987259 72.14697 
L 772.727816 73.147804 
L 778.20893 75.506933 
L 783.690044 78.337712 
L 789.171158 81.632905 
L 794.652272 85.383856 
L 800.133386 89.580535 
L 805.6145 94.211591 
L 811.095614 99.264408 
L 816.576728 104.725161 
L 822.057842 110.578882 
L 827.538956 116.809522 
L 833.02007 123.400022 
L 838.501184 130.332383 
L 843.982297 137.587742 
L 849.463411 145.146442 
L 854.944525 152.988118 
L 863.166196 165.235125 
L 871.387867 177.998356 
L 879.609538 191.202575 
L 887.831209 204.771064 
L 898.793437 223.295002 
L 915.236778 251.635241 
L 939.901791 294.203257 
L 950.864019 312.714394 
L 961.826247 330.760316 
L 970.047918 343.909249 
L 978.269589 356.672059 
L 986.491259 369.004798 
L 994.71293 380.869545 
L 1002.934601 392.234629 
L 1011.156272 403.074758 
L 1016.637386 410.00029 
L 1022.1185 416.679985 
L 1027.599614 423.111081 
L 1033.080728 429.29204 
L 1038.561842 435.222517 
L 1044.042956 440.903323 
L 1049.52407 446.336377 
L 1055.005184 451.524661 
L 1060.486297 456.47216 
L 1065.967411 461.1838 
L 1071.448525 465.665385 
L 1076.929639 469.923524 
L 1082.410753 473.965556 
L 1087.891867 477.799477 
L 1093.372981 481.433863 
L 1098.854095 484.877785 
L 1104.335209 488.140732 
L 1112.55688 492.717397 
L 1120.778551 496.943215 
L 1129.000222 500.85308 
L 1137.221892 504.482036 
L 1145.443563 507.864746 
L 1153.665234 511.035 
L 1164.627462 514.987396 
L 1175.58969 518.691679 
L 1189.292475 523.071825 
L 1208.476373 528.928575 
L 1238.6225 537.954868 
L 1238.6225 537.954868 
" clip-path="url(#pb7631aa20c)" style="fill: none; stroke: #2ca02c; stroke-width: 1.5; stroke-linecap: square"/>
   </g>
   <g id="patch_3">
    <path d="M 156.1025 605.952 
L 156.1025 7.2 
" style="fill: none; stroke: #000000; stroke-width: 0.8; stroke-linejoin: miter; stroke-linecap: square"/>
   </g>
   <g id="patch_4">
    <path d="M 1238.6225 605.952 
L 1238.6225 7.2 
" style="fill: none; stroke: #000000; stroke-width: 0.8; stroke-linejoin: miter; stroke-linecap: square"/>
   </g>
   <g id="patch_5">
    <path d="M 156.1025 605.952 
L 1238.6225 605.952 
" style="fill: none; stroke: #000000; stroke-width: 0.8; stroke-linejoin: miter; stroke-linecap: square"/>
   </g>
   <g id="patch_6">
    <path d="M 156.1025 7.2 
L 1238.6225 7.2 
" style="fill: none; stroke: #000000; stroke-width: 0.8; stroke-linejoin: miter; stroke-linecap: square"/>
   </g>
   <g id="legend_1">
    <g id="patch_7">
     <path d="M 181.3025 194.52375 
L 478.983125 194.52375 
Q 486.183125 194.52375 486.183125 187.32375 
L 486.183125 32.4 
Q 486.183125 25.2 478.983125 25.2 
L 181.3025 25.2 
Q 174.1025 25.2 174.1025 32.4 
L 174.1025 187.32375 
Q 174.1025 194.52375 181.3025 194.52375 
z
" style="fill: #ffffff; opacity: 0.8; stroke: #cccccc; stroke-linejoin: miter"/>
    </g>
    <g id="line2d_18">
     <path d="M 188.5025 54.354375 
L 224.5025 54.354375 
L 260.5025 54.354375 
" style="fill: none; stroke: #1f77b4; stroke-width: 8; stroke-linecap: square"/>
    </g>
    <g id="text_17">
     <!-- regular -->
     <g transform="translate(289.3025 66.954375) scale(0.36 -0.36)">
      <defs>
       <path id="DejaVuSans-72" d="M 2631 2963 
Q 2534 3019 2420 3045 
Q 2306 3072 2169 3072 
Q 1681 3072 1420 2755 
Q 1159 2438 1159 1844 
L 1159 0 
L 581 0 
L 581 3500 
L 1159 3500 
L 1159 2956 
Q 1341 3275 1631 3429 
Q 1922 3584 2338 3584 
Q 2397 3584 2469 3576 
Q 2541 3569 2628 3553 
L 2631 2963 
z
" transform="scale(0.015625)"/>
       <path id="DejaVuSans-67" d="M 2906 1791 
Q 2906 2416 2648 2759 
Q 2391 3103 1925 3103 
Q 1463 3103 1205 2759 
Q 947 2416 947 1791 
Q 947 1169 1205 825 
Q 1463 481 1925 481 
Q 2391 481 2648 825 
Q 2906 1169 2906 1791 
z
M 3481 434 
Q 3481 -459 3084 -895 
Q 2688 -1331 1869 -1331 
Q 1566 -1331 1297 -1286 
Q 1028 -1241 775 -1147 
L 775 -588 
Q 1028 -725 1275 -790 
Q 1522 -856 1778 -856 
Q 2344 -856 2625 -561 
Q 2906 -266 2906 331 
L 2906 616 
Q 2728 306 2450 153 
Q 2172 0 1784 0 
Q 1141 0 747 490 
Q 353 981 353 1791 
Q 353 2603 747 3093 
Q 1141 3584 1784 3584 
Q 2172 3584 2450 3431 
Q 2728 3278 2906 2969 
L 2906 3500 
L 3481 3500 
L 3481 434 
z
" transform="scale(0.015625)"/>
       <path id="DejaVuSans-75" d="M 544 1381 
L 544 3500 
L 1119 3500 
L 1119 1403 
Q 1119 906 1312 657 
Q 1506 409 1894 409 
Q 2359 409 2629 706 
Q 2900 1003 2900 1516 
L 2900 3500 
L 3475 3500 
L 3475 0 
L 2900 0 
L 2900 538 
Q 2691 219 2414 64 
Q 2138 -91 1772 -91 
Q 1169 -91 856 284 
Q 544 659 544 1381 
z
M 1991 3584 
L 1991 3584 
z
" transform="scale(0.015625)"/>
       <path id="DejaVuSans-6c" d="M 603 4863 
L 1178 4863 
L 1178 0 
L 603 0 
L 603 4863 
z
" transform="scale(0.015625)"/>
       <path id="DejaVuSans-61" d="M 2194 1759 
Q 1497 1759 1228 1600 
Q 959 1441 959 1056 
Q 959 750 1161 570 
Q 1363 391 1709 391 
Q 2188 391 2477 730 
Q 2766 1069 2766 1631 
L 2766 1759 
L 2194 1759 
z
M 3341 1997 
L 3341 0 
L 2766 0 
L 2766 531 
Q 2569 213 2275 61 
Q 1981 -91 1556 -91 
Q 1019 -91 701 211 
Q 384 513 384 1019 
Q 384 1609 779 1909 
Q 1175 2209 1959 2209 
L 2766 2209 
L 2766 2266 
Q 2766 2663 2505 2880 
Q 2244 3097 1772 3097 
Q 1472 3097 1187 3025 
Q 903 2953 641 2809 
L 641 3341 
Q 956 3463 1253 3523 
Q 1550 3584 1831 3584 
Q 2591 3584 2966 3190 
Q 3341 2797 3341 1997 
z
" transform="scale(0.015625)"/>
      </defs>
      <use xlink:href="#DejaVuSans-72"/>
      <use xlink:href="#DejaVuSans-65" x="38.863281"/>
      <use xlink:href="#DejaVuSans-67" x="100.386719"/>
      <use xlink:href="#DejaVuSans-75" x="163.863281"/>
      <use xlink:href="#DejaVuSans-6c" x="227.242188"/>
      <use xlink:href="#DejaVuSans-61" x="255.025391"/>
      <use xlink:href="#DejaVuSans-72" x="316.304688"/>
     </g>
    </g>
    <g id="line2d_19">
     <path d="M 188.5025 107.195625 
L 224.5025 107.195625 
L 260.5025 107.195625 
" style="fill: none; stroke: #ff7f0e; stroke-width: 8; stroke-linecap: square"/>
    </g>
    <g id="text_18">
     <!-- reversed -->
     <g transform="translate(289.3025 119.795625) scale(0.36 -0.36)">
      <defs>
       <path id="DejaVuSans-76" d="M 191 3500 
L 800 3500 
L 1894 563 
L 2988 3500 
L 3597 3500 
L 2284 0 
L 1503 0 
L 191 3500 
z
" transform="scale(0.015625)"/>
      </defs>
      <use xlink:href="#DejaVuSans-72"/>
      <use xlink:href="#DejaVuSans-65" x="38.863281"/>
      <use xlink:href="#DejaVuSans-76" x="100.386719"/>
      <use xlink:href="#DejaVuSans-65" x="159.566406"/>
      <use xlink:href="#DejaVuSans-72" x="221.089844"/>
      <use xlink:href="#DejaVuSans-73" x="262.203125"/>
      <use xlink:href="#DejaVuSans-65" x="314.302734"/>
      <use xlink:href="#DejaVuSans-64" x="375.826172"/>
     </g>
    </g>
    <g id="line2d_20">
     <path d="M 188.5025 160.036875 
L 224.5025 160.036875 
L 260.5025 160.036875 
" style="fill: none; stroke: #2ca02c; stroke-width: 8; stroke-linecap: square"/>
    </g>
    <g id="text_19">
     <!-- shortened -->
     <g transform="translate(289.3025 172.636875) scale(0.36 -0.36)">
      <defs>
       <path id="DejaVuSans-68" d="M 3513 2113 
L 3513 0 
L 2938 0 
L 2938 2094 
Q 2938 2591 2744 2837 
Q 2550 3084 2163 3084 
Q 1697 3084 1428 2787 
Q 1159 2491 1159 1978 
L 1159 0 
L 581 0 
L 581 4863 
L 1159 4863 
L 1159 2956 
Q 1366 3272 1645 3428 
Q 1925 3584 2291 3584 
Q 2894 3584 3203 3211 
Q 3513 2838 3513 2113 
z
" transform="scale(0.015625)"/>
       <path id="DejaVuSans-6f" d="M 1959 3097 
Q 1497 3097 1228 2736 
Q 959 2375 959 1747 
Q 959 1119 1226 758 
Q 1494 397 1959 397 
Q 2419 397 2687 759 
Q 2956 1122 2956 1747 
Q 2956 2369 2687 2733 
Q 2419 3097 1959 3097 
z
M 1959 3584 
Q 2709 3584 3137 3096 
Q 3566 2609 3566 1747 
Q 3566 888 3137 398 
Q 2709 -91 1959 -91 
Q 1206 -91 779 398 
Q 353 888 353 1747 
Q 353 2609 779 3096 
Q 1206 3584 1959 3584 
z
" transform="scale(0.015625)"/>
      </defs>
      <use xlink:href="#DejaVuSans-73"/>
      <use xlink:href="#DejaVuSans-68" x="52.099609"/>
      <use xlink:href="#DejaVuSans-6f" x="115.478516"/>
      <use xlink:href="#DejaVuSans-72" x="176.660156"/>
      <use xlink:href="#DejaVuSans-74" x="217.773438"/>
      <use xlink:href="#DejaVuSans-65" x="256.982422"/>
      <use xlink:href="#DejaVuSans-6e" x="318.505859"/>
      <use xlink:href="#DejaVuSans-65" x="381.884766"/>
      <use xlink:href="#DejaVuSans-64" x="443.408203"/>
     </g>
    </g>
   </g>
  </g>
 </g>
 <defs>
  <clipPath id="pb7631aa20c">
   <rect x="156.1025" y="7.2" width="1082.52" height="598.752"/>
  </clipPath>
 </defs>
</svg>
