<?xml version="1.0" encoding="utf-8" standalone="no"?>
<!DOCTYPE svg PUBLIC "-//W3C//DTD SVG 1.1//EN"
  "http://www.w3.org/Graphics/SVG/1.1/DTD/svg11.dtd">
<svg xmlns:xlink="http://www.w3.org/1999/xlink" width="1245.8225pt" height="693.8345pt" viewBox="0 0 1245.8225 693.8345" xmlns="http://www.w3.org/2000/svg" version="1.1">
 <metadata>
  <rdf:RDF xmlns:dc="http://purl.org/dc/elements/1.1/" xmlns:cc="http://creativecommons.org/ns#" xmlns:rdf="http://www.w3.org/1999/02/22-rdf-syntax-ns#">
   <cc:Work>
    <dc:type rdf:resource="http://purl.org/dc/dcmitype/StillImage"/>
    <dc:date>2023-12-15T09:11:32.902189</dc:date>
    <dc:format>image/svg+xml</dc:format>
    <dc:creator>
     <cc:Agent>
      <dc:title>Matplotlib v3.8.1, https://matplotlib.org/</dc:title>
     </cc:Agent>
    </dc:creator>
   </cc:Work>
  </rdf:RDF>
 </metadata>
 <defs>
  <style type="text/css">*{stroke-linejoin: round; stroke-linecap: butt}</style>
 </defs>
 <g id="figure_1">
  <g id="patch_1">
   <path d="M 0 693.8345 
L 1245.8225 693.8345 
L 1245.8225 0 
L 0 0 
z
" style="fill: #ffffff"/>
  </g>
  <g id="axes_1">
   <g id="patch_2">
    <path d="M 156.1025 605.952 
L 1238.6225 605.952 
L 1238.6225 7.2 
L 156.1025 7.2 
z
" style="fill: #ffffff"/>
   </g>
   <g id="PolyCollection_1">
    <path d="M 334.77085 605.952 
L 334.77085 589.429745 
L 345.280752 589.417998 
L 355.790655 589.761175 
L 366.300558 590.396937 
L 376.810461 591.228577 
L 387.320364 592.131448 
L 397.830267 592.961672 
L 408.34017 593.565979 
L 418.850073 593.791669 
L 429.359976 593.495938 
L 439.869879 592.554239 
L 450.379782 590.867612 
L 460.889684 588.369152 
L 471.399587 585.029715 
L 481.90949 580.862772 
L 492.419393 575.92794 
L 502.929296 570.332389 
L 513.439199 564.229032 
L 523.949102 557.810379 
L 534.459005 551.297186 
L 544.968908 544.921607 
L 555.478811 538.90541 
L 565.988714 533.434873 
L 576.498617 528.634927 
L 587.008519 524.545972 
L 597.518422 521.10703 
L 608.028325 518.148675 
L 618.538228 515.398166 
L 629.048131 512.497654 
L 639.558034 509.03439 
L 650.067937 504.579888 
L 660.57784 498.733364 
L 671.087743 491.163815 
L 681.597646 481.645071 
L 692.107549 470.07905 
L 702.617451 456.504132 
L 713.127354 441.087774 
L 723.637257 424.10478 
L 734.14716 405.904613 
L 744.657063 386.872556 
L 755.166966 367.390095 
L 765.676869 347.799678 
L 776.186772 328.378056 
L 786.696675 309.320978 
L 797.206578 290.740247 
L 807.716481 272.672443 
L 818.226383 255.097014 
L 828.736286 237.960242 
L 839.246189 221.200899 
L 849.756092 204.773358 
L 860.265995 188.664521 
L 870.775898 172.902255 
L 881.285801 157.5548 
L 891.795704 142.722585 
L 902.305607 128.525628 
L 912.81551 115.090711 
L 923.325413 102.542531 
L 933.835316 91.001893 
L 944.345218 80.591935 
L 954.855121 71.450998 
L 965.365024 63.7485 
L 975.874927 57.69896 
L 986.38483 53.569254 
L 996.894733 51.675455 
L 1007.404636 52.367774 
L 1017.914539 56.004649 
L 1028.424442 62.919183 
L 1038.934345 73.382546 
L 1049.444248 87.569349 
L 1059.95415 105.529438 
L 1070.464053 127.169411 
L 1080.973956 152.245685 
L 1091.483859 180.369525 
L 1101.993762 211.023238 
L 1112.503665 243.585782 
L 1123.013568 277.365424 
L 1133.523471 311.636597 
L 1144.033374 345.677964 
L 1154.543277 378.808717 
L 1165.05318 410.420426 
L 1165.05318 605.952 
L 1165.05318 605.952 
L 1154.543277 605.952 
L 1144.033374 605.952 
L 1133.523471 605.952 
L 1123.013568 605.952 
L 1112.503665 605.952 
L 1101.993762 605.952 
L 1091.483859 605.952 
L 1080.973956 605.952 
L 1070.464053 605.952 
L 1059.95415 605.952 
L 1049.444248 605.952 
L 1038.934345 605.952 
L 1028.424442 605.952 
L 1017.914539 605.952 
L 1007.404636 605.952 
L 996.894733 605.952 
L 986.38483 605.952 
L 975.874927 605.952 
L 965.365024 605.952 
L 954.855121 605.952 
L 944.345218 605.952 
L 933.835316 605.952 
L 923.325413 605.952 
L 912.81551 605.952 
L 902.305607 605.952 
L 891.795704 605.952 
L 881.285801 605.952 
L 870.775898 605.952 
L 860.265995 605.952 
L 849.756092 605.952 
L 839.246189 605.952 
L 828.736286 605.952 
L 818.226383 605.952 
L 807.716481 605.952 
L 797.206578 605.952 
L 786.696675 605.952 
L 776.186772 605.952 
L 765.676869 605.952 
L 755.166966 605.952 
L 744.657063 605.952 
L 734.14716 605.952 
L 723.637257 605.952 
L 713.127354 605.952 
L 702.617451 605.952 
L 692.107549 605.952 
L 681.597646 605.952 
L 671.087743 605.952 
L 660.57784 605.952 
L 650.067937 605.952 
L 639.558034 605.952 
L 629.048131 605.952 
L 618.538228 605.952 
L 608.028325 605.952 
L 597.518422 605.952 
L 587.008519 605.952 
L 576.498617 605.952 
L 565.988714 605.952 
L 555.478811 605.952 
L 544.968908 605.952 
L 534.459005 605.952 
L 523.949102 605.952 
L 513.439199 605.952 
L 502.929296 605.952 
L 492.419393 605.952 
L 481.90949 605.952 
L 471.399587 605.952 
L 460.889684 605.952 
L 450.379782 605.952 
L 439.869879 605.952 
L 429.359976 605.952 
L 418.850073 605.952 
L 408.34017 605.952 
L 397.830267 605.952 
L 387.320364 605.952 
L 376.810461 605.952 
L 366.300558 605.952 
L 355.790655 605.952 
L 345.280752 605.952 
L 334.77085 605.952 
z
" clip-path="url(#p3cad867a39)" style="fill: #1f77b4; fill-opacity: 0.4"/>
   </g>
   <g id="PolyCollection_2">
    <path d="M 366.300558 605.952 
L 366.300558 588.923989 
L 376.810461 588.587451 
L 387.320364 588.488965 
L 397.830267 588.547986 
L 408.34017 588.653328 
L 418.850073 588.672452 
L 429.359976 588.463427 
L 439.869879 587.888089 
L 450.379782 586.824797 
L 460.889684 585.179376 
L 471.399587 582.893156 
L 481.90949 579.947487 
L 492.419393 576.364487 
L 502.929296 572.204201 
L 513.439199 567.558539 
L 523.949102 562.54256 
L 534.459005 557.283728 
L 544.968908 551.909868 
L 555.478811 546.53666 
L 565.988714 541.255652 
L 576.498617 536.123936 
L 587.008519 531.156708 
L 597.518422 526.323894 
L 608.028325 521.551751 
L 618.538228 516.729844 
L 629.048131 511.723084 
L 639.558034 506.387697 
L 650.067937 500.589189 
L 660.57784 494.219799 
L 671.087743 487.212686 
L 681.597646 479.55032 
L 692.107549 471.265219 
L 702.617451 462.432248 
L 713.127354 453.152987 
L 723.637257 443.533994 
L 734.14716 433.661881 
L 744.657063 423.578828 
L 755.166966 413.262312 
L 765.676869 402.612452 
L 776.186772 391.449512 
L 786.696675 379.522893 
L 797.206578 366.531581 
L 807.716481 352.154619 
L 818.226383 336.088915 
L 828.736286 318.090605 
L 839.246189 298.015431 
L 849.756092 275.853226 
L 860.265995 251.751714 
L 870.775898 226.025668 
L 881.285801 199.148939 
L 891.795704 171.729033 
L 902.305607 144.466473 
L 912.81551 118.1037 
L 923.325413 93.370243 
L 933.835316 70.931797 
L 944.345218 51.350359 
L 954.855121 35.060616 
L 965.365024 22.364722 
L 975.874927 13.444063 
L 986.38483 8.383318 
L 996.894733 7.2 
L 1007.404636 9.871986 
L 1017.914539 16.356686 
L 1028.424442 26.597971 
L 1038.934345 40.520275 
L 1049.444248 58.012491 
L 1059.95415 78.906713 
L 1070.464053 102.957951 
L 1080.973956 129.830528 
L 1091.483859 159.095173 
L 1101.993762 190.238362 
L 1112.503665 222.682905 
L 1123.013568 255.816679 
L 1133.523471 289.025256 
L 1144.033374 321.723971 
L 1154.543277 353.385694 
L 1165.05318 383.561798 
L 1175.563083 411.895205 
L 1186.072985 438.125592 
L 1196.582888 462.087734 
L 1207.092791 483.704388 
L 1217.602694 502.975295 
L 1228.112597 519.963802 
L 1238.6225 534.782458 
L 1238.6225 605.952 
L 1238.6225 605.952 
L 1228.112597 605.952 
L 1217.602694 605.952 
L 1207.092791 605.952 
L 1196.582888 605.952 
L 1186.072985 605.952 
L 1175.563083 605.952 
L 1165.05318 605.952 
L 1154.543277 605.952 
L 1144.033374 605.952 
L 1133.523471 605.952 
L 1123.013568 605.952 
L 1112.503665 605.952 
L 1101.993762 605.952 
L 1091.483859 605.952 
L 1080.973956 605.952 
L 1070.464053 605.952 
L 1059.95415 605.952 
L 1049.444248 605.952 
L 1038.934345 605.952 
L 1028.424442 605.952 
L 1017.914539 605.952 
L 1007.404636 605.952 
L 996.894733 605.952 
L 986.38483 605.952 
L 975.874927 605.952 
L 965.365024 605.952 
L 954.855121 605.952 
L 944.345218 605.952 
L 933.835316 605.952 
L 923.325413 605.952 
L 912.81551 605.952 
L 902.305607 605.952 
L 891.795704 605.952 
L 881.285801 605.952 
L 870.775898 605.952 
L 860.265995 605.952 
L 849.756092 605.952 
L 839.246189 605.952 
L 828.736286 605.952 
L 818.226383 605.952 
L 807.716481 605.952 
L 797.206578 605.952 
L 786.696675 605.952 
L 776.186772 605.952 
L 765.676869 605.952 
L 755.166966 605.952 
L 744.657063 605.952 
L 734.14716 605.952 
L 723.637257 605.952 
L 713.127354 605.952 
L 702.617451 605.952 
L 692.107549 605.952 
L 681.597646 605.952 
L 671.087743 605.952 
L 660.57784 605.952 
L 650.067937 605.952 
L 639.558034 605.952 
L 629.048131 605.952 
L 618.538228 605.952 
L 608.028325 605.952 
L 597.518422 605.952 
L 587.008519 605.952 
L 576.498617 605.952 
L 565.988714 605.952 
L 555.478811 605.952 
L 544.968908 605.952 
L 534.459005 605.952 
L 523.949102 605.952 
L 513.439199 605.952 
L 502.929296 605.952 
L 492.419393 605.952 
L 481.90949 605.952 
L 471.399587 605.952 
L 460.889684 605.952 
L 450.379782 605.952 
L 439.869879 605.952 
L 429.359976 605.952 
L 418.850073 605.952 
L 408.34017 605.952 
L 397.830267 605.952 
L 387.320364 605.952 
L 376.810461 605.952 
L 366.300558 605.952 
z
" clip-path="url(#p3cad867a39)" style="fill: #ff7f0e; fill-opacity: 0.4"/>
   </g>
   <g id="PolyCollection_3">
    <path d="M 156.1025 605.952 
L 156.1025 591.126075 
L 166.612403 591.028138 
L 177.122306 591.245636 
L 187.632209 591.764836 
L 198.142112 592.553521 
L 208.652015 593.564258 
L 219.161917 594.739031 
L 229.67182 596.014606 
L 240.181723 597.327885 
L 250.691626 598.620595 
L 261.201529 599.842774 
L 271.711432 600.954745 
L 282.221335 601.927491 
L 292.731238 602.741556 
L 303.241141 603.38476 
L 313.751044 603.849102 
L 324.260947 604.127299 
L 334.77085 604.209349 
L 345.280752 604.079521 
L 355.790655 603.714087 
L 366.300558 603.080076 
L 376.810461 602.135261 
L 387.320364 600.829516 
L 397.830267 599.10759 
L 408.34017 596.913236 
L 418.850073 594.194426 
L 429.359976 590.909282 
L 439.869879 587.032101 
L 450.379782 582.55876 
L 460.889684 577.510699 
L 471.399587 571.936717 
L 481.90949 565.911985 
L 492.419393 559.533939 
L 502.929296 552.915141 
L 513.439199 546.173581 
L 523.949102 539.421332 
L 534.459005 532.752792 
L 544.968908 526.233891 
L 555.478811 519.893655 
L 565.988714 513.719229 
L 576.498617 507.655106 
L 587.008519 501.606734 
L 597.518422 495.448125 
L 608.028325 489.032607 
L 618.538228 482.205473 
L 629.048131 474.817154 
L 639.558034 466.735592 
L 650.067937 457.856699 
L 660.57784 448.112174 
L 671.087743 437.474281 
L 681.597646 425.957553 
L 692.107549 413.617588 
L 702.617451 400.547263 
L 713.127354 386.870691 
L 723.637257 372.73531 
L 734.14716 358.30253 
L 744.657063 343.737451 
L 755.166966 329.19837 
L 765.676869 314.826909 
L 776.186772 300.739718 
L 786.696675 287.022627 
L 797.206578 273.727873 
L 807.716481 260.87462 
L 818.226383 248.452469 
L 828.736286 236.427201 
L 839.246189 224.747719 
L 849.756092 213.35312 
L 860.265995 202.179185 
L 870.775898 191.164054 
L 881.285801 180.253535 
L 891.795704 169.406923 
L 902.305607 158.604419 
L 912.81551 147.856916 
L 923.325413 137.218229 
L 933.835316 126.798816 
L 944.345218 116.778988 
L 954.855121 107.418769 
L 965.365024 99.06132 
L 975.874927 92.12716 
L 986.38483 87.097527 
L 996.894733 84.486766 
L 1007.404636 84.805463 
L 1017.914539 88.517711 
L 1028.424442 95.997196 
L 1038.934345 107.487265 
L 1049.444248 123.069963 
L 1059.95415 142.647934 
L 1070.464053 165.94154 
L 1080.973956 192.501585 
L 1091.483859 221.736143 
L 1101.993762 252.948365 
L 1112.503665 285.381029 
L 1123.013568 318.263137 
L 1133.523471 350.85406 
L 1144.033374 382.481437 
L 1154.543277 412.570224 
L 1165.05318 440.66149 
L 1165.05318 605.952 
L 1165.05318 605.952 
L 1154.543277 605.952 
L 1144.033374 605.952 
L 1133.523471 605.952 
L 1123.013568 605.952 
L 1112.503665 605.952 
L 1101.993762 605.952 
L 1091.483859 605.952 
L 1080.973956 605.952 
L 1070.464053 605.952 
L 1059.95415 605.952 
L 1049.444248 605.952 
L 1038.934345 605.952 
L 1028.424442 605.952 
L 1017.914539 605.952 
L 1007.404636 605.952 
L 996.894733 605.952 
L 986.38483 605.952 
L 975.874927 605.952 
L 965.365024 605.952 
L 954.855121 605.952 
L 944.345218 605.952 
L 933.835316 605.952 
L 923.325413 605.952 
L 912.81551 605.952 
L 902.305607 605.952 
L 891.795704 605.952 
L 881.285801 605.952 
L 870.775898 605.952 
L 860.265995 605.952 
L 849.756092 605.952 
L 839.246189 605.952 
L 828.736286 605.952 
L 818.226383 605.952 
L 807.716481 605.952 
L 797.206578 605.952 
L 786.696675 605.952 
L 776.186772 605.952 
L 765.676869 605.952 
L 755.166966 605.952 
L 744.657063 605.952 
L 734.14716 605.952 
L 723.637257 605.952 
L 713.127354 605.952 
L 702.617451 605.952 
L 692.107549 605.952 
L 681.597646 605.952 
L 671.087743 605.952 
L 660.57784 605.952 
L 650.067937 605.952 
L 639.558034 605.952 
L 629.048131 605.952 
L 618.538228 605.952 
L 608.028325 605.952 
L 597.518422 605.952 
L 587.008519 605.952 
L 576.498617 605.952 
L 565.988714 605.952 
L 555.478811 605.952 
L 544.968908 605.952 
L 534.459005 605.952 
L 523.949102 605.952 
L 513.439199 605.952 
L 502.929296 605.952 
L 492.419393 605.952 
L 481.90949 605.952 
L 471.399587 605.952 
L 460.889684 605.952 
L 450.379782 605.952 
L 439.869879 605.952 
L 429.359976 605.952 
L 418.850073 605.952 
L 408.34017 605.952 
L 397.830267 605.952 
L 387.320364 605.952 
L 376.810461 605.952 
L 366.300558 605.952 
L 355.790655 605.952 
L 345.280752 605.952 
L 334.77085 605.952 
L 324.260947 605.952 
L 313.751044 605.952 
L 303.241141 605.952 
L 292.731238 605.952 
L 282.221335 605.952 
L 271.711432 605.952 
L 261.201529 605.952 
L 250.691626 605.952 
L 240.181723 605.952 
L 229.67182 605.952 
L 219.161917 605.952 
L 208.652015 605.952 
L 198.142112 605.952 
L 187.632209 605.952 
L 177.122306 605.952 
L 166.612403 605.952 
L 156.1025 605.952 
z
" clip-path="url(#p3cad867a39)" style="fill: #2ca02c; fill-opacity: 0.4"/>
   </g>
   <g id="matplotlib.axis_1">
    <g id="xtick_1">
     <g id="line2d_1">
      <defs>
       <path id="mbdd935c081" d="M 0 0 
L 0 3.5 
" style="stroke: #000000; stroke-width: 0.8"/>
      </defs>
      <g>
       <use xlink:href="#mbdd935c081" x="303.241141" y="605.952" style="stroke: #000000; stroke-width: 0.8"/>
      </g>
     </g>
     <g id="text_1">
      <!-- −100 -->
      <g transform="translate(253.800203 640.306375) scale(0.36 -0.36)">
       <defs>
        <path id="DejaVuSans-2212" d="M 678 2272 
L 4684 2272 
L 4684 1741 
L 678 1741 
L 678 2272 
z
" transform="scale(0.015625)"/>
        <path id="DejaVuSans-31" d="M 794 531 
L 1825 531 
L 1825 4091 
L 703 3866 
L 703 4441 
L 1819 4666 
L 2450 4666 
L 2450 531 
L 3481 531 
L 3481 0 
L 794 0 
L 794 531 
z
" transform="scale(0.015625)"/>
        <path id="DejaVuSans-30" d="M 2034 4250 
Q 1547 4250 1301 3770 
Q 1056 3291 1056 2328 
Q 1056 1369 1301 889 
Q 1547 409 2034 409 
Q 2525 409 2770 889 
Q 3016 1369 3016 2328 
Q 3016 3291 2770 3770 
Q 2525 4250 2034 4250 
z
M 2034 4750 
Q 2819 4750 3233 4129 
Q 3647 3509 3647 2328 
Q 3647 1150 3233 529 
Q 2819 -91 2034 -91 
Q 1250 -91 836 529 
Q 422 1150 422 2328 
Q 422 3509 836 4129 
Q 1250 4750 2034 4750 
z
" transform="scale(0.015625)"/>
       </defs>
       <use xlink:href="#DejaVuSans-2212"/>
       <use xlink:href="#DejaVuSans-31" x="83.789062"/>
       <use xlink:href="#DejaVuSans-30" x="147.412109"/>
       <use xlink:href="#DejaVuSans-30" x="211.035156"/>
      </g>
     </g>
    </g>
    <g id="xtick_2">
     <g id="line2d_2">
      <g>
       <use xlink:href="#mbdd935c081" x="513.439199" y="605.952" style="stroke: #000000; stroke-width: 0.8"/>
      </g>
     </g>
     <g id="text_2">
      <!-- −80 -->
      <g transform="translate(475.450762 640.306375) scale(0.36 -0.36)">
       <defs>
        <path id="DejaVuSans-38" d="M 2034 2216 
Q 1584 2216 1326 1975 
Q 1069 1734 1069 1313 
Q 1069 891 1326 650 
Q 1584 409 2034 409 
Q 2484 409 2743 651 
Q 3003 894 3003 1313 
Q 3003 1734 2745 1975 
Q 2488 2216 2034 2216 
z
M 1403 2484 
Q 997 2584 770 2862 
Q 544 3141 544 3541 
Q 544 4100 942 4425 
Q 1341 4750 2034 4750 
Q 2731 4750 3128 4425 
Q 3525 4100 3525 3541 
Q 3525 3141 3298 2862 
Q 3072 2584 2669 2484 
Q 3125 2378 3379 2068 
Q 3634 1759 3634 1313 
Q 3634 634 3220 271 
Q 2806 -91 2034 -91 
Q 1263 -91 848 271 
Q 434 634 434 1313 
Q 434 1759 690 2068 
Q 947 2378 1403 2484 
z
M 1172 3481 
Q 1172 3119 1398 2916 
Q 1625 2713 2034 2713 
Q 2441 2713 2670 2916 
Q 2900 3119 2900 3481 
Q 2900 3844 2670 4047 
Q 2441 4250 2034 4250 
Q 1625 4250 1398 4047 
Q 1172 3844 1172 3481 
z
" transform="scale(0.015625)"/>
       </defs>
       <use xlink:href="#DejaVuSans-2212"/>
       <use xlink:href="#DejaVuSans-38" x="83.789062"/>
       <use xlink:href="#DejaVuSans-30" x="147.412109"/>
      </g>
     </g>
    </g>
    <g id="xtick_3">
     <g id="line2d_3">
      <g>
       <use xlink:href="#mbdd935c081" x="723.637257" y="605.952" style="stroke: #000000; stroke-width: 0.8"/>
      </g>
     </g>
     <g id="text_3">
      <!-- −60 -->
      <g transform="translate(685.64882 640.306375) scale(0.36 -0.36)">
       <defs>
        <path id="DejaVuSans-36" d="M 2113 2584 
Q 1688 2584 1439 2293 
Q 1191 2003 1191 1497 
Q 1191 994 1439 701 
Q 1688 409 2113 409 
Q 2538 409 2786 701 
Q 3034 994 3034 1497 
Q 3034 2003 2786 2293 
Q 2538 2584 2113 2584 
z
M 3366 4563 
L 3366 3988 
Q 3128 4100 2886 4159 
Q 2644 4219 2406 4219 
Q 1781 4219 1451 3797 
Q 1122 3375 1075 2522 
Q 1259 2794 1537 2939 
Q 1816 3084 2150 3084 
Q 2853 3084 3261 2657 
Q 3669 2231 3669 1497 
Q 3669 778 3244 343 
Q 2819 -91 2113 -91 
Q 1303 -91 875 529 
Q 447 1150 447 2328 
Q 447 3434 972 4092 
Q 1497 4750 2381 4750 
Q 2619 4750 2861 4703 
Q 3103 4656 3366 4563 
z
" transform="scale(0.015625)"/>
       </defs>
       <use xlink:href="#DejaVuSans-2212"/>
       <use xlink:href="#DejaVuSans-36" x="83.789062"/>
       <use xlink:href="#DejaVuSans-30" x="147.412109"/>
      </g>
     </g>
    </g>
    <g id="xtick_4">
     <g id="line2d_4">
      <g>
       <use xlink:href="#mbdd935c081" x="933.835316" y="605.952" style="stroke: #000000; stroke-width: 0.8"/>
      </g>
     </g>
     <g id="text_4">
      <!-- −40 -->
      <g transform="translate(895.846878 640.306375) scale(0.36 -0.36)">
       <defs>
        <path id="DejaVuSans-34" d="M 2419 4116 
L 825 1625 
L 2419 1625 
L 2419 4116 
z
M 2253 4666 
L 3047 4666 
L 3047 1625 
L 3713 1625 
L 3713 1100 
L 3047 1100 
L 3047 0 
L 2419 0 
L 2419 1100 
L 313 1100 
L 313 1709 
L 2253 4666 
z
" transform="scale(0.015625)"/>
       </defs>
       <use xlink:href="#DejaVuSans-2212"/>
       <use xlink:href="#DejaVuSans-34" x="83.789062"/>
       <use xlink:href="#DejaVuSans-30" x="147.412109"/>
      </g>
     </g>
    </g>
    <g id="xtick_5">
     <g id="line2d_5">
      <g>
       <use xlink:href="#mbdd935c081" x="1144.033374" y="605.952" style="stroke: #000000; stroke-width: 0.8"/>
      </g>
     </g>
     <g id="text_5">
      <!-- −20 -->
      <g transform="translate(1106.044936 640.306375) scale(0.36 -0.36)">
       <defs>
        <path id="DejaVuSans-32" d="M 1228 531 
L 3431 531 
L 3431 0 
L 469 0 
L 469 531 
Q 828 903 1448 1529 
Q 2069 2156 2228 2338 
Q 2531 2678 2651 2914 
Q 2772 3150 2772 3378 
Q 2772 3750 2511 3984 
Q 2250 4219 1831 4219 
Q 1534 4219 1204 4116 
Q 875 4013 500 3803 
L 500 4441 
Q 881 4594 1212 4672 
Q 1544 4750 1819 4750 
Q 2544 4750 2975 4387 
Q 3406 4025 3406 3419 
Q 3406 3131 3298 2873 
Q 3191 2616 2906 2266 
Q 2828 2175 2409 1742 
Q 1991 1309 1228 531 
z
" transform="scale(0.015625)"/>
       </defs>
       <use xlink:href="#DejaVuSans-2212"/>
       <use xlink:href="#DejaVuSans-32" x="83.789062"/>
       <use xlink:href="#DejaVuSans-30" x="147.412109"/>
      </g>
     </g>
    </g>
    <g id="text_6">
     <!-- $UID_{wordwise}$ -->
     <g transform="translate(605.2025 679.147625) scale(0.36 -0.36)">
      <defs>
       <path id="DejaVuSans-Oblique-55" d="M 991 4666 
L 1625 4666 
L 1075 1831 
Q 1041 1641 1027 1517 
Q 1013 1394 1013 1300 
Q 1013 869 1253 645 
Q 1494 422 1959 422 
Q 2563 422 2898 753 
Q 3234 1084 3378 1831 
L 3928 4666 
L 4563 4666 
L 4000 1753 
Q 3816 809 3300 359 
Q 2784 -91 1888 -91 
Q 1188 -91 780 261 
Q 372 613 372 1216 
Q 372 1325 387 1461 
Q 403 1597 434 1753 
L 991 4666 
z
" transform="scale(0.015625)"/>
       <path id="DejaVuSans-Oblique-49" d="M 1081 4666 
L 1716 4666 
L 806 0 
L 172 0 
L 1081 4666 
z
" transform="scale(0.015625)"/>
       <path id="DejaVuSans-Oblique-44" d="M 1081 4666 
L 2438 4666 
Q 3519 4666 4070 4208 
Q 4622 3750 4622 2847 
Q 4622 2250 4412 1698 
Q 4203 1147 3834 769 
Q 3463 381 2891 190 
Q 2319 0 1538 0 
L 172 0 
L 1081 4666 
z
M 1613 4147 
L 909 519 
L 1734 519 
Q 2794 519 3375 1128 
Q 3956 1738 3956 2847 
Q 3956 3519 3581 3833 
Q 3206 4147 2406 4147 
L 1613 4147 
z
" transform="scale(0.015625)"/>
       <path id="DejaVuSans-Oblique-77" d="M 544 3500 
L 1113 3500 
L 1259 684 
L 2566 3500 
L 3231 3500 
L 3425 684 
L 4666 3500 
L 5241 3500 
L 3641 0 
L 2969 0 
L 2797 2900 
L 1459 0 
L 781 0 
L 544 3500 
z
" transform="scale(0.015625)"/>
       <path id="DejaVuSans-Oblique-6f" d="M 1625 -91 
Q 1009 -91 651 289 
Q 294 669 294 1325 
Q 294 1706 417 2101 
Q 541 2497 738 2766 
Q 1047 3184 1428 3384 
Q 1809 3584 2291 3584 
Q 2888 3584 3255 3212 
Q 3622 2841 3622 2241 
Q 3622 1825 3500 1412 
Q 3378 1000 3181 728 
Q 2875 309 2494 109 
Q 2113 -91 1625 -91 
z
M 891 1344 
Q 891 869 1089 633 
Q 1288 397 1691 397 
Q 2269 397 2648 901 
Q 3028 1406 3028 2181 
Q 3028 2634 2825 2865 
Q 2622 3097 2228 3097 
Q 1903 3097 1650 2945 
Q 1397 2794 1197 2484 
Q 1050 2253 970 1956 
Q 891 1659 891 1344 
z
" transform="scale(0.015625)"/>
       <path id="DejaVuSans-Oblique-72" d="M 2853 2969 
Q 2766 3016 2653 3041 
Q 2541 3066 2413 3066 
Q 1953 3066 1609 2717 
Q 1266 2369 1153 1784 
L 800 0 
L 225 0 
L 909 3500 
L 1484 3500 
L 1375 2956 
Q 1603 3259 1920 3421 
Q 2238 3584 2597 3584 
Q 2691 3584 2781 3573 
Q 2872 3563 2963 3538 
L 2853 2969 
z
" transform="scale(0.015625)"/>
       <path id="DejaVuSans-Oblique-64" d="M 2675 525 
Q 2444 222 2128 65 
Q 1813 -91 1428 -91 
Q 903 -91 598 267 
Q 294 625 294 1247 
Q 294 1766 478 2236 
Q 663 2706 1013 3078 
Q 1244 3325 1534 3454 
Q 1825 3584 2144 3584 
Q 2481 3584 2739 3421 
Q 2997 3259 3138 2956 
L 3513 4863 
L 4091 4863 
L 3144 0 
L 2566 0 
L 2675 525 
z
M 891 1350 
Q 891 897 1095 644 
Q 1300 391 1663 391 
Q 1931 391 2161 520 
Q 2391 650 2566 903 
Q 2750 1166 2856 1509 
Q 2963 1853 2963 2188 
Q 2963 2622 2758 2865 
Q 2553 3109 2194 3109 
Q 1922 3109 1687 2981 
Q 1453 2853 1288 2613 
Q 1106 2353 998 2009 
Q 891 1666 891 1350 
z
" transform="scale(0.015625)"/>
       <path id="DejaVuSans-Oblique-69" d="M 1172 4863 
L 1747 4863 
L 1606 4134 
L 1031 4134 
L 1172 4863 
z
M 909 3500 
L 1484 3500 
L 800 0 
L 225 0 
L 909 3500 
z
" transform="scale(0.015625)"/>
       <path id="DejaVuSans-Oblique-73" d="M 3200 3397 
L 3091 2853 
Q 2863 2978 2609 3040 
Q 2356 3103 2088 3103 
Q 1634 3103 1373 2948 
Q 1113 2794 1113 2528 
Q 1113 2219 1719 2053 
Q 1766 2041 1788 2034 
L 1972 1978 
Q 2547 1819 2739 1644 
Q 2931 1469 2931 1166 
Q 2931 609 2489 259 
Q 2047 -91 1331 -91 
Q 1053 -91 747 -37 
Q 441 16 72 128 
L 184 722 
Q 500 559 806 475 
Q 1113 391 1394 391 
Q 1816 391 2080 572 
Q 2344 753 2344 1031 
Q 2344 1331 1650 1516 
L 1591 1531 
L 1394 1581 
Q 956 1697 753 1886 
Q 550 2075 550 2369 
Q 550 2928 970 3256 
Q 1391 3584 2113 3584 
Q 2397 3584 2667 3537 
Q 2938 3491 3200 3397 
z
" transform="scale(0.015625)"/>
       <path id="DejaVuSans-Oblique-65" d="M 3078 2063 
Q 3088 2113 3092 2166 
Q 3097 2219 3097 2272 
Q 3097 2653 2873 2875 
Q 2650 3097 2266 3097 
Q 1838 3097 1509 2826 
Q 1181 2556 1013 2059 
L 3078 2063 
z
M 3578 1613 
L 903 1613 
Q 884 1494 878 1425 
Q 872 1356 872 1306 
Q 872 872 1139 634 
Q 1406 397 1894 397 
Q 2269 397 2603 481 
Q 2938 566 3225 728 
L 3116 159 
Q 2806 34 2476 -28 
Q 2147 -91 1806 -91 
Q 1078 -91 686 257 
Q 294 606 294 1247 
Q 294 1794 489 2264 
Q 684 2734 1063 3103 
Q 1306 3334 1642 3459 
Q 1978 3584 2356 3584 
Q 2950 3584 3301 3228 
Q 3653 2872 3653 2272 
Q 3653 2128 3634 1964 
Q 3616 1800 3578 1613 
z
" transform="scale(0.015625)"/>
      </defs>
      <use xlink:href="#DejaVuSans-Oblique-55" transform="translate(0 0.09375)"/>
      <use xlink:href="#DejaVuSans-Oblique-49" transform="translate(73.193359 0.09375)"/>
      <use xlink:href="#DejaVuSans-Oblique-44" transform="translate(102.685547 0.09375)"/>
      <use xlink:href="#DejaVuSans-Oblique-77" transform="translate(179.6875 -16.3125) scale(0.7)"/>
      <use xlink:href="#DejaVuSans-Oblique-6f" transform="translate(236.938477 -16.3125) scale(0.7)"/>
      <use xlink:href="#DejaVuSans-Oblique-72" transform="translate(279.765625 -16.3125) scale(0.7)"/>
      <use xlink:href="#DejaVuSans-Oblique-64" transform="translate(308.544922 -16.3125) scale(0.7)"/>
      <use xlink:href="#DejaVuSans-Oblique-77" transform="translate(352.978516 -16.3125) scale(0.7)"/>
      <use xlink:href="#DejaVuSans-Oblique-69" transform="translate(410.229492 -16.3125) scale(0.7)"/>
      <use xlink:href="#DejaVuSans-Oblique-73" transform="translate(429.677734 -16.3125) scale(0.7)"/>
      <use xlink:href="#DejaVuSans-Oblique-65" transform="translate(466.147461 -16.3125) scale(0.7)"/>
     </g>
    </g>
   </g>
   <g id="matplotlib.axis_2">
    <g id="ytick_1">
     <g id="line2d_6">
      <defs>
       <path id="m4c34e6271e" d="M 0 0 
L -3.5 0 
" style="stroke: #000000; stroke-width: 0.8"/>
      </defs>
      <g>
       <use xlink:href="#m4c34e6271e" x="156.1025" y="605.952" style="stroke: #000000; stroke-width: 0.8"/>
      </g>
     </g>
     <g id="text_7">
      <!-- 0.000 -->
      <g transform="translate(46.04125 619.629187) scale(0.36 -0.36)">
       <defs>
        <path id="DejaVuSans-2e" d="M 684 794 
L 1344 794 
L 1344 0 
L 684 0 
L 684 794 
z
" transform="scale(0.015625)"/>
       </defs>
       <use xlink:href="#DejaVuSans-30"/>
       <use xlink:href="#DejaVuSans-2e" x="63.623047"/>
       <use xlink:href="#DejaVuSans-30" x="95.410156"/>
       <use xlink:href="#DejaVuSans-30" x="159.033203"/>
       <use xlink:href="#DejaVuSans-30" x="222.65625"/>
      </g>
     </g>
    </g>
    <g id="ytick_2">
     <g id="line2d_7">
      <g>
       <use xlink:href="#m4c34e6271e" x="156.1025" y="503.309649" style="stroke: #000000; stroke-width: 0.8"/>
      </g>
     </g>
     <g id="text_8">
      <!-- 0.005 -->
      <g transform="translate(46.04125 516.986837) scale(0.36 -0.36)">
       <defs>
        <path id="DejaVuSans-35" d="M 691 4666 
L 3169 4666 
L 3169 4134 
L 1269 4134 
L 1269 2991 
Q 1406 3038 1543 3061 
Q 1681 3084 1819 3084 
Q 2600 3084 3056 2656 
Q 3513 2228 3513 1497 
Q 3513 744 3044 326 
Q 2575 -91 1722 -91 
Q 1428 -91 1123 -41 
Q 819 9 494 109 
L 494 744 
Q 775 591 1075 516 
Q 1375 441 1709 441 
Q 2250 441 2565 725 
Q 2881 1009 2881 1497 
Q 2881 1984 2565 2268 
Q 2250 2553 1709 2553 
Q 1456 2553 1204 2497 
Q 953 2441 691 2322 
L 691 4666 
z
" transform="scale(0.015625)"/>
       </defs>
       <use xlink:href="#DejaVuSans-30"/>
       <use xlink:href="#DejaVuSans-2e" x="63.623047"/>
       <use xlink:href="#DejaVuSans-30" x="95.410156"/>
       <use xlink:href="#DejaVuSans-30" x="159.033203"/>
       <use xlink:href="#DejaVuSans-35" x="222.65625"/>
      </g>
     </g>
    </g>
    <g id="ytick_3">
     <g id="line2d_8">
      <g>
       <use xlink:href="#m4c34e6271e" x="156.1025" y="400.667298" style="stroke: #000000; stroke-width: 0.8"/>
      </g>
     </g>
     <g id="text_9">
      <!-- 0.010 -->
      <g transform="translate(46.04125 414.344486) scale(0.36 -0.36)">
       <use xlink:href="#DejaVuSans-30"/>
       <use xlink:href="#DejaVuSans-2e" x="63.623047"/>
       <use xlink:href="#DejaVuSans-30" x="95.410156"/>
       <use xlink:href="#DejaVuSans-31" x="159.033203"/>
       <use xlink:href="#DejaVuSans-30" x="222.65625"/>
      </g>
     </g>
    </g>
    <g id="ytick_4">
     <g id="line2d_9">
      <g>
       <use xlink:href="#m4c34e6271e" x="156.1025" y="298.024947" style="stroke: #000000; stroke-width: 0.8"/>
      </g>
     </g>
     <g id="text_10">
      <!-- 0.015 -->
      <g transform="translate(46.04125 311.702135) scale(0.36 -0.36)">
       <use xlink:href="#DejaVuSans-30"/>
       <use xlink:href="#DejaVuSans-2e" x="63.623047"/>
       <use xlink:href="#DejaVuSans-30" x="95.410156"/>
       <use xlink:href="#DejaVuSans-31" x="159.033203"/>
       <use xlink:href="#DejaVuSans-35" x="222.65625"/>
      </g>
     </g>
    </g>
    <g id="ytick_5">
     <g id="line2d_10">
      <g>
       <use xlink:href="#m4c34e6271e" x="156.1025" y="195.382596" style="stroke: #000000; stroke-width: 0.8"/>
      </g>
     </g>
     <g id="text_11">
      <!-- 0.020 -->
      <g transform="translate(46.04125 209.059784) scale(0.36 -0.36)">
       <use xlink:href="#DejaVuSans-30"/>
       <use xlink:href="#DejaVuSans-2e" x="63.623047"/>
       <use xlink:href="#DejaVuSans-30" x="95.410156"/>
       <use xlink:href="#DejaVuSans-32" x="159.033203"/>
       <use xlink:href="#DejaVuSans-30" x="222.65625"/>
      </g>
     </g>
    </g>
    <g id="ytick_6">
     <g id="line2d_11">
      <g>
       <use xlink:href="#m4c34e6271e" x="156.1025" y="92.740245" style="stroke: #000000; stroke-width: 0.8"/>
      </g>
     </g>
     <g id="text_12">
      <!-- 0.025 -->
      <g transform="translate(46.04125 106.417433) scale(0.36 -0.36)">
       <use xlink:href="#DejaVuSans-30"/>
       <use xlink:href="#DejaVuSans-2e" x="63.623047"/>
       <use xlink:href="#DejaVuSans-30" x="95.410156"/>
       <use xlink:href="#DejaVuSans-32" x="159.033203"/>
       <use xlink:href="#DejaVuSans-35" x="222.65625"/>
      </g>
     </g>
    </g>
    <g id="text_13">
     <!-- density -->
     <g transform="translate(34.554375 372.574125) rotate(-90) scale(0.36 -0.36)">
      <defs>
       <path id="DejaVuSans-64" d="M 2906 2969 
L 2906 4863 
L 3481 4863 
L 3481 0 
L 2906 0 
L 2906 525 
Q 2725 213 2448 61 
Q 2172 -91 1784 -91 
Q 1150 -91 751 415 
Q 353 922 353 1747 
Q 353 2572 751 3078 
Q 1150 3584 1784 3584 
Q 2172 3584 2448 3432 
Q 2725 3281 2906 2969 
z
M 947 1747 
Q 947 1113 1208 752 
Q 1469 391 1925 391 
Q 2381 391 2643 752 
Q 2906 1113 2906 1747 
Q 2906 2381 2643 2742 
Q 2381 3103 1925 3103 
Q 1469 3103 1208 2742 
Q 947 2381 947 1747 
z
" transform="scale(0.015625)"/>
       <path id="DejaVuSans-65" d="M 3597 1894 
L 3597 1613 
L 953 1613 
Q 991 1019 1311 708 
Q 1631 397 2203 397 
Q 2534 397 2845 478 
Q 3156 559 3463 722 
L 3463 178 
Q 3153 47 2828 -22 
Q 2503 -91 2169 -91 
Q 1331 -91 842 396 
Q 353 884 353 1716 
Q 353 2575 817 3079 
Q 1281 3584 2069 3584 
Q 2775 3584 3186 3129 
Q 3597 2675 3597 1894 
z
M 3022 2063 
Q 3016 2534 2758 2815 
Q 2500 3097 2075 3097 
Q 1594 3097 1305 2825 
Q 1016 2553 972 2059 
L 3022 2063 
z
" transform="scale(0.015625)"/>
       <path id="DejaVuSans-6e" d="M 3513 2113 
L 3513 0 
L 2938 0 
L 2938 2094 
Q 2938 2591 2744 2837 
Q 2550 3084 2163 3084 
Q 1697 3084 1428 2787 
Q 1159 2491 1159 1978 
L 1159 0 
L 581 0 
L 581 3500 
L 1159 3500 
L 1159 2956 
Q 1366 3272 1645 3428 
Q 1925 3584 2291 3584 
Q 2894 3584 3203 3211 
Q 3513 2838 3513 2113 
z
" transform="scale(0.015625)"/>
       <path id="DejaVuSans-73" d="M 2834 3397 
L 2834 2853 
Q 2591 2978 2328 3040 
Q 2066 3103 1784 3103 
Q 1356 3103 1142 2972 
Q 928 2841 928 2578 
Q 928 2378 1081 2264 
Q 1234 2150 1697 2047 
L 1894 2003 
Q 2506 1872 2764 1633 
Q 3022 1394 3022 966 
Q 3022 478 2636 193 
Q 2250 -91 1575 -91 
Q 1294 -91 989 -36 
Q 684 19 347 128 
L 347 722 
Q 666 556 975 473 
Q 1284 391 1588 391 
Q 1994 391 2212 530 
Q 2431 669 2431 922 
Q 2431 1156 2273 1281 
Q 2116 1406 1581 1522 
L 1381 1569 
Q 847 1681 609 1914 
Q 372 2147 372 2553 
Q 372 3047 722 3315 
Q 1072 3584 1716 3584 
Q 2034 3584 2315 3537 
Q 2597 3491 2834 3397 
z
" transform="scale(0.015625)"/>
       <path id="DejaVuSans-69" d="M 603 3500 
L 1178 3500 
L 1178 0 
L 603 0 
L 603 3500 
z
M 603 4863 
L 1178 4863 
L 1178 4134 
L 603 4134 
L 603 4863 
z
" transform="scale(0.015625)"/>
       <path id="DejaVuSans-74" d="M 1172 4494 
L 1172 3500 
L 2356 3500 
L 2356 3053 
L 1172 3053 
L 1172 1153 
Q 1172 725 1289 603 
Q 1406 481 1766 481 
L 2356 481 
L 2356 0 
L 1766 0 
Q 1100 0 847 248 
Q 594 497 594 1153 
L 594 3053 
L 172 3053 
L 172 3500 
L 594 3500 
L 594 4494 
L 1172 4494 
z
" transform="scale(0.015625)"/>
       <path id="DejaVuSans-79" d="M 2059 -325 
Q 1816 -950 1584 -1140 
Q 1353 -1331 966 -1331 
L 506 -1331 
L 506 -850 
L 844 -850 
Q 1081 -850 1212 -737 
Q 1344 -625 1503 -206 
L 1606 56 
L 191 3500 
L 800 3500 
L 1894 763 
L 2988 3500 
L 3597 3500 
L 2059 -325 
z
" transform="scale(0.015625)"/>
      </defs>
      <use xlink:href="#DejaVuSans-64"/>
      <use xlink:href="#DejaVuSans-65" x="63.476562"/>
      <use xlink:href="#DejaVuSans-6e" x="125"/>
      <use xlink:href="#DejaVuSans-73" x="188.378906"/>
      <use xlink:href="#DejaVuSans-69" x="240.478516"/>
      <use xlink:href="#DejaVuSans-74" x="268.261719"/>
      <use xlink:href="#DejaVuSans-79" x="307.470703"/>
     </g>
    </g>
   </g>
   <g id="line2d_12">
    <path d="M 334.77085 589.429745 
L 345.280752 589.417998 
L 355.790655 589.761175 
L 366.300558 590.396937 
L 376.810461 591.228577 
L 387.320364 592.131448 
L 397.830267 592.961672 
L 408.34017 593.565979 
L 418.850073 593.791669 
L 429.359976 593.495938 
L 439.869879 592.554239 
L 450.379782 590.867612 
L 460.889684 588.369152 
L 471.399587 585.029715 
L 481.90949 580.862772 
L 492.419393 575.92794 
L 502.929296 570.332389 
L 513.439199 564.229032 
L 523.949102 557.810379 
L 534.459005 551.297186 
L 544.968908 544.921607 
L 555.478811 538.90541 
L 565.988714 533.434873 
L 576.498617 528.634927 
L 587.008519 524.545972 
L 597.518422 521.10703 
L 608.028325 518.148675 
L 618.538228 515.398166 
L 629.048131 512.497654 
L 639.558034 509.03439 
L 650.067937 504.579888 
L 660.57784 498.733364 
L 671.087743 491.163815 
L 681.597646 481.645071 
L 692.107549 470.07905 
L 702.617451 456.504132 
L 713.127354 441.087774 
L 723.637257 424.10478 
L 734.14716 405.904613 
L 744.657063 386.872556 
L 755.166966 367.390095 
L 765.676869 347.799678 
L 776.186772 328.378056 
L 786.696675 309.320978 
L 797.206578 290.740247 
L 807.716481 272.672443 
L 818.226383 255.097014 
L 828.736286 237.960242 
L 839.246189 221.200899 
L 849.756092 204.773358 
L 860.265995 188.664521 
L 870.775898 172.902255 
L 881.285801 157.5548 
L 891.795704 142.722585 
L 902.305607 128.525628 
L 912.81551 115.090711 
L 923.325413 102.542531 
L 933.835316 91.001893 
L 944.345218 80.591935 
L 954.855121 71.450998 
L 965.365024 63.7485 
L 975.874927 57.69896 
L 986.38483 53.569254 
L 996.894733 51.675455 
L 1007.404636 52.367774 
L 1017.914539 56.004649 
L 1028.424442 62.919183 
L 1038.934345 73.382546 
L 1049.444248 87.569349 
L 1059.95415 105.529438 
L 1070.464053 127.169411 
L 1080.973956 152.245685 
L 1091.483859 180.369525 
L 1101.993762 211.023238 
L 1112.503665 243.585782 
L 1123.013568 277.365424 
L 1133.523471 311.636597 
L 1144.033374 345.677964 
L 1154.543277 378.808717 
L 1165.05318 410.420426 
" clip-path="url(#p3cad867a39)" style="fill: none; stroke: #1f77b4; stroke-width: 1.5; stroke-linecap: square"/>
   </g>
   <g id="line2d_13">
    <path d="M 366.300558 588.923989 
L 376.810461 588.587451 
L 387.320364 588.488965 
L 397.830267 588.547986 
L 408.34017 588.653328 
L 418.850073 588.672452 
L 429.359976 588.463427 
L 439.869879 587.888089 
L 450.379782 586.824797 
L 460.889684 585.179376 
L 471.399587 582.893156 
L 481.90949 579.947487 
L 492.419393 576.364487 
L 502.929296 572.204201 
L 513.439199 567.558539 
L 523.949102 562.54256 
L 534.459005 557.283728 
L 544.968908 551.909868 
L 555.478811 546.53666 
L 565.988714 541.255652 
L 576.498617 536.123936 
L 587.008519 531.156708 
L 597.518422 526.323894 
L 608.028325 521.551751 
L 618.538228 516.729844 
L 629.048131 511.723084 
L 639.558034 506.387697 
L 650.067937 500.589189 
L 660.57784 494.219799 
L 671.087743 487.212686 
L 681.597646 479.55032 
L 692.107549 471.265219 
L 702.617451 462.432248 
L 713.127354 453.152987 
L 723.637257 443.533994 
L 734.14716 433.661881 
L 744.657063 423.578828 
L 755.166966 413.262312 
L 765.676869 402.612452 
L 776.186772 391.449512 
L 786.696675 379.522893 
L 797.206578 366.531581 
L 807.716481 352.154619 
L 818.226383 336.088915 
L 828.736286 318.090605 
L 839.246189 298.015431 
L 849.756092 275.853226 
L 860.265995 251.751714 
L 870.775898 226.025668 
L 881.285801 199.148939 
L 891.795704 171.729033 
L 902.305607 144.466473 
L 912.81551 118.1037 
L 923.325413 93.370243 
L 933.835316 70.931797 
L 944.345218 51.350359 
L 954.855121 35.060616 
L 965.365024 22.364722 
L 975.874927 13.444063 
L 986.38483 8.383318 
L 996.894733 7.2 
L 1007.404636 9.871986 
L 1017.914539 16.356686 
L 1028.424442 26.597971 
L 1038.934345 40.520275 
L 1049.444248 58.012491 
L 1059.95415 78.906713 
L 1070.464053 102.957951 
L 1080.973956 129.830528 
L 1091.483859 159.095173 
L 1101.993762 190.238362 
L 1112.503665 222.682905 
L 1123.013568 255.816679 
L 1133.523471 289.025256 
L 1144.033374 321.723971 
L 1154.543277 353.385694 
L 1165.05318 383.561798 
L 1175.563083 411.895205 
L 1186.072985 438.125592 
L 1196.582888 462.087734 
L 1207.092791 483.704388 
L 1217.602694 502.975295 
L 1228.112597 519.963802 
L 1238.6225 534.782458 
" clip-path="url(#p3cad867a39)" style="fill: none; stroke: #ff7f0e; stroke-width: 1.5; stroke-linecap: square"/>
   </g>
   <g id="line2d_14">
    <path d="M 156.1025 591.126075 
L 166.612403 591.028138 
L 177.122306 591.245636 
L 187.632209 591.764836 
L 198.142112 592.553521 
L 208.652015 593.564258 
L 219.161917 594.739031 
L 229.67182 596.014606 
L 240.181723 597.327885 
L 250.691626 598.620595 
L 261.201529 599.842774 
L 271.711432 600.954745 
L 282.221335 601.927491 
L 292.731238 602.741556 
L 303.241141 603.38476 
L 313.751044 603.849102 
L 324.260947 604.127299 
L 334.77085 604.209349 
L 345.280752 604.079521 
L 355.790655 603.714087 
L 366.300558 603.080076 
L 376.810461 602.135261 
L 387.320364 600.829516 
L 397.830267 599.10759 
L 408.34017 596.913236 
L 418.850073 594.194426 
L 429.359976 590.909282 
L 439.869879 587.032101 
L 450.379782 582.55876 
L 460.889684 577.510699 
L 471.399587 571.936717 
L 481.90949 565.911985 
L 492.419393 559.533939 
L 502.929296 552.915141 
L 513.439199 546.173581 
L 523.949102 539.421332 
L 534.459005 532.752792 
L 544.968908 526.233891 
L 555.478811 519.893655 
L 565.988714 513.719229 
L 576.498617 507.655106 
L 587.008519 501.606734 
L 597.518422 495.448125 
L 608.028325 489.032607 
L 618.538228 482.205473 
L 629.048131 474.817154 
L 639.558034 466.735592 
L 650.067937 457.856699 
L 660.57784 448.112174 
L 671.087743 437.474281 
L 681.597646 425.957553 
L 692.107549 413.617588 
L 702.617451 400.547263 
L 713.127354 386.870691 
L 723.637257 372.73531 
L 734.14716 358.30253 
L 744.657063 343.737451 
L 755.166966 329.19837 
L 765.676869 314.826909 
L 776.186772 300.739718 
L 786.696675 287.022627 
L 797.206578 273.727873 
L 807.716481 260.87462 
L 818.226383 248.452469 
L 828.736286 236.427201 
L 839.246189 224.747719 
L 849.756092 213.35312 
L 860.265995 202.179185 
L 870.775898 191.164054 
L 881.285801 180.253535 
L 891.795704 169.406923 
L 902.305607 158.604419 
L 912.81551 147.856916 
L 923.325413 137.218229 
L 933.835316 126.798816 
L 944.345218 116.778988 
L 954.855121 107.418769 
L 965.365024 99.06132 
L 975.874927 92.12716 
L 986.38483 87.097527 
L 996.894733 84.486766 
L 1007.404636 84.805463 
L 1017.914539 88.517711 
L 1028.424442 95.997196 
L 1038.934345 107.487265 
L 1049.444248 123.069963 
L 1059.95415 142.647934 
L 1070.464053 165.94154 
L 1080.973956 192.501585 
L 1091.483859 221.736143 
L 1101.993762 252.948365 
L 1112.503665 285.381029 
L 1123.013568 318.263137 
L 1133.523471 350.85406 
L 1144.033374 382.481437 
L 1154.543277 412.570224 
L 1165.05318 440.66149 
" clip-path="url(#p3cad867a39)" style="fill: none; stroke: #2ca02c; stroke-width: 1.5; stroke-linecap: square"/>
   </g>
   <g id="patch_3">
    <path d="M 156.1025 605.952 
L 156.1025 7.2 
" style="fill: none; stroke: #000000; stroke-width: 0.8; stroke-linejoin: miter; stroke-linecap: square"/>
   </g>
   <g id="patch_4">
    <path d="M 1238.6225 605.952 
L 1238.6225 7.2 
" style="fill: none; stroke: #000000; stroke-width: 0.8; stroke-linejoin: miter; stroke-linecap: square"/>
   </g>
   <g id="patch_5">
    <path d="M 156.1025 605.952 
L 1238.6225 605.952 
" style="fill: none; stroke: #000000; stroke-width: 0.8; stroke-linejoin: miter; stroke-linecap: square"/>
   </g>
   <g id="patch_6">
    <path d="M 156.1025 7.2 
L 1238.6225 7.2 
" style="fill: none; stroke: #000000; stroke-width: 0.8; stroke-linejoin: miter; stroke-linecap: square"/>
   </g>
   <g id="legend_1">
    <g id="patch_7">
     <path d="M 181.3025 194.52375 
L 478.983125 194.52375 
Q 486.183125 194.52375 486.183125 187.32375 
L 486.183125 32.4 
Q 486.183125 25.2 478.983125 25.2 
L 181.3025 25.2 
Q 174.1025 25.2 174.1025 32.4 
L 174.1025 187.32375 
Q 174.1025 194.52375 181.3025 194.52375 
z
" style="fill: #ffffff; opacity: 0.8; stroke: #cccccc; stroke-linejoin: miter"/>
    </g>
    <g id="line2d_15">
     <path d="M 188.5025 54.354375 
L 224.5025 54.354375 
L 260.5025 54.354375 
" style="fill: none; stroke: #1f77b4; stroke-width: 8; stroke-linecap: square"/>
    </g>
    <g id="text_14">
     <!-- regular -->
     <g transform="translate(289.3025 66.954375) scale(0.36 -0.36)">
      <defs>
       <path id="DejaVuSans-72" d="M 2631 2963 
Q 2534 3019 2420 3045 
Q 2306 3072 2169 3072 
Q 1681 3072 1420 2755 
Q 1159 2438 1159 1844 
L 1159 0 
L 581 0 
L 581 3500 
L 1159 3500 
L 1159 2956 
Q 1341 3275 1631 3429 
Q 1922 3584 2338 3584 
Q 2397 3584 2469 3576 
Q 2541 3569 2628 3553 
L 2631 2963 
z
" transform="scale(0.015625)"/>
       <path id="DejaVuSans-67" d="M 2906 1791 
Q 2906 2416 2648 2759 
Q 2391 3103 1925 3103 
Q 1463 3103 1205 2759 
Q 947 2416 947 1791 
Q 947 1169 1205 825 
Q 1463 481 1925 481 
Q 2391 481 2648 825 
Q 2906 1169 2906 1791 
z
M 3481 434 
Q 3481 -459 3084 -895 
Q 2688 -1331 1869 -1331 
Q 1566 -1331 1297 -1286 
Q 1028 -1241 775 -1147 
L 775 -588 
Q 1028 -725 1275 -790 
Q 1522 -856 1778 -856 
Q 2344 -856 2625 -561 
Q 2906 -266 2906 331 
L 2906 616 
Q 2728 306 2450 153 
Q 2172 0 1784 0 
Q 1141 0 747 490 
Q 353 981 353 1791 
Q 353 2603 747 3093 
Q 1141 3584 1784 3584 
Q 2172 3584 2450 3431 
Q 2728 3278 2906 2969 
L 2906 3500 
L 3481 3500 
L 3481 434 
z
" transform="scale(0.015625)"/>
       <path id="DejaVuSans-75" d="M 544 1381 
L 544 3500 
L 1119 3500 
L 1119 1403 
Q 1119 906 1312 657 
Q 1506 409 1894 409 
Q 2359 409 2629 706 
Q 2900 1003 2900 1516 
L 2900 3500 
L 3475 3500 
L 3475 0 
L 2900 0 
L 2900 538 
Q 2691 219 2414 64 
Q 2138 -91 1772 -91 
Q 1169 -91 856 284 
Q 544 659 544 1381 
z
M 1991 3584 
L 1991 3584 
z
" transform="scale(0.015625)"/>
       <path id="DejaVuSans-6c" d="M 603 4863 
L 1178 4863 
L 1178 0 
L 603 0 
L 603 4863 
z
" transform="scale(0.015625)"/>
       <path id="DejaVuSans-61" d="M 2194 1759 
Q 1497 1759 1228 1600 
Q 959 1441 959 1056 
Q 959 750 1161 570 
Q 1363 391 1709 391 
Q 2188 391 2477 730 
Q 2766 1069 2766 1631 
L 2766 1759 
L 2194 1759 
z
M 3341 1997 
L 3341 0 
L 2766 0 
L 2766 531 
Q 2569 213 2275 61 
Q 1981 -91 1556 -91 
Q 1019 -91 701 211 
Q 384 513 384 1019 
Q 384 1609 779 1909 
Q 1175 2209 1959 2209 
L 2766 2209 
L 2766 2266 
Q 2766 2663 2505 2880 
Q 2244 3097 1772 3097 
Q 1472 3097 1187 3025 
Q 903 2953 641 2809 
L 641 3341 
Q 956 3463 1253 3523 
Q 1550 3584 1831 3584 
Q 2591 3584 2966 3190 
Q 3341 2797 3341 1997 
z
" transform="scale(0.015625)"/>
      </defs>
      <use xlink:href="#DejaVuSans-72"/>
      <use xlink:href="#DejaVuSans-65" x="38.863281"/>
      <use xlink:href="#DejaVuSans-67" x="100.386719"/>
      <use xlink:href="#DejaVuSans-75" x="163.863281"/>
      <use xlink:href="#DejaVuSans-6c" x="227.242188"/>
      <use xlink:href="#DejaVuSans-61" x="255.025391"/>
      <use xlink:href="#DejaVuSans-72" x="316.304688"/>
     </g>
    </g>
    <g id="line2d_16">
     <path d="M 188.5025 107.195625 
L 224.5025 107.195625 
L 260.5025 107.195625 
" style="fill: none; stroke: #ff7f0e; stroke-width: 8; stroke-linecap: square"/>
    </g>
    <g id="text_15">
     <!-- reversed -->
     <g transform="translate(289.3025 119.795625) scale(0.36 -0.36)">
      <defs>
       <path id="DejaVuSans-76" d="M 191 3500 
L 800 3500 
L 1894 563 
L 2988 3500 
L 3597 3500 
L 2284 0 
L 1503 0 
L 191 3500 
z
" transform="scale(0.015625)"/>
      </defs>
      <use xlink:href="#DejaVuSans-72"/>
      <use xlink:href="#DejaVuSans-65" x="38.863281"/>
      <use xlink:href="#DejaVuSans-76" x="100.386719"/>
      <use xlink:href="#DejaVuSans-65" x="159.566406"/>
      <use xlink:href="#DejaVuSans-72" x="221.089844"/>
      <use xlink:href="#DejaVuSans-73" x="262.203125"/>
      <use xlink:href="#DejaVuSans-65" x="314.302734"/>
      <use xlink:href="#DejaVuSans-64" x="375.826172"/>
     </g>
    </g>
    <g id="line2d_17">
     <path d="M 188.5025 160.036875 
L 224.5025 160.036875 
L 260.5025 160.036875 
" style="fill: none; stroke: #2ca02c; stroke-width: 8; stroke-linecap: square"/>
    </g>
    <g id="text_16">
     <!-- shortened -->
     <g transform="translate(289.3025 172.636875) scale(0.36 -0.36)">
      <defs>
       <path id="DejaVuSans-68" d="M 3513 2113 
L 3513 0 
L 2938 0 
L 2938 2094 
Q 2938 2591 2744 2837 
Q 2550 3084 2163 3084 
Q 1697 3084 1428 2787 
Q 1159 2491 1159 1978 
L 1159 0 
L 581 0 
L 581 4863 
L 1159 4863 
L 1159 2956 
Q 1366 3272 1645 3428 
Q 1925 3584 2291 3584 
Q 2894 3584 3203 3211 
Q 3513 2838 3513 2113 
z
" transform="scale(0.015625)"/>
       <path id="DejaVuSans-6f" d="M 1959 3097 
Q 1497 3097 1228 2736 
Q 959 2375 959 1747 
Q 959 1119 1226 758 
Q 1494 397 1959 397 
Q 2419 397 2687 759 
Q 2956 1122 2956 1747 
Q 2956 2369 2687 2733 
Q 2419 3097 1959 3097 
z
M 1959 3584 
Q 2709 3584 3137 3096 
Q 3566 2609 3566 1747 
Q 3566 888 3137 398 
Q 2709 -91 1959 -91 
Q 1206 -91 779 398 
Q 353 888 353 1747 
Q 353 2609 779 3096 
Q 1206 3584 1959 3584 
z
" transform="scale(0.015625)"/>
      </defs>
      <use xlink:href="#DejaVuSans-73"/>
      <use xlink:href="#DejaVuSans-68" x="52.099609"/>
      <use xlink:href="#DejaVuSans-6f" x="115.478516"/>
      <use xlink:href="#DejaVuSans-72" x="176.660156"/>
      <use xlink:href="#DejaVuSans-74" x="217.773438"/>
      <use xlink:href="#DejaVuSans-65" x="256.982422"/>
      <use xlink:href="#DejaVuSans-6e" x="318.505859"/>
      <use xlink:href="#DejaVuSans-65" x="381.884766"/>
      <use xlink:href="#DejaVuSans-64" x="443.408203"/>
     </g>
    </g>
   </g>
  </g>
 </g>
 <defs>
  <clipPath id="p3cad867a39">
   <rect x="156.1025" y="7.2" width="1082.52" height="598.752"/>
  </clipPath>
 </defs>
</svg>
