<?xml version="1.0" encoding="utf-8" standalone="no"?>
<!DOCTYPE svg PUBLIC "-//W3C//DTD SVG 1.1//EN"
  "http://www.w3.org/Graphics/SVG/1.1/DTD/svg11.dtd">
<svg xmlns:xlink="http://www.w3.org/1999/xlink" width="1255.445pt" height="705.44825pt" viewBox="0 0 1255.445 705.44825" xmlns="http://www.w3.org/2000/svg" version="1.1">
 <metadata>
  <rdf:RDF xmlns:dc="http://purl.org/dc/elements/1.1/" xmlns:cc="http://creativecommons.org/ns#" xmlns:rdf="http://www.w3.org/1999/02/22-rdf-syntax-ns#">
   <cc:Work>
    <dc:type rdf:resource="http://purl.org/dc/dcmitype/StillImage"/>
    <dc:date>2023-10-24T08:30:54.654606</dc:date>
    <dc:format>image/svg+xml</dc:format>
    <dc:creator>
     <cc:Agent>
      <dc:title>Matplotlib v3.8.0, https://matplotlib.org/</dc:title>
     </cc:Agent>
    </dc:creator>
   </cc:Work>
  </rdf:RDF>
 </metadata>
 <defs>
  <style type="text/css">*{stroke-linejoin: round; stroke-linecap: butt}</style>
 </defs>
 <g id="figure_1">
  <g id="patch_1">
   <path d="M 0 705.44825 
L 1255.445 705.44825 
L 1255.445 0 
L 0 0 
z
" style="fill: #ffffff"/>
  </g>
  <g id="axes_1">
   <g id="patch_2">
    <path d="M 152.36375 605.952 
L 1234.88375 605.952 
L 1234.88375 7.2 
L 152.36375 7.2 
z
" style="fill: #ffffff"/>
   </g>
   <g id="PolyCollection_1">
    <path d="M 152.36375 605.952 
L 152.36375 604.588143 
L 161.310196 604.582478 
L 170.256643 604.593489 
L 179.203089 604.62068 
L 188.149535 604.662932 
L 197.095981 604.718565 
L 206.042428 604.785413 
L 214.988874 604.860934 
L 223.93532 604.942325 
L 232.881767 605.026646 
L 241.828213 605.110934 
L 250.774659 605.192302 
L 259.721105 605.268027 
L 268.667552 605.335607 
L 277.613998 605.3928 
L 286.560444 605.437639 
L 295.50689 605.468432 
L 304.453337 605.483745 
L 313.399783 605.482377 
L 322.346229 605.463337 
L 331.292676 605.425814 
L 340.239122 605.369155 
L 349.185568 605.292855 
L 358.132014 605.196542 
L 367.078461 605.079984 
L 376.024907 604.943093 
L 384.971353 604.785946 
L 393.9178 604.608802 
L 402.864246 604.412135 
L 411.810692 604.196671 
L 420.757138 603.963425 
L 429.703585 603.713751 
L 438.650031 603.449392 
L 447.596477 603.172524 
L 456.542924 602.885805 
L 465.48937 602.592398 
L 474.435816 602.295984 
L 483.382262 602.00074 
L 492.328709 601.711278 
L 501.275155 601.432541 
L 510.221601 601.169646 
L 519.168048 600.927681 
L 528.114494 600.711455 
L 537.06094 600.525205 
L 546.007386 600.372291 
L 554.953833 600.254874 
L 563.900279 600.173616 
L 572.846725 600.127409 
L 581.793171 600.113164 
L 590.739618 600.125672 
L 599.686064 600.157549 
L 608.63251 600.199293 
L 617.578957 600.239434 
L 626.525403 600.264801 
L 635.471849 600.260892 
L 644.418295 600.212346 
L 653.364742 600.103497 
L 662.311188 599.919014 
L 671.257634 599.644581 
L 680.204081 599.267616 
L 689.150527 598.777995 
L 698.096973 598.168728 
L 707.043419 597.436587 
L 715.989866 596.582607 
L 724.936312 595.612442 
L 733.882758 594.536531 
L 742.829205 593.370035 
L 751.775651 592.132535 
L 760.722097 590.847464 
L 769.668543 589.5413 
L 778.61499 588.242532 
L 787.561436 586.980452 
L 796.507882 585.783852 
L 805.454329 584.679676 
L 814.400775 583.691745 
L 823.347221 582.839629 
L 832.293667 582.137747 
L 841.240114 581.594758 
L 850.18656 581.213284 
L 859.133006 580.989978 
L 868.079452 580.915907 
L 877.025899 580.977205 
L 885.972345 581.155917 
L 894.918791 581.430941 
L 903.865238 581.778973 
L 912.811684 582.175354 
L 921.75813 582.594746 
L 930.704576 583.011589 
L 939.651023 583.400303 
L 948.597469 583.73527 
L 957.543915 583.990612 
L 966.490362 584.13987 
L 975.436808 584.155629 
L 984.383254 584.009232 
L 993.3297 583.670636 
L 1002.276147 583.108514 
L 1011.222593 582.290662 
L 1020.169039 581.184735 
L 1029.115486 579.759336 
L 1038.061932 577.985433 
L 1047.008378 575.838056 
L 1055.954824 573.298223 
L 1064.901271 570.35498 
L 1073.847717 567.007488 
L 1082.794163 563.267003 
L 1091.74061 559.158645 
L 1100.687056 554.722801 
L 1109.633502 550.016019 
L 1118.579948 545.11126 
L 1127.526395 540.097368 
L 1136.472841 535.077666 
L 1145.419287 530.167601 
L 1154.365733 525.491449 
L 1163.31218 521.178125 
L 1172.258626 517.356246 
L 1181.205072 514.148672 
L 1190.151519 511.666806 
L 1199.097965 510.00501 
L 1208.044411 509.23552 
L 1216.990857 509.404229 
L 1225.937304 510.527696 
L 1234.88375 512.591636 
L 1234.88375 605.952 
L 1234.88375 605.952 
L 1225.937304 605.952 
L 1216.990857 605.952 
L 1208.044411 605.952 
L 1199.097965 605.952 
L 1190.151519 605.952 
L 1181.205072 605.952 
L 1172.258626 605.952 
L 1163.31218 605.952 
L 1154.365733 605.952 
L 1145.419287 605.952 
L 1136.472841 605.952 
L 1127.526395 605.952 
L 1118.579948 605.952 
L 1109.633502 605.952 
L 1100.687056 605.952 
L 1091.74061 605.952 
L 1082.794163 605.952 
L 1073.847717 605.952 
L 1064.901271 605.952 
L 1055.954824 605.952 
L 1047.008378 605.952 
L 1038.061932 605.952 
L 1029.115486 605.952 
L 1020.169039 605.952 
L 1011.222593 605.952 
L 1002.276147 605.952 
L 993.3297 605.952 
L 984.383254 605.952 
L 975.436808 605.952 
L 966.490362 605.952 
L 957.543915 605.952 
L 948.597469 605.952 
L 939.651023 605.952 
L 930.704576 605.952 
L 921.75813 605.952 
L 912.811684 605.952 
L 903.865238 605.952 
L 894.918791 605.952 
L 885.972345 605.952 
L 877.025899 605.952 
L 868.079452 605.952 
L 859.133006 605.952 
L 850.18656 605.952 
L 841.240114 605.952 
L 832.293667 605.952 
L 823.347221 605.952 
L 814.400775 605.952 
L 805.454329 605.952 
L 796.507882 605.952 
L 787.561436 605.952 
L 778.61499 605.952 
L 769.668543 605.952 
L 760.722097 605.952 
L 751.775651 605.952 
L 742.829205 605.952 
L 733.882758 605.952 
L 724.936312 605.952 
L 715.989866 605.952 
L 707.043419 605.952 
L 698.096973 605.952 
L 689.150527 605.952 
L 680.204081 605.952 
L 671.257634 605.952 
L 662.311188 605.952 
L 653.364742 605.952 
L 644.418295 605.952 
L 635.471849 605.952 
L 626.525403 605.952 
L 617.578957 605.952 
L 608.63251 605.952 
L 599.686064 605.952 
L 590.739618 605.952 
L 581.793171 605.952 
L 572.846725 605.952 
L 563.900279 605.952 
L 554.953833 605.952 
L 546.007386 605.952 
L 537.06094 605.952 
L 528.114494 605.952 
L 519.168048 605.952 
L 510.221601 605.952 
L 501.275155 605.952 
L 492.328709 605.952 
L 483.382262 605.952 
L 474.435816 605.952 
L 465.48937 605.952 
L 456.542924 605.952 
L 447.596477 605.952 
L 438.650031 605.952 
L 429.703585 605.952 
L 420.757138 605.952 
L 411.810692 605.952 
L 402.864246 605.952 
L 393.9178 605.952 
L 384.971353 605.952 
L 376.024907 605.952 
L 367.078461 605.952 
L 358.132014 605.952 
L 349.185568 605.952 
L 340.239122 605.952 
L 331.292676 605.952 
L 322.346229 605.952 
L 313.399783 605.952 
L 304.453337 605.952 
L 295.50689 605.952 
L 286.560444 605.952 
L 277.613998 605.952 
L 268.667552 605.952 
L 259.721105 605.952 
L 250.774659 605.952 
L 241.828213 605.952 
L 232.881767 605.952 
L 223.93532 605.952 
L 214.988874 605.952 
L 206.042428 605.952 
L 197.095981 605.952 
L 188.149535 605.952 
L 179.203089 605.952 
L 170.256643 605.952 
L 161.310196 605.952 
L 152.36375 605.952 
z
" clip-path="url(#p383b0dcad8)" style="fill: #1f77b4; fill-opacity: 0.4"/>
   </g>
   <g id="PolyCollection_2">
    <path d="M 805.454329 605.952 
L 805.454329 600.302715 
L 814.400775 599.985947 
L 823.347221 600.990057 
L 832.293667 602.701969 
L 841.240114 604.275536 
L 850.18656 605.270961 
L 859.133006 605.734118 
L 868.079452 605.897104 
L 877.025899 605.941107 
L 885.972345 605.950298 
L 894.918791 605.951788 
L 903.865238 605.951953 
L 912.811684 605.951726 
L 921.75813 605.949847 
L 930.704576 605.938609 
L 939.651023 605.886416 
L 948.597469 605.699048 
L 957.543915 605.183662 
L 966.490362 604.114034 
L 975.436808 602.489469 
L 984.383254 600.814866 
L 993.3297 599.949679 
L 1002.276147 600.428829 
L 1011.222593 601.949523 
L 1020.169039 603.667768 
L 1029.115486 604.92535 
L 1038.061932 605.588607 
L 1047.008378 605.850694 
L 1055.954824 605.929667 
L 1064.901271 605.947317 
L 1073.847717 605.94564 
L 1082.794163 605.91996 
L 1091.74061 605.813954 
L 1100.687056 605.482809 
L 1109.633502 604.696069 
L 1118.579948 603.304253 
L 1127.526395 601.554581 
L 1136.472841 600.189011 
L 1145.419287 599.929617 
L 1154.365733 600.597332 
L 1163.31218 600.458553 
L 1172.258626 595.56148 
L 1181.205072 578.154872 
L 1190.151519 534.849127 
L 1199.097965 448.903245 
L 1208.044411 313.13094 
L 1216.990857 151.566648 
L 1225.937304 26.991918 
L 1234.88375 7.2 
L 1234.88375 605.952 
L 1234.88375 605.952 
L 1225.937304 605.952 
L 1216.990857 605.952 
L 1208.044411 605.952 
L 1199.097965 605.952 
L 1190.151519 605.952 
L 1181.205072 605.952 
L 1172.258626 605.952 
L 1163.31218 605.952 
L 1154.365733 605.952 
L 1145.419287 605.952 
L 1136.472841 605.952 
L 1127.526395 605.952 
L 1118.579948 605.952 
L 1109.633502 605.952 
L 1100.687056 605.952 
L 1091.74061 605.952 
L 1082.794163 605.952 
L 1073.847717 605.952 
L 1064.901271 605.952 
L 1055.954824 605.952 
L 1047.008378 605.952 
L 1038.061932 605.952 
L 1029.115486 605.952 
L 1020.169039 605.952 
L 1011.222593 605.952 
L 1002.276147 605.952 
L 993.3297 605.952 
L 984.383254 605.952 
L 975.436808 605.952 
L 966.490362 605.952 
L 957.543915 605.952 
L 948.597469 605.952 
L 939.651023 605.952 
L 930.704576 605.952 
L 921.75813 605.952 
L 912.811684 605.952 
L 903.865238 605.952 
L 894.918791 605.952 
L 885.972345 605.952 
L 877.025899 605.952 
L 868.079452 605.952 
L 859.133006 605.952 
L 850.18656 605.952 
L 841.240114 605.952 
L 832.293667 605.952 
L 823.347221 605.952 
L 814.400775 605.952 
L 805.454329 605.952 
z
" clip-path="url(#p383b0dcad8)" style="fill: #ff7f0e; fill-opacity: 0.4"/>
   </g>
   <g id="matplotlib.axis_1">
    <g id="xtick_1">
     <g id="line2d_1">
      <defs>
       <path id="m9232921fa2" d="M 0 0 
L 0 3.5 
" style="stroke: #000000; stroke-width: 0.8"/>
      </defs>
      <g>
       <use xlink:href="#m9232921fa2" x="161.310196" y="605.952" style="stroke: #000000; stroke-width: 0.8"/>
      </g>
     </g>
     <g id="text_1">
      <!-- −120 -->
      <g transform="translate(103.629103 644.865437) scale(0.42 -0.42)">
       <defs>
        <path id="DejaVuSans-2212" d="M 678 2272 
L 4684 2272 
L 4684 1741 
L 678 1741 
L 678 2272 
z
" transform="scale(0.015625)"/>
        <path id="DejaVuSans-31" d="M 794 531 
L 1825 531 
L 1825 4091 
L 703 3866 
L 703 4441 
L 1819 4666 
L 2450 4666 
L 2450 531 
L 3481 531 
L 3481 0 
L 794 0 
L 794 531 
z
" transform="scale(0.015625)"/>
        <path id="DejaVuSans-32" d="M 1228 531 
L 3431 531 
L 3431 0 
L 469 0 
L 469 531 
Q 828 903 1448 1529 
Q 2069 2156 2228 2338 
Q 2531 2678 2651 2914 
Q 2772 3150 2772 3378 
Q 2772 3750 2511 3984 
Q 2250 4219 1831 4219 
Q 1534 4219 1204 4116 
Q 875 4013 500 3803 
L 500 4441 
Q 881 4594 1212 4672 
Q 1544 4750 1819 4750 
Q 2544 4750 2975 4387 
Q 3406 4025 3406 3419 
Q 3406 3131 3298 2873 
Q 3191 2616 2906 2266 
Q 2828 2175 2409 1742 
Q 1991 1309 1228 531 
z
" transform="scale(0.015625)"/>
        <path id="DejaVuSans-30" d="M 2034 4250 
Q 1547 4250 1301 3770 
Q 1056 3291 1056 2328 
Q 1056 1369 1301 889 
Q 1547 409 2034 409 
Q 2525 409 2770 889 
Q 3016 1369 3016 2328 
Q 3016 3291 2770 3770 
Q 2525 4250 2034 4250 
z
M 2034 4750 
Q 2819 4750 3233 4129 
Q 3647 3509 3647 2328 
Q 3647 1150 3233 529 
Q 2819 -91 2034 -91 
Q 1250 -91 836 529 
Q 422 1150 422 2328 
Q 422 3509 836 4129 
Q 1250 4750 2034 4750 
z
" transform="scale(0.015625)"/>
       </defs>
       <use xlink:href="#DejaVuSans-2212"/>
       <use xlink:href="#DejaVuSans-31" x="83.789062"/>
       <use xlink:href="#DejaVuSans-32" x="147.412109"/>
       <use xlink:href="#DejaVuSans-30" x="211.035156"/>
      </g>
     </g>
    </g>
    <g id="xtick_2">
     <g id="line2d_2">
      <g>
       <use xlink:href="#m9232921fa2" x="340.239122" y="605.952" style="stroke: #000000; stroke-width: 0.8"/>
      </g>
     </g>
     <g id="text_2">
      <!-- −100 -->
      <g transform="translate(282.558028 644.865437) scale(0.42 -0.42)">
       <use xlink:href="#DejaVuSans-2212"/>
       <use xlink:href="#DejaVuSans-31" x="83.789062"/>
       <use xlink:href="#DejaVuSans-30" x="147.412109"/>
       <use xlink:href="#DejaVuSans-30" x="211.035156"/>
      </g>
     </g>
    </g>
    <g id="xtick_3">
     <g id="line2d_3">
      <g>
       <use xlink:href="#m9232921fa2" x="519.168048" y="605.952" style="stroke: #000000; stroke-width: 0.8"/>
      </g>
     </g>
     <g id="text_3">
      <!-- −80 -->
      <g transform="translate(474.848204 644.865437) scale(0.42 -0.42)">
       <defs>
        <path id="DejaVuSans-38" d="M 2034 2216 
Q 1584 2216 1326 1975 
Q 1069 1734 1069 1313 
Q 1069 891 1326 650 
Q 1584 409 2034 409 
Q 2484 409 2743 651 
Q 3003 894 3003 1313 
Q 3003 1734 2745 1975 
Q 2488 2216 2034 2216 
z
M 1403 2484 
Q 997 2584 770 2862 
Q 544 3141 544 3541 
Q 544 4100 942 4425 
Q 1341 4750 2034 4750 
Q 2731 4750 3128 4425 
Q 3525 4100 3525 3541 
Q 3525 3141 3298 2862 
Q 3072 2584 2669 2484 
Q 3125 2378 3379 2068 
Q 3634 1759 3634 1313 
Q 3634 634 3220 271 
Q 2806 -91 2034 -91 
Q 1263 -91 848 271 
Q 434 634 434 1313 
Q 434 1759 690 2068 
Q 947 2378 1403 2484 
z
M 1172 3481 
Q 1172 3119 1398 2916 
Q 1625 2713 2034 2713 
Q 2441 2713 2670 2916 
Q 2900 3119 2900 3481 
Q 2900 3844 2670 4047 
Q 2441 4250 2034 4250 
Q 1625 4250 1398 4047 
Q 1172 3844 1172 3481 
z
" transform="scale(0.015625)"/>
       </defs>
       <use xlink:href="#DejaVuSans-2212"/>
       <use xlink:href="#DejaVuSans-38" x="83.789062"/>
       <use xlink:href="#DejaVuSans-30" x="147.412109"/>
      </g>
     </g>
    </g>
    <g id="xtick_4">
     <g id="line2d_4">
      <g>
       <use xlink:href="#m9232921fa2" x="698.096973" y="605.952" style="stroke: #000000; stroke-width: 0.8"/>
      </g>
     </g>
     <g id="text_4">
      <!-- −60 -->
      <g transform="translate(653.777129 644.865437) scale(0.42 -0.42)">
       <defs>
        <path id="DejaVuSans-36" d="M 2113 2584 
Q 1688 2584 1439 2293 
Q 1191 2003 1191 1497 
Q 1191 994 1439 701 
Q 1688 409 2113 409 
Q 2538 409 2786 701 
Q 3034 994 3034 1497 
Q 3034 2003 2786 2293 
Q 2538 2584 2113 2584 
z
M 3366 4563 
L 3366 3988 
Q 3128 4100 2886 4159 
Q 2644 4219 2406 4219 
Q 1781 4219 1451 3797 
Q 1122 3375 1075 2522 
Q 1259 2794 1537 2939 
Q 1816 3084 2150 3084 
Q 2853 3084 3261 2657 
Q 3669 2231 3669 1497 
Q 3669 778 3244 343 
Q 2819 -91 2113 -91 
Q 1303 -91 875 529 
Q 447 1150 447 2328 
Q 447 3434 972 4092 
Q 1497 4750 2381 4750 
Q 2619 4750 2861 4703 
Q 3103 4656 3366 4563 
z
" transform="scale(0.015625)"/>
       </defs>
       <use xlink:href="#DejaVuSans-2212"/>
       <use xlink:href="#DejaVuSans-36" x="83.789062"/>
       <use xlink:href="#DejaVuSans-30" x="147.412109"/>
      </g>
     </g>
    </g>
    <g id="xtick_5">
     <g id="line2d_5">
      <g>
       <use xlink:href="#m9232921fa2" x="877.025899" y="605.952" style="stroke: #000000; stroke-width: 0.8"/>
      </g>
     </g>
     <g id="text_5">
      <!-- −40 -->
      <g transform="translate(832.706055 644.865437) scale(0.42 -0.42)">
       <defs>
        <path id="DejaVuSans-34" d="M 2419 4116 
L 825 1625 
L 2419 1625 
L 2419 4116 
z
M 2253 4666 
L 3047 4666 
L 3047 1625 
L 3713 1625 
L 3713 1100 
L 3047 1100 
L 3047 0 
L 2419 0 
L 2419 1100 
L 313 1100 
L 313 1709 
L 2253 4666 
z
" transform="scale(0.015625)"/>
       </defs>
       <use xlink:href="#DejaVuSans-2212"/>
       <use xlink:href="#DejaVuSans-34" x="83.789062"/>
       <use xlink:href="#DejaVuSans-30" x="147.412109"/>
      </g>
     </g>
    </g>
    <g id="xtick_6">
     <g id="line2d_6">
      <g>
       <use xlink:href="#m9232921fa2" x="1055.954824" y="605.952" style="stroke: #000000; stroke-width: 0.8"/>
      </g>
     </g>
     <g id="text_6">
      <!-- −20 -->
      <g transform="translate(1011.634981 644.865437) scale(0.42 -0.42)">
       <use xlink:href="#DejaVuSans-2212"/>
       <use xlink:href="#DejaVuSans-32" x="83.789062"/>
       <use xlink:href="#DejaVuSans-30" x="147.412109"/>
      </g>
     </g>
    </g>
    <g id="xtick_7">
     <g id="line2d_7">
      <g>
       <use xlink:href="#m9232921fa2" x="1234.88375" y="605.952" style="stroke: #000000; stroke-width: 0.8"/>
      </g>
     </g>
     <g id="text_7">
      <!-- 0 -->
      <g transform="translate(1221.5225 644.865437) scale(0.42 -0.42)">
       <use xlink:href="#DejaVuSans-30"/>
      </g>
     </g>
    </g>
    <g id="text_8">
     <!-- $UID_{wordwise}$ -->
     <g transform="translate(586.10375 689.513562) scale(0.42 -0.42)">
      <defs>
       <path id="DejaVuSans-Oblique-55" d="M 991 4666 
L 1625 4666 
L 1075 1831 
Q 1041 1641 1027 1517 
Q 1013 1394 1013 1300 
Q 1013 869 1253 645 
Q 1494 422 1959 422 
Q 2563 422 2898 753 
Q 3234 1084 3378 1831 
L 3928 4666 
L 4563 4666 
L 4000 1753 
Q 3816 809 3300 359 
Q 2784 -91 1888 -91 
Q 1188 -91 780 261 
Q 372 613 372 1216 
Q 372 1325 387 1461 
Q 403 1597 434 1753 
L 991 4666 
z
" transform="scale(0.015625)"/>
       <path id="DejaVuSans-Oblique-49" d="M 1081 4666 
L 1716 4666 
L 806 0 
L 172 0 
L 1081 4666 
z
" transform="scale(0.015625)"/>
       <path id="DejaVuSans-Oblique-44" d="M 1081 4666 
L 2438 4666 
Q 3519 4666 4070 4208 
Q 4622 3750 4622 2847 
Q 4622 2250 4412 1698 
Q 4203 1147 3834 769 
Q 3463 381 2891 190 
Q 2319 0 1538 0 
L 172 0 
L 1081 4666 
z
M 1613 4147 
L 909 519 
L 1734 519 
Q 2794 519 3375 1128 
Q 3956 1738 3956 2847 
Q 3956 3519 3581 3833 
Q 3206 4147 2406 4147 
L 1613 4147 
z
" transform="scale(0.015625)"/>
       <path id="DejaVuSans-Oblique-77" d="M 544 3500 
L 1113 3500 
L 1259 684 
L 2566 3500 
L 3231 3500 
L 3425 684 
L 4666 3500 
L 5241 3500 
L 3641 0 
L 2969 0 
L 2797 2900 
L 1459 0 
L 781 0 
L 544 3500 
z
" transform="scale(0.015625)"/>
       <path id="DejaVuSans-Oblique-6f" d="M 1625 -91 
Q 1009 -91 651 289 
Q 294 669 294 1325 
Q 294 1706 417 2101 
Q 541 2497 738 2766 
Q 1047 3184 1428 3384 
Q 1809 3584 2291 3584 
Q 2888 3584 3255 3212 
Q 3622 2841 3622 2241 
Q 3622 1825 3500 1412 
Q 3378 1000 3181 728 
Q 2875 309 2494 109 
Q 2113 -91 1625 -91 
z
M 891 1344 
Q 891 869 1089 633 
Q 1288 397 1691 397 
Q 2269 397 2648 901 
Q 3028 1406 3028 2181 
Q 3028 2634 2825 2865 
Q 2622 3097 2228 3097 
Q 1903 3097 1650 2945 
Q 1397 2794 1197 2484 
Q 1050 2253 970 1956 
Q 891 1659 891 1344 
z
" transform="scale(0.015625)"/>
       <path id="DejaVuSans-Oblique-72" d="M 2853 2969 
Q 2766 3016 2653 3041 
Q 2541 3066 2413 3066 
Q 1953 3066 1609 2717 
Q 1266 2369 1153 1784 
L 800 0 
L 225 0 
L 909 3500 
L 1484 3500 
L 1375 2956 
Q 1603 3259 1920 3421 
Q 2238 3584 2597 3584 
Q 2691 3584 2781 3573 
Q 2872 3563 2963 3538 
L 2853 2969 
z
" transform="scale(0.015625)"/>
       <path id="DejaVuSans-Oblique-64" d="M 2675 525 
Q 2444 222 2128 65 
Q 1813 -91 1428 -91 
Q 903 -91 598 267 
Q 294 625 294 1247 
Q 294 1766 478 2236 
Q 663 2706 1013 3078 
Q 1244 3325 1534 3454 
Q 1825 3584 2144 3584 
Q 2481 3584 2739 3421 
Q 2997 3259 3138 2956 
L 3513 4863 
L 4091 4863 
L 3144 0 
L 2566 0 
L 2675 525 
z
M 891 1350 
Q 891 897 1095 644 
Q 1300 391 1663 391 
Q 1931 391 2161 520 
Q 2391 650 2566 903 
Q 2750 1166 2856 1509 
Q 2963 1853 2963 2188 
Q 2963 2622 2758 2865 
Q 2553 3109 2194 3109 
Q 1922 3109 1687 2981 
Q 1453 2853 1288 2613 
Q 1106 2353 998 2009 
Q 891 1666 891 1350 
z
" transform="scale(0.015625)"/>
       <path id="DejaVuSans-Oblique-69" d="M 1172 4863 
L 1747 4863 
L 1606 4134 
L 1031 4134 
L 1172 4863 
z
M 909 3500 
L 1484 3500 
L 800 0 
L 225 0 
L 909 3500 
z
" transform="scale(0.015625)"/>
       <path id="DejaVuSans-Oblique-73" d="M 3200 3397 
L 3091 2853 
Q 2863 2978 2609 3040 
Q 2356 3103 2088 3103 
Q 1634 3103 1373 2948 
Q 1113 2794 1113 2528 
Q 1113 2219 1719 2053 
Q 1766 2041 1788 2034 
L 1972 1978 
Q 2547 1819 2739 1644 
Q 2931 1469 2931 1166 
Q 2931 609 2489 259 
Q 2047 -91 1331 -91 
Q 1053 -91 747 -37 
Q 441 16 72 128 
L 184 722 
Q 500 559 806 475 
Q 1113 391 1394 391 
Q 1816 391 2080 572 
Q 2344 753 2344 1031 
Q 2344 1331 1650 1516 
L 1591 1531 
L 1394 1581 
Q 956 1697 753 1886 
Q 550 2075 550 2369 
Q 550 2928 970 3256 
Q 1391 3584 2113 3584 
Q 2397 3584 2667 3537 
Q 2938 3491 3200 3397 
z
" transform="scale(0.015625)"/>
       <path id="DejaVuSans-Oblique-65" d="M 3078 2063 
Q 3088 2113 3092 2166 
Q 3097 2219 3097 2272 
Q 3097 2653 2873 2875 
Q 2650 3097 2266 3097 
Q 1838 3097 1509 2826 
Q 1181 2556 1013 2059 
L 3078 2063 
z
M 3578 1613 
L 903 1613 
Q 884 1494 878 1425 
Q 872 1356 872 1306 
Q 872 872 1139 634 
Q 1406 397 1894 397 
Q 2269 397 2603 481 
Q 2938 566 3225 728 
L 3116 159 
Q 2806 34 2476 -28 
Q 2147 -91 1806 -91 
Q 1078 -91 686 257 
Q 294 606 294 1247 
Q 294 1794 489 2264 
Q 684 2734 1063 3103 
Q 1306 3334 1642 3459 
Q 1978 3584 2356 3584 
Q 2950 3584 3301 3228 
Q 3653 2872 3653 2272 
Q 3653 2128 3634 1964 
Q 3616 1800 3578 1613 
z
" transform="scale(0.015625)"/>
      </defs>
      <use xlink:href="#DejaVuSans-Oblique-55" transform="translate(0 0.09375)"/>
      <use xlink:href="#DejaVuSans-Oblique-49" transform="translate(73.193359 0.09375)"/>
      <use xlink:href="#DejaVuSans-Oblique-44" transform="translate(102.685547 0.09375)"/>
      <use xlink:href="#DejaVuSans-Oblique-77" transform="translate(179.6875 -16.3125) scale(0.7)"/>
      <use xlink:href="#DejaVuSans-Oblique-6f" transform="translate(236.938477 -16.3125) scale(0.7)"/>
      <use xlink:href="#DejaVuSans-Oblique-72" transform="translate(279.765625 -16.3125) scale(0.7)"/>
      <use xlink:href="#DejaVuSans-Oblique-64" transform="translate(308.544922 -16.3125) scale(0.7)"/>
      <use xlink:href="#DejaVuSans-Oblique-77" transform="translate(352.978516 -16.3125) scale(0.7)"/>
      <use xlink:href="#DejaVuSans-Oblique-69" transform="translate(410.229492 -16.3125) scale(0.7)"/>
      <use xlink:href="#DejaVuSans-Oblique-73" transform="translate(429.677734 -16.3125) scale(0.7)"/>
      <use xlink:href="#DejaVuSans-Oblique-65" transform="translate(466.147461 -16.3125) scale(0.7)"/>
     </g>
    </g>
   </g>
   <g id="matplotlib.axis_2">
    <g id="ytick_1">
     <g id="line2d_8">
      <defs>
       <path id="m4b04db0281" d="M 0 0 
L -3.5 0 
" style="stroke: #000000; stroke-width: 0.8"/>
      </defs>
      <g>
       <use xlink:href="#m4b04db0281" x="152.36375" y="605.952" style="stroke: #000000; stroke-width: 0.8"/>
      </g>
     </g>
     <g id="text_9">
      <!-- 0.00 -->
      <g transform="translate(51.848125 621.908719) scale(0.42 -0.42)">
       <defs>
        <path id="DejaVuSans-2e" d="M 684 794 
L 1344 794 
L 1344 0 
L 684 0 
L 684 794 
z
" transform="scale(0.015625)"/>
       </defs>
       <use xlink:href="#DejaVuSans-30"/>
       <use xlink:href="#DejaVuSans-2e" x="63.623047"/>
       <use xlink:href="#DejaVuSans-30" x="95.410156"/>
       <use xlink:href="#DejaVuSans-30" x="159.033203"/>
      </g>
     </g>
    </g>
    <g id="ytick_2">
     <g id="line2d_9">
      <g>
       <use xlink:href="#m4b04db0281" x="152.36375" y="538.036769" style="stroke: #000000; stroke-width: 0.8"/>
      </g>
     </g>
     <g id="text_10">
      <!-- 0.02 -->
      <g transform="translate(51.848125 553.993488) scale(0.42 -0.42)">
       <use xlink:href="#DejaVuSans-30"/>
       <use xlink:href="#DejaVuSans-2e" x="63.623047"/>
       <use xlink:href="#DejaVuSans-30" x="95.410156"/>
       <use xlink:href="#DejaVuSans-32" x="159.033203"/>
      </g>
     </g>
    </g>
    <g id="ytick_3">
     <g id="line2d_10">
      <g>
       <use xlink:href="#m4b04db0281" x="152.36375" y="470.121538" style="stroke: #000000; stroke-width: 0.8"/>
      </g>
     </g>
     <g id="text_11">
      <!-- 0.04 -->
      <g transform="translate(51.848125 486.078256) scale(0.42 -0.42)">
       <use xlink:href="#DejaVuSans-30"/>
       <use xlink:href="#DejaVuSans-2e" x="63.623047"/>
       <use xlink:href="#DejaVuSans-30" x="95.410156"/>
       <use xlink:href="#DejaVuSans-34" x="159.033203"/>
      </g>
     </g>
    </g>
    <g id="ytick_4">
     <g id="line2d_11">
      <g>
       <use xlink:href="#m4b04db0281" x="152.36375" y="402.206306" style="stroke: #000000; stroke-width: 0.8"/>
      </g>
     </g>
     <g id="text_12">
      <!-- 0.06 -->
      <g transform="translate(51.848125 418.163025) scale(0.42 -0.42)">
       <use xlink:href="#DejaVuSans-30"/>
       <use xlink:href="#DejaVuSans-2e" x="63.623047"/>
       <use xlink:href="#DejaVuSans-30" x="95.410156"/>
       <use xlink:href="#DejaVuSans-36" x="159.033203"/>
      </g>
     </g>
    </g>
    <g id="ytick_5">
     <g id="line2d_12">
      <g>
       <use xlink:href="#m4b04db0281" x="152.36375" y="334.291075" style="stroke: #000000; stroke-width: 0.8"/>
      </g>
     </g>
     <g id="text_13">
      <!-- 0.08 -->
      <g transform="translate(51.848125 350.247794) scale(0.42 -0.42)">
       <use xlink:href="#DejaVuSans-30"/>
       <use xlink:href="#DejaVuSans-2e" x="63.623047"/>
       <use xlink:href="#DejaVuSans-30" x="95.410156"/>
       <use xlink:href="#DejaVuSans-38" x="159.033203"/>
      </g>
     </g>
    </g>
    <g id="ytick_6">
     <g id="line2d_13">
      <g>
       <use xlink:href="#m4b04db0281" x="152.36375" y="266.375844" style="stroke: #000000; stroke-width: 0.8"/>
      </g>
     </g>
     <g id="text_14">
      <!-- 0.10 -->
      <g transform="translate(51.848125 282.332563) scale(0.42 -0.42)">
       <use xlink:href="#DejaVuSans-30"/>
       <use xlink:href="#DejaVuSans-2e" x="63.623047"/>
       <use xlink:href="#DejaVuSans-31" x="95.410156"/>
       <use xlink:href="#DejaVuSans-30" x="159.033203"/>
      </g>
     </g>
    </g>
    <g id="ytick_7">
     <g id="line2d_14">
      <g>
       <use xlink:href="#m4b04db0281" x="152.36375" y="198.460613" style="stroke: #000000; stroke-width: 0.8"/>
      </g>
     </g>
     <g id="text_15">
      <!-- 0.12 -->
      <g transform="translate(51.848125 214.417331) scale(0.42 -0.42)">
       <use xlink:href="#DejaVuSans-30"/>
       <use xlink:href="#DejaVuSans-2e" x="63.623047"/>
       <use xlink:href="#DejaVuSans-31" x="95.410156"/>
       <use xlink:href="#DejaVuSans-32" x="159.033203"/>
      </g>
     </g>
    </g>
    <g id="ytick_8">
     <g id="line2d_15">
      <g>
       <use xlink:href="#m4b04db0281" x="152.36375" y="130.545381" style="stroke: #000000; stroke-width: 0.8"/>
      </g>
     </g>
     <g id="text_16">
      <!-- 0.14 -->
      <g transform="translate(51.848125 146.5021) scale(0.42 -0.42)">
       <use xlink:href="#DejaVuSans-30"/>
       <use xlink:href="#DejaVuSans-2e" x="63.623047"/>
       <use xlink:href="#DejaVuSans-31" x="95.410156"/>
       <use xlink:href="#DejaVuSans-34" x="159.033203"/>
      </g>
     </g>
    </g>
    <g id="ytick_9">
     <g id="line2d_16">
      <g>
       <use xlink:href="#m4b04db0281" x="152.36375" y="62.63015" style="stroke: #000000; stroke-width: 0.8"/>
      </g>
     </g>
     <g id="text_17">
      <!-- 0.16 -->
      <g transform="translate(51.848125 78.586869) scale(0.42 -0.42)">
       <use xlink:href="#DejaVuSans-30"/>
       <use xlink:href="#DejaVuSans-2e" x="63.623047"/>
       <use xlink:href="#DejaVuSans-31" x="95.410156"/>
       <use xlink:href="#DejaVuSans-36" x="159.033203"/>
      </g>
     </g>
    </g>
    <g id="text_18">
     <!-- density -->
     <g transform="translate(39.113438 383.573812) rotate(-90) scale(0.42 -0.42)">
      <defs>
       <path id="DejaVuSans-64" d="M 2906 2969 
L 2906 4863 
L 3481 4863 
L 3481 0 
L 2906 0 
L 2906 525 
Q 2725 213 2448 61 
Q 2172 -91 1784 -91 
Q 1150 -91 751 415 
Q 353 922 353 1747 
Q 353 2572 751 3078 
Q 1150 3584 1784 3584 
Q 2172 3584 2448 3432 
Q 2725 3281 2906 2969 
z
M 947 1747 
Q 947 1113 1208 752 
Q 1469 391 1925 391 
Q 2381 391 2643 752 
Q 2906 1113 2906 1747 
Q 2906 2381 2643 2742 
Q 2381 3103 1925 3103 
Q 1469 3103 1208 2742 
Q 947 2381 947 1747 
z
" transform="scale(0.015625)"/>
       <path id="DejaVuSans-65" d="M 3597 1894 
L 3597 1613 
L 953 1613 
Q 991 1019 1311 708 
Q 1631 397 2203 397 
Q 2534 397 2845 478 
Q 3156 559 3463 722 
L 3463 178 
Q 3153 47 2828 -22 
Q 2503 -91 2169 -91 
Q 1331 -91 842 396 
Q 353 884 353 1716 
Q 353 2575 817 3079 
Q 1281 3584 2069 3584 
Q 2775 3584 3186 3129 
Q 3597 2675 3597 1894 
z
M 3022 2063 
Q 3016 2534 2758 2815 
Q 2500 3097 2075 3097 
Q 1594 3097 1305 2825 
Q 1016 2553 972 2059 
L 3022 2063 
z
" transform="scale(0.015625)"/>
       <path id="DejaVuSans-6e" d="M 3513 2113 
L 3513 0 
L 2938 0 
L 2938 2094 
Q 2938 2591 2744 2837 
Q 2550 3084 2163 3084 
Q 1697 3084 1428 2787 
Q 1159 2491 1159 1978 
L 1159 0 
L 581 0 
L 581 3500 
L 1159 3500 
L 1159 2956 
Q 1366 3272 1645 3428 
Q 1925 3584 2291 3584 
Q 2894 3584 3203 3211 
Q 3513 2838 3513 2113 
z
" transform="scale(0.015625)"/>
       <path id="DejaVuSans-73" d="M 2834 3397 
L 2834 2853 
Q 2591 2978 2328 3040 
Q 2066 3103 1784 3103 
Q 1356 3103 1142 2972 
Q 928 2841 928 2578 
Q 928 2378 1081 2264 
Q 1234 2150 1697 2047 
L 1894 2003 
Q 2506 1872 2764 1633 
Q 3022 1394 3022 966 
Q 3022 478 2636 193 
Q 2250 -91 1575 -91 
Q 1294 -91 989 -36 
Q 684 19 347 128 
L 347 722 
Q 666 556 975 473 
Q 1284 391 1588 391 
Q 1994 391 2212 530 
Q 2431 669 2431 922 
Q 2431 1156 2273 1281 
Q 2116 1406 1581 1522 
L 1381 1569 
Q 847 1681 609 1914 
Q 372 2147 372 2553 
Q 372 3047 722 3315 
Q 1072 3584 1716 3584 
Q 2034 3584 2315 3537 
Q 2597 3491 2834 3397 
z
" transform="scale(0.015625)"/>
       <path id="DejaVuSans-69" d="M 603 3500 
L 1178 3500 
L 1178 0 
L 603 0 
L 603 3500 
z
M 603 4863 
L 1178 4863 
L 1178 4134 
L 603 4134 
L 603 4863 
z
" transform="scale(0.015625)"/>
       <path id="DejaVuSans-74" d="M 1172 4494 
L 1172 3500 
L 2356 3500 
L 2356 3053 
L 1172 3053 
L 1172 1153 
Q 1172 725 1289 603 
Q 1406 481 1766 481 
L 2356 481 
L 2356 0 
L 1766 0 
Q 1100 0 847 248 
Q 594 497 594 1153 
L 594 3053 
L 172 3053 
L 172 3500 
L 594 3500 
L 594 4494 
L 1172 4494 
z
" transform="scale(0.015625)"/>
       <path id="DejaVuSans-79" d="M 2059 -325 
Q 1816 -950 1584 -1140 
Q 1353 -1331 966 -1331 
L 506 -1331 
L 506 -850 
L 844 -850 
Q 1081 -850 1212 -737 
Q 1344 -625 1503 -206 
L 1606 56 
L 191 3500 
L 800 3500 
L 1894 763 
L 2988 3500 
L 3597 3500 
L 2059 -325 
z
" transform="scale(0.015625)"/>
      </defs>
      <use xlink:href="#DejaVuSans-64"/>
      <use xlink:href="#DejaVuSans-65" x="63.476562"/>
      <use xlink:href="#DejaVuSans-6e" x="125"/>
      <use xlink:href="#DejaVuSans-73" x="188.378906"/>
      <use xlink:href="#DejaVuSans-69" x="240.478516"/>
      <use xlink:href="#DejaVuSans-74" x="268.261719"/>
      <use xlink:href="#DejaVuSans-79" x="307.470703"/>
     </g>
    </g>
   </g>
   <g id="line2d_17">
    <path d="M 152.36375 604.588143 
L 161.310196 604.582478 
L 170.256643 604.593489 
L 179.203089 604.62068 
L 188.149535 604.662932 
L 197.095981 604.718565 
L 206.042428 604.785413 
L 214.988874 604.860934 
L 223.93532 604.942325 
L 232.881767 605.026646 
L 241.828213 605.110934 
L 250.774659 605.192302 
L 259.721105 605.268027 
L 268.667552 605.335607 
L 277.613998 605.3928 
L 286.560444 605.437639 
L 295.50689 605.468432 
L 304.453337 605.483745 
L 313.399783 605.482377 
L 322.346229 605.463337 
L 331.292676 605.425814 
L 340.239122 605.369155 
L 349.185568 605.292855 
L 358.132014 605.196542 
L 367.078461 605.079984 
L 376.024907 604.943093 
L 384.971353 604.785946 
L 393.9178 604.608802 
L 402.864246 604.412135 
L 411.810692 604.196671 
L 420.757138 603.963425 
L 429.703585 603.713751 
L 438.650031 603.449392 
L 447.596477 603.172524 
L 456.542924 602.885805 
L 465.48937 602.592398 
L 474.435816 602.295984 
L 483.382262 602.00074 
L 492.328709 601.711278 
L 501.275155 601.432541 
L 510.221601 601.169646 
L 519.168048 600.927681 
L 528.114494 600.711455 
L 537.06094 600.525205 
L 546.007386 600.372291 
L 554.953833 600.254874 
L 563.900279 600.173616 
L 572.846725 600.127409 
L 581.793171 600.113164 
L 590.739618 600.125672 
L 599.686064 600.157549 
L 608.63251 600.199293 
L 617.578957 600.239434 
L 626.525403 600.264801 
L 635.471849 600.260892 
L 644.418295 600.212346 
L 653.364742 600.103497 
L 662.311188 599.919014 
L 671.257634 599.644581 
L 680.204081 599.267616 
L 689.150527 598.777995 
L 698.096973 598.168728 
L 707.043419 597.436587 
L 715.989866 596.582607 
L 724.936312 595.612442 
L 733.882758 594.536531 
L 742.829205 593.370035 
L 751.775651 592.132535 
L 760.722097 590.847464 
L 769.668543 589.5413 
L 778.61499 588.242532 
L 787.561436 586.980452 
L 796.507882 585.783852 
L 805.454329 584.679676 
L 814.400775 583.691745 
L 823.347221 582.839629 
L 832.293667 582.137747 
L 841.240114 581.594758 
L 850.18656 581.213284 
L 859.133006 580.989978 
L 868.079452 580.915907 
L 877.025899 580.977205 
L 885.972345 581.155917 
L 894.918791 581.430941 
L 903.865238 581.778973 
L 912.811684 582.175354 
L 921.75813 582.594746 
L 930.704576 583.011589 
L 939.651023 583.400303 
L 948.597469 583.73527 
L 957.543915 583.990612 
L 966.490362 584.13987 
L 975.436808 584.155629 
L 984.383254 584.009232 
L 993.3297 583.670636 
L 1002.276147 583.108514 
L 1011.222593 582.290662 
L 1020.169039 581.184735 
L 1029.115486 579.759336 
L 1038.061932 577.985433 
L 1047.008378 575.838056 
L 1055.954824 573.298223 
L 1064.901271 570.35498 
L 1073.847717 567.007488 
L 1082.794163 563.267003 
L 1091.74061 559.158645 
L 1100.687056 554.722801 
L 1109.633502 550.016019 
L 1118.579948 545.11126 
L 1127.526395 540.097368 
L 1136.472841 535.077666 
L 1145.419287 530.167601 
L 1154.365733 525.491449 
L 1163.31218 521.178125 
L 1172.258626 517.356246 
L 1181.205072 514.148672 
L 1190.151519 511.666806 
L 1199.097965 510.00501 
L 1208.044411 509.23552 
L 1216.990857 509.404229 
L 1225.937304 510.527696 
L 1234.88375 512.591636 
" clip-path="url(#p383b0dcad8)" style="fill: none; stroke: #1f77b4; stroke-width: 1.5; stroke-linecap: square"/>
   </g>
   <g id="line2d_18">
    <path d="M 805.454329 600.302715 
L 814.400775 599.985947 
L 823.347221 600.990057 
L 832.293667 602.701969 
L 841.240114 604.275536 
L 850.18656 605.270961 
L 859.133006 605.734118 
L 868.079452 605.897104 
L 877.025899 605.941107 
L 885.972345 605.950298 
L 894.918791 605.951788 
L 903.865238 605.951953 
L 912.811684 605.951726 
L 921.75813 605.949847 
L 930.704576 605.938609 
L 939.651023 605.886416 
L 948.597469 605.699048 
L 957.543915 605.183662 
L 966.490362 604.114034 
L 975.436808 602.489469 
L 984.383254 600.814866 
L 993.3297 599.949679 
L 1002.276147 600.428829 
L 1011.222593 601.949523 
L 1020.169039 603.667768 
L 1029.115486 604.92535 
L 1038.061932 605.588607 
L 1047.008378 605.850694 
L 1055.954824 605.929667 
L 1064.901271 605.947317 
L 1073.847717 605.94564 
L 1082.794163 605.91996 
L 1091.74061 605.813954 
L 1100.687056 605.482809 
L 1109.633502 604.696069 
L 1118.579948 603.304253 
L 1127.526395 601.554581 
L 1136.472841 600.189011 
L 1145.419287 599.929617 
L 1154.365733 600.597332 
L 1163.31218 600.458553 
L 1172.258626 595.56148 
L 1181.205072 578.154872 
L 1190.151519 534.849127 
L 1199.097965 448.903245 
L 1208.044411 313.13094 
L 1216.990857 151.566648 
L 1225.937304 26.991918 
L 1234.88375 7.2 
" clip-path="url(#p383b0dcad8)" style="fill: none; stroke: #ff7f0e; stroke-width: 1.5; stroke-linecap: square"/>
   </g>
   <g id="patch_3">
    <path d="M 152.36375 605.952 
L 152.36375 7.2 
" style="fill: none; stroke: #000000; stroke-width: 0.8; stroke-linejoin: miter; stroke-linecap: square"/>
   </g>
   <g id="patch_4">
    <path d="M 1234.88375 605.952 
L 1234.88375 7.2 
" style="fill: none; stroke: #000000; stroke-width: 0.8; stroke-linejoin: miter; stroke-linecap: square"/>
   </g>
   <g id="patch_5">
    <path d="M 152.36375 605.952 
L 1234.88375 605.952 
" style="fill: none; stroke: #000000; stroke-width: 0.8; stroke-linejoin: miter; stroke-linecap: square"/>
   </g>
   <g id="patch_6">
    <path d="M 152.36375 7.2 
L 1234.88375 7.2 
" style="fill: none; stroke: #000000; stroke-width: 0.8; stroke-linejoin: miter; stroke-linecap: square"/>
   </g>
   <g id="legend_1">
    <g id="patch_7">
     <path d="M 181.76375 164.09625 
L 515.388125 164.09625 
Q 523.788125 164.09625 523.788125 155.69625 
L 523.788125 36.6 
Q 523.788125 28.2 515.388125 28.2 
L 181.76375 28.2 
Q 173.36375 28.2 173.36375 36.6 
L 173.36375 155.69625 
Q 173.36375 164.09625 181.76375 164.09625 
z
" style="fill: #ffffff; opacity: 0.8; stroke: #cccccc; stroke-linejoin: miter"/>
    </g>
    <g id="line2d_19">
     <path d="M 190.16375 62.213437 
L 232.16375 62.213437 
L 274.16375 62.213437 
" style="fill: none; stroke: #1f77b4; stroke-width: 1.5; stroke-linecap: square"/>
    </g>
    <g id="text_19">
     <!-- predicted -->
     <g transform="translate(307.76375 76.913437) scale(0.42 -0.42)">
      <defs>
       <path id="DejaVuSans-70" d="M 1159 525 
L 1159 -1331 
L 581 -1331 
L 581 3500 
L 1159 3500 
L 1159 2969 
Q 1341 3281 1617 3432 
Q 1894 3584 2278 3584 
Q 2916 3584 3314 3078 
Q 3713 2572 3713 1747 
Q 3713 922 3314 415 
Q 2916 -91 2278 -91 
Q 1894 -91 1617 61 
Q 1341 213 1159 525 
z
M 3116 1747 
Q 3116 2381 2855 2742 
Q 2594 3103 2138 3103 
Q 1681 3103 1420 2742 
Q 1159 2381 1159 1747 
Q 1159 1113 1420 752 
Q 1681 391 2138 391 
Q 2594 391 2855 752 
Q 3116 1113 3116 1747 
z
" transform="scale(0.015625)"/>
       <path id="DejaVuSans-72" d="M 2631 2963 
Q 2534 3019 2420 3045 
Q 2306 3072 2169 3072 
Q 1681 3072 1420 2755 
Q 1159 2438 1159 1844 
L 1159 0 
L 581 0 
L 581 3500 
L 1159 3500 
L 1159 2956 
Q 1341 3275 1631 3429 
Q 1922 3584 2338 3584 
Q 2397 3584 2469 3576 
Q 2541 3569 2628 3553 
L 2631 2963 
z
" transform="scale(0.015625)"/>
       <path id="DejaVuSans-63" d="M 3122 3366 
L 3122 2828 
Q 2878 2963 2633 3030 
Q 2388 3097 2138 3097 
Q 1578 3097 1268 2742 
Q 959 2388 959 1747 
Q 959 1106 1268 751 
Q 1578 397 2138 397 
Q 2388 397 2633 464 
Q 2878 531 3122 666 
L 3122 134 
Q 2881 22 2623 -34 
Q 2366 -91 2075 -91 
Q 1284 -91 818 406 
Q 353 903 353 1747 
Q 353 2603 823 3093 
Q 1294 3584 2113 3584 
Q 2378 3584 2631 3529 
Q 2884 3475 3122 3366 
z
" transform="scale(0.015625)"/>
      </defs>
      <use xlink:href="#DejaVuSans-70"/>
      <use xlink:href="#DejaVuSans-72" x="63.476562"/>
      <use xlink:href="#DejaVuSans-65" x="102.339844"/>
      <use xlink:href="#DejaVuSans-64" x="163.863281"/>
      <use xlink:href="#DejaVuSans-69" x="227.339844"/>
      <use xlink:href="#DejaVuSans-63" x="255.123047"/>
      <use xlink:href="#DejaVuSans-74" x="310.103516"/>
      <use xlink:href="#DejaVuSans-65" x="349.3125"/>
      <use xlink:href="#DejaVuSans-64" x="410.835938"/>
     </g>
    </g>
    <g id="line2d_20">
     <path d="M 190.16375 123.861563 
L 232.16375 123.861563 
L 274.16375 123.861563 
" style="fill: none; stroke: #ff7f0e; stroke-width: 1.5; stroke-linecap: square"/>
    </g>
    <g id="text_20">
     <!-- violation -->
     <g transform="translate(307.76375 138.561563) scale(0.42 -0.42)">
      <defs>
       <path id="DejaVuSans-76" d="M 191 3500 
L 800 3500 
L 1894 563 
L 2988 3500 
L 3597 3500 
L 2284 0 
L 1503 0 
L 191 3500 
z
" transform="scale(0.015625)"/>
       <path id="DejaVuSans-6f" d="M 1959 3097 
Q 1497 3097 1228 2736 
Q 959 2375 959 1747 
Q 959 1119 1226 758 
Q 1494 397 1959 397 
Q 2419 397 2687 759 
Q 2956 1122 2956 1747 
Q 2956 2369 2687 2733 
Q 2419 3097 1959 3097 
z
M 1959 3584 
Q 2709 3584 3137 3096 
Q 3566 2609 3566 1747 
Q 3566 888 3137 398 
Q 2709 -91 1959 -91 
Q 1206 -91 779 398 
Q 353 888 353 1747 
Q 353 2609 779 3096 
Q 1206 3584 1959 3584 
z
" transform="scale(0.015625)"/>
       <path id="DejaVuSans-6c" d="M 603 4863 
L 1178 4863 
L 1178 0 
L 603 0 
L 603 4863 
z
" transform="scale(0.015625)"/>
       <path id="DejaVuSans-61" d="M 2194 1759 
Q 1497 1759 1228 1600 
Q 959 1441 959 1056 
Q 959 750 1161 570 
Q 1363 391 1709 391 
Q 2188 391 2477 730 
Q 2766 1069 2766 1631 
L 2766 1759 
L 2194 1759 
z
M 3341 1997 
L 3341 0 
L 2766 0 
L 2766 531 
Q 2569 213 2275 61 
Q 1981 -91 1556 -91 
Q 1019 -91 701 211 
Q 384 513 384 1019 
Q 384 1609 779 1909 
Q 1175 2209 1959 2209 
L 2766 2209 
L 2766 2266 
Q 2766 2663 2505 2880 
Q 2244 3097 1772 3097 
Q 1472 3097 1187 3025 
Q 903 2953 641 2809 
L 641 3341 
Q 956 3463 1253 3523 
Q 1550 3584 1831 3584 
Q 2591 3584 2966 3190 
Q 3341 2797 3341 1997 
z
" transform="scale(0.015625)"/>
      </defs>
      <use xlink:href="#DejaVuSans-76"/>
      <use xlink:href="#DejaVuSans-69" x="59.179688"/>
      <use xlink:href="#DejaVuSans-6f" x="86.962891"/>
      <use xlink:href="#DejaVuSans-6c" x="148.144531"/>
      <use xlink:href="#DejaVuSans-61" x="175.927734"/>
      <use xlink:href="#DejaVuSans-74" x="237.207031"/>
      <use xlink:href="#DejaVuSans-69" x="276.416016"/>
      <use xlink:href="#DejaVuSans-6f" x="304.199219"/>
      <use xlink:href="#DejaVuSans-6e" x="365.380859"/>
     </g>
    </g>
   </g>
  </g>
 </g>
 <defs>
  <clipPath id="p383b0dcad8">
   <rect x="152.36375" y="7.2" width="1082.52" height="598.752"/>
  </clipPath>
 </defs>
</svg>
