<?xml version="1.0" encoding="utf-8" standalone="no"?>
<!DOCTYPE svg PUBLIC "-//W3C//DTD SVG 1.1//EN"
  "http://www.w3.org/Graphics/SVG/1.1/DTD/svg11.dtd">
<svg xmlns:xlink="http://www.w3.org/1999/xlink" width="1148.851875pt" height="649.315125pt" viewBox="0 0 1148.851875 649.315125" xmlns="http://www.w3.org/2000/svg" version="1.1">
 <metadata>
  <rdf:RDF xmlns:dc="http://purl.org/dc/elements/1.1/" xmlns:cc="http://creativecommons.org/ns#" xmlns:rdf="http://www.w3.org/1999/02/22-rdf-syntax-ns#">
   <cc:Work>
    <dc:type rdf:resource="http://purl.org/dc/dcmitype/StillImage"/>
    <dc:date>2023-06-09T18:53:17.687823</dc:date>
    <dc:format>image/svg+xml</dc:format>
    <dc:creator>
     <cc:Agent>
      <dc:title>Matplotlib v3.7.1, https://matplotlib.org/</dc:title>
     </cc:Agent>
    </dc:creator>
   </cc:Work>
  </rdf:RDF>
 </metadata>
 <defs>
  <style type="text/css">*{stroke-linejoin: round; stroke-linecap: butt}</style>
 </defs>
 <g id="figure_1">
  <g id="patch_1">
   <path d="M 0 649.315125 
L 1148.851875 649.315125 
L 1148.851875 0 
L 0 0 
z
" style="fill: #ffffff"/>
  </g>
  <g id="axes_1">
   <g id="patch_2">
    <path d="M 55.950625 605.952 
L 1138.470625 605.952 
L 1138.470625 7.2 
L 55.950625 7.2 
z
" style="fill: #ffffff"/>
   </g>
   <g id="PolyCollection_1">
    <path d="M 55.950625 605.952 
L 55.950625 600.199784 
L 66.163078 600.125048 
L 76.375531 600.215 
L 86.587983 600.462089 
L 96.800436 600.845975 
L 107.012889 601.3363 
L 117.225342 601.89664 
L 127.437795 602.488953 
L 137.650248 603.077751 
L 147.8627 603.633391 
L 158.075153 604.13411 
L 168.287606 604.566696 
L 178.500059 604.925972 
L 188.712512 605.213397 
L 198.924965 605.435227 
L 209.137417 605.600581 
L 219.34987 605.719733 
L 229.562323 605.802793 
L 239.774776 605.85884 
L 249.987229 605.895466 
L 260.199682 605.918652 
L 270.412134 605.932876 
L 280.624587 605.941327 
L 290.83704 605.94618 
L 301.049493 605.948846 
L 311.261946 605.950191 
L 321.474399 605.950689 
L 331.686851 605.950524 
L 341.899304 605.949633 
L 352.111757 605.947685 
L 362.32421 605.944006 
L 372.536663 605.937442 
L 382.749116 605.92615 
L 392.961568 605.90733 
L 403.174021 605.876903 
L 413.386474 605.829178 
L 423.598927 605.756547 
L 433.81138 605.649316 
L 444.023833 605.495743 
L 454.236285 605.282415 
L 464.448738 604.995034 
L 474.661191 604.619645 
L 484.873644 604.144262 
L 495.086097 603.560736 
L 505.29855 602.866616 
L 515.511002 602.066661 
L 525.723455 601.173664 
L 535.935908 600.208277 
L 546.148361 599.197651 
L 556.360814 598.172898 
L 566.573267 597.165565 
L 576.785719 596.20352 
L 586.998172 595.306758 
L 597.210625 594.483711 
L 607.423078 593.728578 
L 617.635531 593.020094 
L 627.847983 592.321933 
L 638.060436 591.584757 
L 648.272889 590.749668 
L 658.485342 589.752621 
L 668.697795 588.52924 
L 678.910248 587.019377 
L 689.1227 585.170848 
L 699.335153 582.941869 
L 709.547606 580.301995 
L 719.760059 577.231619 
L 729.972512 573.720366 
L 740.184965 569.764937 
L 750.397417 565.367059 
L 760.60987 560.532145 
L 770.822323 555.269109 
L 781.034776 549.591451 
L 791.247229 543.519414 
L 801.459682 537.082652 
L 811.672134 530.322644 
L 821.884587 523.294007 
L 832.09704 516.064013 
L 842.309493 508.709929 
L 852.521946 501.314232 
L 862.734399 493.958201 
L 872.946851 486.714697 
L 883.159304 479.641087 
L 893.371757 472.773119 
L 903.58421 466.120291 
L 913.796663 459.662847 
L 924.009116 453.350227 
L 934.221568 447.100632 
L 944.434021 440.801404 
L 954.646474 434.310185 
L 964.858927 427.457203 
L 975.07138 420.049521 
L 985.283833 411.878587 
L 995.496285 402.732802 
L 1005.708738 392.417007 
L 1015.921191 380.780358 
L 1026.133644 367.752939 
L 1036.346097 353.38929 
L 1046.55855 337.914039 
L 1056.771002 321.761522 
L 1066.983455 305.59871 
L 1077.195908 290.320025 
L 1087.408361 277.004924 
L 1097.620814 266.834757 
L 1107.833267 260.973612 
L 1118.045719 260.427145 
L 1128.258172 265.901012 
L 1138.470625 277.684227 
L 1138.470625 605.952 
L 1138.470625 605.952 
L 1128.258172 605.952 
L 1118.045719 605.952 
L 1107.833267 605.952 
L 1097.620814 605.952 
L 1087.408361 605.952 
L 1077.195908 605.952 
L 1066.983455 605.952 
L 1056.771002 605.952 
L 1046.55855 605.952 
L 1036.346097 605.952 
L 1026.133644 605.952 
L 1015.921191 605.952 
L 1005.708738 605.952 
L 995.496285 605.952 
L 985.283833 605.952 
L 975.07138 605.952 
L 964.858927 605.952 
L 954.646474 605.952 
L 944.434021 605.952 
L 934.221568 605.952 
L 924.009116 605.952 
L 913.796663 605.952 
L 903.58421 605.952 
L 893.371757 605.952 
L 883.159304 605.952 
L 872.946851 605.952 
L 862.734399 605.952 
L 852.521946 605.952 
L 842.309493 605.952 
L 832.09704 605.952 
L 821.884587 605.952 
L 811.672134 605.952 
L 801.459682 605.952 
L 791.247229 605.952 
L 781.034776 605.952 
L 770.822323 605.952 
L 760.60987 605.952 
L 750.397417 605.952 
L 740.184965 605.952 
L 729.972512 605.952 
L 719.760059 605.952 
L 709.547606 605.952 
L 699.335153 605.952 
L 689.1227 605.952 
L 678.910248 605.952 
L 668.697795 605.952 
L 658.485342 605.952 
L 648.272889 605.952 
L 638.060436 605.952 
L 627.847983 605.952 
L 617.635531 605.952 
L 607.423078 605.952 
L 597.210625 605.952 
L 586.998172 605.952 
L 576.785719 605.952 
L 566.573267 605.952 
L 556.360814 605.952 
L 546.148361 605.952 
L 535.935908 605.952 
L 525.723455 605.952 
L 515.511002 605.952 
L 505.29855 605.952 
L 495.086097 605.952 
L 484.873644 605.952 
L 474.661191 605.952 
L 464.448738 605.952 
L 454.236285 605.952 
L 444.023833 605.952 
L 433.81138 605.952 
L 423.598927 605.952 
L 413.386474 605.952 
L 403.174021 605.952 
L 392.961568 605.952 
L 382.749116 605.952 
L 372.536663 605.952 
L 362.32421 605.952 
L 352.111757 605.952 
L 341.899304 605.952 
L 331.686851 605.952 
L 321.474399 605.952 
L 311.261946 605.952 
L 301.049493 605.952 
L 290.83704 605.952 
L 280.624587 605.952 
L 270.412134 605.952 
L 260.199682 605.952 
L 249.987229 605.952 
L 239.774776 605.952 
L 229.562323 605.952 
L 219.34987 605.952 
L 209.137417 605.952 
L 198.924965 605.952 
L 188.712512 605.952 
L 178.500059 605.952 
L 168.287606 605.952 
L 158.075153 605.952 
L 147.8627 605.952 
L 137.650248 605.952 
L 127.437795 605.952 
L 117.225342 605.952 
L 107.012889 605.952 
L 96.800436 605.952 
L 86.587983 605.952 
L 76.375531 605.952 
L 66.163078 605.952 
L 55.950625 605.952 
z
" clip-path="url(#p3cedf10d9c)" style="fill: #1f77b4; fill-opacity: 0.4"/>
   </g>
   <g id="PolyCollection_2">
    <path d="M 689.1227 605.952 
L 689.1227 578.608337 
L 699.335153 576.133783 
L 709.547606 574.619608 
L 719.760059 574.094996 
L 729.972512 574.455402 
L 740.184965 575.491336 
L 750.397417 576.923988 
L 760.60987 578.43306 
L 770.822323 579.671829 
L 781.034776 580.276173 
L 791.247229 579.881172 
L 801.459682 578.157036 
L 811.672134 574.866233 
L 821.884587 569.930274 
L 832.09704 563.483654 
L 842.309493 555.889302 
L 852.521946 547.697135 
L 862.734399 539.544249 
L 872.946851 532.016688 
L 883.159304 525.510607 
L 893.371757 520.136288 
L 903.58421 515.697762 
L 913.796663 511.756681 
L 924.009116 507.761753 
L 934.221568 503.205941 
L 944.434021 497.769436 
L 954.646474 491.414724 
L 964.858927 484.412602 
L 975.07138 477.28711 
L 985.283833 470.672612 
L 995.496285 465.084382 
L 1005.708738 460.623392 
L 1015.921191 456.668239 
L 1026.133644 451.643993 
L 1036.346097 442.982433 
L 1046.55855 427.382138 
L 1056.771002 401.426253 
L 1066.983455 362.517356 
L 1077.195908 309.957151 
L 1087.408361 245.871808 
L 1097.620814 175.620808 
L 1107.833267 107.388815 
L 1118.045719 50.871443 
L 1128.258172 15.28119 
L 1138.470625 7.2 
L 1138.470625 605.952 
L 1138.470625 605.952 
L 1128.258172 605.952 
L 1118.045719 605.952 
L 1107.833267 605.952 
L 1097.620814 605.952 
L 1087.408361 605.952 
L 1077.195908 605.952 
L 1066.983455 605.952 
L 1056.771002 605.952 
L 1046.55855 605.952 
L 1036.346097 605.952 
L 1026.133644 605.952 
L 1015.921191 605.952 
L 1005.708738 605.952 
L 995.496285 605.952 
L 985.283833 605.952 
L 975.07138 605.952 
L 964.858927 605.952 
L 954.646474 605.952 
L 944.434021 605.952 
L 934.221568 605.952 
L 924.009116 605.952 
L 913.796663 605.952 
L 903.58421 605.952 
L 893.371757 605.952 
L 883.159304 605.952 
L 872.946851 605.952 
L 862.734399 605.952 
L 852.521946 605.952 
L 842.309493 605.952 
L 832.09704 605.952 
L 821.884587 605.952 
L 811.672134 605.952 
L 801.459682 605.952 
L 791.247229 605.952 
L 781.034776 605.952 
L 770.822323 605.952 
L 760.60987 605.952 
L 750.397417 605.952 
L 740.184965 605.952 
L 729.972512 605.952 
L 719.760059 605.952 
L 709.547606 605.952 
L 699.335153 605.952 
L 689.1227 605.952 
z
" clip-path="url(#p3cedf10d9c)" style="fill: #ff7f0e; fill-opacity: 0.4"/>
   </g>
   <g id="matplotlib.axis_1">
    <g id="xtick_1">
     <g id="line2d_1">
      <defs>
       <path id="m53b284b481" d="M 0 0 
L 0 3.5 
" style="stroke: #000000; stroke-width: 0.8"/>
      </defs>
      <g>
       <use xlink:href="#m53b284b481" x="117.225342" y="605.952" style="stroke: #000000; stroke-width: 0.8"/>
      </g>
     </g>
     <g id="text_1">
      <!-- −100 -->
      <g transform="translate(103.491748 620.550437) scale(0.1 -0.1)">
       <defs>
        <path id="DejaVuSans-2212" d="M 678 2272 
L 4684 2272 
L 4684 1741 
L 678 1741 
L 678 2272 
z
" transform="scale(0.015625)"/>
        <path id="DejaVuSans-31" d="M 794 531 
L 1825 531 
L 1825 4091 
L 703 3866 
L 703 4441 
L 1819 4666 
L 2450 4666 
L 2450 531 
L 3481 531 
L 3481 0 
L 794 0 
L 794 531 
z
" transform="scale(0.015625)"/>
        <path id="DejaVuSans-30" d="M 2034 4250 
Q 1547 4250 1301 3770 
Q 1056 3291 1056 2328 
Q 1056 1369 1301 889 
Q 1547 409 2034 409 
Q 2525 409 2770 889 
Q 3016 1369 3016 2328 
Q 3016 3291 2770 3770 
Q 2525 4250 2034 4250 
z
M 2034 4750 
Q 2819 4750 3233 4129 
Q 3647 3509 3647 2328 
Q 3647 1150 3233 529 
Q 2819 -91 2034 -91 
Q 1250 -91 836 529 
Q 422 1150 422 2328 
Q 422 3509 836 4129 
Q 1250 4750 2034 4750 
z
" transform="scale(0.015625)"/>
       </defs>
       <use xlink:href="#DejaVuSans-2212"/>
       <use xlink:href="#DejaVuSans-31" x="83.789062"/>
       <use xlink:href="#DejaVuSans-30" x="147.412109"/>
       <use xlink:href="#DejaVuSans-30" x="211.035156"/>
      </g>
     </g>
    </g>
    <g id="xtick_2">
     <g id="line2d_2">
      <g>
       <use xlink:href="#m53b284b481" x="321.474399" y="605.952" style="stroke: #000000; stroke-width: 0.8"/>
      </g>
     </g>
     <g id="text_2">
      <!-- −80 -->
      <g transform="translate(310.922055 620.550437) scale(0.1 -0.1)">
       <defs>
        <path id="DejaVuSans-38" d="M 2034 2216 
Q 1584 2216 1326 1975 
Q 1069 1734 1069 1313 
Q 1069 891 1326 650 
Q 1584 409 2034 409 
Q 2484 409 2743 651 
Q 3003 894 3003 1313 
Q 3003 1734 2745 1975 
Q 2488 2216 2034 2216 
z
M 1403 2484 
Q 997 2584 770 2862 
Q 544 3141 544 3541 
Q 544 4100 942 4425 
Q 1341 4750 2034 4750 
Q 2731 4750 3128 4425 
Q 3525 4100 3525 3541 
Q 3525 3141 3298 2862 
Q 3072 2584 2669 2484 
Q 3125 2378 3379 2068 
Q 3634 1759 3634 1313 
Q 3634 634 3220 271 
Q 2806 -91 2034 -91 
Q 1263 -91 848 271 
Q 434 634 434 1313 
Q 434 1759 690 2068 
Q 947 2378 1403 2484 
z
M 1172 3481 
Q 1172 3119 1398 2916 
Q 1625 2713 2034 2713 
Q 2441 2713 2670 2916 
Q 2900 3119 2900 3481 
Q 2900 3844 2670 4047 
Q 2441 4250 2034 4250 
Q 1625 4250 1398 4047 
Q 1172 3844 1172 3481 
z
" transform="scale(0.015625)"/>
       </defs>
       <use xlink:href="#DejaVuSans-2212"/>
       <use xlink:href="#DejaVuSans-38" x="83.789062"/>
       <use xlink:href="#DejaVuSans-30" x="147.412109"/>
      </g>
     </g>
    </g>
    <g id="xtick_3">
     <g id="line2d_3">
      <g>
       <use xlink:href="#m53b284b481" x="525.723455" y="605.952" style="stroke: #000000; stroke-width: 0.8"/>
      </g>
     </g>
     <g id="text_3">
      <!-- −60 -->
      <g transform="translate(515.171111 620.550437) scale(0.1 -0.1)">
       <defs>
        <path id="DejaVuSans-36" d="M 2113 2584 
Q 1688 2584 1439 2293 
Q 1191 2003 1191 1497 
Q 1191 994 1439 701 
Q 1688 409 2113 409 
Q 2538 409 2786 701 
Q 3034 994 3034 1497 
Q 3034 2003 2786 2293 
Q 2538 2584 2113 2584 
z
M 3366 4563 
L 3366 3988 
Q 3128 4100 2886 4159 
Q 2644 4219 2406 4219 
Q 1781 4219 1451 3797 
Q 1122 3375 1075 2522 
Q 1259 2794 1537 2939 
Q 1816 3084 2150 3084 
Q 2853 3084 3261 2657 
Q 3669 2231 3669 1497 
Q 3669 778 3244 343 
Q 2819 -91 2113 -91 
Q 1303 -91 875 529 
Q 447 1150 447 2328 
Q 447 3434 972 4092 
Q 1497 4750 2381 4750 
Q 2619 4750 2861 4703 
Q 3103 4656 3366 4563 
z
" transform="scale(0.015625)"/>
       </defs>
       <use xlink:href="#DejaVuSans-2212"/>
       <use xlink:href="#DejaVuSans-36" x="83.789062"/>
       <use xlink:href="#DejaVuSans-30" x="147.412109"/>
      </g>
     </g>
    </g>
    <g id="xtick_4">
     <g id="line2d_4">
      <g>
       <use xlink:href="#m53b284b481" x="729.972512" y="605.952" style="stroke: #000000; stroke-width: 0.8"/>
      </g>
     </g>
     <g id="text_4">
      <!-- −40 -->
      <g transform="translate(719.420168 620.550437) scale(0.1 -0.1)">
       <defs>
        <path id="DejaVuSans-34" d="M 2419 4116 
L 825 1625 
L 2419 1625 
L 2419 4116 
z
M 2253 4666 
L 3047 4666 
L 3047 1625 
L 3713 1625 
L 3713 1100 
L 3047 1100 
L 3047 0 
L 2419 0 
L 2419 1100 
L 313 1100 
L 313 1709 
L 2253 4666 
z
" transform="scale(0.015625)"/>
       </defs>
       <use xlink:href="#DejaVuSans-2212"/>
       <use xlink:href="#DejaVuSans-34" x="83.789062"/>
       <use xlink:href="#DejaVuSans-30" x="147.412109"/>
      </g>
     </g>
    </g>
    <g id="xtick_5">
     <g id="line2d_5">
      <g>
       <use xlink:href="#m53b284b481" x="934.221568" y="605.952" style="stroke: #000000; stroke-width: 0.8"/>
      </g>
     </g>
     <g id="text_5">
      <!-- −20 -->
      <g transform="translate(923.669225 620.550437) scale(0.1 -0.1)">
       <defs>
        <path id="DejaVuSans-32" d="M 1228 531 
L 3431 531 
L 3431 0 
L 469 0 
L 469 531 
Q 828 903 1448 1529 
Q 2069 2156 2228 2338 
Q 2531 2678 2651 2914 
Q 2772 3150 2772 3378 
Q 2772 3750 2511 3984 
Q 2250 4219 1831 4219 
Q 1534 4219 1204 4116 
Q 875 4013 500 3803 
L 500 4441 
Q 881 4594 1212 4672 
Q 1544 4750 1819 4750 
Q 2544 4750 2975 4387 
Q 3406 4025 3406 3419 
Q 3406 3131 3298 2873 
Q 3191 2616 2906 2266 
Q 2828 2175 2409 1742 
Q 1991 1309 1228 531 
z
" transform="scale(0.015625)"/>
       </defs>
       <use xlink:href="#DejaVuSans-2212"/>
       <use xlink:href="#DejaVuSans-32" x="83.789062"/>
       <use xlink:href="#DejaVuSans-30" x="147.412109"/>
      </g>
     </g>
    </g>
    <g id="xtick_6">
     <g id="line2d_6">
      <g>
       <use xlink:href="#m53b284b481" x="1138.470625" y="605.952" style="stroke: #000000; stroke-width: 0.8"/>
      </g>
     </g>
     <g id="text_6">
      <!-- 0 -->
      <g transform="translate(1135.289375 620.550437) scale(0.1 -0.1)">
       <use xlink:href="#DejaVuSans-30"/>
      </g>
     </g>
    </g>
    <g id="text_7">
     <!-- $UID_{wordwise}$ -->
     <g transform="translate(556.250625 638.787625) scale(0.16 -0.16)">
      <defs>
       <path id="DejaVuSans-Oblique-55" d="M 991 4666 
L 1625 4666 
L 1075 1831 
Q 1041 1641 1027 1517 
Q 1013 1394 1013 1300 
Q 1013 869 1253 645 
Q 1494 422 1959 422 
Q 2563 422 2898 753 
Q 3234 1084 3378 1831 
L 3928 4666 
L 4563 4666 
L 4000 1753 
Q 3816 809 3300 359 
Q 2784 -91 1888 -91 
Q 1188 -91 780 261 
Q 372 613 372 1216 
Q 372 1325 387 1461 
Q 403 1597 434 1753 
L 991 4666 
z
" transform="scale(0.015625)"/>
       <path id="DejaVuSans-Oblique-49" d="M 1081 4666 
L 1716 4666 
L 806 0 
L 172 0 
L 1081 4666 
z
" transform="scale(0.015625)"/>
       <path id="DejaVuSans-Oblique-44" d="M 1081 4666 
L 2438 4666 
Q 3519 4666 4070 4208 
Q 4622 3750 4622 2847 
Q 4622 2250 4412 1698 
Q 4203 1147 3834 769 
Q 3463 381 2891 190 
Q 2319 0 1538 0 
L 172 0 
L 1081 4666 
z
M 1613 4147 
L 909 519 
L 1734 519 
Q 2794 519 3375 1128 
Q 3956 1738 3956 2847 
Q 3956 3519 3581 3833 
Q 3206 4147 2406 4147 
L 1613 4147 
z
" transform="scale(0.015625)"/>
       <path id="DejaVuSans-Oblique-77" d="M 544 3500 
L 1113 3500 
L 1259 684 
L 2566 3500 
L 3231 3500 
L 3425 684 
L 4666 3500 
L 5241 3500 
L 3641 0 
L 2969 0 
L 2797 2900 
L 1459 0 
L 781 0 
L 544 3500 
z
" transform="scale(0.015625)"/>
       <path id="DejaVuSans-Oblique-6f" d="M 1625 -91 
Q 1009 -91 651 289 
Q 294 669 294 1325 
Q 294 1706 417 2101 
Q 541 2497 738 2766 
Q 1047 3184 1428 3384 
Q 1809 3584 2291 3584 
Q 2888 3584 3255 3212 
Q 3622 2841 3622 2241 
Q 3622 1825 3500 1412 
Q 3378 1000 3181 728 
Q 2875 309 2494 109 
Q 2113 -91 1625 -91 
z
M 891 1344 
Q 891 869 1089 633 
Q 1288 397 1691 397 
Q 2269 397 2648 901 
Q 3028 1406 3028 2181 
Q 3028 2634 2825 2865 
Q 2622 3097 2228 3097 
Q 1903 3097 1650 2945 
Q 1397 2794 1197 2484 
Q 1050 2253 970 1956 
Q 891 1659 891 1344 
z
" transform="scale(0.015625)"/>
       <path id="DejaVuSans-Oblique-72" d="M 2853 2969 
Q 2766 3016 2653 3041 
Q 2541 3066 2413 3066 
Q 1953 3066 1609 2717 
Q 1266 2369 1153 1784 
L 800 0 
L 225 0 
L 909 3500 
L 1484 3500 
L 1375 2956 
Q 1603 3259 1920 3421 
Q 2238 3584 2597 3584 
Q 2691 3584 2781 3573 
Q 2872 3563 2963 3538 
L 2853 2969 
z
" transform="scale(0.015625)"/>
       <path id="DejaVuSans-Oblique-64" d="M 2675 525 
Q 2444 222 2128 65 
Q 1813 -91 1428 -91 
Q 903 -91 598 267 
Q 294 625 294 1247 
Q 294 1766 478 2236 
Q 663 2706 1013 3078 
Q 1244 3325 1534 3454 
Q 1825 3584 2144 3584 
Q 2481 3584 2739 3421 
Q 2997 3259 3138 2956 
L 3513 4863 
L 4091 4863 
L 3144 0 
L 2566 0 
L 2675 525 
z
M 891 1350 
Q 891 897 1095 644 
Q 1300 391 1663 391 
Q 1931 391 2161 520 
Q 2391 650 2566 903 
Q 2750 1166 2856 1509 
Q 2963 1853 2963 2188 
Q 2963 2622 2758 2865 
Q 2553 3109 2194 3109 
Q 1922 3109 1687 2981 
Q 1453 2853 1288 2613 
Q 1106 2353 998 2009 
Q 891 1666 891 1350 
z
" transform="scale(0.015625)"/>
       <path id="DejaVuSans-Oblique-69" d="M 1172 4863 
L 1747 4863 
L 1606 4134 
L 1031 4134 
L 1172 4863 
z
M 909 3500 
L 1484 3500 
L 800 0 
L 225 0 
L 909 3500 
z
" transform="scale(0.015625)"/>
       <path id="DejaVuSans-Oblique-73" d="M 3200 3397 
L 3091 2853 
Q 2863 2978 2609 3040 
Q 2356 3103 2088 3103 
Q 1634 3103 1373 2948 
Q 1113 2794 1113 2528 
Q 1113 2219 1719 2053 
Q 1766 2041 1788 2034 
L 1972 1978 
Q 2547 1819 2739 1644 
Q 2931 1469 2931 1166 
Q 2931 609 2489 259 
Q 2047 -91 1331 -91 
Q 1053 -91 747 -37 
Q 441 16 72 128 
L 184 722 
Q 500 559 806 475 
Q 1113 391 1394 391 
Q 1816 391 2080 572 
Q 2344 753 2344 1031 
Q 2344 1331 1650 1516 
L 1591 1531 
L 1394 1581 
Q 956 1697 753 1886 
Q 550 2075 550 2369 
Q 550 2928 970 3256 
Q 1391 3584 2113 3584 
Q 2397 3584 2667 3537 
Q 2938 3491 3200 3397 
z
" transform="scale(0.015625)"/>
       <path id="DejaVuSans-Oblique-65" d="M 3078 2063 
Q 3088 2113 3092 2166 
Q 3097 2219 3097 2272 
Q 3097 2653 2873 2875 
Q 2650 3097 2266 3097 
Q 1838 3097 1509 2826 
Q 1181 2556 1013 2059 
L 3078 2063 
z
M 3578 1613 
L 903 1613 
Q 884 1494 878 1425 
Q 872 1356 872 1306 
Q 872 872 1139 634 
Q 1406 397 1894 397 
Q 2269 397 2603 481 
Q 2938 566 3225 728 
L 3116 159 
Q 2806 34 2476 -28 
Q 2147 -91 1806 -91 
Q 1078 -91 686 257 
Q 294 606 294 1247 
Q 294 1794 489 2264 
Q 684 2734 1063 3103 
Q 1306 3334 1642 3459 
Q 1978 3584 2356 3584 
Q 2950 3584 3301 3228 
Q 3653 2872 3653 2272 
Q 3653 2128 3634 1964 
Q 3616 1800 3578 1613 
z
" transform="scale(0.015625)"/>
      </defs>
      <use xlink:href="#DejaVuSans-Oblique-55" transform="translate(0 0.09375)"/>
      <use xlink:href="#DejaVuSans-Oblique-49" transform="translate(73.193359 0.09375)"/>
      <use xlink:href="#DejaVuSans-Oblique-44" transform="translate(102.685547 0.09375)"/>
      <use xlink:href="#DejaVuSans-Oblique-77" transform="translate(179.6875 -16.3125) scale(0.7)"/>
      <use xlink:href="#DejaVuSans-Oblique-6f" transform="translate(236.938477 -16.3125) scale(0.7)"/>
      <use xlink:href="#DejaVuSans-Oblique-72" transform="translate(279.765625 -16.3125) scale(0.7)"/>
      <use xlink:href="#DejaVuSans-Oblique-64" transform="translate(308.544922 -16.3125) scale(0.7)"/>
      <use xlink:href="#DejaVuSans-Oblique-77" transform="translate(352.978516 -16.3125) scale(0.7)"/>
      <use xlink:href="#DejaVuSans-Oblique-69" transform="translate(410.229492 -16.3125) scale(0.7)"/>
      <use xlink:href="#DejaVuSans-Oblique-73" transform="translate(429.677734 -16.3125) scale(0.7)"/>
      <use xlink:href="#DejaVuSans-Oblique-65" transform="translate(466.147461 -16.3125) scale(0.7)"/>
     </g>
    </g>
   </g>
   <g id="matplotlib.axis_2">
    <g id="ytick_1">
     <g id="line2d_7">
      <defs>
       <path id="mf34cff5f9e" d="M 0 0 
L -3.5 0 
" style="stroke: #000000; stroke-width: 0.8"/>
      </defs>
      <g>
       <use xlink:href="#mf34cff5f9e" x="55.950625" y="605.952" style="stroke: #000000; stroke-width: 0.8"/>
      </g>
     </g>
     <g id="text_8">
      <!-- 0.00 -->
      <g transform="translate(26.685 609.751219) scale(0.1 -0.1)">
       <defs>
        <path id="DejaVuSans-2e" d="M 684 794 
L 1344 794 
L 1344 0 
L 684 0 
L 684 794 
z
" transform="scale(0.015625)"/>
       </defs>
       <use xlink:href="#DejaVuSans-30"/>
       <use xlink:href="#DejaVuSans-2e" x="63.623047"/>
       <use xlink:href="#DejaVuSans-30" x="95.410156"/>
       <use xlink:href="#DejaVuSans-30" x="159.033203"/>
      </g>
     </g>
    </g>
    <g id="ytick_2">
     <g id="line2d_8">
      <g>
       <use xlink:href="#mf34cff5f9e" x="55.950625" y="510.722945" style="stroke: #000000; stroke-width: 0.8"/>
      </g>
     </g>
     <g id="text_9">
      <!-- 0.01 -->
      <g transform="translate(26.685 514.522163) scale(0.1 -0.1)">
       <use xlink:href="#DejaVuSans-30"/>
       <use xlink:href="#DejaVuSans-2e" x="63.623047"/>
       <use xlink:href="#DejaVuSans-30" x="95.410156"/>
       <use xlink:href="#DejaVuSans-31" x="159.033203"/>
      </g>
     </g>
    </g>
    <g id="ytick_3">
     <g id="line2d_9">
      <g>
       <use xlink:href="#mf34cff5f9e" x="55.950625" y="415.493889" style="stroke: #000000; stroke-width: 0.8"/>
      </g>
     </g>
     <g id="text_10">
      <!-- 0.02 -->
      <g transform="translate(26.685 419.293108) scale(0.1 -0.1)">
       <use xlink:href="#DejaVuSans-30"/>
       <use xlink:href="#DejaVuSans-2e" x="63.623047"/>
       <use xlink:href="#DejaVuSans-30" x="95.410156"/>
       <use xlink:href="#DejaVuSans-32" x="159.033203"/>
      </g>
     </g>
    </g>
    <g id="ytick_4">
     <g id="line2d_10">
      <g>
       <use xlink:href="#mf34cff5f9e" x="55.950625" y="320.264834" style="stroke: #000000; stroke-width: 0.8"/>
      </g>
     </g>
     <g id="text_11">
      <!-- 0.03 -->
      <g transform="translate(26.685 324.064053) scale(0.1 -0.1)">
       <defs>
        <path id="DejaVuSans-33" d="M 2597 2516 
Q 3050 2419 3304 2112 
Q 3559 1806 3559 1356 
Q 3559 666 3084 287 
Q 2609 -91 1734 -91 
Q 1441 -91 1130 -33 
Q 819 25 488 141 
L 488 750 
Q 750 597 1062 519 
Q 1375 441 1716 441 
Q 2309 441 2620 675 
Q 2931 909 2931 1356 
Q 2931 1769 2642 2001 
Q 2353 2234 1838 2234 
L 1294 2234 
L 1294 2753 
L 1863 2753 
Q 2328 2753 2575 2939 
Q 2822 3125 2822 3475 
Q 2822 3834 2567 4026 
Q 2313 4219 1838 4219 
Q 1578 4219 1281 4162 
Q 984 4106 628 3988 
L 628 4550 
Q 988 4650 1302 4700 
Q 1616 4750 1894 4750 
Q 2613 4750 3031 4423 
Q 3450 4097 3450 3541 
Q 3450 3153 3228 2886 
Q 3006 2619 2597 2516 
z
" transform="scale(0.015625)"/>
       </defs>
       <use xlink:href="#DejaVuSans-30"/>
       <use xlink:href="#DejaVuSans-2e" x="63.623047"/>
       <use xlink:href="#DejaVuSans-30" x="95.410156"/>
       <use xlink:href="#DejaVuSans-33" x="159.033203"/>
      </g>
     </g>
    </g>
    <g id="ytick_5">
     <g id="line2d_11">
      <g>
       <use xlink:href="#mf34cff5f9e" x="55.950625" y="225.035779" style="stroke: #000000; stroke-width: 0.8"/>
      </g>
     </g>
     <g id="text_12">
      <!-- 0.04 -->
      <g transform="translate(26.685 228.834998) scale(0.1 -0.1)">
       <use xlink:href="#DejaVuSans-30"/>
       <use xlink:href="#DejaVuSans-2e" x="63.623047"/>
       <use xlink:href="#DejaVuSans-30" x="95.410156"/>
       <use xlink:href="#DejaVuSans-34" x="159.033203"/>
      </g>
     </g>
    </g>
    <g id="ytick_6">
     <g id="line2d_12">
      <g>
       <use xlink:href="#mf34cff5f9e" x="55.950625" y="129.806724" style="stroke: #000000; stroke-width: 0.8"/>
      </g>
     </g>
     <g id="text_13">
      <!-- 0.05 -->
      <g transform="translate(26.685 133.605942) scale(0.1 -0.1)">
       <defs>
        <path id="DejaVuSans-35" d="M 691 4666 
L 3169 4666 
L 3169 4134 
L 1269 4134 
L 1269 2991 
Q 1406 3038 1543 3061 
Q 1681 3084 1819 3084 
Q 2600 3084 3056 2656 
Q 3513 2228 3513 1497 
Q 3513 744 3044 326 
Q 2575 -91 1722 -91 
Q 1428 -91 1123 -41 
Q 819 9 494 109 
L 494 744 
Q 775 591 1075 516 
Q 1375 441 1709 441 
Q 2250 441 2565 725 
Q 2881 1009 2881 1497 
Q 2881 1984 2565 2268 
Q 2250 2553 1709 2553 
Q 1456 2553 1204 2497 
Q 953 2441 691 2322 
L 691 4666 
z
" transform="scale(0.015625)"/>
       </defs>
       <use xlink:href="#DejaVuSans-30"/>
       <use xlink:href="#DejaVuSans-2e" x="63.623047"/>
       <use xlink:href="#DejaVuSans-30" x="95.410156"/>
       <use xlink:href="#DejaVuSans-35" x="159.033203"/>
      </g>
     </g>
    </g>
    <g id="ytick_7">
     <g id="line2d_13">
      <g>
       <use xlink:href="#mf34cff5f9e" x="55.950625" y="34.577668" style="stroke: #000000; stroke-width: 0.8"/>
      </g>
     </g>
     <g id="text_14">
      <!-- 0.06 -->
      <g transform="translate(26.685 38.376887) scale(0.1 -0.1)">
       <use xlink:href="#DejaVuSans-30"/>
       <use xlink:href="#DejaVuSans-2e" x="63.623047"/>
       <use xlink:href="#DejaVuSans-30" x="95.410156"/>
       <use xlink:href="#DejaVuSans-36" x="159.033203"/>
      </g>
     </g>
    </g>
    <g id="text_15">
     <!-- density -->
     <g transform="translate(19.3575 335.9085) rotate(-90) scale(0.16 -0.16)">
      <defs>
       <path id="DejaVuSans-64" d="M 2906 2969 
L 2906 4863 
L 3481 4863 
L 3481 0 
L 2906 0 
L 2906 525 
Q 2725 213 2448 61 
Q 2172 -91 1784 -91 
Q 1150 -91 751 415 
Q 353 922 353 1747 
Q 353 2572 751 3078 
Q 1150 3584 1784 3584 
Q 2172 3584 2448 3432 
Q 2725 3281 2906 2969 
z
M 947 1747 
Q 947 1113 1208 752 
Q 1469 391 1925 391 
Q 2381 391 2643 752 
Q 2906 1113 2906 1747 
Q 2906 2381 2643 2742 
Q 2381 3103 1925 3103 
Q 1469 3103 1208 2742 
Q 947 2381 947 1747 
z
" transform="scale(0.015625)"/>
       <path id="DejaVuSans-65" d="M 3597 1894 
L 3597 1613 
L 953 1613 
Q 991 1019 1311 708 
Q 1631 397 2203 397 
Q 2534 397 2845 478 
Q 3156 559 3463 722 
L 3463 178 
Q 3153 47 2828 -22 
Q 2503 -91 2169 -91 
Q 1331 -91 842 396 
Q 353 884 353 1716 
Q 353 2575 817 3079 
Q 1281 3584 2069 3584 
Q 2775 3584 3186 3129 
Q 3597 2675 3597 1894 
z
M 3022 2063 
Q 3016 2534 2758 2815 
Q 2500 3097 2075 3097 
Q 1594 3097 1305 2825 
Q 1016 2553 972 2059 
L 3022 2063 
z
" transform="scale(0.015625)"/>
       <path id="DejaVuSans-6e" d="M 3513 2113 
L 3513 0 
L 2938 0 
L 2938 2094 
Q 2938 2591 2744 2837 
Q 2550 3084 2163 3084 
Q 1697 3084 1428 2787 
Q 1159 2491 1159 1978 
L 1159 0 
L 581 0 
L 581 3500 
L 1159 3500 
L 1159 2956 
Q 1366 3272 1645 3428 
Q 1925 3584 2291 3584 
Q 2894 3584 3203 3211 
Q 3513 2838 3513 2113 
z
" transform="scale(0.015625)"/>
       <path id="DejaVuSans-73" d="M 2834 3397 
L 2834 2853 
Q 2591 2978 2328 3040 
Q 2066 3103 1784 3103 
Q 1356 3103 1142 2972 
Q 928 2841 928 2578 
Q 928 2378 1081 2264 
Q 1234 2150 1697 2047 
L 1894 2003 
Q 2506 1872 2764 1633 
Q 3022 1394 3022 966 
Q 3022 478 2636 193 
Q 2250 -91 1575 -91 
Q 1294 -91 989 -36 
Q 684 19 347 128 
L 347 722 
Q 666 556 975 473 
Q 1284 391 1588 391 
Q 1994 391 2212 530 
Q 2431 669 2431 922 
Q 2431 1156 2273 1281 
Q 2116 1406 1581 1522 
L 1381 1569 
Q 847 1681 609 1914 
Q 372 2147 372 2553 
Q 372 3047 722 3315 
Q 1072 3584 1716 3584 
Q 2034 3584 2315 3537 
Q 2597 3491 2834 3397 
z
" transform="scale(0.015625)"/>
       <path id="DejaVuSans-69" d="M 603 3500 
L 1178 3500 
L 1178 0 
L 603 0 
L 603 3500 
z
M 603 4863 
L 1178 4863 
L 1178 4134 
L 603 4134 
L 603 4863 
z
" transform="scale(0.015625)"/>
       <path id="DejaVuSans-74" d="M 1172 4494 
L 1172 3500 
L 2356 3500 
L 2356 3053 
L 1172 3053 
L 1172 1153 
Q 1172 725 1289 603 
Q 1406 481 1766 481 
L 2356 481 
L 2356 0 
L 1766 0 
Q 1100 0 847 248 
Q 594 497 594 1153 
L 594 3053 
L 172 3053 
L 172 3500 
L 594 3500 
L 594 4494 
L 1172 4494 
z
" transform="scale(0.015625)"/>
       <path id="DejaVuSans-79" d="M 2059 -325 
Q 1816 -950 1584 -1140 
Q 1353 -1331 966 -1331 
L 506 -1331 
L 506 -850 
L 844 -850 
Q 1081 -850 1212 -737 
Q 1344 -625 1503 -206 
L 1606 56 
L 191 3500 
L 800 3500 
L 1894 763 
L 2988 3500 
L 3597 3500 
L 2059 -325 
z
" transform="scale(0.015625)"/>
      </defs>
      <use xlink:href="#DejaVuSans-64"/>
      <use xlink:href="#DejaVuSans-65" x="63.476562"/>
      <use xlink:href="#DejaVuSans-6e" x="125"/>
      <use xlink:href="#DejaVuSans-73" x="188.378906"/>
      <use xlink:href="#DejaVuSans-69" x="240.478516"/>
      <use xlink:href="#DejaVuSans-74" x="268.261719"/>
      <use xlink:href="#DejaVuSans-79" x="307.470703"/>
     </g>
    </g>
   </g>
   <g id="line2d_14">
    <path d="M 55.950625 600.199784 
L 66.163078 600.125048 
L 76.375531 600.215 
L 86.587983 600.462089 
L 96.800436 600.845975 
L 107.012889 601.3363 
L 117.225342 601.89664 
L 127.437795 602.488953 
L 137.650248 603.077751 
L 147.8627 603.633391 
L 158.075153 604.13411 
L 168.287606 604.566696 
L 178.500059 604.925972 
L 188.712512 605.213397 
L 198.924965 605.435227 
L 209.137417 605.600581 
L 219.34987 605.719733 
L 229.562323 605.802793 
L 239.774776 605.85884 
L 249.987229 605.895466 
L 260.199682 605.918652 
L 270.412134 605.932876 
L 280.624587 605.941327 
L 290.83704 605.94618 
L 301.049493 605.948846 
L 311.261946 605.950191 
L 321.474399 605.950689 
L 331.686851 605.950524 
L 341.899304 605.949633 
L 352.111757 605.947685 
L 362.32421 605.944006 
L 372.536663 605.937442 
L 382.749116 605.92615 
L 392.961568 605.90733 
L 403.174021 605.876903 
L 413.386474 605.829178 
L 423.598927 605.756547 
L 433.81138 605.649316 
L 444.023833 605.495743 
L 454.236285 605.282415 
L 464.448738 604.995034 
L 474.661191 604.619645 
L 484.873644 604.144262 
L 495.086097 603.560736 
L 505.29855 602.866616 
L 515.511002 602.066661 
L 525.723455 601.173664 
L 535.935908 600.208277 
L 546.148361 599.197651 
L 556.360814 598.172898 
L 566.573267 597.165565 
L 576.785719 596.20352 
L 586.998172 595.306758 
L 597.210625 594.483711 
L 607.423078 593.728578 
L 617.635531 593.020094 
L 627.847983 592.321933 
L 638.060436 591.584757 
L 648.272889 590.749668 
L 658.485342 589.752621 
L 668.697795 588.52924 
L 678.910248 587.019377 
L 689.1227 585.170848 
L 699.335153 582.941869 
L 709.547606 580.301995 
L 719.760059 577.231619 
L 729.972512 573.720366 
L 740.184965 569.764937 
L 750.397417 565.367059 
L 760.60987 560.532145 
L 770.822323 555.269109 
L 781.034776 549.591451 
L 791.247229 543.519414 
L 801.459682 537.082652 
L 811.672134 530.322644 
L 821.884587 523.294007 
L 832.09704 516.064013 
L 842.309493 508.709929 
L 852.521946 501.314232 
L 862.734399 493.958201 
L 872.946851 486.714697 
L 883.159304 479.641087 
L 893.371757 472.773119 
L 903.58421 466.120291 
L 913.796663 459.662847 
L 924.009116 453.350227 
L 934.221568 447.100632 
L 944.434021 440.801404 
L 954.646474 434.310185 
L 964.858927 427.457203 
L 975.07138 420.049521 
L 985.283833 411.878587 
L 995.496285 402.732802 
L 1005.708738 392.417007 
L 1015.921191 380.780358 
L 1026.133644 367.752939 
L 1036.346097 353.38929 
L 1046.55855 337.914039 
L 1056.771002 321.761522 
L 1066.983455 305.59871 
L 1077.195908 290.320025 
L 1087.408361 277.004924 
L 1097.620814 266.834757 
L 1107.833267 260.973612 
L 1118.045719 260.427145 
L 1128.258172 265.901012 
L 1138.470625 277.684227 
" clip-path="url(#p3cedf10d9c)" style="fill: none; stroke: #1f77b4; stroke-width: 1.5; stroke-linecap: square"/>
   </g>
   <g id="line2d_15">
    <path d="M 689.1227 578.608337 
L 699.335153 576.133783 
L 709.547606 574.619608 
L 719.760059 574.094996 
L 729.972512 574.455402 
L 740.184965 575.491336 
L 750.397417 576.923988 
L 760.60987 578.43306 
L 770.822323 579.671829 
L 781.034776 580.276173 
L 791.247229 579.881172 
L 801.459682 578.157036 
L 811.672134 574.866233 
L 821.884587 569.930274 
L 832.09704 563.483654 
L 842.309493 555.889302 
L 852.521946 547.697135 
L 862.734399 539.544249 
L 872.946851 532.016688 
L 883.159304 525.510607 
L 893.371757 520.136288 
L 903.58421 515.697762 
L 913.796663 511.756681 
L 924.009116 507.761753 
L 934.221568 503.205941 
L 944.434021 497.769436 
L 954.646474 491.414724 
L 964.858927 484.412602 
L 975.07138 477.28711 
L 985.283833 470.672612 
L 995.496285 465.084382 
L 1005.708738 460.623392 
L 1015.921191 456.668239 
L 1026.133644 451.643993 
L 1036.346097 442.982433 
L 1046.55855 427.382138 
L 1056.771002 401.426253 
L 1066.983455 362.517356 
L 1077.195908 309.957151 
L 1087.408361 245.871808 
L 1097.620814 175.620808 
L 1107.833267 107.388815 
L 1118.045719 50.871443 
L 1128.258172 15.28119 
L 1138.470625 7.2 
" clip-path="url(#p3cedf10d9c)" style="fill: none; stroke: #ff7f0e; stroke-width: 1.5; stroke-linecap: square"/>
   </g>
   <g id="patch_3">
    <path d="M 55.950625 605.952 
L 55.950625 7.2 
" style="fill: none; stroke: #000000; stroke-width: 0.8; stroke-linejoin: miter; stroke-linecap: square"/>
   </g>
   <g id="patch_4">
    <path d="M 1138.470625 605.952 
L 1138.470625 7.2 
" style="fill: none; stroke: #000000; stroke-width: 0.8; stroke-linejoin: miter; stroke-linecap: square"/>
   </g>
   <g id="patch_5">
    <path d="M 55.950625 605.952 
L 1138.470625 605.952 
" style="fill: none; stroke: #000000; stroke-width: 0.8; stroke-linejoin: miter; stroke-linecap: square"/>
   </g>
   <g id="patch_6">
    <path d="M 55.950625 7.2 
L 1138.470625 7.2 
" style="fill: none; stroke: #000000; stroke-width: 0.8; stroke-linejoin: miter; stroke-linecap: square"/>
   </g>
   <g id="legend_1">
    <g id="patch_7">
     <path d="M 69.950625 81.9125 
L 228.819375 81.9125 
Q 232.819375 81.9125 232.819375 77.9125 
L 232.819375 21.2 
Q 232.819375 17.2 228.819375 17.2 
L 69.950625 17.2 
Q 65.950625 17.2 65.950625 21.2 
L 65.950625 77.9125 
Q 65.950625 81.9125 69.950625 81.9125 
z
" style="fill: #ffffff; opacity: 0.8; stroke: #cccccc; stroke-linejoin: miter"/>
    </g>
    <g id="line2d_16">
     <path d="M 73.950625 33.396875 
L 93.950625 33.396875 
L 113.950625 33.396875 
" style="fill: none; stroke: #1f77b4; stroke-width: 1.5; stroke-linecap: square"/>
    </g>
    <g id="text_16">
     <!-- predicted -->
     <g transform="translate(129.950625 40.396875) scale(0.2 -0.2)">
      <defs>
       <path id="DejaVuSans-70" d="M 1159 525 
L 1159 -1331 
L 581 -1331 
L 581 3500 
L 1159 3500 
L 1159 2969 
Q 1341 3281 1617 3432 
Q 1894 3584 2278 3584 
Q 2916 3584 3314 3078 
Q 3713 2572 3713 1747 
Q 3713 922 3314 415 
Q 2916 -91 2278 -91 
Q 1894 -91 1617 61 
Q 1341 213 1159 525 
z
M 3116 1747 
Q 3116 2381 2855 2742 
Q 2594 3103 2138 3103 
Q 1681 3103 1420 2742 
Q 1159 2381 1159 1747 
Q 1159 1113 1420 752 
Q 1681 391 2138 391 
Q 2594 391 2855 752 
Q 3116 1113 3116 1747 
z
" transform="scale(0.015625)"/>
       <path id="DejaVuSans-72" d="M 2631 2963 
Q 2534 3019 2420 3045 
Q 2306 3072 2169 3072 
Q 1681 3072 1420 2755 
Q 1159 2438 1159 1844 
L 1159 0 
L 581 0 
L 581 3500 
L 1159 3500 
L 1159 2956 
Q 1341 3275 1631 3429 
Q 1922 3584 2338 3584 
Q 2397 3584 2469 3576 
Q 2541 3569 2628 3553 
L 2631 2963 
z
" transform="scale(0.015625)"/>
       <path id="DejaVuSans-63" d="M 3122 3366 
L 3122 2828 
Q 2878 2963 2633 3030 
Q 2388 3097 2138 3097 
Q 1578 3097 1268 2742 
Q 959 2388 959 1747 
Q 959 1106 1268 751 
Q 1578 397 2138 397 
Q 2388 397 2633 464 
Q 2878 531 3122 666 
L 3122 134 
Q 2881 22 2623 -34 
Q 2366 -91 2075 -91 
Q 1284 -91 818 406 
Q 353 903 353 1747 
Q 353 2603 823 3093 
Q 1294 3584 2113 3584 
Q 2378 3584 2631 3529 
Q 2884 3475 3122 3366 
z
" transform="scale(0.015625)"/>
      </defs>
      <use xlink:href="#DejaVuSans-70"/>
      <use xlink:href="#DejaVuSans-72" x="63.476562"/>
      <use xlink:href="#DejaVuSans-65" x="102.339844"/>
      <use xlink:href="#DejaVuSans-64" x="163.863281"/>
      <use xlink:href="#DejaVuSans-69" x="227.339844"/>
      <use xlink:href="#DejaVuSans-63" x="255.123047"/>
      <use xlink:href="#DejaVuSans-74" x="310.103516"/>
      <use xlink:href="#DejaVuSans-65" x="349.3125"/>
      <use xlink:href="#DejaVuSans-64" x="410.835938"/>
     </g>
    </g>
    <g id="line2d_17">
     <path d="M 73.950625 62.753125 
L 93.950625 62.753125 
L 113.950625 62.753125 
" style="fill: none; stroke: #ff7f0e; stroke-width: 1.5; stroke-linecap: square"/>
    </g>
    <g id="text_17">
     <!-- violation -->
     <g transform="translate(129.950625 69.753125) scale(0.2 -0.2)">
      <defs>
       <path id="DejaVuSans-76" d="M 191 3500 
L 800 3500 
L 1894 563 
L 2988 3500 
L 3597 3500 
L 2284 0 
L 1503 0 
L 191 3500 
z
" transform="scale(0.015625)"/>
       <path id="DejaVuSans-6f" d="M 1959 3097 
Q 1497 3097 1228 2736 
Q 959 2375 959 1747 
Q 959 1119 1226 758 
Q 1494 397 1959 397 
Q 2419 397 2687 759 
Q 2956 1122 2956 1747 
Q 2956 2369 2687 2733 
Q 2419 3097 1959 3097 
z
M 1959 3584 
Q 2709 3584 3137 3096 
Q 3566 2609 3566 1747 
Q 3566 888 3137 398 
Q 2709 -91 1959 -91 
Q 1206 -91 779 398 
Q 353 888 353 1747 
Q 353 2609 779 3096 
Q 1206 3584 1959 3584 
z
" transform="scale(0.015625)"/>
       <path id="DejaVuSans-6c" d="M 603 4863 
L 1178 4863 
L 1178 0 
L 603 0 
L 603 4863 
z
" transform="scale(0.015625)"/>
       <path id="DejaVuSans-61" d="M 2194 1759 
Q 1497 1759 1228 1600 
Q 959 1441 959 1056 
Q 959 750 1161 570 
Q 1363 391 1709 391 
Q 2188 391 2477 730 
Q 2766 1069 2766 1631 
L 2766 1759 
L 2194 1759 
z
M 3341 1997 
L 3341 0 
L 2766 0 
L 2766 531 
Q 2569 213 2275 61 
Q 1981 -91 1556 -91 
Q 1019 -91 701 211 
Q 384 513 384 1019 
Q 384 1609 779 1909 
Q 1175 2209 1959 2209 
L 2766 2209 
L 2766 2266 
Q 2766 2663 2505 2880 
Q 2244 3097 1772 3097 
Q 1472 3097 1187 3025 
Q 903 2953 641 2809 
L 641 3341 
Q 956 3463 1253 3523 
Q 1550 3584 1831 3584 
Q 2591 3584 2966 3190 
Q 3341 2797 3341 1997 
z
" transform="scale(0.015625)"/>
      </defs>
      <use xlink:href="#DejaVuSans-76"/>
      <use xlink:href="#DejaVuSans-69" x="59.179688"/>
      <use xlink:href="#DejaVuSans-6f" x="86.962891"/>
      <use xlink:href="#DejaVuSans-6c" x="148.144531"/>
      <use xlink:href="#DejaVuSans-61" x="175.927734"/>
      <use xlink:href="#DejaVuSans-74" x="237.207031"/>
      <use xlink:href="#DejaVuSans-69" x="276.416016"/>
      <use xlink:href="#DejaVuSans-6f" x="304.199219"/>
      <use xlink:href="#DejaVuSans-6e" x="365.380859"/>
     </g>
    </g>
   </g>
  </g>
 </g>
 <defs>
  <clipPath id="p3cedf10d9c">
   <rect x="55.950625" y="7.2" width="1082.52" height="598.752"/>
  </clipPath>
 </defs>
</svg>
